<svg width="125" height="116" viewBox="0 0 125 116" fill="none" xmlns="http://www.w3.org/2000/svg">
<path d="M3.05666 60.3245C2.25809 72.4888 9.91025 86.4184 25.4232 88.9695C27.9472 89.1277 28.8049 90.0839 28.5624 94.0706V108.982C28.7395 113.989 31.6878 114.085 36.0179 110.551L53.6758 92.1086C55.6618 89.6656 57.6938 89.0225 62.7009 88.9695H93.3078C105.458 88.9695 120.369 79.554 121.953 63.0713V30.5024C120.762 14.0239 110.824 4.92628 94.0926 3.0347H30.9168C16.3844 2.25198 4.33563 14.8243 3.05666 29.3252V60.3245Z" stroke="#36AF8D" stroke-width="4.70876"/>
<path d="M55.8111 42.4504L55.6632 23.6851C54.6619 17.0508 38.6416 17.0649 34.3028 26.2948C25.6341 27.7411 21.9632 32.9605 24.2901 38.4171C17.6182 43.1621 16.7457 48.7643 24.6328 54.0754C23.1891 59.8286 25.2944 63.8025 35.3072 66.175C41.6485 74.7159 54.3312 73.0552 56 66.4123L55.8802 51.2106M55.8111 42.4504L48.6574 42.2131L42.6498 37.7054M55.8111 42.4504L55.8802 51.2106M42.6498 37.7054C38.6447 40.0779 33.6383 35.8074 37.6434 33.435C41.6485 31.0625 46.9886 34.8585 42.6498 37.7054ZM55.8802 51.2106H39.9797M39.9797 51.2106C39.9797 47.4147 32.6371 47.1774 31.9696 51.2106C32.6371 55.2438 39.9797 54.5321 39.9797 51.2106Z" stroke="#36AF8D" stroke-width="3"/>
<path d="M96.1472 59.1484H89.3994L87.8456 54.1319H76.9247L75.3709 59.1484H68.6231L78.8337 29.5378H86.0254L96.1472 59.1484ZM82.3852 36.7296L78.5229 49.1154H86.2474L82.3852 36.7296ZM104.99 59.1484H98.7748V29.5378H104.99V59.1484Z" fill="#36AF8D"/>
</svg>
