<svg width="148" height="148" viewBox="0 0 148 148" fill="none" xmlns="http://www.w3.org/2000/svg">
<path d="M148 74C148 114.869 114.869 148 74 148C33.1309 148 0 114.869 0 74C0 33.1309 33.1309 0 74 0C114.869 0 148 33.1309 148 74ZM9.73036 74C9.73036 109.495 38.5049 138.27 74 138.27C109.495 138.27 138.27 109.495 138.27 74C138.27 38.5049 109.495 9.73036 74 9.73036C38.5049 9.73036 9.73036 38.5049 9.73036 74Z" fill="#B7B7B7"/>
<path d="M127.719 74.1024C126.503 59.8732 120.053 46.6006 109.617 36.8523C99.1801 27.104 85.499 21.5728 71.22 21.3287L71.0903 28.914C83.4918 29.126 95.3739 33.9299 104.438 42.3964C113.502 50.8628 119.104 62.3902 120.161 74.7484L127.719 74.1024Z" fill="#B7B7B7"/>
<path d="M19.1642 74.9558C20.9818 89.1208 27.9883 102.108 38.8283 111.406C49.6683 120.703 63.5714 125.65 77.848 125.289L77.6562 117.705C65.2569 118.019 53.182 113.722 43.7674 105.647C34.3527 97.5724 28.2675 86.2927 26.6889 73.9903L19.1642 74.9558Z" fill="#B7B7B7"/>
<path d="M93.1365 75.8793C95.3691 74.3897 95.3691 71.1087 93.1365 69.6192L61.3486 48.4115C58.8481 46.7433 55.4976 48.5357 55.4976 51.5416V93.9569C55.4976 96.9627 58.8481 98.7551 61.3486 97.0869L93.1365 75.8793Z" fill="#B7B7B7"/>
</svg>
