<svg width="23" height="23" viewBox="0 0 23 23" fill="none" xmlns="http://www.w3.org/2000/svg">
<circle cx="3.41767" cy="2.15302" r="1.27802" fill="#36AF8D"/>
<circle cx="10.6843" cy="2.08271" r="1.27802" fill="#36AF8D"/>
<circle cx="19.1931" cy="16.0749" r="1.27802" fill="#36AF8D"/>
<path d="M22.6246 16.073C22.6246 17.9687 21.0878 19.5054 19.1922 19.5054C17.2965 19.5054 15.7598 17.9687 15.7598 16.073C15.7598 14.1774 17.2965 12.6406 19.1922 12.6406C21.0878 12.6406 22.6246 14.1774 22.6246 16.073ZM16.7663 16.073C16.7663 17.4128 17.8524 18.4989 19.1922 18.4989C20.532 18.4989 21.6181 17.4128 21.6181 16.073C21.6181 14.7332 20.532 13.6471 19.1922 13.6471C17.8524 13.6471 16.7663 14.7332 16.7663 16.073Z" fill="#36AF8D"/>
<circle cx="16.582" cy="4.00484" r="1.44234" fill="#36AF8D"/>
<circle cx="20.5068" cy="7.48438" r="1.67969" fill="#36AF8D"/>
<circle cx="11.7603" cy="15.4293" r="1.40583" fill="#36AF8D"/>
<circle cx="15.1578" cy="10.7965" r="1.40583" fill="#36AF8D"/>
<rect x="17.1113" y="5.03906" width="0.839845" height="2.88468" transform="rotate(-46.6305 17.1113 5.03906)" fill="#36AF8D"/>
<rect x="16.2158" y="10.5234" width="0.839845" height="4.08215" transform="rotate(-122.882 16.2158 10.5234)" fill="#36AF8D"/>
<rect x="12.7695" y="14.8125" width="0.839845" height="3.53893" transform="rotate(-146.213 12.7695 14.8125)" fill="#36AF8D"/>
<path d="M2.54205 2.24896C-0.10571 1.51873 0.204937 11.542 7.06991 12.0715M7.06991 12.0715C13.4596 12.0715 14.1899 1.71941 11.3056 2.24896M7.06991 12.0715C5.11592 22.8433 14.6646 25.2168 17.8414 18.7537" stroke="#36AF8D" stroke-width="1.09926"/>
</svg>
