<svg width="63" height="130" viewBox="0 0 63 130" fill="none" xmlns="http://www.w3.org/2000/svg">
<path d="M17.5312 63.375C15.8893 53.5478 47.5312 54.875 45.5312 63.375H17.5312Z" fill="#36AF8D"/>
<path d="M18.0312 69.375C20.0312 77.375 42.5312 77.875 44.5312 69.375H18.0312Z" fill="#36AF8D"/>
<path d="M51.012 122.366C50.7736 129.326 62.0083 129.866 61.512 121.866C61.2594 93.4975 40.0083 91.8655 23.5083 80.8655C4.06166 68.6182 12.5382 55.3655 24.0083 47.8655C24.5084 47.8655 16.5494 41.8655 15.5382 42.3655C14.527 42.8655 -16.9651 63.875 16.0083 87.3655C44.8316 100.976 51.1371 108.597 51.012 122.366Z" fill="#36AF8D"/>
<path d="M17.5312 63.375C15.8893 53.5478 47.5312 54.875 45.5312 63.375H17.5312Z" stroke="#36AF8D"/>
<path d="M18.0312 69.375C20.0312 77.375 42.5312 77.875 44.5312 69.375H18.0312Z" stroke="#36AF8D"/>
<path d="M51.012 122.366C50.7736 129.326 62.0083 129.866 61.512 121.866C61.2594 93.4975 40.0083 91.8655 23.5083 80.8655C4.06166 68.6182 12.5382 55.3655 24.0083 47.8655C24.5084 47.8655 16.5494 41.8655 15.5382 42.3655C14.527 42.8655 -16.9651 63.875 16.0083 87.3655C44.8316 100.976 51.1371 108.597 51.012 122.366Z" stroke="#36AF8D"/>
<path d="M11.5505 7.23602C11.7889 0.275497 0.554222 -0.263977 1.05048 7.73602C1.30309 36.104 22.5542 37.736 39.0542 48.736C58.5008 60.9834 50.0243 74.236 38.5542 81.736C38.0541 81.736 46.0131 87.736 47.0243 87.236C48.0355 86.736 79.5276 65.7266 46.5542 42.236C17.7309 28.6258 11.4254 21.0044 11.5505 7.23602Z" fill="#36AF8D" stroke="#36AF8D"/>
<path d="M51.0764 10.8822V5.8822C50.7298 -0.629797 61.5893 -0.625 61.5764 5.8822C62.5605 19.875 51.5605 32.875 47.0605 35.875L37.5605 30.375C44.6361 24.8161 47.26 21.8337 49.0605 16.875H20.5605C18.0353 15.3178 17.4678 14.1323 18.5605 10.8822H50.5312H51.0764Z" fill="#36AF8D"/>
<path d="M18.5605 10.8822C17.4678 14.1323 18.0353 15.3178 20.5605 16.875H49.0605C47.26 21.8337 44.6361 24.8161 37.5605 30.375L47.0605 35.875C51.5605 32.875 62.5605 19.875 61.5764 5.8822C61.5893 -0.625 50.7298 -0.629797 51.0764 5.8822V10.8822H50.5312M18.5605 10.8822C18.9371 10.8822 40.0312 10.8822 50.5312 10.8822M18.5605 10.8822H50.5312" stroke="#36AF8D"/>
<path d="M11.5955 118.868V123.868C11.9421 130.38 1.08253 130.375 1.09549 123.868C0.111423 109.875 11.1114 96.875 15.6114 93.875L25.1114 99.375C18.0358 104.934 15.4119 107.916 13.6114 112.875H42.1114C44.6366 114.432 45.2041 115.618 44.1114 118.868H12.1406H11.5955Z" fill="#36AF8D"/>
<path d="M44.1114 118.868C45.2041 115.618 44.6366 114.432 42.1114 112.875H13.6114C15.4119 107.916 18.0358 104.934 25.1114 99.375L15.6114 93.875C11.1114 96.875 0.111423 109.875 1.09549 123.868C1.08253 130.375 11.9421 130.38 11.5955 123.868V118.868H12.1406M44.1114 118.868C43.7348 118.868 22.6406 118.868 12.1406 118.868M44.1114 118.868H12.1406" stroke="#36AF8D"/>
</svg>
