<svg width="119" height="118" viewBox="0 0 119 118" fill="none" xmlns="http://www.w3.org/2000/svg">
<path d="M66.5041 67.7981C69.3845 64.3527 78.2151 75.568 74.7201 77.3779L66.5041 67.7981Z" fill="#36AF8D"/>
<path d="M64.598 69.7297C62.4478 72.7614 68.8789 80.6062 72.3739 78.7963L64.598 69.7297Z" fill="#36AF8D"/>
<path d="M56.1456 96.5625C53.6942 98.5233 56.8062 102.525 59.3977 100.008C69.0292 91.5978 63.3519 83.8482 62.2738 74.9753C60.7579 64.7282 67.7793 63.7396 73.711 65.4632C73.8577 65.6343 73.5751 61.1507 73.1074 60.9515C72.6396 60.7522 56.2108 56.1424 57.8492 74.3165C61.6503 88.1716 60.893 92.5653 56.1456 96.5625Z" fill="#36AF8D"/>
<path d="M66.5041 67.7981C69.3845 64.3527 78.2151 75.568 74.7201 77.3779L66.5041 67.7981Z" stroke="#36AF8D" stroke-width="0.450728"/>
<path d="M64.598 69.7297C62.4478 72.7614 68.8789 80.6062 72.3739 78.7963L64.598 69.7297Z" stroke="#36AF8D" stroke-width="0.450728"/>
<path d="M56.1456 96.5625C53.6942 98.5233 56.8062 102.525 59.3977 100.008C69.0292 91.5978 63.3519 83.8482 62.2738 74.9753C60.7579 64.7282 67.7793 63.7396 73.711 65.4632C73.8577 65.6343 73.5751 61.1507 73.1074 60.9515C72.6396 60.7522 56.2108 56.1424 57.8492 74.3165C61.6503 88.1716 60.893 92.5653 56.1456 96.5625Z" stroke="#36AF8D" stroke-width="0.450728"/>
<path d="M83.9638 49.2735C86.4151 47.3126 83.3032 43.3105 80.7117 45.8278C71.0802 54.2381 76.7575 61.9877 77.8355 70.8607C79.3515 81.1077 72.33 82.0963 66.3984 80.3727C66.2517 80.2016 66.5342 84.6852 67.002 84.8845C67.4698 85.0837 83.8985 89.6935 82.2601 71.5194C78.4591 57.6643 79.2164 53.2707 83.9638 49.2735Z" fill="#36AF8D" stroke="#36AF8D" stroke-width="0.450728"/>
<path d="M94.3075 63.8618L96.0182 62.3947C98.1445 60.3653 101.329 64.0821 99.0992 65.9871C94.6005 70.4297 86.9251 70.4808 84.5782 69.8214L83.6724 64.9573C87.6505 65.747 89.4408 65.7696 91.6656 64.9306L83.3029 55.1797C83.0948 53.8589 83.3339 53.3169 84.7664 52.737L94.1476 63.6753L94.3075 63.8618Z" fill="#36AF8D"/>
<path d="M84.7664 52.737C83.3339 53.3169 83.0948 53.8589 83.3029 55.1797L91.6656 64.9306C89.4408 65.7696 87.6505 65.747 83.6724 64.9573L84.5782 69.8214C86.9251 70.4808 94.6005 70.4297 99.0992 65.9871C101.329 64.0821 98.1445 60.3653 96.0182 62.3947L94.3075 63.8618L94.1476 63.6753M84.7664 52.737C84.8769 52.8659 91.0666 60.0829 94.1476 63.6753M84.7664 52.737L94.1476 63.6753" stroke="#36AF8D" stroke-width="0.450728"/>
<path d="M45.7784 82.0444L44.0678 83.5116C41.9415 85.5409 38.7566 81.8241 40.9868 79.9191C45.4854 75.4766 53.1609 75.4255 55.5077 76.0848L56.4135 80.9489C52.4354 80.1593 50.6452 80.1367 48.4203 80.9757L56.783 90.7265C56.9912 92.0474 56.7521 92.5894 55.3195 93.1692L45.9384 82.2309L45.7784 82.0444Z" fill="#36AF8D"/>
<path d="M55.3195 93.1692C56.7521 92.5894 56.9912 92.0474 56.783 90.7265L48.4203 80.9757C50.6452 80.1367 52.4354 80.1593 56.4135 80.9489L55.5077 76.0848C53.1609 75.4255 45.4854 75.4766 40.9868 79.9191C38.7566 81.8241 41.9415 85.5409 44.0678 83.5116L45.7784 82.0444L45.9384 82.2309M55.3195 93.1692C55.209 93.0404 49.0194 85.8233 45.9384 82.2309M55.3195 93.1692L45.9384 82.2309" stroke="#36AF8D" stroke-width="0.450728"/>
<path d="M119 59C119 91.5848 92.3609 118 59.5 118C26.6391 118 0 91.5848 0 59C0 26.4152 26.6391 0 59.5 0C92.3609 0 119 26.4152 119 59ZM8.30478 59C8.30478 87.0367 31.2257 109.765 59.5 109.765C87.7743 109.765 110.695 87.0367 110.695 59C110.695 30.9633 87.7743 8.23499 59.5 8.23499C31.2257 8.23499 8.30478 30.9633 8.30478 59Z" fill="#36AF8D"/>
<path d="M59.0896 31.9224C64.0798 37.9565 61.3974 48.4121 53.0982 55.2755C44.7991 62.139 34.0259 62.8114 29.0356 56.7773C24.0454 50.7432 26.7278 40.2876 35.027 33.4242C43.3261 26.5607 54.0993 25.8884 59.0896 31.9224ZM36.393 50.6927C38.94 53.7724 44.4385 53.4292 48.6743 49.9262C52.9101 46.4232 54.2792 41.0868 51.7322 38.007C49.1852 34.9273 43.6867 35.2705 39.4509 38.7735C35.2151 42.2765 33.846 47.6129 36.393 50.6927Z" fill="#36AF8D"/>
<ellipse cx="30.7636" cy="69.7508" rx="3.43635" ry="3.31946" transform="rotate(-39.591 30.7636 69.7508)" fill="#36AF8D"/>
<ellipse cx="74.7636" cy="34.7508" rx="3.43635" ry="3.31946" transform="rotate(-39.591 74.7636 34.7508)" fill="#36AF8D"/>
</svg>
