<svg width="19" height="23" viewBox="0 0 19 23" fill="none" xmlns="http://www.w3.org/2000/svg">
<path d="M12.3471 1.05469H2.1557C0.75 1.05469 0.75 1.05469 0.75 3.30381L0.75 20.8746C0.75 22.2803 1.87566 22.2803 3.07051 21.3666L8.41218 17.7117C9.18532 17.2197 9.2556 17.2197 9.81789 17.7117L15.3001 21.6477C16.4247 22.2803 16.987 21.9991 17.1275 20.734V5.9741" stroke="#36AF8D" stroke-width="1.33786"/>
<rect x="15.1602" width="0.843422" height="5.34167" rx="0.421711" fill="#36AF8D"/>
<rect x="10.0977" y="4.49219" width="0.843422" height="4.07654" rx="0.421711" fill="#36AF8D"/>
<rect x="10.9414" y="4.49219" width="0.843422" height="3.7954" rx="0.421711" transform="rotate(90 10.9414 4.49219)" fill="#36AF8D"/>
<rect x="7.98828" y="8.57031" width="0.843422" height="4.07654" rx="0.421711" transform="rotate(180 7.98828 8.57031)" fill="#36AF8D"/>
<rect x="7.98828" y="15.0469" width="0.843422" height="4.07654" rx="0.421711" transform="rotate(180 7.98828 15.0469)" fill="#36AF8D"/>
<rect x="7.14453" y="15.0469" width="0.843422" height="3.7954" rx="0.421711" transform="rotate(-90 7.14453 15.0469)" fill="#36AF8D"/>
<rect x="10.0977" y="10.9688" width="0.843422" height="4.07654" rx="0.421711" fill="#36AF8D"/>
<rect x="3.91406" y="8.57031" width="0.843422" height="4.07654" rx="0.421711" transform="rotate(-90 3.91406 8.57031)" fill="#36AF8D"/>
<rect x="3.91406" y="11.8047" width="0.843422" height="4.07654" rx="0.421711" transform="rotate(-90 3.91406 11.8047)" fill="#36AF8D"/>
<rect x="3.91406" y="7.72656" width="0.843422" height="4.07654" rx="0.421711" fill="#36AF8D"/>
<rect x="14.1758" y="10.9688" width="0.843422" height="4.07654" rx="0.421711" transform="rotate(90 14.1758 10.9688)" fill="#36AF8D"/>
<rect x="14.1758" y="7.73438" width="0.843422" height="4.07654" rx="0.421711" transform="rotate(90 14.1758 7.73438)" fill="#36AF8D"/>
<rect x="14.1758" y="11.8125" width="0.843422" height="4.07654" rx="0.421711" transform="rotate(180 14.1758 11.8125)" fill="#36AF8D"/>
<rect width="0.843422" height="5.34167" rx="0.421711" transform="matrix(0 -1 -1 0 18.25 3.09375)" fill="#36AF8D"/>
<path d="M12.2785 1.60566C12.5355 1.6485 12.7695 1.45028 12.7695 1.18969V0.92018C12.7695 0.659588 12.5355 0.461366 12.2785 0.504207C12.0751 0.538098 11.9261 0.714031 11.9261 0.92018V1.18969C11.9261 1.39584 12.0751 1.57177 12.2785 1.60566Z" fill="#36AF8D"/>
<path d="M17.6875 5.90614C17.6875 5.75087 17.5616 5.625 17.4064 5.625H16.8441C16.6888 5.625 16.5629 5.75087 16.5629 5.90614C16.5629 6.06141 16.6888 6.18728 16.8441 6.18728H17.4064C17.5616 6.18728 17.6875 6.06141 17.6875 5.90614Z" fill="#36AF8D"/>
</svg>
