<svg width="182" height="156" viewBox="0 0 182 156" fill="none" xmlns="http://www.w3.org/2000/svg">
<path d="M136.756 27.5299C133.108 27.045 131.098 25.6787 129.495 22.862C129.495 22.862 126.383 16.6405 122.752 11.9701C119.122 7.2998 116.01 5.74382 111.86 5.22755C107.711 4.71129 77.1101 5.23615 70.8862 5.22755C64.6623 5.21896 62.5876 7.2936 59.4757 11.9701C56.3637 16.6467 52.2144 23.8993 52.2144 23.8993C50.3091 26.1434 49.1012 27.38 46.5881 27.5299H136.756Z" fill="#36AF8D"/>
<path d="M136.756 27.5299H157.502C166.838 27.5299 177.212 35.8285 177.212 46.7204V127.113C177.803 139.552 163.549 151.671 150.76 150.971H29.912C12.3504 150.971 5.01633 133.328 5.01633 127.113V46.7204C4.56896 37.7914 13.3868 27.5212 22.6508 27.5299H45.4718M136.756 27.5299C133.108 27.045 131.098 25.6787 129.495 22.862C129.495 22.862 126.383 16.6405 122.752 11.9701C119.122 7.2998 116.01 5.74382 111.86 5.22755C107.711 4.71129 77.1101 5.23615 70.8862 5.22755C64.6623 5.21896 62.5876 7.2936 59.4757 11.9701C56.3637 16.6467 52.2144 23.8993 52.2144 23.8993C50.3091 26.1434 49.1012 27.38 46.5881 27.5299M136.756 27.5299H46.5881M45.4718 27.5299H46.5881M45.4718 27.5299C45.8721 27.5506 46.2424 27.5506 46.5881 27.5299" stroke="#36AF8D" stroke-width="9"/>
<path d="M152.446 43.9141C155.703 43.9141 158.343 46.5539 158.343 49.8105V63.9639H22.6953V49.8105C22.6955 46.554 25.3352 43.9142 28.5918 43.9141H152.446ZM38.7842 49.8105C36.0813 49.8108 33.8898 52.0022 33.8896 54.7051C33.8896 57.4081 36.0812 59.5994 38.7842 59.5996C41.4873 59.5996 43.6787 57.4082 43.6787 54.7051C43.6786 52.0021 41.4873 49.8105 38.7842 49.8105ZM55.5635 49.8105C52.8604 49.8105 50.6691 52.0021 50.6689 54.7051C50.6689 57.4082 52.8603 59.5996 55.5635 59.5996C58.2665 59.5995 60.458 57.4081 60.458 54.7051C60.4579 52.0021 58.2664 49.8107 55.5635 49.8105ZM72.333 49.8105C69.6299 49.8105 67.4386 52.0021 67.4385 54.7051C67.4385 57.4082 69.6298 59.5996 72.333 59.5996C75.036 59.5994 77.2275 57.4081 77.2275 54.7051C77.2274 52.0022 75.0359 49.8107 72.333 49.8105Z" fill="#36AF8D"/>
<rect x="158.32" y="127.5" width="23.5877" height="5.12777" rx="2.56389" transform="rotate(180 158.32 127.5)" fill="#36AF8D"/>
<rect x="158.32" y="109.039" width="18.46" height="5.89694" rx="2.94847" transform="rotate(90 158.32 109.039)" fill="#36AF8D"/>
<rect x="158.328" y="80.4766" width="18.46" height="5.89694" rx="2.94847" transform="rotate(90 158.328 80.4766)" fill="#36AF8D"/>
<rect x="134.742" y="80.4766" width="23.5877" height="5.12777" rx="2.56389" fill="#36AF8D"/>
<rect width="23.5877" height="5.12777" rx="2.56389" transform="matrix(1 0 0 -1 22.6953 127.5)" fill="#36AF8D"/>
<rect width="18.46" height="5.89694" rx="2.94847" transform="matrix(0 1 1 0 22.6953 109.039)" fill="#36AF8D"/>
<rect x="22.6953" y="80.4766" width="23.5877" height="5.12777" rx="2.56389" fill="#36AF8D"/>
<rect x="22.6953" y="98.9375" width="18.46" height="5.89694" rx="2.94847" transform="rotate(-90 22.6953 98.9375)" fill="#36AF8D"/>
<circle cx="90.5098" cy="103.479" r="7.66602" fill="#36AF8D"/>
</svg>
