<svg width="79" height="116" viewBox="0 0 79 116" fill="none" xmlns="http://www.w3.org/2000/svg">
<path fill-rule="evenodd" clip-rule="evenodd" d="M73.2891 22.1328C77.5846 23.4908 80.7891 29.6328 75.7891 33.6328C56.2891 33.6328 47.7891 51.6328 65.7891 60.1328C74.1623 63.9521 79.2948 65.6846 75.2891 81.1328C54.7891 132.133 32.7891 119.633 5.28906 79.1328C1.35663 70.6741 5.78906 62.6328 15.2891 55.6328C23.4717 51.4831 43.2891 31.1328 45.7891 30.1328C48.2891 29.1328 65.4608 22.9813 73.2891 22.1328ZM29.7891 75.1328H12.7891C9.81573 75.1629 9.78906 79.1328 12.7891 79.1328H30.7891C33.2892 79.0197 34.1011 77.5215 35.2891 73.6328L40.7891 60.1328L46.2891 93.1328C46.7949 95.7264 50.7891 96.1328 51.7891 93.1328L57.2891 79.6328L67.2891 79.1328C69.7996 79.1859 69.7891 75.1328 67.2891 75.1328H56.2891C54.1884 75.0614 53.3276 77.8657 50.2891 86.6328L44.2891 54.6328C42.7891 50.6328 39.7007 50.7441 37.7891 54.6328L29.7891 75.1328Z" fill="#36AF8D"/>
<path d="M77.2889 64.1328C76.4624 51.5376 78.1137 42.8871 66.7889 38.1328C57.2891 43.1328 54.7891 51.6328 67.7891 57.6328C72.5086 58.6143 74.3904 60.3864 77.2889 64.1328Z" fill="#36AF8D"/>
<path d="M30.6519 37.1376C30.8002 39.1107 31.0104 39.8692 32.6519 37.6376L35.6519 35.1376C36.569 34.361 36.6407 33.4441 36.1519 31.1376C36.8238 19.7626 45.6519 18.1328 50.6519 22.6328C52.6519 24.6328 52.0703 25.1618 54.6519 24.6328L58.6519 23.1328C62.4752 21.9731 63.2445 20.8884 62.1519 18.6328C60.2643 16.0457 58.9103 14.6282 56.1519 12.1328L58.1519 7.63281C58.1519 4.13281 51.1519 3.13281 50.1519 4.13281C49.1519 5.13281 47.1519 8.63281 47.1519 8.63281H43.6519V4.63762C44.1519 0.136699 35.6519 -0.36719 34.1519 4.13762V10.6376C28.438 14.5294 25.5433 17.3508 23.6519 28.6376C23.6375 31.1194 23.6927 32.2802 25.1519 32.6376C28.4193 33.8692 30.1355 35.2775 30.6519 37.1376Z" fill="#36AF8D"/>
<path d="M7.72193 35.1518C11.5067 26.098 13.4126 20.5116 14.7219 5.65183C17.1725 1.92644 25.2219 2.66601 25.2219 6.65183C25.2219 10.6377 21.3556 22.0473 20.7219 29.6472C20.4411 31.0995 20.0674 31.7026 18.2219 31.6377C16.336 31.5261 14.5678 32.2001 8.72194 36.6377C6.83243 38.6253 6.66645 38.7044 7.72193 35.1518Z" fill="#36AF8D"/>
<path d="M1.65191 67.1328C10.2804 51.8485 13.6519 53.6328 28.1519 42.6328C31.2889 26.1328 -4.19442 35.6328 1.65191 67.1328Z" fill="#36AF8D"/>
<path d="M12.7891 79.1328C9.78906 79.1328 9.81572 75.1629 12.7891 75.1328H29.7891L37.7891 54.6328C39.7007 50.7441 42.7891 50.6328 44.2891 54.6328L50.2891 86.6328C53.3276 77.8657 54.1884 75.0614 56.2891 75.1328H67.2891C69.7891 75.1328 69.7996 79.1859 67.2891 79.1328L57.2891 79.6328L51.7891 93.1328C50.7891 96.1328 46.7949 95.7264 46.2891 93.1328L40.7891 60.1328L35.2891 73.6328C34.1011 77.5215 33.2892 79.0197 30.7891 79.1328M12.7891 79.1328C13.1891 79.1328 24.9557 79.1328 30.7891 79.1328M12.7891 79.1328H30.7891M7.72193 35.1518C11.5067 26.098 13.4126 20.5116 14.7219 5.65183C17.1725 1.92644 25.2219 2.66601 25.2219 6.65183C25.2219 10.6377 21.3556 22.0473 20.7219 29.6472C20.4411 31.0995 20.0674 31.7026 18.2219 31.6377C16.336 31.5261 14.5678 32.2001 8.72194 36.6377C6.83243 38.6253 6.66645 38.7044 7.72193 35.1518ZM30.6519 37.1376C30.8002 39.1107 31.0104 39.8692 32.6519 37.6376L35.6519 35.1376C36.569 34.361 36.6407 33.4441 36.1519 31.1376C36.8238 19.7626 45.6519 18.1328 50.6519 22.6328C52.6519 24.6328 52.0703 25.1618 54.6519 24.6328L58.6519 23.1328C62.4752 21.9731 63.2445 20.8884 62.1519 18.6328C60.2643 16.0457 58.9103 14.6282 56.1519 12.1328L58.1519 7.63281C58.1519 4.13281 51.1519 3.13281 50.1519 4.13281C49.1519 5.13281 47.1519 8.63281 47.1519 8.63281H43.6519V4.63762C44.1519 0.136699 35.6519 -0.36719 34.1519 4.13762V10.6376C28.438 14.5294 25.5433 17.3508 23.6519 28.6376C23.6375 31.1194 23.6927 32.2802 25.1519 32.6376C28.4193 33.8692 30.1355 35.2775 30.6519 37.1376ZM1.65191 67.1328C10.2804 51.8485 13.6519 53.6328 28.1519 42.6328C31.2889 26.1328 -4.19442 35.6328 1.65191 67.1328ZM77.2889 64.1328C76.4624 51.5376 78.1137 42.8871 66.7889 38.1328C57.2891 43.1328 54.7891 51.6328 67.7891 57.6328C72.5086 58.6143 74.3904 60.3864 77.2889 64.1328ZM73.2891 22.1328C77.5846 23.4908 80.7891 29.6328 75.7891 33.6328C56.2891 33.6328 47.7891 51.6328 65.7891 60.1328C74.1623 63.9521 79.2948 65.6846 75.2891 81.1328C54.7891 132.133 32.7891 119.633 5.28906 79.1328C1.35663 70.6741 5.78906 62.6328 15.2891 55.6328C23.4717 51.4831 43.2891 31.1328 45.7891 30.1328C48.2891 29.1328 65.4608 22.9813 73.2891 22.1328Z" stroke="#36AF8D"/>
</svg>
