<svg width="26" height="26" viewBox="0 0 26 26" fill="none" xmlns="http://www.w3.org/2000/svg">
<path d="M25.8135 13.1953C25.8135 20.0989 20.217 25.6953 13.3135 25.6953C6.40992 25.6953 0.813477 20.0989 0.813477 13.1953C0.813477 6.29175 6.40992 0.695312 13.3135 0.695312C20.217 0.695312 25.8135 6.29175 25.8135 13.1953ZM2.61784 13.1953C2.61784 19.1024 7.40644 23.8909 13.3135 23.8909C19.2205 23.8909 24.0091 19.1024 24.0091 13.1953C24.0091 7.28827 19.2205 2.49967 13.3135 2.49967C7.40644 2.49967 2.61784 7.28827 2.61784 13.1953Z" fill="#36AF8D"/>
<path d="M21.866 13.1933C21.866 17.9167 18.0369 21.7459 13.3134 21.7459C8.58989 21.7459 4.76074 17.9167 4.76074 13.1933C4.76074 8.46977 8.58989 4.64062 13.3134 4.64062C18.0369 4.64062 21.866 8.46977 21.866 13.1933ZM6.51338 13.1933C6.51338 16.9488 9.55784 19.9933 13.3134 19.9933C17.0689 19.9933 20.1134 16.9488 20.1134 13.1933C20.1134 9.43772 17.0689 6.39326 13.3134 6.39326C9.55784 6.39326 6.51338 9.43772 6.51338 13.1933Z" fill="#36AF8D"/>
<circle cx="13.281" cy="13.1941" r="3.25658" fill="#36AF8D"/>
</svg>
