<svg width="21" height="25" viewBox="0 0 21 25" fill="none" xmlns="http://www.w3.org/2000/svg">
<path d="M4.95467 14.5443C4.88462 15.2816 4.84906 15.6832 4.95467 16.4534C1.96759 17.5444 2.51239 22.7264 4.86399 22.2719C5.78595 21.9082 5.4223 20.9082 4.51315 21.09C4.12814 21.1781 3.87677 19.9991 4.0586 18.999C4.7859 16.908 7.05873 17.0898 7.5133 19.0899C7.65589 19.6296 7.6692 19.9241 7.78604 20.5445C7.82165 20.7539 7.69512 20.7264 7.24056 20.7264C6.78599 20.7264 6.8769 21.9082 7.42238 21.9082C7.96786 21.9082 8.60425 21.6355 8.96791 20.9082C9.33156 20.1809 8.33151 16.1807 6.05869 16.4534C6.04457 14.5204 6.22869 13.7307 7.14964 13.0897C8.69517 15.5443 11.8771 15.6352 13.9681 13.2715C15.1301 13.9395 15.5136 15.3625 14.8773 17.2717C12.6953 17.7262 13.3317 20.9991 15.15 20.8173C16.9683 20.6354 17.6956 18.5444 16.0591 17.4535C16.447 15.912 16.3751 15.1799 15.9682 13.9988C20.7866 15.0897 21.2412 21.09 20.2411 22.8174C19.2411 24.5447 6.24051 25.3629 1.87668 23.181C0.719751 22.7881 0.506767 21.6355 0.785727 19.1808C0.964033 16.6265 2.0319 15.6903 4.95467 14.5443Z" fill="#36AF8D"/>
<path d="M6.41612 9.72589C8.32527 14.5443 12.5982 14.7261 14.8773 9.72589C15.9314 8.79205 16.1673 8.20651 15.4165 6.81667C16.6893 -1.54841 4.59783 -1.54894 5.68879 6.72576C5.04941 8.38333 5.31178 9.02159 6.41612 9.72589Z" fill="#36AF8D"/>
<path d="M15.2409 18.3626C14.3318 18.3626 14.3318 19.6354 15.15 19.6354C15.9682 19.6354 16.15 18.3626 15.2409 18.3626Z" fill="#36AF8D"/>
<path d="M4.95467 14.5443C4.88462 15.2816 4.84906 15.6832 4.95467 16.4534C1.96759 17.5444 2.51239 22.7264 4.86399 22.2719C5.78595 21.9082 5.4223 20.9082 4.51315 21.09C4.12814 21.1781 3.87677 19.9991 4.0586 18.999C4.7859 16.908 7.05873 17.0898 7.5133 19.0899C7.65589 19.6296 7.6692 19.9241 7.78604 20.5445C7.82165 20.7539 7.69512 20.7264 7.24056 20.7264C6.78599 20.7264 6.8769 21.9082 7.42238 21.9082C7.96786 21.9082 8.60425 21.6355 8.96791 20.9082C9.33156 20.1809 8.33151 16.1807 6.05869 16.4534C6.04457 14.5204 6.22869 13.7307 7.14964 13.0897C8.69517 15.5443 11.8771 15.6352 13.9681 13.2715C15.1301 13.9395 15.5136 15.3625 14.8773 17.2717C12.6953 17.7262 13.3317 20.9991 15.15 20.8173C16.9683 20.6354 17.6956 18.5444 16.0591 17.4535C16.447 15.912 16.3751 15.1799 15.9682 13.9988C20.7866 15.0897 21.2412 21.09 20.2411 22.8174C19.2411 24.5447 6.24051 25.3629 1.87668 23.181C0.719751 22.7881 0.506767 21.6355 0.785727 19.1808C0.964033 16.6265 2.0319 15.6903 4.95467 14.5443Z" stroke="#36AF8D" stroke-width="0.181826"/>
<path d="M6.41612 9.72589C8.32527 14.5443 12.5982 14.7261 14.8773 9.72589C15.9314 8.79205 16.1673 8.20651 15.4165 6.81667C16.6893 -1.54841 4.59783 -1.54894 5.68879 6.72576C5.04941 8.38333 5.31178 9.02159 6.41612 9.72589Z" stroke="#36AF8D" stroke-width="0.181826"/>
<path d="M15.2409 18.3626C14.3318 18.3626 14.3318 19.6354 15.15 19.6354C15.9682 19.6354 16.15 18.3626 15.2409 18.3626Z" stroke="#36AF8D" stroke-width="0.181826"/>
</svg>
