<svg width="159" height="142" viewBox="0 0 159 142" fill="none" xmlns="http://www.w3.org/2000/svg">
<path d="M24.4547 85.8781C24.0695 89.9331 23.8739 92.1416 24.4547 96.3781C8.02649 102.378 11.0228 130.878 23.956 128.378C29.0266 126.378 27.0266 120.878 22.0265 121.878C19.909 122.363 18.5266 115.878 19.5266 110.378C23.5266 98.8781 36.0266 99.8781 38.5266 110.878C39.3108 113.846 39.384 115.466 40.0266 118.878C40.2224 120.029 39.5266 119.878 37.0266 119.878C34.5266 119.878 35.0266 126.378 38.0266 126.378C41.0266 126.378 44.5266 124.878 46.5266 120.878C48.5266 116.878 43.0266 94.8781 30.5266 96.3781C30.4489 85.7466 31.4615 81.4038 36.5266 77.8781C45.0266 91.3781 62.5265 91.8781 74.0265 78.8781C80.4169 82.5522 82.5265 90.3781 79.0265 100.878C67.0265 103.378 70.5265 121.378 80.5265 120.378C90.5265 119.378 94.5265 107.878 85.5265 101.878C87.66 93.4001 87.2645 89.3736 85.0265 82.8781C111.527 88.8781 114.027 121.878 108.527 131.378C103.027 140.878 31.5266 145.378 7.52655 133.378C1.1637 131.217 -0.00766331 124.878 1.52655 111.378C2.50719 97.3297 8.3802 92.1807 24.4547 85.8781Z" fill="#36AF8D"/>
<path d="M32.4923 59.3781C42.9922 85.8781 66.4922 86.8781 79.0265 59.3781C84.8239 54.2422 86.1213 51.0219 81.9922 43.3781C88.9922 -2.62789 22.4922 -2.63081 28.4922 42.8781C24.9758 51.9943 26.4187 55.5046 32.4923 59.3781Z" fill="#36AF8D"/>
<path d="M106.992 89.3721C114.927 88.3807 119.202 87.0758 123.492 81.8721C143.161 85.6868 155.992 96.8722 156.992 110.372C157.992 123.872 157.992 123.872 152.992 125.872C147.992 127.872 130.456 130.745 115.992 130.372C117.285 104.63 114.822 96.3961 106.992 89.3721Z" fill="#36AF8D"/>
<path d="M87.9922 42.8781C89.8669 49.1034 90.0447 52.5839 86.9922 58.3722C86.9166 61.8374 87.5317 63.5351 90.4922 65.8723C101.492 87.8723 117.992 85.8723 128.492 65.8723C132.722 60.4463 133.994 57.1169 131.492 49.8722C138.492 20.3722 87.4922 16.8722 87.9922 42.8781Z" fill="#36AF8D"/>
<path d="M129.492 26.3722C117.992 18.8722 102.992 18.3722 89.4922 26.3722C85.4922 5.37225 85.4922 5.87225 91.4922 3.87225C107.156 -0.100673 115.492 -0.121094 128.992 4.87225C133.492 6.87225 132.992 5.37225 129.492 26.3722Z" fill="#36AF8D"/>
<path d="M81.0265 106.878C76.0265 106.878 76.0265 113.878 80.5265 113.878C85.0265 113.878 86.0265 106.878 81.0265 106.878Z" fill="#36AF8D"/>
<path d="M24.4547 85.8781C24.0695 89.9331 23.8739 92.1416 24.4547 96.3781C8.02649 102.378 11.0228 130.878 23.956 128.378C29.0266 126.378 27.0266 120.878 22.0265 121.878C19.909 122.363 18.5266 115.878 19.5266 110.378C23.5266 98.8781 36.0266 99.8781 38.5266 110.878C39.3108 113.846 39.384 115.466 40.0266 118.878C40.2224 120.029 39.5266 119.878 37.0266 119.878C34.5266 119.878 35.0266 126.378 38.0266 126.378C41.0266 126.378 44.5266 124.878 46.5266 120.878C48.5266 116.878 43.0266 94.8781 30.5266 96.3781C30.4489 85.7466 31.4615 81.4038 36.5266 77.8781C45.0266 91.3781 62.5265 91.8781 74.0265 78.8781C80.4169 82.5522 82.5265 90.3781 79.0265 100.878C67.0265 103.378 70.5265 121.378 80.5265 120.378C90.5265 119.378 94.5265 107.878 85.5265 101.878C87.66 93.4001 87.2645 89.3736 85.0265 82.8781C111.527 88.8781 114.027 121.878 108.527 131.378C103.027 140.878 31.5266 145.378 7.52655 133.378C1.1637 131.217 -0.00766331 124.878 1.52655 111.378C2.50719 97.3297 8.3802 92.1807 24.4547 85.8781Z" stroke="black"/>
<path d="M32.4923 59.3781C42.9922 85.8781 66.4922 86.8781 79.0265 59.3781C84.8239 54.2422 86.1213 51.0219 81.9922 43.3781C88.9922 -2.62789 22.4922 -2.63081 28.4922 42.8781C24.9758 51.9943 26.4187 55.5046 32.4923 59.3781Z" stroke="black"/>
<path d="M106.992 89.3721C114.927 88.3807 119.202 87.0758 123.492 81.8721C143.161 85.6868 155.992 96.8722 156.992 110.372C157.992 123.872 157.992 123.872 152.992 125.872C147.992 127.872 130.456 130.745 115.992 130.372C117.285 104.63 114.822 96.3961 106.992 89.3721Z" stroke="black"/>
<path d="M87.9922 42.8781C89.8669 49.1034 90.0447 52.5839 86.9922 58.3722C86.9166 61.8374 87.5317 63.5351 90.4922 65.8723C101.492 87.8723 117.992 85.8723 128.492 65.8723C132.722 60.4463 133.994 57.1169 131.492 49.8722C138.492 20.3722 87.4922 16.8722 87.9922 42.8781Z" stroke="black"/>
<path d="M129.492 26.3722C117.992 18.8722 102.992 18.3722 89.4922 26.3722C85.4922 5.37225 85.4922 5.87225 91.4922 3.87225C107.156 -0.100673 115.492 -0.121094 128.992 4.87225C133.492 6.87225 132.992 5.37225 129.492 26.3722Z" stroke="black"/>
<path d="M81.0265 106.878C76.0265 106.878 76.0265 113.878 80.5265 113.878C85.0265 113.878 86.0265 106.878 81.0265 106.878Z" stroke="black"/>
</svg>
