<svg width="142" height="142" viewBox="0 0 142 142" fill="none" xmlns="http://www.w3.org/2000/svg">
<path d="M71 0C110.212 0 142 31.7878 142 71C142 110.212 110.212 142 71 142C31.7878 142 0 110.212 0 71C0 31.7878 31.7878 0 71 0ZM65.0615 38.0166C68.1181 35.0357 64.8161 29.8134 60.793 31.2432C58.2295 32.1542 55.6127 33.3945 52.9434 35.0254C40.2917 42.7551 31.727 56.037 32.0068 70.8604C32.4269 93.1006 50.5865 111 72.9268 111C89.6409 111 103.985 100.972 110.326 86.6084C111.927 82.9815 107.777 79.3985 104.429 81.5215C99.531 84.6268 93.6223 86.4433 87.252 86.4434C70.2991 86.4434 56.5559 73.6164 56.5557 57.7939C56.5557 50.1182 59.7931 43.154 65.0615 38.0166Z" fill="#36AF8D"/>
</svg>
