<svg width="17" height="22" viewBox="0 0 17 22" fill="none" xmlns="http://www.w3.org/2000/svg">
<path d="M4.55367 13.0543C5.57135 15.0506 6.26262 16.6218 6.78609 17.6989C7.04887 18.2396 7.26913 18.6541 7.46773 18.9411C7.66963 19.2326 7.83391 19.3688 7.97749 19.3952C8.11082 19.4193 8.26713 19.3537 8.47163 19.1217C8.67414 18.892 8.90341 18.5221 9.18062 17.9987C9.73466 16.9525 10.4639 15.3251 11.5419 13.0563L11.5761 12.984L11.6533 13.0036C13.1628 13.3753 14.2169 13.7915 14.9238 14.4557C15.635 15.1243 15.9833 16.0324 16.1123 17.3561L16.1132 17.3649H16.1123C16.1123 17.9933 16.1387 18.5323 16.166 18.9938C16.1932 19.4534 16.2212 19.8416 16.2255 20.1637C16.2298 20.4854 16.2107 20.7539 16.1357 20.9723C16.0589 21.1959 15.9247 21.3647 15.7099 21.487C15.4998 21.6065 15.2167 21.6797 14.8447 21.7243C14.4713 21.7689 13.9984 21.786 13.4052 21.7897C12.2229 21.797 10.5265 21.7496 8.14644 21.7496C6.98503 21.7496 5.98841 21.7625 5.13472 21.776C4.28171 21.7895 3.56857 21.8032 2.97554 21.8034C2.38302 21.8035 1.90566 21.7902 1.52339 21.7496C1.14205 21.7091 0.846279 21.6411 0.622025 21.526C0.394034 21.4088 0.242031 21.2441 0.146439 21.0221C0.0527769 20.8044 0.0150942 20.5347 0.00386131 20.2096C-0.00735825 19.8839 0.00772676 19.4914 0.0253457 19.0241C0.0430235 18.5551 0.0635342 18.007 0.0634316 17.3659V17.3541L0.124955 16.901C0.288842 15.8836 0.602158 15.1356 1.19624 14.5475C1.87148 13.8794 2.89881 13.4294 4.44038 13.0045L4.51753 12.983L4.55367 13.0543ZM12.7031 16.7467C12.5358 16.7467 12.4003 16.8822 12.4003 17.0495V18.3678H11.0869C10.9198 18.368 10.7841 18.5034 10.7841 18.6705C10.7843 18.8376 10.9199 18.9731 11.0869 18.9733H12.4003V20.2799C12.4005 20.4471 12.5359 20.5827 12.7031 20.5827C12.8702 20.5826 13.0057 20.4471 13.0058 20.2799V18.9733H14.3173C14.4845 18.9733 14.6209 18.8377 14.621 18.6705C14.621 18.5033 14.4846 18.3678 14.3173 18.3678H13.0058V17.0495C13.0058 16.8822 12.8703 16.7468 12.7031 16.7467ZM10.7587 13.0055L8.23433 18.0748L8.14839 18.2467L8.05953 18.0758L5.41695 13.0065L5.28804 12.7584L5.5439 12.8717C6.64049 13.3597 7.45459 13.5677 8.21871 13.5524C8.98289 13.537 9.70852 13.2982 10.6298 12.8727L10.8828 12.7565L10.7587 13.0055ZM8.21675 6.68324C9.32371 6.69118 10.3964 6.83458 11.6757 7.09242L12.2373 7.20961L12.3125 7.22621L12.3144 7.30336C12.354 9.06198 11.8159 10.3694 10.9853 11.2321C10.1555 12.0936 9.04014 12.5045 7.93843 12.4821C6.8369 12.4594 5.7458 12.0037 4.96578 11.1305C4.18488 10.2559 3.72053 8.96915 3.85933 7.2975L3.86519 7.22523L3.93648 7.20961C5.6448 6.84164 6.9516 6.67423 8.21675 6.68324ZM7.9521 0.290662C9.06252 0.261967 10.1877 0.618977 11.0361 1.38539C11.8738 2.14231 12.4331 3.29288 12.4492 4.84828C12.8478 4.99013 13.1737 5.14545 13.4091 5.30531C13.6508 5.4695 13.8207 5.65322 13.8486 5.84633C13.8791 6.05969 13.7344 6.22707 13.4921 6.34242C13.2483 6.45845 12.874 6.54124 12.3613 6.5807L12.3476 6.58168L12.3349 6.57875C9.0998 5.96495 7.25022 5.93895 3.83785 6.57875L3.82906 6.5807H3.82027C3.39798 6.58067 3.03791 6.5304 2.77144 6.4391C2.51253 6.35032 2.30937 6.21082 2.2607 6.01137C2.21063 5.8046 2.33919 5.59707 2.58101 5.40883C2.81811 5.22437 3.19215 5.03537 3.71968 4.84926C3.65074 3.40494 4.14515 2.28378 4.93648 1.5143C5.73951 0.73357 6.84184 0.319444 7.9521 0.290662Z" fill="#36AF8D"/>
</svg>
