<svg width="113" height="131" viewBox="0 0 113 131" fill="none" xmlns="http://www.w3.org/2000/svg">
<path d="M23.246 83.544H50.5341C50.5341 113.916 77.3821 113.916 88.3854 100.269M17.0889 3.00281H73.8657C78.0039 3.50521 80.0912 4.86624 83.5486 8.72452L107.316 32.9317C109.736 36.831 110.282 38.9699 110.397 43.4949V113.916C109.993 126.019 106.131 127.901 96.7525 128H14.8882C4.40707 127.197 2.90246 122.913 3.00466 112.595V16.2067C3.2108 6.20373 5.83158 2.88912 17.0889 3.00281Z" stroke="#36AF8D" stroke-width="4.40131"/>
<rect x="21.9688" y="32.4922" width="68.6604" height="5.28157" rx="2.64079" fill="#36AF8D"/>
<rect x="21.9688" y="50.0938" width="50.1749" height="5.28157" rx="2.64079" fill="#36AF8D"/>
<rect x="75.1797" y="70.7812" width="26.4079" height="5.28157" rx="2.64079" transform="rotate(90 75.1797 70.7812)" fill="#36AF8D"/>
<rect width="26.4079" height="5.28157" rx="2.64079" transform="matrix(-1 0 0 1 85.7422 81.3438)" fill="#36AF8D"/>
</svg>
