<svg width="126" height="120" viewBox="0 0 126 120" fill="none" xmlns="http://www.w3.org/2000/svg">
<path fill-rule="evenodd" clip-rule="evenodd" d="M42.5 27.2474C42.5 27.2474 41.5 2.74045 42.5 1.7474C43.5 0.754343 82.5 0.747398 83.5 1.7474C84.5 2.7474 83.5 27.7474 83.5 27.7474C83.5 27.7474 104.5 15.2474 106 15.7474C107.5 16.2474 125.5 47.7474 125 48.7474C124.5 49.7474 102 60.7474 102 60.7474C102 60.7474 124 71.2474 124 72.7474C124 74.2474 107.5 105.247 106 105.747C104.5 106.247 83 92.7474 83 92.7474C83 92.7474 84 117.747 83 118.247C82 118.747 44 119.747 42.5 118.247C41 116.747 42.5 92.7474 42.5 92.7474C42.5 92.7474 21.5 106.247 20 105.747C18.5 105.247 1 74.2474 1 72.7474C1 71.2474 24 60.7474 24 60.7474C24 60.7474 1.5 49.2474 2 48.2474C2.5 47.2474 19 16.7474 20 16.2474C21 15.7474 42.5 27.2474 42.5 27.2474ZM56.9495 17.7475V28.2475C41.0006 30.2474 43.5 49.2474 57.9805 51.2474L58.9805 69.7474L66.9805 65.2474L67.4805 54.7474C73.9805 59.2474 74.4805 65.2474 59.4447 72.2474C55.4805 74.7474 46.1821 82.7899 60.9447 90.2474L61.4447 105.747C61.9447 107.747 64.1743 107.865 64.4447 106.247L65.4447 92.7474C68.1922 93.4438 68.1896 95.5399 66.4447 100.747C74.9447 96.7474 71.9447 90.2474 65.9447 87.7474L66.9447 76.7474L61.4447 79.7474V85.2474C56.9447 82.2474 57.8041 79.7494 60.9447 77.2474C83.4447 66.2474 79.9447 54.2474 68.4447 48.7474L68.9447 34.7474C80.9447 34.7474 78.9447 27.2474 69.9447 27.7474V17.7475C70.0101 14.8043 69.395 14.237 67.4447 14.2475H59.9495C57.2515 14.2588 56.8961 15.2932 56.9495 17.7475Z" fill="#36AF8D"/>
<path d="M62 62.2474L61.5 32.7474C61.3542 29.2283 65.5 29.7474 65.5 32.7474L64.5 62.2474C63.9234 64.0875 62.5675 64.1917 62 62.2474Z" fill="#36AF8D"/>
<path d="M57.5 32.7474C50.4943 34.5931 50.2482 42.9254 57.9805 45.2474L57.5 32.7474Z" fill="#36AF8D"/>
<path d="M63 21.2474C59.5 21.7474 59.5 27.7474 63.5 27.2474C67.5 26.7474 66.5 20.7474 63 21.2474Z" fill="#36AF8D"/>
<path d="M56.9495 28.2475C56.9495 27.4475 56.9495 20.9142 56.9495 17.7475M56.9495 28.2475C41.0006 30.2474 43.5 49.2474 57.9805 51.2474L58.9805 69.7474L66.9805 65.2474L67.4805 54.7474C73.9805 59.2474 74.4805 65.2474 59.4447 72.2474C55.4805 74.7474 46.1821 82.7899 60.9447 90.2474L61.4447 105.747C61.9447 107.747 64.1743 107.865 64.4447 106.247L65.4447 92.7474C68.1922 93.4438 68.1896 95.5399 66.4447 100.747C74.9447 96.7474 71.9447 90.2474 65.9447 87.7474L66.9447 76.7474L61.4447 79.7474M56.9495 28.2475V17.7475M56.9495 17.7475C56.8961 15.2932 57.2515 14.2588 59.9495 14.2475H67.4447C69.395 14.237 70.0101 14.8043 69.9447 17.7475V27.7474C78.9447 27.2474 80.9447 34.7474 68.9447 34.7474L68.4447 48.7474C79.9447 54.2474 83.4447 66.2474 60.9447 77.2474C57.8041 79.7494 56.9447 82.2474 61.4447 85.2474M61.4447 85.2474C61.4447 84.8474 61.4447 81.4141 61.4447 79.7474M61.4447 85.2474V79.7474M57.5 32.7474C50.4943 34.5931 50.2482 42.9254 57.9805 45.2474L57.5 32.7474ZM63 21.2474C59.5 21.7474 59.5 27.7474 63.5 27.2474C67.5 26.7474 66.5 20.7474 63 21.2474ZM62 62.2474L61.5 32.7474C61.3542 29.2283 65.5 29.7474 65.5 32.7474L64.5 62.2474C63.9234 64.0875 62.5675 64.1917 62 62.2474ZM42.5 27.2474C42.5 27.2474 41.5 2.74045 42.5 1.7474C43.5 0.754343 82.5 0.747398 83.5 1.7474C84.5 2.7474 83.5 27.7474 83.5 27.7474C83.5 27.7474 104.5 15.2474 106 15.7474C107.5 16.2474 125.5 47.7474 125 48.7474C124.5 49.7474 102 60.7474 102 60.7474C102 60.7474 124 71.2474 124 72.7474C124 74.2474 107.5 105.247 106 105.747C104.5 106.247 83 92.7474 83 92.7474C83 92.7474 84 117.747 83 118.247C82 118.747 44 119.747 42.5 118.247C41 116.747 42.5 92.7474 42.5 92.7474C42.5 92.7474 21.5 106.247 20 105.747C18.5 105.247 1 74.2474 1 72.7474C1 71.2474 24 60.7474 24 60.7474C24 60.7474 1.5 49.2474 2 48.2474C2.5 47.2474 19 16.7474 20 16.2474C21 15.7474 42.5 27.2474 42.5 27.2474Z" stroke="#36AF8D"/>
</svg>
