<svg width="146" height="144" viewBox="0 0 146 144" fill="none" xmlns="http://www.w3.org/2000/svg">
<path d="M136.844 0C141.636 0.000184213 145.521 3.88525 145.521 8.67773V112.812C145.521 117.605 141.636 121.49 136.844 121.49H128.648V23.2012C128.648 18.4086 124.763 14.5235 119.971 14.5234H25.6484V8.67773C25.6485 3.8852 29.5336 9.37688e-05 34.3262 0H136.844Z" fill="#055C43"/>
<path d="M111.195 22C115.988 22.0002 119.873 25.8853 119.873 30.6777V134.812C119.873 139.605 115.988 143.49 111.195 143.49H8.67773C3.88514 143.49 0 139.605 0 134.812V30.6777C9.50391e-05 25.8852 3.8852 22.0001 8.67773 22H111.195ZM82.0654 59.7588C76.9688 60.3112 65.7892 64.3166 64.1611 64.9678C62.5335 65.6188 49.6302 78.8685 44.3027 81.5703C38.1179 86.1277 35.2327 91.363 37.793 96.8701C55.6974 123.238 70.0202 131.377 83.3672 98.1719C85.975 88.1144 82.634 86.9865 77.1826 84.5C65.4633 78.9659 70.9974 67.2461 83.6934 67.2461C86.9483 64.6418 84.862 60.6429 82.0654 59.7588ZM58.9521 80.9189C60.1968 78.3871 62.208 78.3147 63.1846 80.9189L67.0908 101.753C69.069 96.0453 69.6295 94.2193 70.9971 94.2656H78.1592C79.7866 94.2658 79.7935 96.9045 78.1592 96.8701L71.6484 97.1953L68.0674 105.985C67.4162 107.938 64.8158 107.674 64.4863 105.985L60.9053 84.5L57.3242 93.2891C56.5507 95.8209 56.0223 96.7965 54.3945 96.8701H42.6758C40.7226 96.8701 40.7399 94.2852 42.6758 94.2656H53.7441L58.9521 80.9189ZM52.6777 73.1064C54.7202 62.3637 31.6184 68.5488 35.4248 89.0576C41.0425 79.1065 43.2374 80.268 52.6777 73.1064ZM77.833 70.1758C71.648 73.4311 70.0206 78.9657 78.4844 82.8721C81.5571 83.5111 82.7827 84.6653 84.6699 87.1045C84.1318 78.9041 85.2063 73.2712 77.833 70.1758ZM62.7695 48.3682C63.0948 45.4379 57.5606 45.1101 56.584 48.043V52.2744C52.8638 54.8082 50.9794 56.6456 49.748 63.9941C49.7387 65.6099 49.7746 66.3659 50.7246 66.5986C52.8519 67.4005 53.9694 68.3173 54.3057 69.5283C54.4022 70.8129 54.5387 71.3064 55.6074 69.8535L57.5605 68.2256C58.1576 67.72 58.2049 67.1235 57.8867 65.6221C58.3242 58.2161 64.0718 57.1551 67.3271 60.085C68.629 61.3869 68.251 61.7311 69.9316 61.3867L72.5352 60.4102C75.0242 59.6551 75.5257 58.9488 74.8145 57.4805C73.5855 55.7961 72.7041 54.8727 70.9082 53.248L72.21 50.3184C72.2098 48.0398 67.6533 47.3891 67.002 48.04C66.3509 48.6911 65.0479 50.9697 65.0479 50.9697H62.7695V48.3682ZM50.7705 49.6797C50.7704 47.0847 45.5291 46.6029 43.9336 49.0283C43.0812 58.703 41.8411 62.3407 39.377 68.2354C38.6898 70.5481 38.7974 70.4969 40.0273 69.2031C43.8335 66.3139 44.985 65.8746 46.2129 65.9473C47.4143 65.9895 47.658 65.5969 47.8408 64.6514C48.2534 59.7033 50.7705 52.2747 50.7705 49.6797Z" fill="#36AF8D"/>
</svg>
