<svg width="116" height="114" viewBox="0 0 116 114" fill="none" xmlns="http://www.w3.org/2000/svg">
<rect x="34.4922" y="33.4766" width="46" height="46" rx="5.27631" stroke="#36AF8D" stroke-width="7"/>
<path d="M4.0386 1.28954C2.22108 1.2687 0.730806 2.7252 0.709971 4.54271L0.370421 34.1608C0.349584 35.9783 1.80608 37.4686 3.62359 37.4895C5.44111 37.5103 6.93139 36.0538 6.95222 34.2363L7.25405 7.90907L33.5813 8.21089C35.3988 8.23173 36.889 6.77523 36.9099 4.95772C36.9307 3.1402 35.4742 1.64992 33.6567 1.62909L4.0386 1.28954ZM27.1797 28.2969L29.5334 25.9965L6.35457 2.2801L4.00087 4.58044L1.64718 6.88078L24.826 30.5972L27.1797 28.2969Z" fill="#36AF8D"/>
<path d="M4.64797 112.679C2.83046 112.7 1.34018 111.244 1.31935 109.426L0.979796 79.8079C0.958959 77.9904 2.41545 76.5001 4.23297 76.4793C6.05048 76.4585 7.54076 77.915 7.5616 79.7325L7.86342 106.06L34.1906 105.758C36.0081 105.737 37.4984 107.194 37.5193 109.011C37.5401 110.829 36.0836 112.319 34.2661 112.34L4.64797 112.679ZM27.7891 85.6719L30.1428 87.9722L6.96394 111.689L4.61025 109.388L2.25655 107.088L25.4354 83.3715L27.7891 85.6719Z" fill="#36AF8D"/>
<path d="M111.141 0.711413C112.959 0.690575 114.449 2.14707 114.47 3.96459L114.809 33.5827C114.83 35.4002 113.374 36.8905 111.556 36.9113C109.739 36.9322 108.248 35.4757 108.227 33.6582L107.926 7.33094L81.5984 7.63277C79.7809 7.6536 78.2906 6.19711 78.2698 4.37959C78.249 2.56208 79.7055 1.0718 81.523 1.05096L111.141 0.711413ZM88 27.7188L85.6463 25.4184L108.825 1.70197L111.179 4.00231L113.533 6.30266L90.3537 30.0191L88 27.7188Z" fill="#36AF8D"/>
<path d="M111.75 113.265C113.568 113.286 115.058 111.829 115.079 110.012L115.419 80.3939C115.439 78.5764 113.983 77.0861 112.165 77.0652C110.348 77.0444 108.858 78.5009 108.837 80.3184L108.535 106.646L82.2078 106.344C80.3903 106.323 78.9 107.779 78.8792 109.597C78.8583 111.414 80.3148 112.905 82.1324 112.926L111.75 113.265ZM88.6094 86.2578L86.2557 88.5582L109.434 112.275L111.788 109.974L114.142 107.674L90.9631 83.9575L88.6094 86.2578Z" fill="#36AF8D"/>
</svg>
