<svg width="32" height="31" viewBox="0 0 32 31" fill="none" xmlns="http://www.w3.org/2000/svg">
<path fill-rule="evenodd" clip-rule="evenodd" d="M15.9945 30.942C24.472 30.942 31.3444 24.0696 31.3444 15.5921C31.3444 14.5543 31.2412 13.5407 31.0447 12.5608C31.0014 12.3452 30.8838 12.1757 30.6969 12.0596C30.51 11.9436 30.306 11.9134 30.0936 11.9704L27.4537 12.6777C27.0658 12.7817 26.8245 13.1641 26.8977 13.5591C27.0199 14.2181 27.084 14.8976 27.084 15.5921C27.084 21.7166 22.1191 26.6816 15.9945 26.6816C9.86984 26.6816 4.9049 21.7167 4.9049 15.5921C4.9049 9.46743 9.8699 4.5025 15.9945 4.5025C16.6889 4.5025 17.3684 4.56658 18.0274 4.68881C18.4223 4.76204 18.8048 4.52079 18.9088 4.13288L19.6161 1.49301C19.6731 1.28055 19.6429 1.07646 19.5269 0.889635C19.4108 0.702749 19.2414 0.585131 19.0257 0.541895C18.0458 0.345416 17.0322 0.242188 15.9945 0.242188C7.51695 0.242187 0.644531 7.11454 0.644531 15.5921C0.644531 24.0696 7.51695 30.942 15.9945 30.942Z" fill="#36AF8D"/>
<path fill-rule="evenodd" clip-rule="evenodd" d="M31.1329 3.46973L19.0934 15.5093L20.6588 17.0747C20.7983 17.2141 20.8427 17.4085 20.7776 17.5946C20.7126 17.7807 20.5568 17.9051 20.3609 17.9274L13.4295 18.7155C13.2725 18.7334 13.13 18.6836 13.0183 18.5719C12.9066 18.4602 12.8568 18.3177 12.8746 18.1607L13.6628 11.2292C13.6851 11.0333 13.8095 10.8775 13.9956 10.8126C14.1817 10.7475 14.3761 10.7919 14.5155 10.9313L16.0809 12.4967L28.1204 0.457182C28.407 0.170523 28.876 0.170523 29.1627 0.457182L31.1329 2.42741C31.4196 2.71407 31.4196 3.18307 31.1329 3.46973Z" fill="#36AF8D"/>
</svg>
