<svg width="106" height="106" viewBox="0 0 106 106" fill="none" xmlns="http://www.w3.org/2000/svg">
<path d="M19.0625 85.8359C23.4808 85.8359 27.0625 89.4177 27.0625 93.8359C27.0625 98.2542 23.4808 101.836 19.0625 101.836C14.6442 101.836 11.0625 98.2542 11.0625 93.8359C11.0625 89.4177 14.6442 85.8359 19.0625 85.8359ZM19.5625 90.8359C17.6295 90.8359 16.0625 92.4029 16.0625 94.3359C16.0625 96.2689 17.6295 97.8359 19.5625 97.8359C21.4955 97.8359 23.0625 96.2689 23.0625 94.3359C23.0625 92.4029 21.4955 90.8359 19.5625 90.8359Z" fill="#36AF8D"/>
<path d="M52.0625 89.8359C56.4808 89.8359 60.0625 93.4177 60.0625 97.8359C60.0625 102.254 56.4808 105.836 52.0625 105.836C47.6442 105.836 44.0625 102.254 44.0625 97.8359C44.0625 93.4177 47.6442 89.8359 52.0625 89.8359ZM52.5625 94.8359C50.6295 94.8359 49.0625 96.4029 49.0625 98.3359C49.0625 100.269 50.6295 101.836 52.5625 101.836C54.4955 101.836 56.0625 100.269 56.0625 98.3359C56.0625 96.4029 54.4955 94.8359 52.5625 94.8359Z" fill="#36AF8D"/>
<path d="M86.0625 85.8359C90.4808 85.8359 94.0625 89.4177 94.0625 93.8359C94.0625 98.2542 90.4808 101.836 86.0625 101.836C81.6442 101.836 78.0625 98.2542 78.0625 93.8359C78.0625 89.4177 81.6442 85.8359 86.0625 85.8359ZM86.5625 90.8359C84.6295 90.8359 83.0625 92.4029 83.0625 94.3359C83.0625 96.2689 84.6295 97.8359 86.5625 97.8359C88.4955 97.8359 90.0625 96.2689 90.0625 94.3359C90.0625 92.4029 88.4955 90.8359 86.5625 90.8359Z" fill="#36AF8D"/>
<path d="M101.064 41.8359C105.786 41.8598 106.064 47.3359 101.064 47.3359H69.5645C66.3879 47.8278 64.5645 49.8359 66.0645 53.3359C67.5645 56.8359 68.3871 58.3184 69.5645 63.3359C73.3452 63.6368 77.5644 60.3359 82.0644 59.3359C86.5644 58.3359 89.2002 59.0478 93.0644 61.3359C95.597 63.0446 97.2829 63.2321 101.564 63.3359C105.799 63.1767 107.064 68.8359 100.064 68.3359C94.3109 68.3794 91.6102 67.3435 87.0644 64.3359C84.6221 63.1878 82.4009 64.3405 78.0644 67.3359L69.0645 68.3359C67.7212 78.334 64.8142 82.1462 53.5645 83.8359C41.3329 84.7488 36.0625 76.8359 35.0626 68.3359C31.3055 68.8969 29.2746 68.5143 25.5626 66.8359C21.5296 63.856 18.747 63.3004 12.0626 67.3359C9.31333 68.5816 7.67169 68.6693 4.5626 68.3359C0.562595 68.3359 0.549964 63.6415 4.5626 63.3359C8.21946 63.4377 10.8643 62.69 16.0626 59.8359C20.5447 58.4418 23.2729 59.222 28.5626 62.3359C30.8699 63.6092 32.3358 63.5998 35.0626 63.3359L37.0626 54.8359C38.997 48.6469 37.0055 48.0233 33.0626 47.3359H4.55975C-0.437405 47.3359 0.0710402 41.8017 4.55975 41.8359H33.5597C43.5392 43.1225 45.5597 48.834 41.0645 59.3359C34.5597 76.8359 55.5646 87.8359 63.5645 71.3359C66.5645 66.3359 61.9653 55.8379 60.5645 52.3359C59.1637 48.834 62.5645 42.8359 68.5645 41.8359C74.5644 40.8359 101.064 41.8359 101.064 41.8359Z" fill="#36AF8D"/>
<path d="M69.5767 3.37829C76.0767 -1.166 78.0767 1.33835 72.5767 6.37829C65.0016 12.8587 61.3343 18.0126 57.0645 31.8359C54.7512 43.5527 53.6956 50.0693 57.0645 58.3359C61.5645 65.8359 60.0083 71.5253 55.5646 73.8359C53.6614 74.4297 52.5488 74.7103 50.0768 74.3359C45.074 73.3359 43.5677 67.3359 45.0768 63.3359C46.5859 59.3359 47.8643 53.7208 48.0768 48.834C48.0768 24.8359 63.0767 7.92259 69.5767 3.37829Z" fill="#36AF8D"/>
<path d="M101.064 47.3359C106.064 47.3359 105.786 41.8598 101.064 41.8359C101.064 41.8359 74.5644 40.8359 68.5645 41.8359C62.5645 42.8359 59.1637 48.834 60.5645 52.3359C61.9653 55.8379 66.5645 66.3359 63.5645 71.3359C55.5646 87.8359 34.5597 76.8359 41.0645 59.3359C45.5597 48.834 43.5392 43.1225 33.5597 41.8359H4.55975C0.0710402 41.8017 -0.437405 47.3359 4.55975 47.3359H33.0626C37.0055 48.0233 38.997 48.6469 37.0626 54.8359L35.0626 63.3359C32.3358 63.5998 30.8699 63.6092 28.5626 62.3359C23.2729 59.222 20.5447 58.4418 16.0626 59.8359C10.8643 62.69 8.21946 63.4377 4.5626 63.3359C0.549964 63.6415 0.562595 68.3359 4.5626 68.3359C7.67169 68.6693 9.31333 68.5816 12.0626 67.3359C18.747 63.3004 21.5296 63.856 25.5626 66.8359C29.2746 68.5143 31.3055 68.8969 35.0626 68.3359C36.0625 76.8359 41.3329 84.7488 53.5645 83.8359C64.8142 82.1462 67.7212 78.334 69.0645 68.3359L78.0644 67.3359C82.4009 64.3405 84.6221 63.1878 87.0644 64.3359C91.6102 67.3434 94.3109 68.3794 100.064 68.3359C107.064 68.8359 105.799 63.1767 101.564 63.3359C97.2829 63.2321 95.597 63.0446 93.0644 61.3359C89.2002 59.0478 86.5644 58.3359 82.0644 59.3359C77.5644 60.3359 73.3452 63.6368 69.5645 63.3359C68.3871 58.3184 67.5645 56.8359 66.0645 53.3359C64.5645 49.8359 66.3879 47.8278 69.5645 47.3359M101.064 47.3359C100.264 47.3359 79.7311 47.3359 69.5645 47.3359M101.064 47.3359H69.5645M69.5767 3.37829C76.0767 -1.166 78.0767 1.33835 72.5767 6.37829C65.0016 12.8587 61.3343 18.0126 57.0645 31.8359C54.7512 43.5527 53.6956 50.0693 57.0645 58.3359C61.5645 65.8359 60.0083 71.5253 55.5646 73.8359C53.6614 74.4297 52.5488 74.7103 50.0768 74.3359C45.074 73.3359 43.5677 67.3359 45.0768 63.3359C46.5859 59.3359 47.8642 53.7208 48.0768 48.834C48.0768 24.8359 63.0767 7.92259 69.5767 3.37829Z" stroke="#36AF8D"/>
</svg>
