<svg width="24" height="24" viewBox="0 0 24 24" fill="none" xmlns="http://www.w3.org/2000/svg">
<path d="M11.874 0.5625C17.2904 0.5625 21.6815 4.95282 21.6816 10.3691C21.6816 15.7856 17.2905 20.1768 11.874 20.1768C6.45764 20.1767 2.06641 15.7855 2.06641 10.3691C2.06653 4.95285 6.45772 0.562553 11.874 0.5625ZM11.5752 15.3818C11.2984 15.3818 11.0607 15.4813 10.8623 15.6797C10.6639 15.8729 10.5645 16.1054 10.5645 16.377C10.5645 16.6329 10.6613 16.8601 10.8545 17.0586C11.0477 17.257 11.301 17.3564 11.6143 17.3564C11.8702 17.3564 12.0949 17.2596 12.2881 17.0664C12.4865 16.868 12.5859 16.6381 12.5859 16.377C12.5859 16.1054 12.4865 15.8729 12.2881 15.6797C12.0896 15.4813 11.852 15.3818 11.5752 15.3818ZM11.7549 4.86133C10.8151 4.86142 9.90907 5.1328 9.03711 5.67578V7.28223C9.7526 6.53018 10.5882 6.1543 11.5439 6.1543C12.0923 6.15431 12.5443 6.30033 12.8994 6.59277C13.2543 6.87997 13.4316 7.27421 13.4316 7.77539C13.4316 8.05741 13.3565 8.35559 13.2051 8.66895C13.0588 8.9823 12.656 9.4499 11.998 10.0713C11.3559 10.6926 10.9565 11.1811 10.7998 11.5361C10.6433 11.8858 10.5645 12.2327 10.5645 12.5771C10.5645 13.0158 10.6302 13.429 10.7607 13.8154H12.2256C12.0429 13.403 11.9512 13.0061 11.9512 12.625C11.9512 12.2855 12.0454 11.9692 12.2334 11.6768C12.4214 11.3843 12.7896 10.9798 13.3379 10.4629C14.0638 9.77351 14.5132 9.22215 14.6855 8.80957C14.8578 8.39195 14.9433 7.98204 14.9434 7.58008C14.9434 6.73926 14.6513 6.07554 14.0664 5.58984C13.4867 5.10415 12.7158 4.86133 11.7549 4.86133Z" fill="#36AF8D"/>
<path d="M3.52051 1.11719C3.9169 1.1172 4.23828 1.43857 4.23828 1.83496C4.23813 2.23123 3.91681 2.55273 3.52051 2.55273C3.1242 2.55273 2.80288 2.23123 2.80273 1.83496C2.80273 1.43857 3.12411 1.11719 3.52051 1.11719Z" fill="#36AF8D"/>
<path d="M22.8701 15.1016C23.2665 15.1016 23.5879 15.4229 23.5879 15.8193C23.5879 16.2157 23.2665 16.5371 22.8701 16.5371C22.4739 16.5369 22.1524 16.2156 22.1523 15.8193C22.1523 15.4231 22.4739 15.1017 22.8701 15.1016Z" fill="#36AF8D"/>
<path d="M21.2432 17.7109C21.9231 17.7111 22.4745 18.2625 22.4746 18.9424C22.4746 19.6224 21.9232 20.1737 21.2432 20.1738C20.5631 20.1738 20.0117 19.6225 20.0117 18.9424C20.0119 18.2624 20.5632 17.7109 21.2432 17.7109Z" fill="#36AF8D"/>
<path d="M3.38814 20.7343C2.97757 20.8929 2.56477 20.5088 2.69332 20.0878L4.00642 15.7886C4.1203 15.4158 4.58522 15.2909 4.87064 15.5564L7.7511 18.2365C8.03652 18.5021 7.94538 18.9748 7.58169 19.1152L3.38814 20.7343Z" fill="#36AF8D"/>
</svg>
