<svg width="135" height="135" viewBox="0 0 135 135" fill="none" xmlns="http://www.w3.org/2000/svg">
<rect width="62.3077" height="62.3077" rx="10.3846" fill="#36AF8D"/>
<rect x="72.6953" width="62.3077" height="62.3077" rx="10.3846" fill="#36AF8D"/>
<rect y="72.6953" width="62.3077" height="62.3077" rx="10.3846" fill="#36AF8D"/>
<path d="M124.61 72.6953C130.346 72.6953 134.995 77.3448 134.995 83.0801V124.618C134.995 130.353 130.346 135.003 124.61 135.003H83.0723C77.337 135.003 72.6875 130.353 72.6875 124.618V107.763L72.8164 111.537C77.1795 111.389 80.2698 111.478 82.5957 111.539C84.6987 111.595 86.8171 111.677 88.5312 111.247C90.8217 110.673 92.2252 109.313 93.3154 107.609C94.2022 106.224 95.1606 104.136 96.3398 101.769L96.4082 101.632L96.4648 101.49C96.842 100.55 97.189 99.668 97.5107 98.8447C97.724 99.5739 97.9543 100.342 98.2051 101.146V101.147L102.429 115.544L102.457 115.64L102.49 115.734C103.092 117.443 103.701 119.164 104.355 120.414C104.68 121.033 105.177 121.864 105.936 122.543C106.801 123.318 108.151 123.999 109.82 123.752C111.253 123.54 112.267 122.723 112.854 122.151C113.484 121.537 114.043 120.785 114.543 120.023C115.529 118.523 116.657 116.406 117.995 113.723C118.383 113.109 118.707 112.577 118.974 112.137C119.279 111.632 119.481 111.302 119.654 111.041C119.671 111.015 119.689 110.992 119.704 110.97C119.836 110.957 120.022 110.943 120.274 110.935C121.235 110.901 122.476 110.93 124.61 110.93V103.378C122.733 103.378 121.142 103.348 120.008 103.388C118.891 103.427 117.504 103.535 116.195 104.189C114.771 104.902 113.939 105.999 113.37 106.852C113.087 107.277 112.794 107.761 112.514 108.224C112.22 108.709 111.9 109.237 111.512 109.847L111.405 110.015L111.317 110.192C110.694 111.446 110.149 112.504 109.673 113.391C109.664 113.364 109.654 113.338 109.645 113.312L105.452 99.0215L105.443 98.9902L105.434 98.959L105.029 97.6396C104.132 94.652 103.542 92.2963 103.064 90.5088C102.806 89.5416 102.542 88.5882 102.261 87.8467C102.123 87.4849 101.91 86.9768 101.588 86.4873C101.331 86.0974 100.563 85.0272 99.0762 84.6465C97.304 84.1929 95.9546 85.0318 95.3418 85.5654C94.7683 86.0649 94.4013 86.6413 94.2021 86.9795C93.7762 87.7027 93.3716 88.6523 92.9873 89.6074C92.5824 90.6139 92.097 91.8924 91.5283 93.376C90.9649 94.8459 90.3008 96.5654 89.5049 98.5518C88.1533 101.269 87.5393 102.624 86.9541 103.538C86.8185 103.75 86.7252 103.866 86.6748 103.924C86.2047 104.037 85.3339 104.056 82.7949 103.989C80.4677 103.928 77.2248 103.835 72.6875 103.985V83.0801C72.6875 77.3448 77.337 72.6953 83.0723 72.6953H124.61Z" fill="#36AF8D"/>
</svg>
