<svg width="65" height="136" viewBox="0 0 65 136" fill="none" xmlns="http://www.w3.org/2000/svg">
<path d="M19.0037 48.8397C18.726 77.1009 17.1789 94.8562 13.7225 128.058C12.746 137.565 26.3975 139.677 28.51 128.058L33.8156 88.9772L39.0968 128.058C40.1531 138.621 52.8281 138.621 52.8281 128.058C49.4941 97.0131 48.1205 79.703 47.5468 48.8397C50.3873 59.7282 51.669 66.1413 52.8281 79.471C54.9406 85.8084 64.4468 82.6397 64.4468 77.3585C64.1344 46.4838 60.7763 35.8244 47.5468 31.9397H15.8594C3.64805 39.4615 -0.282806 48.4774 0.0156196 77.3585C1.05631 86.8647 10.5626 84.7522 13.7225 77.3585C15.1099 63.19 16.3899 57.5543 19.0037 48.8397Z" fill="#36AF8D"/>
<path d="M21.125 15.0397C23.2375 31.9397 42.25 31.9397 44.3625 15.0397C43.3062 -5.00997 22.1812 -5.01718 21.125 15.0397Z" fill="#36AF8D"/>
</svg>
