<svg width="84" height="105" viewBox="0 0 84 105" fill="none" xmlns="http://www.w3.org/2000/svg">
<path d="M73.7954 97.5093C75.626 66.4874 72.5042 54.8256 51.2954 56.5093C48.9886 56.8047 48.1209 55.957 47.2954 54C45.4667 49.5579 45.4428 46.8697 47.2954 42.4843C48.6982 39.7377 49.5068 39.4745 50.7954 39.9843C83.2954 53.4843 83.5208 57.9378 82.2954 97.5093C82.2954 106.484 72.7954 104.984 73.7954 97.5093Z" fill="#36AF8D"/>
<path d="M49.2899 33.5C59.2899 24.5157 57.2899 2 37.2899 1C17.9735 1.11416 3.73605 20.0156 1.2899 44C-1.15625 67.9844 12.1927 90.3332 29.2899 94.9844C61.3438 100.984 59.3438 69.799 48.7899 61.4844C38.236 53.1697 39.2899 42.4843 49.2899 33.5Z" fill="#36AF8D"/>
<path d="M73.7954 97.5093C75.626 66.4874 72.5042 54.8256 51.2954 56.5093C48.9886 56.8047 48.1209 55.957 47.2954 54C45.4667 49.5579 45.4428 46.8697 47.2954 42.4843C48.6982 39.7377 49.5068 39.4745 50.7954 39.9843C83.2954 53.4843 83.5208 57.9378 82.2954 97.5093C82.2954 106.484 72.7954 104.984 73.7954 97.5093Z" stroke="#36AF8D"/>
<path d="M49.2899 33.5C59.2899 24.5157 57.2899 2 37.2899 1C17.9735 1.11416 3.73605 20.0156 1.2899 44C-1.15625 67.9844 12.1927 90.3332 29.2899 94.9844C61.3438 100.984 59.3438 69.799 48.7899 61.4844C38.236 53.1697 39.2899 42.4843 49.2899 33.5Z" stroke="#36AF8D"/>
</svg>
