<svg width="36" height="35" viewBox="0 0 36 35" fill="none" xmlns="http://www.w3.org/2000/svg">
<rect x="1.22656" y="0.804688" width="33.4987" height="33.4987" rx="16.7493" stroke="#B7B7B7"/>
<path d="M22.4672 10.343C22.0829 9.9586 21.4597 9.9586 21.0754 10.343C20.691 10.7273 20.691 11.3505 21.0754 11.7348L23.3321 13.9915H14.8818C11.6204 13.9915 8.97656 16.6354 8.97656 19.8968C8.97656 23.1582 11.6204 25.802 14.8818 25.802H19.8029C20.3464 25.802 20.7871 25.3614 20.7871 24.8178C20.7871 24.2743 20.3464 23.8336 19.8029 23.8336H14.8818C12.7076 23.8336 10.945 22.071 10.945 19.8968C10.945 17.7226 12.7076 15.9599 14.8818 15.9599H23.3321L21.0754 18.2166C20.691 18.601 20.691 19.2242 21.0754 19.6085C21.4597 19.9928 22.0829 19.9928 22.4672 19.6085L26.4041 15.6717C26.5886 15.4871 26.6923 15.2368 26.6923 14.9757C26.6923 14.7147 26.5886 14.4644 26.4041 14.2798L22.4672 10.343Z" fill="#B7B7B7"/>
</svg>
