<svg width="142" height="142" viewBox="0 0 142 142" fill="none" xmlns="http://www.w3.org/2000/svg">
<path d="M71 0C110.212 0 142 31.7878 142 71C142 110.212 110.212 142 71 142C31.7878 142 0 110.212 0 71C0 31.7878 31.7878 0 71 0ZM70.9365 96.4219C69.0063 96.422 67.4416 97.9867 67.4414 99.917V109.201C67.4414 111.132 69.0061 112.696 70.9365 112.696C72.867 112.696 74.4326 111.132 74.4326 109.201V99.917C74.4324 97.9867 72.8669 96.4219 70.9365 96.4219ZM93.2236 88.5586C91.812 87.2453 89.6008 87.322 88.2842 88.7305C86.9676 90.1391 87.0445 92.3458 88.4561 93.6592L95.2744 100.003C96.686 101.316 98.8973 101.238 100.214 99.8301C101.53 98.4214 101.454 96.2147 100.042 94.9014L93.2236 88.5586ZM53.4062 88.5117C52.0896 87.1034 49.8784 87.0266 48.4668 88.3398L41.6484 94.6826C40.2368 95.996 40.16 98.2027 41.4766 99.6113C42.793 101.02 45.0044 101.097 46.416 99.7842L53.2344 93.4404C54.646 92.1271 54.7229 89.9203 53.4062 88.5117ZM70.9326 54.5781C61.9236 54.5781 54.6202 61.6043 54.6201 70.2715C54.6201 78.9388 61.9235 85.9648 70.9326 85.9648C79.9415 85.9646 87.2441 78.9386 87.2441 70.2715C87.2441 61.6044 79.9414 54.5784 70.9326 54.5781ZM99.8701 66.416C97.9441 66.416 96.3828 67.9773 96.3828 69.9033C96.3829 71.8293 97.9441 73.3906 99.8701 73.3906H109.208C111.134 73.3904 112.695 71.8292 112.695 69.9033C112.695 67.9774 111.134 66.4162 109.208 66.416H99.8701ZM32.4834 66.1973C30.5573 66.1973 28.9951 67.7585 28.9951 69.6846C28.9952 71.6106 30.5574 73.1719 32.4834 73.1719H41.8203C43.7463 73.1719 45.3075 71.6106 45.3076 69.6846C45.3076 67.7585 43.7464 66.1973 41.8203 66.1973H32.4834ZM99.9893 41.0039C98.6367 39.6299 96.4242 39.6098 95.0469 40.959L88.3955 47.4756C87.0183 48.825 86.998 51.033 88.3506 52.4072C89.7032 53.7813 91.9166 53.8015 93.2939 52.4521L99.9443 45.9355C101.322 44.5861 101.342 42.3782 99.9893 41.0039ZM46.6445 40.748C45.2672 39.3986 43.0538 39.4188 41.7012 40.793C40.3486 42.1672 40.3687 44.3752 41.7461 45.7246L48.3965 52.2412C49.7738 53.5906 51.9872 53.5702 53.3398 52.1963C54.6924 50.8221 54.6722 48.6141 53.2949 47.2646L46.6445 40.748ZM70.9365 29C69.0063 29.0002 67.4416 30.5649 67.4414 32.4951V41.7793C67.4414 43.7097 69.0061 45.2743 70.9365 45.2744C72.867 45.2744 74.4326 43.7098 74.4326 41.7793V32.4951C74.4324 30.5648 72.8669 29 70.9365 29Z" fill="#36AF8D"/>
</svg>
