<svg width="119" height="115" viewBox="0 0 119 115" fill="none" xmlns="http://www.w3.org/2000/svg">
<path d="M63.6303 5.44878C63.6841 -0.434231 54.6303 -0.531421 54.6303 5.44878V35.9686C53.8362 43.5643 52.1303 45.4688 45.1303 51.9688C38.1303 58.4688 35.1255 64.5653 34.1303 76.4688C34.1303 76.8688 33.797 81.6354 33.6303 83.9688C33.4136 86.6871 29.1303 86.9688 29.1303 83.4688C29.1303 83.4688 28.6303 78.4688 29.1303 74.9688C29.6303 71.4688 30.6303 71.4688 27.1303 73.9688C23.6303 76.4688 21.3853 77.2463 17.6303 77.4688C16.4613 77.3446 14.1241 74.5361 18.1303 72.4688C24.5787 70.6663 27.3343 68.3697 31.6485 63.4688L34.6485 59.9688C35.8289 58.6051 36.8692 57.7094 32.1485 58.4688C28.5919 58.9062 25.1485 57.4688 23.6485 55.9688C22.1485 54.4688 23.1485 49.9688 27.1485 52.4688C31.1485 54.9688 39.6485 53.9688 45.1485 46.9688C47.7462 43.756 47.1485 24.4688 42.1485 21.9688C30.1396 15.5044 -5.85143 48.9688 2.14851 107.469C3.7301 114.815 12.1484 116.469 17.1486 108.969C19.3012 106.528 23.1484 103.969 33.1484 102.969C39.5516 102.025 46.6484 97.4688 46.1484 87.9688V64.9688C45.8575 60.8928 48.689 58.7674 53.1484 54.9688C58.8396 49.8719 61.8138 50.3926 65.6484 54.9688C70.4256 59.8477 73.052 62.5769 72.1484 69.4688L72.6484 90.4688C73.1413 97.6702 76.1743 100.47 87.1484 102.969C94.8524 104.675 98.9133 106.462 105.648 112.969C129.592 119.658 116.148 35.9686 85.6484 21.9688L85.6161 21.9613C77.4326 20.0704 70.6511 18.5035 72.6484 44.9688C73.3898 49.1191 85.1484 56.4688 90.6484 53.4688C96.1484 50.4688 97.9873 56.3138 90.6484 57.9688C82.1484 58.4688 82.1484 57.4688 89.1484 65.9688C92.0496 68.9057 93.784 70.5386 99.6484 71.9688C108.648 74.4688 98.1484 81.9688 89.1484 71.9688L89.6484 77.9688V82.4688C89.8517 85.3726 85.1486 86.9078 84.6484 82.4688V77.9688C83.968 66.0045 81.8073 60.6787 73.6484 53.4688C64.8562 44.2564 63.9689 41.5319 63.6303 35.9686V5.44878Z" fill="#36AF8D"/>
<path d="M85.6484 21.9688C116.148 35.9686 129.592 119.658 105.648 112.969C98.9133 106.462 94.8524 104.675 87.1484 102.969C76.1743 100.47 73.1413 97.6702 72.6484 90.4688L72.1484 69.4688C73.052 62.5769 70.4256 59.8477 65.6484 54.9688C61.8138 50.3926 58.8396 49.8719 53.1484 54.9688C48.689 58.7674 45.8575 60.8928 46.1484 64.9688V87.9688C46.6484 97.4688 39.5516 102.025 33.1484 102.969C23.1484 103.969 19.3012 106.528 17.1486 108.969C12.1484 116.469 3.7301 114.815 2.14851 107.469C-5.85143 48.9688 30.1396 15.5044 42.1485 21.9688C47.1485 24.4688 47.7462 43.756 45.1485 46.9688C39.6485 53.9688 31.1485 54.9688 27.1485 52.4688C23.1485 49.9688 22.1485 54.4688 23.6485 55.9688C25.1485 57.4688 28.5919 58.9062 32.1485 58.4688C36.8692 57.7094 35.8289 58.6051 34.6485 59.9688L31.6485 63.4688C27.3343 68.3697 24.5787 70.6663 18.1303 72.4688C14.1241 74.5361 16.4613 77.3446 17.6303 77.4688C21.3853 77.2463 23.6303 76.4688 27.1303 73.9688C30.6303 71.4688 29.6303 71.4688 29.1303 74.9688C28.6303 78.4688 29.1303 83.4688 29.1303 83.4688C29.1303 86.9688 33.4136 86.6871 33.6303 83.9688C33.797 81.6354 34.1303 76.8688 34.1303 76.4688C35.1255 64.5653 38.1303 58.4688 45.1303 51.9688C52.1303 45.4688 53.8362 43.5643 54.6303 35.9686V5.44878C54.6303 -0.531421 63.6841 -0.434231 63.6303 5.44878V35.9686C63.9689 41.5319 64.8562 44.2564 73.6484 53.4688C81.8073 60.6787 83.968 66.0045 84.6484 77.9688V82.4688C85.1486 86.9078 89.8517 85.3726 89.6484 82.4688V77.9688L89.1484 71.9688C98.1484 81.9688 108.648 74.4688 99.6484 71.9688C93.7841 70.5386 92.0496 68.9057 89.1484 65.9688C82.1484 57.4688 82.1484 58.4688 90.6484 57.9688C97.9873 56.3138 96.1484 50.4688 90.6484 53.4688C85.1484 56.4688 73.3898 49.1191 72.6484 44.9688C70.6511 18.5035 77.4326 20.0704 85.6161 21.9613M85.6484 21.9688L85.6161 21.9613M85.6484 21.9688C85.6377 21.9663 85.6269 21.9638 85.6161 21.9613" stroke="#36AF8D"/>
</svg>
