<svg width="132" height="154" viewBox="0 0 132 154" fill="none" xmlns="http://www.w3.org/2000/svg">
<path d="M99.4619 0.00585938C108.424 0.23292 115.618 7.56866 115.618 16.585V30.7969H105.668V16.585C105.668 12.9213 102.698 9.95136 99.0342 9.95117H16.585C12.9212 9.95117 9.95117 12.9212 9.95117 16.585V118.936C9.95126 122.599 12.9212 125.569 16.585 125.569H26.5391V135.52H16.585L16.1562 135.515C7.337 135.291 0.22922 128.183 0.00585938 119.363L0 118.936V16.585C0 7.56876 7.1948 0.23307 16.1562 0.00585938L16.585 0H99.0342L99.4619 0.00585938Z" fill="#36AF8D"/>
<rect x="30.0926" y="31.5066" width="96.1908" height="117.514" rx="11.6092" stroke="#36AF8D" stroke-width="9.95077"/>
<rect x="50.94" y="60.4166" width="54.9662" height="7.58154" rx="3.79077" fill="#36AF8D" stroke="#36AF8D" stroke-width="0.473846"/>
<rect x="50.94" y="86.4791" width="42.1723" height="7.58154" rx="3.79077" fill="#36AF8D" stroke="#36AF8D" stroke-width="0.473846"/>
<rect x="50.94" y="112.542" width="32.6954" height="7.58154" rx="3.79077" fill="#36AF8D" stroke="#36AF8D" stroke-width="0.473846"/>
</svg>
