<svg width="148" height="149" viewBox="0 0 148 149" fill="none" xmlns="http://www.w3.org/2000/svg">
<path d="M147.336 74.0703C147.336 114.978 114.353 148.141 73.6678 148.141C32.9822 148.141 0 114.978 0 74.0703C0 33.1624 32.9822 0 73.6678 0C114.353 0 147.336 33.1624 147.336 74.0703ZM6.22587 74.0703C6.22587 111.521 36.4206 141.881 73.6678 141.881C110.915 141.881 141.11 111.521 141.11 74.0703C141.11 36.6196 110.915 6.25989 73.6678 6.25989C36.4206 6.25989 6.22587 36.6196 6.22587 74.0703Z" fill="#36AF8D"/>
<path d="M27.8737 119.562C26.1264 96.8238 30.5083 92.1191 50.3245 82.9047M56.4552 80.1114C54.2644 81.0972 52.2236 82.0217 50.3245 82.9047M91.0654 80.1114C92.8849 80.9883 94.6003 81.753 96.2159 82.4438M118.759 119.562C118.557 88.8703 112.399 89.3635 96.2159 82.4438M96.2159 82.4438L95.0082 100.239M95.0082 100.239C86.1519 100.239 85.7494 111.913 93.8005 112.718C101.852 113.524 103.059 102.655 95.0082 100.239ZM50.3245 82.9047L50.727 100.239M50.727 100.239C39.0529 99.4341 39.4554 116.341 44.6887 117.549M50.727 100.239C59.9858 99.0316 62.4011 114.329 57.1679 117.147M55.238 68.4341C65.7044 82.1211 81.0015 81.7185 91.0654 68.4341C104.101 44.6357 94.698 22.9485 72.1453 22.9453C48.8061 24.9581 43.7561 47.4713 55.238 68.4341Z" stroke="#36AF8D" stroke-width="4.02556"/>
</svg>
