<svg width="148" height="149" viewBox="0 0 148 149" fill="none" xmlns="http://www.w3.org/2000/svg">
<path d="M147.336 74.0703C147.336 114.978 114.353 148.141 73.6678 148.141C32.9822 148.141 0 114.978 0 74.0703C0 33.1624 32.9822 0 73.6678 0C114.353 0 147.336 33.1624 147.336 74.0703ZM8.21033 74.0703C8.21033 110.419 37.5166 139.885 73.6678 139.885C109.819 139.885 139.125 110.419 139.125 74.0703C139.125 37.7216 109.819 8.2552 73.6678 8.2552C37.5166 8.2552 8.21033 37.7216 8.21033 74.0703Z" fill="#36AF8D"/>
<path d="M28.3503 123.562C26.6029 100.824 30.9848 96.1191 50.801 86.9047M56.9318 84.1114C54.741 85.0972 52.7001 86.0217 50.801 86.9047M91.542 84.1114C93.3614 84.9883 95.0769 85.753 96.6924 86.4438M119.236 123.562C119.034 92.8703 112.876 93.3635 96.6924 86.4438M96.6924 86.4438L95.4847 104.239M95.4847 104.239C86.6285 104.239 86.226 115.913 94.2771 116.718C102.328 117.524 103.536 106.655 95.4847 104.239ZM50.801 86.9047L51.2036 104.239M51.2036 104.239C39.5295 103.434 39.932 120.341 45.1652 121.549M51.2036 104.239C60.4624 103.032 62.8777 118.329 57.6445 121.147M55.7145 72.4341C66.181 86.1211 81.4781 85.7185 91.542 72.4341C104.578 48.6357 95.1746 26.9485 72.6219 26.9453C49.2826 28.9581 44.2326 51.4713 55.7145 72.4341Z" stroke="#36AF8D" stroke-width="4.02556"/>
</svg>
