<svg width="34" height="38" viewBox="0 0 34 38" fill="none" xmlns="http://www.w3.org/2000/svg">
<g filter="url(#filter0_d_5675_9687)">
<path d="M10.1134 0.332775L31.6644 20.9282C32.0503 21.2951 31.7274 21.9355 31.2109 21.8634L17.5526 20.2394C17.3743 20.1996 17.1853 20.2726 17.08 20.4218L8.05471 30.8012C7.72059 31.2017 7.05111 30.9442 7.09048 30.4132L9.21551 0.679342C9.22587 0.213812 9.79296 -0.00507276 10.1134 0.332775Z" fill="#36AF8D"/>
<path d="M8.05539 30.7994L17.0807 20.42C17.1424 20.369 17.2187 20.2852 17.2987 20.2815L9.56482 0.244312C9.37579 0.317274 9.22324 0.48475 9.20168 0.710261L7.09116 30.4114C7.05179 30.9424 7.70676 31.2326 8.05539 30.7994Z" fill="#047857"/>
</g>
<defs>
<filter id="filter0_d_5675_9687" x="3.16076" y="0.171875" width="29.638" height="36.6912" filterUnits="userSpaceOnUse" color-interpolation-filters="sRGB">
<feFlood flood-opacity="0" result="BackgroundImageFix"/>
<feColorMatrix in="SourceAlpha" type="matrix" values="0 0 0 0 0 0 0 0 0 0 0 0 0 0 0 0 0 0 127 0" result="hardAlpha"/>
<feOffset dx="-1.4812" dy="3.41132"/>
<feGaussianBlur stdDeviation="1.22199"/>
<feComposite in2="hardAlpha" operator="out"/>
<feColorMatrix type="matrix" values="0 0 0 0 0 0 0 0 0 0 0 0 0 0 0 0 0 0 0.25 0"/>
<feBlend mode="normal" in2="BackgroundImageFix" result="effect1_dropShadow_5675_9687"/>
<feBlend mode="normal" in="SourceGraphic" in2="effect1_dropShadow_5675_9687" result="shape"/>
</filter>
</defs>
</svg>
