<svg width="158" height="142" viewBox="0 0 158 142" fill="none" xmlns="http://www.w3.org/2000/svg">
<path d="M99.4102 6.56055C106.406 6.73796 112.324 11.2493 114.58 17.5098L105.612 27.8672V23.1309C105.612 19.469 102.643 16.5 98.9814 16.5H16.5762C12.9144 16.5001 9.94531 19.4691 9.94531 23.1309V125.428C9.94536 129.089 12.9145 132.058 16.5762 132.058H98.9814C102.643 132.058 105.612 129.09 105.612 125.428V110.131L115.557 96.3789V23.0459C115.557 23.0742 115.558 23.1025 115.558 23.1309V125.428L115.553 125.855C115.329 134.67 108.225 141.774 99.4102 141.998L98.9814 142.004H16.5762L16.1484 141.998C7.33364 141.775 0.229182 134.67 0.00585938 125.855L0 125.428V23.1309C0 14.1192 7.19148 6.7874 16.1484 6.56055L16.5762 6.55469H98.9814L99.4102 6.56055Z" fill="#36AF8D"/>
<rect x="27.2978" y="38.9228" width="47.3352" height="6.52899" rx="3.2645" fill="#36AF8D" stroke="#36AF8D" stroke-width="0.408062"/>
<rect x="27.2978" y="61.3681" width="36.3175" height="6.52899" rx="3.2645" fill="#36AF8D" stroke="#36AF8D" stroke-width="0.408062"/>
<rect x="27.2978" y="83.8056" width="28.1563" height="6.52899" rx="3.2645" fill="#36AF8D" stroke="#36AF8D" stroke-width="0.408062"/>
<path d="M65.1709 93.6161C55.9623 127.166 49.6841 127.188 84.8821 110.228M65.1709 93.6161L84.8821 110.228M65.1709 93.6161L125.901 20.537M84.8821 110.228C84.8821 110.228 120.332 65.3623 143.046 36.6144M125.901 20.537L133.414 11.4964C144.599 0.41738 160.674 11.0149 151.536 25.869C151.536 25.869 146.362 32.4181 143.046 36.6144M125.901 20.537C125.901 20.537 136.351 30.3358 143.046 36.6144M143.046 36.6144C158.125 46.9695 153.584 44.31 125.406 79.2604" stroke="#36AF8D" stroke-width="5.95657"/>
<rect x="115.233" y="41.8351" width="13.3571" height="5.06309" rx="2.53154" transform="rotate(41.2352 115.233 41.8351)" fill="#36AF8D" stroke="#36AF8D" stroke-width="0.297829"/>
<rect x="125.673" y="43.726" width="15.5237" height="5.06309" rx="2.53154" transform="rotate(128.776 125.673 43.726)" fill="#36AF8D" stroke="#36AF8D" stroke-width="0.297829"/>
</svg>
