<svg width="190" height="169" viewBox="0 0 190 169" fill="none" xmlns="http://www.w3.org/2000/svg">
<path d="M80.034 111.416C69.0744 151.345 61.6026 151.371 103.493 131.186M80.034 111.416L103.493 131.186M80.034 111.416L152.311 24.4418M103.493 131.186C103.493 131.186 145.683 77.7901 172.716 43.5762M152.311 24.4418L161.253 13.6823C174.564 0.49674 193.696 13.1092 182.821 30.7877C182.821 30.7877 176.662 38.582 172.716 43.5762M152.311 24.4418C152.311 24.4418 164.748 36.1037 172.716 43.5762M172.716 43.5762C190.662 55.9001 185.257 52.7349 151.721 94.3307" stroke="#36AF8D" stroke-width="7.08914"/>
<rect x="139.61" y="49.7892" width="15.8968" height="6.02577" rx="3.01288" transform="rotate(41.2352 139.61 49.7892)" fill="#36AF8D" stroke="#36AF8D" stroke-width="0.354457"/>
<rect x="152.04" y="52.0428" width="18.4754" height="6.02577" rx="3.01288" transform="rotate(128.776 152.04 52.0428)" fill="#36AF8D" stroke="#36AF8D" stroke-width="0.354457"/>
<path d="M118.312 7.80371C126.637 8.01479 133.681 13.3835 136.366 20.834L128.529 29.8848V27.5244C128.529 21.5998 123.726 16.7969 117.802 16.7969H19.7275C13.8031 16.7971 9.00009 21.6 9 27.5244V149.272C9.00025 155.197 13.8032 160 19.7275 160H117.802C123.726 160 128.529 155.197 128.529 149.272V127.143L137.524 114.704V27.1064C137.527 27.2454 137.529 27.3847 137.529 27.5244V149.272L137.523 149.781C137.258 160.272 128.802 168.727 118.312 168.993L117.802 169H19.7275L19.2188 168.993C8.72809 168.727 0.272658 160.272 0.00683594 149.781L0 149.272V27.5244C9.15801e-05 16.7995 8.55892 8.07384 19.2188 7.80371L19.7275 7.79688H117.802L118.312 7.80371Z" fill="#36AF8D"/>
<path d="M111.703 56.1973V48.7789C111.964 42.8798 110.821 40.6842 103.682 40.76H84.4195H42.0147C33.607 40.6735 31.6496 43.1954 31.4957 50.8063V124.145C31.4193 131.995 32.5431 135.254 40.3711 135.865H61.7536" stroke="#36AF8D" stroke-width="7.31596"/>
<rect x="45.6562" y="63.2031" width="51.5643" height="5.72936" rx="2.86468" fill="#36AF8D"/>
<rect x="45.6562" y="82.6797" width="37.6724" height="4.94065" rx="2.47032" fill="#36AF8D"/>
<rect x="45.6562" y="101.375" width="25.3208" height="6.17581" rx="3.0879" fill="#36AF8D"/>
</svg>
