<svg width="133" height="153" viewBox="0 0 133 153" fill="none" xmlns="http://www.w3.org/2000/svg">
<circle cx="115.715" cy="27.8553" r="16.5193" fill="#36AF8D"/>
<path d="M89.9491 25.1141C76.1301 16.8544 75.6381 22.9115 75.6324 11.348C71.1842 0.334544 57.9688 2.52852 57.4181 12.4492C58.5194 21.2506 53.013 20.1494 48.0572 22.3517C31.3529 30.605 25.8803 38.5729 22.1769 57.5931C22.5872 80.2739 21.6719 85.676 17.2211 93.9356C12.7704 102.195 -9.83495 123.67 16.6705 122.569H117.914C131.704 121.562 131.681 114.309 115.161 93.9356C111.857 87.8785 108.553 75.7644 109.655 54.2893M45.7801 132.481C52.9385 154.506 81.5719 154.506 86.5277 132.481" stroke="#36AF8D" stroke-width="6.60773"/>
</svg>
