<svg width="113" height="89" viewBox="0 0 113 89" fill="none" xmlns="http://www.w3.org/2000/svg">
<path d="M34.7855 21.9099C35.3981 19.3509 42.0539 21.9023 40.7855 24.9099C41.0628 29.8032 39.9232 31.7966 49.7422 42.1953C52.9021 45.5931 54.7226 47.3471 54.2422 60.6953V61.1953V88.1953C49.6736 88.1024 48.6959 86.794 48.7422 83.6953C48.0327 74.8109 46.9272 70.76 44.2422 64.1953C43.9055 63.2825 43.7655 58.6813 44.2422 57.1953C45.7852 49.5419 45.0805 46.5448 40.7855 42.1953C34.2394 32.9627 33.6243 28.7145 34.7855 21.9099Z" fill="#36AF8D" stroke="#36AF8D"/>
<path d="M10.2752 26.736L5.77516 31.736C-9.72484 7.19547 16.7752 -1.26579 24.7752 1.73598C29.9379 3.48174 32.424 5.48197 36.7752 9.19547C39.0887 11.3491 43.0186 10.845 51.7751 8.69547C59.8145 7.24076 62.6617 8.37243 68.2751 9.69547C70.7976 11.8769 79.1435 9.03393 80.2441 6.69547C83.9359 2.20751 95.2441 -0.304569 98.7441 1.69547C110.245 5.19531 117.242 18.1953 108.744 30.6954L104.742 26.6953C109.742 14.1953 101.242 3.69531 89.2422 8.19531C86.1546 9.86332 84.4538 10.9807 81.2422 13.6953C76.5729 16.5533 73.887 18.2448 68.2751 20.6953C65.3587 22.3418 63.8799 23.6206 62.2422 27.6953C59.0066 32.9959 55.2422 33.1953 51.7422 27.6953C49.9272 24.5252 48.5329 22.9072 45.2422 20.6953C40.3852 17.5951 37.7422 17.6953 33.2422 14.6953C28.7422 11.6953 26.6802 8.99874 22.7422 7.69531C8.74219 5.69531 3.24219 18.1953 10.2752 26.736Z" fill="#36AF8D"/>
<path d="M79.31 21.2865C78.6974 18.7275 72.0416 21.2789 73.31 24.2865C73.0326 29.1798 74.1723 31.1732 64.3533 41.5719C61.1933 44.9697 59.3729 46.7237 59.8533 60.0719V60.5719V87.5719C64.4218 87.479 65.3996 86.1706 65.3533 83.0719C66.0628 74.1875 67.1683 70.1366 69.8533 63.5719C70.1899 62.6591 70.33 58.0579 69.8533 56.5719C68.3103 48.9185 69.015 45.9214 73.31 41.5719C79.8561 32.3393 80.4712 28.0911 79.31 21.2865Z" fill="#36AF8D"/>
<path d="M10.2752 26.736L5.77516 31.736C-9.72484 7.19547 16.7752 -1.26579 24.7752 1.73598C29.9379 3.48174 32.424 5.48197 36.7752 9.19547C39.0887 11.3491 43.0186 10.845 51.7751 8.69547C59.8145 7.24076 62.6617 8.37243 68.2751 9.69547C70.7976 11.8769 79.1435 9.03393 80.2441 6.69547C83.9359 2.20751 95.2441 -0.304569 98.7441 1.69547C110.245 5.19531 117.242 18.1953 108.744 30.6954L104.742 26.6953C109.742 14.1953 101.242 3.69531 89.2422 8.19531C86.1546 9.86332 84.4538 10.9807 81.2422 13.6953C76.5729 16.5533 73.887 18.2448 68.2751 20.6953C65.3587 22.3418 63.8799 23.6206 62.2422 27.6953C59.0066 32.9959 55.2422 33.1953 51.7422 27.6953C49.9272 24.5252 48.5329 22.9072 45.2422 20.6953C40.3852 17.5951 37.7422 17.6953 33.2422 14.6953C28.7422 11.6953 26.6802 8.99874 22.7422 7.69531C8.74219 5.69531 3.24219 18.1953 10.2752 26.736Z" stroke="#36AF8D"/>
<path d="M79.31 21.2865C78.6974 18.7275 72.0416 21.2789 73.31 24.2865C73.0326 29.1798 74.1723 31.1732 64.3533 41.5719C61.1933 44.9697 59.3729 46.7237 59.8533 60.0719V60.5719V87.5719C64.4218 87.479 65.3996 86.1706 65.3533 83.0719C66.0628 74.1875 67.1683 70.1366 69.8533 63.5719C70.1899 62.6591 70.33 58.0579 69.8533 56.5719C68.3103 48.9185 69.015 45.9214 73.31 41.5719C79.8561 32.3393 80.4712 28.0911 79.31 21.2865Z" stroke="#36AF8D"/>
<ellipse cx="16.9338" cy="35.5807" rx="13" ry="10.5" transform="rotate(14.2982 16.9338 35.5807)" fill="#36AF8D"/>
<ellipse cx="96.8806" cy="34.1425" rx="13" ry="10.5" transform="rotate(-6.71389 96.8806 34.1425)" fill="#36AF8D"/>
</svg>
