<svg width="107" height="106" viewBox="0 0 107 106" fill="none" xmlns="http://www.w3.org/2000/svg">
<path d="M48.7843 0.890412C50.5934 -0.076378 52.8725 -0.16434 55.8615 0.193147L56.4679 0.270295L56.4845 0.272248L56.5002 0.275178L56.8703 0.358186C60.6361 1.28037 62.3226 4.36834 62.7931 7.31424C63.0359 8.83489 62.9633 10.3485 62.6799 11.5691C62.5382 12.1791 62.3405 12.7303 62.0929 13.1775C61.8539 13.6092 61.5434 13.9851 61.1525 14.1961L61.1535 14.1971C59.9155 14.9193 59.0982 15.5016 58.5275 16.1297C57.9788 16.7337 57.6387 17.4038 57.3996 18.3396C57.2848 20.7557 57.654 22.3549 58.2814 23.4549C58.9075 24.5523 59.8227 25.2102 60.9123 25.6814C62.0253 26.1627 63.2624 26.4292 64.5568 26.783C65.8216 27.1286 67.1202 27.5552 68.2013 28.366C69.1982 29.1136 69.9557 29.62 70.591 29.9197C71.2153 30.2142 71.6892 30.2925 72.133 30.2215C72.5894 30.1484 73.0802 29.9072 73.7179 29.4334C74.3571 28.9584 75.099 28.2851 76.0636 27.3972L76.0851 27.3777L76.1095 27.3601C77.0325 26.6962 77.6105 26.1995 77.9582 25.7293C78.2858 25.286 78.4164 24.8545 78.4015 24.2791V24.2713C78.381 22.5496 78.4518 21.1377 78.9006 19.8728C79.3563 18.5885 80.1847 17.5009 81.59 16.3787L81.6154 16.3582L81.6447 16.3406C84.2989 14.7473 86.9805 14.8732 89.1252 15.9451C91.2382 17.0012 92.8301 18.9756 93.3761 21.1101C94.2006 23.3321 93.339 25.7711 91.9679 27.5379C91.2739 28.4321 90.4263 29.1865 89.5431 29.6863C88.6774 30.1762 87.7325 30.4446 86.8488 30.2996C85.4107 30.1808 84.4427 30.1917 83.6857 30.3875C82.9592 30.5754 82.3942 30.9431 81.7863 31.6228L80.1203 33.6013C79.5181 34.3087 78.9654 34.9456 78.755 35.156L78.7414 35.1697L78.7267 35.1824C77.9788 35.8216 77.6461 36.2554 77.5705 36.7312C77.4942 37.2125 77.6603 37.8727 78.3107 39.0086C79.198 39.9483 79.7993 40.8164 80.2619 41.8572C80.7275 42.905 81.0458 44.1099 81.3908 45.6961L81.4035 45.7576L81.4015 45.8201C81.3708 46.6623 81.4606 47.2592 81.6457 47.6844C81.8223 48.0899 82.0968 48.3663 82.5109 48.5594C82.9441 48.7612 83.5432 48.8772 84.3605 48.9119C85.1681 48.9462 86.1508 48.8992 87.3371 48.8045C87.8995 48.706 88.3243 48.5861 88.7267 48.3885C89.1343 48.1883 89.5438 47.8965 90.0597 47.4295C91.999 45.4812 93.5612 44.2707 95.1955 43.7771C96.8596 43.2748 98.5159 43.5394 100.58 44.3289H100.581L100.897 44.4558C104.107 45.8017 105.755 48.2522 106.207 50.8992C106.669 53.6056 105.879 56.4933 104.302 58.5965C102.646 60.8047 99.4197 61.4242 96.6271 61.2879C95.21 61.2186 93.8483 60.9534 92.7648 60.5652C92.2234 60.3712 91.7386 60.1417 91.3478 59.8816C90.964 59.6261 90.6313 59.3155 90.4513 58.9431C89.991 57.9901 89.4509 57.4023 88.5392 57.0564C87.586 56.6949 86.1819 56.5796 83.9504 56.7234C82.8413 56.8502 82.245 57.1873 81.9064 57.6297C81.5551 58.0889 81.4015 58.7609 81.4015 59.7254C81.4015 60.3255 81.1833 61.0561 80.8976 61.7703C80.6062 62.4988 80.2208 63.2682 79.841 63.9646C79.4603 64.6626 79.0796 65.2963 78.7951 65.7547C78.6528 65.9839 78.5338 66.1705 78.4504 66.2996C78.4088 66.3639 78.3762 66.4146 78.3537 66.449C78.3439 66.4638 78.3351 66.4754 78.3293 66.4842C78.0479 66.9859 77.8272 67.3755 77.6672 67.7117C77.5059 68.0506 77.429 68.2915 77.4123 68.489C77.3877 68.7795 77.4827 69.0892 77.9963 69.6189L78.2433 69.8601L78.2609 69.8767L78.2775 69.8953C79.7138 71.5304 80.817 72.7554 81.7433 73.573C82.6809 74.4005 83.3455 74.7252 83.9015 74.7254C86.8505 74.7254 89.0711 75.3997 90.6437 76.5066C92.2214 77.6171 93.113 79.1399 93.4357 80.7605C94.0742 83.9679 92.4833 87.5616 89.6476 89.1609L89.6242 89.1736L89.6007 89.1844C87.0851 90.2731 84.1766 89.8622 81.9777 88.7459C80.8744 88.1857 79.9209 87.434 79.2716 86.5691C78.6219 85.7034 78.2578 84.6953 78.4064 83.6541C78.6384 82.0298 78.2839 80.6997 77.4728 79.5086C76.6492 78.2991 75.3414 77.2132 73.6339 76.1297L73.6095 76.115L73.5881 76.0965C72.6556 75.3445 72.1566 75.0918 71.7091 75.0926C71.2512 75.0934 70.7125 75.3581 69.6994 76.1092C67.6161 77.6534 64.5297 78.691 61.0392 79.6883C60.1678 79.9372 59.5603 80.1408 59.1271 80.3416C58.6983 80.5404 58.4781 80.7198 58.3449 80.9012C58.2114 81.0829 58.1277 81.3172 58.0656 81.7029C58.0009 82.1044 57.97 82.5792 57.8986 83.2596V83.2664L57.8976 83.2742C57.6606 85.0479 57.6758 86.0672 58.0627 87.0584C58.4613 88.0795 59.2703 89.1196 60.7814 90.8826C62.3912 92.7609 62.9077 95.2815 62.7121 97.5633C62.5177 99.8295 61.6088 101.983 60.214 103.098C57.5898 105.198 52.3287 106.784 47.5949 103.102C42.855 99.4157 43.3381 93.5647 46.048 90.8543C47.2912 89.6111 48.1141 88.6515 48.6379 87.5418C49.1565 86.4426 49.4011 85.1518 49.4015 83.2224L49.3849 82.8572C49.334 82.0491 49.1995 81.5436 48.9494 81.1814C48.6721 80.7799 48.193 80.4711 47.256 80.1863V80.1853C43.002 78.9703 40.7737 77.9234 37.1349 75.6306L37.1242 75.6238L37.1125 75.616C36.4157 75.1229 36.0082 74.9038 35.4367 75.0066C34.7956 75.1221 33.863 75.6581 32.2404 77.114L32.2297 77.1238L32.2189 77.1326L29.7433 79.1121C29.3156 79.5528 29.0552 79.9341 28.9162 80.4763C28.7689 81.0512 28.747 81.8509 28.9025 83.1482L28.9113 83.2156L28.9006 83.282C28.6969 84.6327 28.4847 85.8051 27.6574 86.8592C26.8361 87.9054 25.4596 88.7766 23.089 89.7078L23.048 89.7234L23.0041 89.7322C20.4384 90.2453 18.3794 90.0439 16.8361 89.0945C15.2852 88.1403 14.3557 86.493 13.9162 84.3416L13.9093 84.3074L13.9074 84.2713C13.7306 81.2591 13.9741 79.229 14.8625 77.8289C15.7689 76.4005 17.2736 75.7363 19.2902 75.2556L19.3302 75.2459L19.3713 75.243C21.1456 75.1177 22.4153 75.0022 23.3341 74.7967C24.2492 74.5919 24.7256 74.3163 25.006 73.9422L25.0275 73.9138L25.0529 73.8885L28.0226 70.9178C28.8926 69.7146 29.4594 68.9013 29.7101 68.2195C29.8308 67.8911 29.8681 67.6169 29.8381 67.3631C29.8086 67.1142 29.7084 66.8493 29.5031 66.5408C28.3877 65.2783 27.6559 64.2466 27.1203 63.1394C26.5813 62.0253 26.2529 60.8587 25.9181 59.3504L25.9113 59.3172L25.9084 59.284C25.8662 58.7803 25.7589 58.4158 25.5988 58.1404C25.4421 57.871 25.217 57.6561 24.8879 57.4773C24.194 57.1006 23.0923 56.9065 21.3586 56.74L21.3498 56.739L21.342 56.7381C20.2171 56.591 19.3772 56.625 18.5675 56.9939C17.7452 57.3687 16.8884 58.1189 15.8048 59.5447L15.755 59.6101L15.6867 59.656C13.9342 60.8395 12.4575 61.4826 11.0236 61.6961C9.58586 61.91 8.23931 61.685 6.76579 61.2185L6.75407 61.2146L6.74137 61.2097C2.61752 59.6653 0.714305 57.3018 0.170084 54.7849C-0.365537 52.3072 0.443877 49.8029 1.48356 47.993L1.50505 47.9549L1.53337 47.9217C6.73311 41.6823 13.601 43.182 16.3009 46.4217C16.9263 47.1721 17.3732 47.683 17.7336 48.0349C18.0918 48.3848 18.338 48.5504 18.5568 48.6385C18.7733 48.7255 19.0067 48.7549 19.382 48.7566C19.572 48.7575 19.7826 48.7521 20.0412 48.7469C20.2952 48.7417 20.586 48.736 20.9211 48.741C23.1111 48.747 24.3746 48.613 25.0988 48.3836C25.4529 48.2713 25.6403 48.1474 25.7443 48.0398C25.8396 47.9412 25.8929 47.8258 25.922 47.6629C26.2253 44.3375 26.9581 42.7076 28.4816 39.9969L28.4875 39.9851L28.4953 39.9734L28.7668 39.5379C29.3578 38.5663 29.6576 37.8966 29.7238 37.3924C29.7589 37.1242 29.7256 36.9177 29.6398 36.7371C29.5508 36.5497 29.3879 36.3532 29.1095 36.1365L29.0851 36.118L29.0636 36.0955L26.5636 33.5955L26.5353 33.5681L26.5129 33.5359C25.7046 32.4231 25.0968 31.677 24.5314 31.2273C23.9959 30.8015 23.521 30.6588 22.9406 30.7371L22.9025 30.743L22.8644 30.742C20.7426 30.7036 19.5428 30.5805 18.5451 30.1765C17.559 29.7773 16.7939 29.1067 15.5529 28.1355C14.7987 27.5453 14.2943 26.6068 14.0285 25.5398C13.7613 24.4669 13.7237 23.2231 13.9406 21.9637C14.3745 19.4451 15.8387 16.7963 18.6252 15.3015L18.675 15.2742L18.7297 15.2596C21.6835 14.454 24.3558 15.5365 26.2062 17.2498C28.0351 18.9432 29.1554 21.344 28.8976 23.3074C28.6681 25.0564 28.8757 25.5626 29.0968 25.8035C29.2256 25.9436 29.4 26.0456 29.6974 26.2049C29.9785 26.3554 30.3384 26.5438 30.7131 26.8513H30.714C31.3473 27.3579 31.8832 27.8201 32.3498 28.2273C32.8198 28.6375 33.2093 28.9833 33.5646 29.2732C34.2789 29.8561 34.7694 30.1368 35.299 30.1951C35.8342 30.2538 36.5057 30.0947 37.5949 29.5506C38.6799 29.0085 40.1053 28.1235 42.131 26.8211L42.1965 26.7791L42.2716 26.7596C44.8751 26.0573 46.7199 25.5136 47.9006 24.824C48.4796 24.4858 48.8632 24.1308 49.0978 23.7371C49.3288 23.3492 49.4397 22.8821 49.4025 22.2722V22.2635C49.2358 18.3099 48.7266 16.9651 47.6066 16.1453L47.5539 16.1072L47.5138 16.0574C45.9579 14.1391 45.0456 12.6774 44.5949 11.3045C44.1386 9.91404 44.1697 8.65739 44.4084 7.18533L44.4152 7.14139L44.4299 7.0994C45.5469 3.92499 46.8375 1.93103 48.7843 0.890412ZM63.5002 58.4998C60.7389 58.4999 58.5003 60.6202 58.5002 63.2361C58.5002 65.8521 60.7388 67.9733 63.5002 67.9734C66.2616 67.9734 68.5002 65.8522 68.5002 63.2361C68.5 60.6202 66.2615 58.4998 63.5002 58.4998ZM42.5002 54.4998C40.2912 54.4999 38.5003 56.1961 38.5002 58.2888C38.5002 60.3817 40.2911 62.0788 42.5002 62.0789C44.7093 62.0789 46.5002 60.3817 46.5002 58.2888C46.5 56.1961 44.7092 54.4998 42.5002 54.4998ZM56.0002 36.4998C50.7535 36.4999 46.5002 40.5293 46.5002 45.4998C46.5003 50.4702 50.7536 54.4997 56.0002 54.4998C61.2468 54.4998 65.5 50.4703 65.5002 45.4998C65.5002 40.5292 61.2469 36.4998 56.0002 36.4998Z" fill="#36AF8D"/>
</svg>
