<svg width="49" height="115" viewBox="0 0 49 115" fill="none" xmlns="http://www.w3.org/2000/svg">
<path d="M15.0325 3.01923C14.9145 1.46767 15.1852 0.958006 16.5325 1.01923H32.5325C34.4248 0.933573 34.5757 1.05738 34.5325 3.01923C34.5325 3.01923 34.0573 13.0385 34.5325 18.0192C35.0076 23 35.2431 24.3095 39.0325 28.0192C48.1489 37.8169 49.3725 41.261 48.0076 45.5C44.5 57.5 35.0353 56.8311 29 51C25.7812 48.1742 24.1905 48.2265 20.5 51C13.1172 58.3498 5.5 54.5 1.50763 45.5C-0.20616 39.7925 3.33846 35.698 11.5076 28.0192C14.1499 24.4917 15.0325 22.5 15.0325 18.0192V3.01923Z" fill="#36AF8D"/>
<path d="M15.0325 3.01923C14.9145 1.46767 15.1852 0.958006 16.5325 1.01923H32.5325C34.4248 0.933573 34.5757 1.05738 34.5325 3.01923C34.5325 3.01923 34.0573 13.0385 34.5325 18.0192C35.0076 23 35.2431 24.3095 39.0325 28.0192C48.1489 37.8169 49.3725 41.261 48.0076 45.5C44.5 57.5 35.0353 56.8311 29 51C25.7812 48.1742 24.1905 48.2265 20.5 51C13.1172 58.3498 5.5 54.5 1.50763 45.5C-0.20616 39.7925 3.33846 35.698 11.5076 28.0192C14.1499 24.4917 15.0325 22.5 15.0325 18.0192M15.0325 3.01923C15.0325 3.01923 15.0325 13.5385 15.0325 18.0192M15.0325 3.01923V18.0192" stroke="#36AF8D"/>
<path d="M14.9465 112.043C14.8286 113.595 15.0993 114.104 16.4465 114.043H32.4465C34.3388 114.129 34.4898 114.005 34.4465 112.043C34.4465 112.043 33.9714 102.024 34.4465 97.0433C34.9217 92.0625 35.1572 90.753 38.9465 87.0433C48.0629 77.2456 49.2866 73.8015 47.9217 69.5625C44.4141 57.5625 34.9493 58.2314 28.9141 64.0625C25.6953 66.8883 24.1046 66.836 20.4141 64.0625C13.0312 56.7127 5.41406 60.5625 1.4217 69.5625C-0.292097 75.27 3.25252 79.3645 11.4217 87.0433C14.0639 90.5708 14.9465 92.5625 14.9465 97.0433V112.043Z" fill="#36AF8D"/>
<path d="M14.9465 112.043C14.8286 113.595 15.0993 114.104 16.4465 114.043H32.4465C34.3388 114.129 34.4898 114.005 34.4465 112.043C34.4465 112.043 33.9714 102.024 34.4465 97.0433C34.9217 92.0625 35.1572 90.753 38.9465 87.0433C48.0629 77.2456 49.2866 73.8015 47.9217 69.5625C44.4141 57.5625 34.9493 58.2314 28.9141 64.0625C25.6953 66.8883 24.1046 66.836 20.4141 64.0625C13.0312 56.7127 5.41406 60.5625 1.4217 69.5625C-0.292097 75.27 3.25252 79.3645 11.4217 87.0433C14.0639 90.5708 14.9465 92.5625 14.9465 97.0433M14.9465 112.043C14.9465 112.043 14.9465 101.524 14.9465 97.0433M14.9465 112.043V97.0433" stroke="#36AF8D"/>
</svg>
