<svg width="132" height="152" viewBox="0 0 132 152" fill="none" xmlns="http://www.w3.org/2000/svg">
<path d="M85.5053 5.0032H21.0053C8.21674 4.87404 5.23947 8.63952 5.00529 20.0032V129.503C4.88919 141.225 6.59847 146.091 18.5053 147.003H111.505C122.159 146.891 126.547 144.753 127.005 131.003V51.0032C126.875 45.8628 126.254 43.4329 123.505 39.0032L96.5053 11.5032C92.5776 7.12009 90.2063 5.57393 85.5053 5.0032Z" stroke="#36AF8D" stroke-width="9"/>
<rect x="26.5469" y="38.5" width="57" height="10" rx="5" fill="#36AF8D"/>
<rect x="26.5469" y="62.5" width="78" height="10" rx="5" fill="#36AF8D"/>
<rect x="26.5469" y="86.5" width="78" height="10" rx="5" fill="#36AF8D"/>
<rect x="26.5469" y="110.5" width="57" height="10" rx="5" fill="#36AF8D"/>
</svg>
