<svg width="97" height="119" viewBox="0 0 97 119" fill="none" xmlns="http://www.w3.org/2000/svg">
<path d="M2.92653 65.1067V7.28904C2.83341 3.02874 4.20667 1.93586 8.8735 2.00286H65.7C68.3637 2.07123 69.7936 2.81661 71.647 4.64595L81.5586 14.2272C83.3191 16.2474 83.9005 17.7053 83.8713 21.1653V54.204M34.6647 86.9249H6.58738C2.83746 86.8473 2.56886 88.1797 2.62274 90.5592V113.686C2.55168 116.599 3.53379 117.08 6.58738 116.99H78.9421C81.8998 117.046 82.9596 116.382 82.9067 113.025V90.2288C83.0076 87.629 82.3383 86.8982 78.9421 86.9249H50.8537M34.6647 86.9249V94.1934C34.6824 96.8973 34.7156 96.8214 37.9686 96.8365H47.8802C50.0751 96.9215 50.8928 96.5137 50.8537 94.1934V86.9249M34.6647 86.9249H50.8537" stroke="#36AF8D" stroke-width="3.96464"/>
<path d="M20.0951 15.9357H27.2434C29.2557 15.9357 30.8475 16.5364 32.0789 17.7678C33.3103 18.9692 33.9411 20.561 33.9411 22.5133C33.9411 24.5256 33.3103 26.1474 32.0789 27.3789C30.8475 28.6103 29.2557 29.211 27.2434 29.211H23.489V35.9688H20.0951V15.9357ZM23.489 26.0273H27.0932C29.1055 26.0273 30.397 24.6457 30.397 22.5133C30.397 20.4709 29.0454 19.0893 27.0932 19.0893H23.489V26.0273ZM36.8429 15.9357H44.682C47.5052 15.9357 49.7878 16.8367 51.4998 18.6688C53.2118 20.5009 54.0828 22.9037 54.0828 25.8771C54.0828 28.9106 53.2118 31.3434 51.4397 33.2056C49.6977 35.0377 47.3851 35.9688 44.5318 35.9688H36.8429V15.9357ZM40.2368 32.725H44.6219C46.3939 32.725 47.8356 32.0943 48.9168 30.8629C50.0281 29.6014 50.5687 27.9495 50.5687 25.8771C50.5687 23.8648 50.0281 22.273 48.9469 21.0416C47.8656 19.8101 46.424 19.1794 44.6519 19.1794H40.2368V32.725ZM68.9999 15.9357V19.1794H60.6803V24.856H68.3692L68.0988 27.9195H60.6803V35.9688H57.2864V15.9357H68.9999Z" fill="#36AF8D"/>
<path d="M12.8453 81.3002C6.64771 76.1455 6.94742 70.0468 12.1901 65.4416C10.3617 60.1457 13.1035 52.7804 19.9153 51.3768C23.3247 42.4188 35.9132 42.4051 36.7 48.8439L36.8162 67.0564M36.8705 82.9521V75.5586M36.8162 67.0564L31.1949 66.8262L26.4742 62.4513M36.8162 67.0564L36.8705 75.5586M26.4742 62.4513C23.3271 64.7538 19.3932 60.6092 22.5403 58.3066C25.6874 56.004 29.8836 59.6882 26.4742 62.4513ZM36.8705 75.5586H24.3761M24.3761 75.5586C24.3761 71.8745 18.6064 71.6442 18.0819 75.5586C18.6064 79.473 24.3761 78.7822 24.3761 75.5586ZM44.5691 81.3002C44.5691 80.5073 47.6527 71.3204 49.1945 66.8262C44.765 57.7713 46.8818 51.8958 54.4807 49.2527C55.4917 48.8095 55.2704 49.4082 54.4807 51.3768L53.4896 56.5212C53.3407 57.5773 53.334 58.0225 53.4896 58.5035L56.463 62.1378L61.7492 61.8074L66.0443 55.8604C67.326 53.731 67.7017 54.2793 68.0266 56.1908C68.4324 63.4377 67.7004 67.0169 59.4365 69.7367L55.4719 81.961" stroke="#36AF8D" stroke-width="2.87633"/>
<path fill-rule="evenodd" clip-rule="evenodd" d="M86.2011 83.9497C84.3914 81.9183 79.9237 80.9762 75.192 81.307L71.295 81.9183L69.4239 75.475L73.0514 73.9157C73.0659 73.7724 73.089 73.6364 73.1207 73.5079L73.3186 72.7068C73.3504 72.5782 73.3932 72.4472 73.4472 72.3136L70.963 69.2445L75.619 64.4136L78.7832 66.7692C79.0399 66.6647 79.304 66.5726 79.5755 66.4927C79.8471 66.4129 80.1138 66.3529 80.3755 66.3126L81.7883 62.6322L88.3155 64.2446L87.8521 68.1595C88.0848 68.3219 88.2978 68.5004 88.4911 68.6951C88.6843 68.8897 88.8702 69.093 89.0487 69.305L92.9457 68.6937L94.8168 75.137L91.1893 76.6963C91.1748 76.8396 91.1517 76.9756 91.12 77.1042L90.9221 77.9052C90.8903 78.0338 90.8376 78.1624 90.7638 78.2911L93.2481 81.3602L88.1834 86.5927L86.2011 83.9497ZM84.3914 78.9835C83.3801 79.5941 82.3008 79.7577 81.1536 79.4743C79.9867 79.1861 79.1028 78.5375 78.5021 77.5287C77.9013 76.5198 77.7426 75.4418 78.026 74.2946C78.3094 73.1474 78.9518 72.2673 79.9532 71.6542C80.9546 71.0411 82.0388 70.8787 83.2057 71.167C84.3529 71.4504 85.2319 72.0977 85.8425 73.109C86.4531 74.1203 86.6167 75.1995 86.3333 76.3467C86.05 77.4939 85.4026 78.3728 84.3914 78.9835Z" fill="#36AF8D"/>
</svg>
