<svg width="20" height="20" viewBox="0 0 20 20" fill="none" xmlns="http://www.w3.org/2000/svg">
<path d="M0.5 8.30067C0.5 4.63445 0.5 2.80134 1.75039 1.66238C3.00078 0.523438 5.01325 0.523438 9.03819 0.523438H11.1727C15.1976 0.523438 17.2102 0.523438 18.4605 1.66238C19.7109 2.80134 19.7109 4.63445 19.7109 8.30067V12.1893C19.7109 15.8555 19.7109 17.6887 18.4605 18.8276C17.2102 19.9665 15.1976 19.9665 11.1727 19.9665H9.03819C5.01325 19.9665 3.00078 19.9665 1.75039 18.8276C0.5 17.6887 0.5 15.8555 0.5 12.1893V8.30067Z" fill="#36AF8D"/>
<rect x="4.93262" y="5.75781" width="11.0832" height="1.49562" rx="0.747811" fill="#1F1F1F"/>
<rect x="4.93262" y="9.5" width="9.60547" height="1.49562" rx="0.747811" fill="#1F1F1F"/>
<rect x="4.93262" y="13.2266" width="7.38882" height="1.49562" rx="0.747811" fill="#1F1F1F"/>
</svg>
