<svg width="112" height="111" viewBox="0 0 112 111" fill="none" xmlns="http://www.w3.org/2000/svg">
<path d="M11.5385 38.6475C11.3187 61.9213 10.0944 76.5434 7.35915 103.886C6.58642 111.715 17.3895 113.455 19.0612 103.886L23.2598 71.7018L27.4391 103.886C28.275 112.585 38.3053 112.585 38.3053 103.886C35.667 78.3196 34.58 64.0642 34.126 38.6475C36.3738 47.6145 37.3881 52.8959 38.3053 63.8732C39.9771 69.0923 45.9998 66.1805 45.9998 61.8312C45.7526 36.405 34.7123 29.9264 31.6061 27.4264C28.5 24.9264 14.5 25.4264 11.5413 27.4264C8.58258 29.4264 -0.231504 38.3491 0.00465545 62.1335C0.828204 69.9621 4.85852 68.2224 7.35915 62.1335C8.45704 50.4653 9.47003 45.8242 11.5385 38.6475Z" fill="#36AF8D"/>
<path d="M12.9518 12.3858C14.6234 26.3035 29.669 26.3035 31.3407 12.3858C30.5048 -4.12564 13.7876 -4.13158 12.9518 12.3858Z" fill="#36AF8D"/>
<path d="M59.9104 65.8926C59.7509 80.231 58.8627 89.2392 56.8783 106.084C56.3177 110.907 64.1552 111.979 65.3681 106.084L68.5 89.1641L71.4461 106.084C72.0526 111.443 79.3295 111.443 79.3295 106.084C77.4154 90.3335 76.6268 81.5512 76.2974 65.8926C77.9282 71.4169 78.6641 74.6707 79.3295 81.4335C80.5423 84.6488 86 83.0411 86 80.3617C85.8207 64.6973 83.8927 59.2893 76.2974 57.3184H58.1051C51.0944 61.1346 48.8376 65.7088 49.009 80.3617C49.6064 85.1847 55.0641 84.1129 56.8783 80.3617C57.6748 73.1733 58.4097 70.314 59.9104 65.8926Z" fill="#36AF8D"/>
<path d="M56.8783 47.6169C57.971 58.4559 76.5459 58.8893 77.4527 47.6181C76.8202 32.1307 57.2396 32.1243 56.8783 47.6169Z" fill="#36AF8D"/>
<rect x="106.883" y="29" width="5.11538" height="62.1154" rx="2.55769" fill="#36AF8D"/>
<rect x="112" y="29" width="5.11538" height="19" rx="2.55769" transform="rotate(90 112 29)" fill="#36AF8D"/>
<rect x="112" y="86" width="5.11538" height="19" rx="2.55769" transform="rotate(90 112 86)" fill="#36AF8D"/>
<rect x="112" y="48.7266" width="5.11538" height="13.1538" rx="2.55769" transform="rotate(90 112 48.7266)" fill="#36AF8D"/>
<rect x="112" y="69.9219" width="5.11538" height="13.1538" rx="2.55769" transform="rotate(90 112 69.9219)" fill="#36AF8D"/>
</svg>
