<svg width="196" height="656" viewBox="0 0 196 656" fill="none" xmlns="http://www.w3.org/2000/svg">
<g filter="url(#filter0_d_5688_10959)">
<path d="M78.2128 103.002L87.6809 102.949C87.6809 102.949 89.9463 103.832 92.9977 104.375C94.385 104.621 95.9357 104.797 97.5102 104.788C102.548 104.76 107.835 102.836 107.835 102.836L116.106 103.003H118.097C118.097 103.003 109.138 109.049 97.5313 108.883C85.9165 108.718 78.0625 103.003 78.0625 103.003L78.2128 103.002Z" fill="url(#paint0_linear_5688_10959)"/>
<path d="M93.6073 53.9186C95.6301 48.6762 100.543 49.94 101.635 53.8488L116.059 100.049C116.059 100.049 107.095 105.782 98.1145 105.832C89.1238 105.883 80.1094 100.251 80.1094 100.251L93.6073 53.9186Z" fill="url(#paint1_linear_5688_10959)"/>
<path d="M78.0464 103.008C78.0464 103.008 88.0524 108.892 98.0716 108.892C108.094 108.892 118.129 103.008 118.129 103.008L132.782 156.72C136.374 169.891 138.191 183.483 138.183 197.135L137.961 580.806C137.961 580.806 118.086 590.999 98.0954 590.999C78.1044 590.999 58 580.806 58 580.806V196.962C58 183.327 59.8198 169.752 63.4118 156.598L78.0464 103.008Z" fill="url(#paint2_linear_5688_10959)"/>
<path d="M58 211.547C58 211.547 78.0173 219.864 98.0663 219.864C118.115 219.864 138.193 211.547 138.193 211.547V225.617C138.193 225.617 118.144 234.002 98.098 234.002C78.049 234.002 58 225.617 58 225.617V211.547Z" fill="url(#paint3_linear_5688_10959)"/>
</g>
<defs>
<filter id="filter0_d_5688_10959" x="0.684227" y="0.111456" width="194.827" height="655.194" filterUnits="userSpaceOnUse" color-interpolation-filters="sRGB">
<feFlood flood-opacity="0" result="BackgroundImageFix"/>
<feColorMatrix in="SourceAlpha" type="matrix" values="0 0 0 0 0 0 0 0 0 0 0 0 0 0 0 0 0 0 127 0" result="hardAlpha"/>
<feMorphology radius="13.9795" operator="dilate" in="SourceAlpha" result="effect1_dropShadow_5688_10959"/>
<feOffset dy="6.98973"/>
<feGaussianBlur stdDeviation="21.6682"/>
<feComposite in2="hardAlpha" operator="out"/>
<feColorMatrix type="matrix" values="0 0 0 0 0 0 0 0 0 0 0 0 0 0 0 0 0 0 0.21 0"/>
<feBlend mode="normal" in2="BackgroundImageFix" result="effect1_dropShadow_5688_10959"/>
<feBlend mode="normal" in="SourceGraphic" in2="effect1_dropShadow_5688_10959" result="shape"/>
</filter>
<linearGradient id="paint0_linear_5688_10959" x1="78.0625" y1="107.58" x2="118.097" y2="107.58" gradientUnits="userSpaceOnUse">
<stop stop-color="#515252"/>
<stop offset="0.13125" stop-color="#7F7F7F"/>
<stop offset="0.860417" stop-color="#141414"/>
<stop offset="1" stop-color="#5A5A5A"/>
</linearGradient>
<linearGradient id="paint1_linear_5688_10959" x1="78.8986" y1="59.8505" x2="116.917" y2="58.3776" gradientUnits="userSpaceOnUse">
<stop stop-color="#99A6B3"/>
<stop offset="0.13125" stop-color="#F9F9F9"/>
<stop offset="0.802083" stop-color="#B3B3B3"/>
<stop offset="1" stop-color="#D3D3D3"/>
</linearGradient>
<linearGradient id="paint2_linear_5688_10959" x1="55.2994" y1="185.929" x2="140.217" y2="185.096" gradientUnits="userSpaceOnUse">
<stop stop-color="#E8E9EA"/>
<stop offset="0.13125" stop-color="#F9F9F9"/>
<stop offset="0.802083" stop-color="#B3B3B3"/>
<stop offset="1" stop-color="#D3D3D3"/>
</linearGradient>
<linearGradient id="paint3_linear_5688_10959" x1="58" y1="218.582" x2="138.193" y2="218.582" gradientUnits="userSpaceOnUse">
<stop stop-color="#515252"/>
<stop offset="0.13125" stop-color="#888888"/>
<stop offset="0.860417" stop-color="#141414"/>
<stop offset="1" stop-color="#5A5A5A"/>
</linearGradient>
</defs>
</svg>
