<svg width="139" height="114" viewBox="0 0 139 114" fill="none" xmlns="http://www.w3.org/2000/svg">
<path fill-rule="evenodd" clip-rule="evenodd" d="M89.0275 41.6482C89.0275 41.6482 67.7328 70.6558 49.0275 93.1482C30.3222 115.641 -12.2111 87.1406 5.02747 62.8028C22.266 38.465 47.0275 8.1482 47.0275 8.1482C68.5275 -11.3608 104.527 12.1373 89.0275 41.6482ZM62.2889 65.1406L30.1893 41.6482C30.1893 41.6482 28.7684 42.909 13.8186 62.8028C-1.13116 82.6966 27.1443 107.397 44.7889 87.1406C62.4335 66.8839 62.2889 65.1406 62.2889 65.1406Z" fill="#36AF8D"/>
<path d="M87.7891 99.1406L114.289 72.1406C117.46 68.9453 119.144 68.129 121.789 72.6406C122.911 75.2111 123.798 77.452 123.789 81.1406C115.789 83.6406 106.221 96.4833 108.789 107.641C101.959 110.361 97.6318 110.567 88.2891 106.641C84.2783 103.736 84.6904 102.09 87.7891 99.1406Z" fill="#36AF8D"/>
<path d="M84.2889 95.1406L110.789 68.1406C114.143 65.1844 114.321 63.6437 109.289 61.6406C91.2891 53.6406 69.8108 69.2292 76.2891 94.1406C79.0575 99.3609 80.8802 99.2676 84.2889 95.1406Z" fill="#36AF8D"/>
<path fill-rule="evenodd" clip-rule="evenodd" d="M89.0275 41.6482C89.0275 41.6482 67.7328 70.6558 49.0275 93.1482C30.3222 115.641 -12.2111 87.1406 5.02747 62.8028C22.266 38.465 47.0275 8.1482 47.0275 8.1482C68.5275 -11.3608 104.527 12.1373 89.0275 41.6482ZM62.2889 65.1406L30.1893 41.6482C30.1893 41.6482 28.7684 42.909 13.8186 62.8028C-1.13116 82.6966 27.1443 107.397 44.7889 87.1406C62.4335 66.8839 62.2889 65.1406 62.2889 65.1406Z" stroke="#36AF8D"/>
<path d="M87.7891 99.1406L114.289 72.1406C117.46 68.9453 119.144 68.129 121.789 72.6406C122.911 75.2111 123.798 77.452 123.789 81.1406C115.789 83.6406 106.221 96.4833 108.789 107.641C101.959 110.361 97.6318 110.567 88.2891 106.641C84.2783 103.736 84.6904 102.09 87.7891 99.1406Z" stroke="#36AF8D"/>
<path d="M84.2889 95.1406L110.789 68.1406C114.143 65.1844 114.321 63.6437 109.289 61.6406C91.2891 53.6406 69.8108 69.2292 76.2891 94.1406C79.0575 99.3609 80.8802 99.2676 84.2889 95.1406Z" stroke="#36AF8D"/>
<rect x="122.789" y="88.6406" width="7" height="25" rx="3.5" fill="#36AF8D"/>
<rect x="113.789" y="104.641" width="7" height="25" rx="3.5" transform="rotate(-90 113.789 104.641)" fill="#36AF8D"/>
</svg>
