<svg width="25" height="21" viewBox="0 0 25 21" fill="none" xmlns="http://www.w3.org/2000/svg">
<path d="M0.863281 3.18229C0.863281 1.70953 2.05719 0.515625 3.52995 0.515625C5.00271 0.515625 6.19661 1.70953 6.19661 3.18229C6.19661 4.65505 5.00271 5.84896 3.52995 5.84896C2.05719 5.84896 0.863281 4.65505 0.863281 3.18229Z" fill="#36AF8D"/>
<path d="M0.863281 10.5182C0.863281 9.04547 2.05719 7.85156 3.52995 7.85156C5.00271 7.85156 6.19661 9.04547 6.19661 10.5182C6.19661 11.991 5.00271 13.1849 3.52995 13.1849C2.05719 13.1849 0.863281 11.991 0.863281 10.5182Z" fill="#36AF8D"/>
<path d="M0.863281 17.8464C0.863281 16.3736 2.05719 15.1797 3.52995 15.1797C5.00271 15.1797 6.19661 16.3736 6.19661 17.8464C6.19661 19.3191 5.00271 20.513 3.52995 20.513C2.05719 20.513 0.863281 19.3191 0.863281 17.8464Z" fill="#36AF8D"/>
<path d="M8.86328 0.515625H22.1966C23.6694 0.515625 24.8633 1.70953 24.8633 3.18229C24.8633 4.65505 23.6694 5.84896 22.1966 5.84896H8.86328V0.515625Z" fill="#36AF8D"/>
<path d="M8.86328 7.85156H22.1966C23.6694 7.85156 24.8633 9.04547 24.8633 10.5182C24.8633 11.991 23.6694 13.1849 22.1966 13.1849H8.86328V7.85156Z" fill="#36AF8D"/>
<path d="M8.86328 15.1797H22.1966C23.6694 15.1797 24.8633 16.3736 24.8633 17.8464C24.8633 19.3191 23.6694 20.513 22.1966 20.513H8.86328V15.1797Z" fill="#36AF8D"/>
</svg>
