<svg width="24" height="24" viewBox="0 0 24 24" fill="none" xmlns="http://www.w3.org/2000/svg">
<path d="M5.08753 21.0203C5.08753 22.4252 3.94865 23.5641 2.54376 23.5641C1.13888 23.5641 0 22.4252 0 21.0203C0 19.6154 1.13888 18.4766 2.54376 18.4766C3.94865 18.4766 5.08753 19.6154 5.08753 21.0203ZM1.14579 21.0203C1.14579 21.7924 1.77169 22.4183 2.54376 22.4183C3.31584 22.4183 3.94174 21.7924 3.94174 21.0203C3.94174 20.2482 3.31584 19.6224 2.54376 19.6224C1.77169 19.6224 1.14579 20.2482 1.14579 21.0203Z" fill="#36AF8D"/>
<path d="M17.8107 2.86223C17.9141 1.46116 19.1337 0.409159 20.5347 0.51253C21.9358 0.615901 22.9878 1.83549 22.8844 3.23657C22.7811 4.63764 21.5615 5.68964 20.1604 5.58627C18.7593 5.4829 17.7073 4.2633 17.8107 2.86223ZM21.7417 3.15226C21.7986 2.38228 21.2204 1.71203 20.4504 1.65522C19.6804 1.59841 19.0102 2.17655 18.9534 2.94654C18.8966 3.71652 19.4747 4.38677 20.2447 4.44358C21.0147 4.50039 21.6849 3.92225 21.7417 3.15226Z" fill="#36AF8D"/>
<path d="M18.5935 12.3651C18.5935 13.9794 18.1149 15.5575 17.218 16.8997C16.3211 18.2419 15.0464 19.2881 13.555 19.9058C12.0636 20.5236 10.4225 20.6852 8.83921 20.3703C7.25593 20.0554 5.8016 19.278 4.66013 18.1365C3.51865 16.9951 2.74129 15.5407 2.42636 13.9575C2.11143 12.3742 2.27306 10.7331 2.89083 9.24166C3.50859 7.75025 4.55474 6.47552 5.89697 5.57867C7.23921 4.68182 8.81725 4.20312 10.4315 4.20313L10.4315 12.3651H18.5935Z" fill="#36AF8D"/>
<path d="M11.4012 2.96094C12.538 2.96094 13.6636 3.18483 14.7138 3.61985C15.764 4.05486 16.7182 4.69246 17.522 5.49626C18.3258 6.30005 18.9634 7.25429 19.3984 8.3045C19.8335 9.35471 20.0574 10.4803 20.0574 11.6171L11.4012 11.6171V2.96094Z" fill="#047857"/>
<rect x="3.60459" y="18.9764" width="1.78856" height="1.07326" transform="rotate(-45.3482 3.60459 18.9764)" fill="#36AF8D" stroke="#36AF8D" stroke-width="0.0415681"/>
<rect x="19.1377" y="5.00583" width="1.78856" height="1.07326" transform="rotate(138.871 19.1377 5.00583)" fill="#36AF8D" stroke="#36AF8D" stroke-width="0.0415681"/>
</svg>
