<svg width="125" height="159" viewBox="0 0 125 159" fill="none" xmlns="http://www.w3.org/2000/svg">
<path d="M78.4937 78.5625H84.5687L86.7625 81.3188L90.475 85.5375L95.3125 91.3875H88.3937L84.9625 87.3938L82.6563 84.075L78.4937 78.5625ZM95.2563 74.85C95.2563 78.0563 94.6328 80.7609 93.3859 82.9641C92.1391 85.1578 90.4562 86.8219 88.3375 87.9562C86.2187 89.0812 83.8562 89.6437 81.25 89.6437C78.625 89.6437 76.2531 89.0766 74.1344 87.9422C72.025 86.7984 70.3469 85.1297 69.1 82.9359C67.8625 80.7328 67.2438 78.0375 67.2438 74.85C67.2438 71.6437 67.8625 68.9438 69.1 66.75C70.3469 64.5469 72.025 62.8828 74.1344 61.7578C76.2531 60.6234 78.625 60.0563 81.25 60.0563C83.8562 60.0563 86.2187 60.6234 88.3375 61.7578C90.4562 62.8828 92.1391 64.5469 93.3859 66.75C94.6328 68.9438 95.2563 71.6437 95.2563 74.85ZM87.2125 74.85C87.2125 73.125 86.9828 71.6719 86.5234 70.4906C86.0734 69.3 85.4031 68.4 84.5125 67.7906C83.6312 67.1719 82.5437 66.8625 81.25 66.8625C79.9562 66.8625 78.8641 67.1719 77.9734 67.7906C77.0922 68.4 76.4219 69.3 75.9625 70.4906C75.5125 71.6719 75.2875 73.125 75.2875 74.85C75.2875 76.575 75.5125 78.0328 75.9625 79.2234C76.4219 80.4047 77.0922 81.3047 77.9734 81.9234C78.8641 82.5328 79.9562 82.8375 81.25 82.8375C82.5437 82.8375 83.6312 82.5328 84.5125 81.9234C85.4031 81.3047 86.0734 80.4047 86.5234 79.2234C86.9828 78.0328 87.2125 76.575 87.2125 74.85Z" fill="#36AF8D"/>
<path d="M24 22.7443H13.5C6.82194 23.0319 4.70298 25.1493 4 32.7443V146.244C4.05174 152.856 5.77231 155.059 13.5 155.244H109C116.459 155.339 120.472 155.17 121 146.244V32.7443C121.111 24.5324 119.108 22.9243 114 22.7443H101.5M35 16.7443H49C53 -0.246531 71.5 -0.25 76.5 16.7443H90.5V32.7443H35V16.7443Z" stroke="#36AF8D" stroke-width="7"/>
<rect x="16.5" y="61.25" width="28" height="8" rx="4" fill="#36AF8D"/>
<rect x="22.1484" y="117.25" width="23.101" height="8" rx="4" transform="rotate(44.9003 22.1484 117.25)" fill="#36AF8D"/>
<rect width="37.3087" height="8" rx="4" transform="matrix(-0.708336 0.705875 0.705875 0.708336 53.9219 107.227)" fill="#36AF8D"/>
<rect x="16.5" y="79.25" width="17" height="8" rx="4" fill="#36AF8D"/>
<path d="M65.0009 99.2969C69.7207 99.3929 70.5009 100.775 70.5009 104.297C70.5009 111.797 69.0009 116.797 80.0007 105.797L85.0009 101.797C88.3142 99.9752 90.4287 99.7726 94.0009 99.7969H101.501C107.684 99.6658 108.971 97.4534 109.001 91.2969V58.2969C108.91 50.6186 105.764 49.8006 99.0009 49.7969H60.0009C54.3297 50.24 52.4535 51.6596 52.5009 57.25L53.0009 89.7969C52.9947 96.4954 54.5052 98.2242 60.5009 99.2969H65.0009Z" stroke="#36AF8D" stroke-width="6"/>
</svg>
