<svg width="127" height="122" viewBox="0 0 127 122" fill="none" xmlns="http://www.w3.org/2000/svg">
<line x1="53.6847" y1="61.7687" x2="38.6847" y2="70.7687" stroke="#36AF8D" stroke-width="5"/>
<line x1="43.4328" y1="38.1719" x2="53.4328" y2="52.1719" stroke="#36AF8D" stroke-width="5"/>
<line x1="75.3387" y1="37.2015" x2="62.3387" y2="53.2015" stroke="#36AF8D" stroke-width="5"/>
<circle cx="59.3984" cy="57.625" r="8" fill="#36AF8D"/>
<ellipse cx="39.3984" cy="36.125" rx="9" ry="8.5" fill="#36AF8D"/>
<circle cx="79.8984" cy="33.125" r="7.5" fill="#36AF8D"/>
<circle cx="36.8984" cy="73.125" r="7.5" fill="#36AF8D"/>
<path fill-rule="evenodd" clip-rule="evenodd" d="M23.8955 121.164C26.8955 102.164 27.3955 100.664 15.8955 89.1635C-12.135 59.855 0.897881 12.6635 42.3955 3.16351C84.3955 -6.45245 121.898 16.6259 115.898 59.6635C124.216 75.9433 132.789 87.6217 115.398 87.125C113.384 87.1994 112.484 87.6743 112.898 92.125C112.37 108.593 109.311 115.065 90.3984 113.125L90.3773 113.126C83.917 113.351 80.2881 113.478 79.8984 121.125L23.8955 121.164ZM38.4041 96.6379C40.2136 91.008 38.0548 89.8796 32.9041 88.6379C-2.1072 72.1379 0.900681 21.6379 49.9041 11.1379C113.896 4.13424 124.396 71.1635 84.3955 67.1379C80.9574 77.9433 76.9846 82.3486 59.8955 82.1635C55.7664 81.9433 54.6299 83.9297 53.3955 90.1635C43.8955 114.164 36.2021 109.636 38.4041 96.6379Z" fill="#36AF8D"/>
<path d="M90.3984 113.125C109.311 115.065 112.37 108.593 112.898 92.125C112.484 87.6743 113.384 87.1994 115.398 87.125C132.789 87.6217 124.216 75.9433 115.898 59.6635C121.898 16.6259 84.3955 -6.45245 42.3955 3.16351C0.897881 12.6635 -12.135 59.855 15.8955 89.1635C27.3955 100.664 26.8955 102.164 23.8955 121.164L79.8984 121.125C80.2881 113.478 83.917 113.351 90.3773 113.126M90.3984 113.125L90.3773 113.126M90.3984 113.125C90.3914 113.125 90.3843 113.125 90.3773 113.126M32.9041 88.6379C38.0548 89.8796 40.2136 91.008 38.4041 96.6379C36.2021 109.636 43.8955 114.164 53.3955 90.1635C54.6299 83.9297 55.7664 81.9433 59.8955 82.1635C76.9846 82.3486 80.9574 77.9433 84.3955 67.1379C124.396 71.1635 113.896 4.13424 49.9041 11.1379C0.900681 21.6379 -2.1072 72.1379 32.9041 88.6379Z" stroke="#36AF8D"/>
</svg>
