<svg width="114" height="113" viewBox="0 0 114 113" fill="none" xmlns="http://www.w3.org/2000/svg">
<path d="M34.2598 79.4433C30.1751 78.1356 26.0258 79.7178 24.9925 82.9791C23.9431 86.2243 26.3972 89.9377 30.4657 91.2454C34.5505 92.5532 38.6998 90.971 39.7331 87.7097C40.7986 84.4322 38.3446 80.7511 34.2598 79.4433Z" fill="#36AF8D"/>
<path d="M82.6178 91.2454C86.6864 89.9377 89.1566 86.2243 88.091 82.9791C87.0578 79.7178 82.9084 78.1356 78.8237 79.4433C74.739 80.7511 72.2849 84.4483 73.3505 87.7097C74.3838 90.971 78.5331 92.5532 82.6178 91.2454Z" fill="#36AF8D"/>
<path d="M53.7134 55.6187C47.0454 55.4733 38.9728 54.8437 31.9497 53.3906C20.9225 60.7367 39.4733 67.8567 53.7134 68.4056V55.6187Z" fill="#36AF8D"/>
<path d="M53.707 49.2902V39.9744C47.1843 39.8452 39.3862 39.2479 32.4761 37.8594C24.5488 39.6192 21.8041 41.7019 21.3359 42.4607C22.014 43.7362 25.7597 45.5283 32.1371 46.9652C37.5457 48.1923 44.811 49.1448 53.707 49.2902Z" fill="#36AF8D"/>
<path d="M100.972 0H12.0604C5.40863 0 0 5.40863 0 12.0443V100.956C0 107.591 5.40863 113 12.0604 113H100.972C107.608 113 113.016 107.591 113.016 100.956V12.0443C113.016 5.40863 107.608 0 100.972 0ZM88.2333 51.4708C90.203 53.8926 90.7197 56.2175 90.7197 58.0096C90.7197 66.9863 77.7713 73.8964 60.0439 74.7198V76.2698C61.4001 77.0124 65.3879 78.5947 72.0074 76.4151C83.0992 72.7824 94.3846 72.4918 94.8851 84.4231C95.3856 95.7247 77.5937 105.589 67.9389 102.877C62.8047 101.44 60.4798 97.0324 59.4465 93.4482C57.9127 95.5632 54.6352 95.0466 53.8764 92.5925C48.5001 114.631 17.6144 98.1464 18.2117 84.4069C18.7284 72.4595 29.9977 72.7501 41.0894 76.3989C46.8371 78.2879 51.4062 77.3515 53.6988 76.5765V74.736C25.1542 73.7188 17.8243 59.834 24.7021 51.4223C11.7698 46.9178 12.5286 38.8937 21.796 34.5991C11.124 29.6587 9.3642 17.6951 42.1389 14.2885C43.9148 14.0786 45.4325 15.3702 45.6101 17.1139C45.8038 18.8737 44.5445 20.4075 42.7847 20.5851C28.2863 22.0866 22.1189 25.3802 21.3116 26.801C22.7162 29.5134 33.6788 31.5961 33.8564 31.6607C34.3246 31.6607 40.9764 33.3882 53.6988 33.6304V15.5478C53.6988 13.788 55.1035 12.3833 56.8633 12.3833C58.5908 12.3833 60.0277 13.788 60.0277 15.5478V33.6304C78.9983 33.1945 90.4614 29.142 91.6722 26.801C90.8327 25.2995 84.197 21.8283 68.617 20.4559C66.8571 20.2783 65.5817 18.7607 65.7431 17.017C65.8884 15.2572 67.4384 13.9979 69.182 14.1432C103.232 17.1462 102.231 29.4811 91.204 34.6314C100.374 38.8614 101.359 46.8856 88.2333 51.4708Z" fill="#36AF8D"/>
<path d="M60.0469 68.3895C75.2233 67.6307 84.3938 62.0767 84.3938 58.0081C84.3938 56.1353 82.5209 54.4401 81.0517 53.3906C74.2869 54.7953 66.5534 55.4572 60.0469 55.6025V68.3895Z" fill="#36AF8D"/>
<path d="M60.0469 49.2589C79.0013 48.823 90.4644 44.7705 91.6914 42.4295C91.2393 41.6707 88.4785 39.5718 80.5189 37.8281C73.8671 39.152 66.3758 39.7655 60.0469 39.927V49.2589Z" fill="#36AF8D"/>
</svg>
