<svg width="35" height="35" viewBox="0 0 35 35" fill="none" xmlns="http://www.w3.org/2000/svg">
<rect x="0.5" y="0.804688" width="33.4987" height="33.4987" rx="16.7493" stroke="#B7B7B7"/>
<path d="M12.4781 10.343C12.8624 9.9586 13.4856 9.9586 13.87 10.343C14.2543 10.7273 14.2543 11.3505 13.87 11.7348L11.6133 13.9915H20.0635C23.3249 13.9915 25.9688 16.6354 25.9688 19.8968C25.9688 23.1582 23.3249 25.802 20.0635 25.802H15.1424C14.5989 25.802 14.1582 25.3614 14.1582 24.8178C14.1582 24.2743 14.5989 23.8336 15.1424 23.8336H20.0635C22.2377 23.8336 24.0003 22.071 24.0003 19.8968C24.0003 17.7226 22.2377 15.9599 20.0635 15.9599H11.6133L13.87 18.2166C14.2543 18.601 14.2543 19.2242 13.87 19.6085C13.4856 19.9928 12.8624 19.9928 12.4781 19.6085L8.54125 15.6717C8.35671 15.4871 8.25297 15.2368 8.25297 14.9757C8.25297 14.7147 8.35671 14.4644 8.54125 14.2798L12.4781 10.343Z" fill="#B7B7B7"/>
</svg>
