<svg width="152" height="157" viewBox="0 0 152 157" fill="none" xmlns="http://www.w3.org/2000/svg">
<path d="M120 60C120 93.1371 93.1371 120 60 120C26.8629 120 0 93.1371 0 60C0 26.8629 26.8629 0 60 0C93.1371 0 120 26.8629 120 60ZM7.49463 60C7.49463 88.9979 31.0021 112.505 60 112.505C88.9979 112.505 112.505 88.9979 112.505 60C112.505 31.0021 88.9979 7.49463 60 7.49463C31.0021 7.49463 7.49463 31.0021 7.49463 60Z" fill="#36AF8D"/>
<rect x="64.9219" y="34" width="4.21814" height="20.3877" rx="2.10907" fill="#36AF8D"/>
<rect x="69.1406" y="34" width="4.21814" height="18.9816" rx="2.10907" transform="rotate(90 69.1406 34)" fill="#36AF8D"/>
<rect x="54.3828" y="54.3906" width="4.21814" height="20.3877" rx="2.10907" transform="rotate(180 54.3828 54.3906)" fill="#36AF8D"/>
<rect x="54.3906" y="86.7266" width="4.21814" height="20.3877" rx="2.10907" transform="rotate(180 54.3906 86.7266)" fill="#36AF8D"/>
<rect x="50.1719" y="86.7266" width="4.21814" height="18.9816" rx="2.10907" transform="rotate(-90 50.1719 86.7266)" fill="#36AF8D"/>
<rect x="64.9375" y="66.3359" width="4.21814" height="20.3877" rx="2.10907" fill="#36AF8D"/>
<rect x="34" y="54.3906" width="4.21814" height="20.3877" rx="2.10907" transform="rotate(-90 34 54.3906)" fill="#36AF8D"/>
<rect x="34" y="70.5625" width="4.21814" height="20.3877" rx="2.10907" transform="rotate(-90 34 70.5625)" fill="#36AF8D"/>
<rect x="34" y="50.1719" width="4.21814" height="20.3877" rx="2.10907" fill="#36AF8D"/>
<rect x="85.3203" y="66.3438" width="4.21814" height="20.3877" rx="2.10907" transform="rotate(90 85.3203 66.3438)" fill="#36AF8D"/>
<rect x="85.3203" y="50.1719" width="4.21814" height="20.3877" rx="2.10907" transform="rotate(90 85.3203 50.1719)" fill="#36AF8D"/>
<rect x="85.3203" y="70.5625" width="4.21814" height="20.3877" rx="2.10907" transform="rotate(180 85.3203 70.5625)" fill="#36AF8D"/>
<path d="M148.064 135.245C152.9 139.948 153.007 147.681 148.305 152.517C143.602 157.353 135.868 157.461 131.032 152.758L86.1562 109.114L103.188 91.6016L148.064 135.245ZM90.7549 104.874L135.718 148.602C137.957 150.779 141.537 150.729 143.715 148.49C145.892 146.251 145.843 142.671 143.604 140.493L98.6406 96.7656L90.7549 104.874Z" fill="#36AF8D"/>
</svg>
