<svg width="35" height="36" viewBox="0 0 35 36" fill="none" xmlns="http://www.w3.org/2000/svg">
<rect x="0.5" y="1.46094" width="33.4987" height="33.4987" rx="16.7493" stroke="#B7B7B7"/>
<path d="M19.9737 26.7769H10.4954C10.1794 26.7769 9.94247 26.619 9.7845 26.382C9.62653 26.145 9.62653 25.8291 9.7845 25.5921L14.5237 18.4834C14.8396 18.0095 15.5505 18.0095 15.8664 18.4834L20.5266 25.5132C20.6846 25.6711 20.7635 25.8291 20.7635 26.0661C20.7635 26.461 20.4476 26.7769 19.9737 26.7769ZM11.9961 25.1972H18.5519L15.2345 20.3001L11.9961 25.1972ZM25.5027 21.2479H19.1838C18.7099 21.2479 18.394 20.932 18.394 20.4581V14.1392C18.394 13.6653 18.7099 13.3493 19.1838 13.3493H25.5027C25.9766 13.3493 26.2926 13.6653 26.2926 14.1392V20.4581C26.2926 20.932 25.9766 21.2479 25.5027 21.2479ZM19.9737 19.6682H24.7128V14.929H19.9737V19.6682ZM12.47 18.0885C9.62653 18.0885 7.33594 15.7979 7.33594 12.9544C7.33594 10.1109 9.62653 7.82031 12.47 7.82031C15.3135 7.82031 17.6041 10.1109 17.6041 12.9544C17.6041 15.7979 15.3135 18.0885 12.47 18.0885ZM12.47 9.40003C10.4954 9.40003 8.91566 10.9797 8.91566 12.9544C8.91566 14.929 10.4954 16.5088 12.47 16.5088C14.4447 16.5088 16.0244 14.929 16.0244 12.9544C16.0244 10.9797 14.4447 9.40003 12.47 9.40003Z" fill="#B7B7B7"/>
</svg>
