<svg width="35" height="36" viewBox="0 0 35 36" fill="none" xmlns="http://www.w3.org/2000/svg">
<rect x="1" y="0.5" width="33.2333" height="34.4559" rx="16.6166" stroke="#B7B7B7"/>
<path d="M18.3372 23.8934C18.3372 24.061 18.2716 24.2217 18.1548 24.3402C18.038 24.4587 17.8796 24.5253 17.7145 24.5253H12.7328C12.5677 24.5253 12.4093 24.4587 12.2925 24.3402C12.1758 24.2217 12.1101 24.061 12.1101 23.8934C12.1101 23.7258 12.1758 23.5651 12.2925 23.4466C12.4093 23.3281 12.5677 23.2615 12.7328 23.2615H14.601V11.045H10.0345V12.0982C10.0345 12.2658 9.96886 12.4265 9.85208 12.545C9.7353 12.6635 9.57692 12.7301 9.41177 12.7301C9.24661 12.7301 9.08823 12.6635 8.97145 12.545C8.85467 12.4265 8.78906 12.2658 8.78906 12.0982V10.4131C8.78906 10.2456 8.85467 10.0848 8.97145 9.96633C9.08823 9.84782 9.24661 9.78125 9.41177 9.78125H21.0356C21.2007 9.78125 21.3591 9.84782 21.4759 9.96633C21.5927 10.0848 21.6583 10.2456 21.6583 10.4131V12.0982C21.6583 12.2658 21.5927 12.4265 21.4759 12.545C21.3591 12.6635 21.2007 12.7301 21.0356 12.7301C20.8704 12.7301 20.712 12.6635 20.5952 12.545C20.4785 12.4265 20.4129 12.2658 20.4129 12.0982V11.045H15.8464V23.2615H17.7145C17.8796 23.2615 18.038 23.3281 18.1548 23.4466C18.2716 23.5651 18.3372 23.7258 18.3372 23.8934ZM26.0172 16.5214H19.375C19.2099 16.5214 19.0515 16.588 18.9347 16.7065C18.8179 16.825 18.7523 16.9857 18.7523 17.1533V17.9958C18.7523 18.1634 18.8179 18.3241 18.9347 18.4426C19.0515 18.5611 19.2099 18.6277 19.375 18.6277C19.5402 18.6277 19.6986 18.5611 19.8153 18.4426C19.9321 18.3241 19.9977 18.1634 19.9977 17.9958V17.7852H22.0734V23.2615H21.0356C20.8704 23.2615 20.712 23.3281 20.5952 23.4466C20.4785 23.5651 20.4129 23.7258 20.4129 23.8934C20.4129 24.061 20.4785 24.2217 20.5952 24.3402C20.712 24.4587 20.8704 24.5253 21.0356 24.5253H24.3566C24.5218 24.5253 24.6802 24.4587 24.797 24.3402C24.9137 24.2217 24.9793 24.061 24.9793 23.8934C24.9793 23.7258 24.9137 23.5651 24.797 23.4466C24.6802 23.3281 24.5218 23.2615 24.3566 23.2615H23.3188V17.7852H25.3945V17.9958C25.3945 18.1634 25.4601 18.3241 25.5769 18.4426C25.6936 18.5611 25.852 18.6277 26.0172 18.6277C26.1823 18.6277 26.3407 18.5611 26.4575 18.4426C26.5743 18.3241 26.6399 18.1634 26.6399 17.9958V17.1533C26.6399 16.9857 26.5743 16.825 26.4575 16.7065C26.3407 16.588 26.1823 16.5214 26.0172 16.5214Z" fill="#B7B7B7"/>
</svg>
