<svg width="128" height="128" viewBox="0 0 128 128" fill="none" xmlns="http://www.w3.org/2000/svg">
<path d="M58.1467 52.6783L57.9251 13.1302C56.4251 -0.851603 32.4251 -0.821816 25.9251 18.6302C12.9385 21.6783 7.43916 32.6783 10.9251 44.1782C0.929853 54.1783 -0.377165 65.985 11.4385 77.1782C9.27571 89.3031 12.4297 97.6782 27.4299 102.678C36.9297 120.678 55.9297 117.178 58.4297 103.178L58.2502 71.1406M58.1467 52.6783L47.4297 52.1783L38.4297 42.6783M58.1467 52.6783H68.4297L81.4297 41.1783M58.1467 52.6783L58.2502 71.1406M38.4297 42.6783C32.4297 47.6783 24.9297 38.6783 30.9297 33.6783C36.9297 28.6783 44.9297 36.6783 38.4297 42.6783ZM81.4297 41.1783C78.7612 32.9963 85.9297 28.6783 90.9297 34.1783C93.9297 40.1783 89.4297 46.6783 81.4297 41.1783ZM65.9297 24.1783V12.1783C69.4297 -1.85953 91.4297 0.139211 98.4297 18.6302C111.734 23.1333 115.93 31.1406 113.43 44.6405C121.101 53.3139 123.93 63.1406 113.43 76.1406M113.43 76.1406C85.9297 56.1406 52.4297 94.1406 80.4297 118.641C104.93 138.641 142.93 105.141 113.43 76.1406ZM58.2502 71.1406H34.4297M34.4297 71.1406C34.4297 63.1406 23.4297 62.6406 22.4297 71.1406C23.4297 79.6406 34.4297 78.1406 34.4297 71.1406Z" stroke="#36AF8D" stroke-width="6"/>
<path d="M107.836 97.1819C108.403 97.5801 108.403 98.4199 107.836 98.8181L93.325 109.017C92.6624 109.483 91.75 109.009 91.75 108.199V87.8008C91.75 86.9909 92.6624 86.517 93.325 86.9827L107.836 97.1819Z" fill="#36AF8D"/>
</svg>
