<svg width="128" height="128" viewBox="0 0 128 128" fill="none" xmlns="http://www.w3.org/2000/svg">
<path d="M58.4983 52.6783L58.2767 13.1302C56.7767 -0.851603 32.7766 -0.821816 26.2766 18.6302C13.2901 21.6783 7.79073 32.6783 11.2766 44.1782C1.28142 54.1783 -0.0256023 65.985 11.79 77.1782C9.62727 89.3031 12.7812 97.6782 27.7814 102.678C37.2812 120.678 56.2812 117.178 58.7812 103.178L58.6017 71.1406M58.4983 52.6783L47.7812 52.1783L38.7812 42.6783M58.4983 52.6783H68.7812L81.7812 41.1783M58.4983 52.6783L58.6017 71.1406M38.7812 42.6783C32.7812 47.6783 25.2812 38.6783 31.2812 33.6783C37.2812 28.6783 45.2812 36.6783 38.7812 42.6783ZM81.7812 41.1783C79.1128 32.9963 86.2812 28.6783 91.2812 34.1783C94.2812 40.1783 89.7812 46.6783 81.7812 41.1783ZM66.2812 24.1783V12.1783C69.7812 -1.85953 91.7812 0.139211 98.7812 18.6302C112.086 23.1333 116.281 31.1406 113.781 44.6405C121.452 53.3139 124.281 63.1406 113.781 76.1406M113.781 76.1406C86.2812 56.1406 52.7812 94.1406 80.7812 118.641C105.281 138.641 143.281 105.141 113.781 76.1406ZM58.6017 71.1406H34.7812M34.7812 71.1406C34.7812 63.1406 23.7812 62.6406 22.7812 71.1406C23.7812 79.6406 34.7812 78.1406 34.7812 71.1406Z" stroke="#36AF8D" stroke-width="6"/>
<path d="M58.4983 52.6783L58.2767 13.1302C56.7767 -0.851603 32.7766 -0.821816 26.2766 18.6302C13.2901 21.6783 7.79073 32.6783 11.2766 44.1782C1.28142 54.1783 -0.0256023 65.985 11.79 77.1782C9.62727 89.3031 12.7812 97.6782 27.7814 102.678C37.2812 120.678 56.2812 117.178 58.7812 103.178L58.6017 71.1406M58.4983 52.6783L47.7812 52.1783L38.7812 42.6783M58.4983 52.6783H68.7812L81.7812 41.1783M58.4983 52.6783L58.6017 71.1406M38.7812 42.6783C32.7812 47.6783 25.2812 38.6783 31.2812 33.6783C37.2812 28.6783 45.2812 36.6783 38.7812 42.6783ZM81.7812 41.1783C79.1128 32.9963 86.2812 28.6783 91.2812 34.1783C94.2812 40.1783 89.7812 46.6783 81.7812 41.1783ZM66.2812 24.1783V12.1783C69.7812 -1.85953 91.7812 0.139211 98.7812 18.6302C112.086 23.1333 116.281 31.1406 113.781 44.6405C121.452 53.3139 124.281 63.1406 113.781 76.1406M113.781 76.1406C86.2812 56.1406 52.7812 94.1406 80.7812 118.641C105.281 138.641 143.281 105.141 113.781 76.1406ZM58.6017 71.1406H34.7812M34.7812 71.1406C34.7812 63.1406 23.7812 62.6406 22.7812 71.1406C23.7812 79.6406 34.7812 78.1406 34.7812 71.1406Z" stroke="#36AF8D" stroke-width="6"/>
<rect x="96.9414" y="105.113" width="5" height="16.3553" rx="2.5" transform="rotate(136 96.9414 105.113)" fill="#36AF8D" stroke="#36AF8D"/>
<rect x="93.4192" y="108.864" width="5" height="26.0637" rx="2.5" transform="rotate(-133.314 93.4192 108.864)" fill="#36AF8D" stroke="#36AF8D"/>
</svg>
