<svg width="128" height="128" viewBox="0 0 128 128" fill="none" xmlns="http://www.w3.org/2000/svg">
<path d="M58.3186 52.6783L58.097 13.1302C56.597 -0.851603 32.597 -0.821816 26.097 18.6302C13.1104 21.6783 7.61104 32.6783 11.097 44.1782C1.10173 54.1783 -0.20529 65.985 11.6104 77.1782C9.44759 89.3031 12.6016 97.6782 27.6017 102.678C37.1016 120.678 56.1016 117.178 58.6016 103.178L58.422 71.1406M58.3186 52.6783L47.6016 52.1783L38.6016 42.6783M58.3186 52.6783H68.6016L81.6016 41.1783M58.3186 52.6783L58.422 71.1406M38.6016 42.6783C32.6016 47.6783 25.1016 38.6783 31.1016 33.6783C37.1016 28.6783 45.1016 36.6783 38.6016 42.6783ZM81.6016 41.1783C78.9331 32.9963 86.1016 28.6783 91.1016 34.1783C94.1016 40.1783 89.6016 46.6783 81.6016 41.1783ZM66.1016 24.1783V12.1783C69.6016 -1.85953 91.6016 0.139211 98.6016 18.6302C111.906 23.1333 116.102 31.1406 113.602 44.6405C121.272 53.3139 124.102 63.1406 113.602 76.1406M113.602 76.1406C86.1016 56.1406 52.6016 94.1406 80.6016 118.641C105.102 138.641 143.102 105.141 113.602 76.1406ZM58.422 71.1406H34.6016M34.6016 71.1406C34.6016 63.1406 23.6016 62.6406 22.6016 71.1406C23.6016 79.6406 34.6016 78.1406 34.6016 71.1406Z" stroke="#36AF8D" stroke-width="6"/>
<rect x="93.2637" y="109.822" width="5.28382" height="17.2145" rx="2.64191" transform="rotate(-133.314 93.2637 109.822)" fill="#36AF8D" stroke="#36AF8D" stroke-width="0.660477"/>
<rect x="0.0137385" y="0.466826" width="5.28382" height="17.2145" rx="2.64191" transform="matrix(-0.686 0.727602 0.727602 0.686 93.5507 85.1366)" fill="#36AF8D" stroke="#36AF8D" stroke-width="0.660477"/>
</svg>
