<svg width="14" height="14" viewBox="0 0 14 14" fill="none" xmlns="http://www.w3.org/2000/svg">
<path d="M10.4551 13.3721C10.6912 13.391 10.9244 13.3069 11.0928 13.1387C11.2476 12.9811 11.3291 12.7802 11.3291 12.5684C11.3291 12.3918 11.272 12.2123 11.166 12.0684C11.077 11.9462 10.9986 11.8145 10.9297 11.6758L12.0342 10.5713C12.1722 10.6403 12.3061 10.7163 12.4297 10.8057C12.7638 11.0472 13.2119 11.0141 13.4971 10.7344L13.498 10.7334C13.6526 10.5787 13.7363 10.3752 13.7363 10.1582C13.7363 9.89745 13.6093 9.64705 13.3975 9.49219C12.6476 8.94477 11.7421 8.65084 10.7363 8.60547C10.8607 7.02546 10.3993 5.62834 9.42187 4.64844C8.43463 3.66622 7.04613 3.20924 5.46484 3.33203C5.41755 2.32445 5.11574 1.40649 4.57812 0.673829C4.43414 0.478311 4.21655 0.355926 3.97754 0.336915C3.95605 0.334268 3.93457 0.333985 3.91309 0.333985C3.69859 0.333985 3.49195 0.418351 3.33984 0.570313C3.0573 0.85557 3.02753 1.30723 3.2666 1.63867C3.35553 1.76181 3.43404 1.8941 3.50293 2.0332L2.39844 3.13867C2.25961 3.06967 2.12443 2.99368 2 2.9043C1.85064 2.79576 1.67669 2.74121 1.50293 2.74121C1.29651 2.74125 1.09036 2.82077 0.935547 2.97559C0.764464 3.14671 0.680234 3.37992 0.699219 3.61621C0.718236 3.85528 0.840529 4.07281 1.03613 4.2168C1.78427 4.7641 2.68931 5.05967 3.69629 5.10449C3.57213 6.68427 4.03354 8.0809 5.01074 9.06055C5.99799 10.0431 7.38481 10.5 8.96777 10.377C9.01505 11.3848 9.31692 12.3025 9.85449 13.0352C9.99848 13.2308 10.216 13.3531 10.4551 13.3721ZM4.38574 3.4668C4.36123 2.6419 4.12951 1.90746 3.70605 1.32129C3.62184 1.20175 3.62757 1.0519 3.72266 0.954102C3.77697 0.899989 3.85323 0.872508 3.93457 0.87793C4.01588 0.886128 4.08884 0.927408 4.1377 0.995118C4.62182 1.65392 4.89057 2.4803 4.9248 3.39746C4.89454 3.40233 4.86451 3.40504 4.83398 3.41016C4.68185 3.43624 4.53217 3.45403 4.38574 3.4668ZM3.84277 3.48047C3.52848 3.47096 3.22977 3.43011 2.95215 3.35352L3.71289 2.59277C3.78894 2.86985 3.83218 3.16754 3.84277 3.48047ZM9.64062 8.65332C9.77455 7.33845 9.4335 6.19745 8.65625 5.41504C7.79777 4.55927 6.50438 4.22858 5.01562 4.47852C3.58406 4.72571 2.31813 4.48352 1.35645 3.77734C1.28853 3.72844 1.24741 3.65474 1.23926 3.57324C1.23387 3.4918 1.26135 3.41541 1.31836 3.3584C1.41332 3.26649 1.56234 3.261 1.68164 3.34473C2.52924 3.95598 3.64896 4.16284 4.92578 3.94824C6.59113 3.66299 8.04996 4.04899 9.03613 5.03516C9.90788 5.90691 10.3079 7.16994 10.1865 8.60645C10.0075 8.61432 9.82509 8.63023 9.64062 8.65332ZM5.32129 5.94824C5.29604 5.64324 5.30476 5.32174 5.34766 4.98633C5.68276 4.94453 6.00416 4.93595 6.30859 4.96094L5.32129 5.94824ZM13.1143 10.3486C13.0192 10.4437 12.8666 10.4522 12.7471 10.3652C11.9022 9.75406 10.7826 9.54711 9.50586 9.76172C7.84337 10.0469 6.38161 9.66188 5.39551 8.67578C4.52398 7.80426 4.12493 6.54083 4.24609 5.10449C4.42492 5.09634 4.60677 5.08095 4.79102 5.05762C4.65663 6.37237 4.99674 7.51285 5.77637 8.29492C6.63485 9.15069 7.92823 9.48236 9.41699 9.23242C10.8458 8.9853 12.1118 9.2273 13.0762 9.93359C13.1494 9.98523 13.1934 10.0696 13.1934 10.1592C13.1933 10.2323 13.1656 10.2998 13.1143 10.3486ZM5.66602 7.2168C5.5685 7.02638 5.48907 6.82294 5.43066 6.60645L6.9668 5.07129C7.18351 5.12942 7.38774 5.20817 7.57812 5.30566L5.66602 7.2168ZM6.38769 8.10449C6.31 8.04255 6.23247 7.97954 6.16211 7.90918C6.09175 7.83882 6.02874 7.76129 5.9668 7.68359L8.04492 5.60645C8.1226 5.66837 8.19989 5.73044 8.27051 5.80078C8.34086 5.87113 8.40291 5.94868 8.46484 6.02637L6.38769 8.10449ZM7.46582 8.63965C7.24882 8.58126 7.04488 8.50276 6.85449 8.40527L8.76562 6.49316C8.86315 6.68361 8.94354 6.88699 9.00195 7.10352L7.46582 8.63965ZM9.08496 8.72461C8.74972 8.76645 8.42857 8.77402 8.12402 8.74902L9.11133 7.7627C9.13655 8.06767 9.12787 8.38924 9.08496 8.72461ZM10.7197 11.1182C10.6434 10.8413 10.5995 10.5437 10.5889 10.2305C10.9034 10.24 11.2022 10.2806 11.4795 10.3574L10.7197 11.1182ZM10.498 12.832C10.4165 12.8239 10.3428 12.7828 10.2939 12.7148V12.7158C9.80985 12.0568 9.54207 11.2306 9.50781 10.3135C9.53819 10.3086 9.56825 10.305 9.59863 10.2998C9.7507 10.2737 9.89953 10.2559 10.0459 10.2432C10.0703 11.068 10.303 11.8034 10.7266 12.3896C10.7643 12.4411 10.7861 12.5061 10.7861 12.5684C10.7861 12.639 10.7586 12.7042 10.707 12.7559C10.6554 12.8102 10.5795 12.8374 10.498 12.832Z" fill="white"/>
<path d="M10.4551 13.3721C10.6912 13.391 10.9244 13.3069 11.0928 13.1387C11.2476 12.9811 11.3291 12.7802 11.3291 12.5684C11.3291 12.3918 11.272 12.2123 11.166 12.0684C11.077 11.9462 10.9986 11.8145 10.9297 11.6758L12.0342 10.5713C12.1722 10.6403 12.3061 10.7163 12.4297 10.8057C12.7638 11.0472 13.2119 11.0141 13.4971 10.7344L13.498 10.7334C13.6526 10.5787 13.7363 10.3752 13.7363 10.1582C13.7363 9.89745 13.6093 9.64705 13.3975 9.49219C12.6476 8.94477 11.7421 8.65084 10.7363 8.60547C10.8607 7.02546 10.3993 5.62834 9.42187 4.64844C8.43463 3.66622 7.04613 3.20924 5.46484 3.33203C5.41755 2.32445 5.11574 1.40649 4.57812 0.673829C4.43414 0.478311 4.21655 0.355926 3.97754 0.336915C3.95605 0.334268 3.93457 0.333985 3.91309 0.333985C3.69859 0.333985 3.49195 0.418351 3.33984 0.570313C3.0573 0.85557 3.02753 1.30723 3.2666 1.63867C3.35553 1.76181 3.43404 1.8941 3.50293 2.0332L2.39844 3.13867C2.25961 3.06967 2.12443 2.99368 2 2.9043C1.85064 2.79576 1.67669 2.74121 1.50293 2.74121C1.29651 2.74125 1.09036 2.82077 0.935547 2.97559C0.764464 3.14671 0.680234 3.37992 0.699219 3.61621C0.718236 3.85528 0.840529 4.07281 1.03613 4.2168C1.78427 4.7641 2.68931 5.05967 3.69629 5.10449C3.57213 6.68427 4.03354 8.0809 5.01074 9.06055C5.99799 10.0431 7.38481 10.5 8.96777 10.377C9.01505 11.3848 9.31692 12.3025 9.85449 13.0352C9.99848 13.2308 10.216 13.3531 10.4551 13.3721ZM4.38574 3.4668C4.36123 2.6419 4.12951 1.90746 3.70605 1.32129C3.62184 1.20175 3.62757 1.0519 3.72266 0.954102C3.77697 0.899989 3.85323 0.872508 3.93457 0.87793C4.01588 0.886128 4.08884 0.927408 4.1377 0.995118C4.62182 1.65392 4.89057 2.4803 4.9248 3.39746C4.89454 3.40233 4.86451 3.40504 4.83398 3.41016C4.68185 3.43624 4.53217 3.45403 4.38574 3.4668ZM3.84277 3.48047C3.52848 3.47096 3.22977 3.43011 2.95215 3.35352L3.71289 2.59277C3.78894 2.86985 3.83218 3.16754 3.84277 3.48047ZM9.64062 8.65332C9.77455 7.33845 9.4335 6.19745 8.65625 5.41504C7.79777 4.55927 6.50438 4.22858 5.01562 4.47852C3.58406 4.72571 2.31813 4.48352 1.35645 3.77734C1.28853 3.72844 1.24741 3.65474 1.23926 3.57324C1.23387 3.4918 1.26135 3.41541 1.31836 3.3584C1.41332 3.26649 1.56234 3.261 1.68164 3.34473C2.52924 3.95598 3.64896 4.16284 4.92578 3.94824C6.59113 3.66299 8.04996 4.04899 9.03613 5.03516C9.90788 5.90691 10.3079 7.16994 10.1865 8.60645C10.0075 8.61432 9.82509 8.63023 9.64062 8.65332ZM5.32129 5.94824C5.29604 5.64324 5.30476 5.32174 5.34766 4.98633C5.68276 4.94453 6.00416 4.93595 6.30859 4.96094L5.32129 5.94824ZM13.1143 10.3486C13.0192 10.4437 12.8666 10.4522 12.7471 10.3652C11.9022 9.75406 10.7826 9.54711 9.50586 9.76172C7.84337 10.0469 6.38161 9.66188 5.39551 8.67578C4.52398 7.80426 4.12493 6.54083 4.24609 5.10449C4.42492 5.09634 4.60677 5.08095 4.79102 5.05762C4.65663 6.37237 4.99674 7.51285 5.77637 8.29492C6.63485 9.15069 7.92823 9.48236 9.41699 9.23242C10.8458 8.9853 12.1118 9.2273 13.0762 9.93359C13.1494 9.98523 13.1934 10.0696 13.1934 10.1592C13.1933 10.2323 13.1656 10.2998 13.1143 10.3486ZM5.66602 7.2168C5.5685 7.02638 5.48907 6.82294 5.43066 6.60645L6.9668 5.07129C7.18351 5.12942 7.38774 5.20817 7.57812 5.30566L5.66602 7.2168ZM6.38769 8.10449C6.31 8.04255 6.23247 7.97954 6.16211 7.90918C6.09175 7.83882 6.02874 7.76129 5.9668 7.68359L8.04492 5.60645C8.1226 5.66837 8.19989 5.73044 8.27051 5.80078C8.34086 5.87113 8.40291 5.94868 8.46484 6.02637L6.38769 8.10449ZM7.46582 8.63965C7.24882 8.58126 7.04488 8.50276 6.85449 8.40527L8.76562 6.49316C8.86315 6.68361 8.94354 6.88699 9.00195 7.10352L7.46582 8.63965ZM9.08496 8.72461C8.74972 8.76645 8.42857 8.77402 8.12402 8.74902L9.11133 7.7627C9.13655 8.06767 9.12787 8.38924 9.08496 8.72461ZM10.7197 11.1182C10.6434 10.8413 10.5995 10.5437 10.5889 10.2305C10.9034 10.24 11.2022 10.2806 11.4795 10.3574L10.7197 11.1182ZM10.498 12.832C10.4165 12.8239 10.3428 12.7828 10.2939 12.7148V12.7158C9.80985 12.0568 9.54207 11.2306 9.50781 10.3135C9.53819 10.3086 9.56825 10.305 9.59863 10.2998C9.7507 10.2737 9.89953 10.2559 10.0459 10.2432C10.0703 11.068 10.303 11.8034 10.7266 12.3896C10.7643 12.4411 10.7861 12.5061 10.7861 12.5684C10.7861 12.639 10.7586 12.7042 10.707 12.7559C10.6554 12.8102 10.5795 12.8374 10.498 12.832Z" stroke="black"/>
</svg>
