<svg width="27" height="27" viewBox="0 0 27 27" fill="none" xmlns="http://www.w3.org/2000/svg">
<path d="M12.0693 3.34961C12.8334 1.98772 14.7936 1.98772 15.5576 3.34961L25.1582 20.4668C25.9059 21.7999 24.9424 23.4451 23.4141 23.4453H4.21289C2.68454 23.4451 1.72109 21.7999 2.46875 20.4668L12.0693 3.34961Z" stroke="#36AF8D" stroke-width="2"/>
<path d="M14.3597 15.5324H13.0315L12.8054 9.1456H14.5999L14.3597 15.5324ZM13.7663 18.7681C13.1304 18.7681 12.7065 18.3584 12.7065 17.7508C12.7065 17.1291 13.1304 16.7052 13.7663 16.7052C14.388 16.7052 14.7977 17.1291 14.7977 17.7508C14.7977 18.3584 14.388 18.7681 13.7663 18.7681Z" fill="#36AF8D"/>
</svg>
