<svg width="114" height="113" viewBox="0 0 114 113" fill="none" xmlns="http://www.w3.org/2000/svg">
<path d="M34.2677 79.4512C30.1829 78.1434 26.0336 79.7256 25.0003 82.9869C23.9509 86.2321 26.405 89.9455 30.4735 91.2533C34.5583 92.561 38.7076 90.9788 39.7409 87.7175C40.8065 84.44 38.3524 80.7589 34.2677 79.4512Z" fill="#36AF8D"/>
<path d="M82.6178 91.2533C86.6864 89.9455 89.1566 86.2321 88.091 82.9869C87.0578 79.7256 82.9084 78.1434 78.8237 79.4512C74.739 80.7589 72.2849 84.4562 73.3505 87.7175C74.3838 90.9788 78.5331 92.561 82.6178 91.2533Z" fill="#36AF8D"/>
<path d="M53.7212 55.6108C47.0532 55.4655 38.9806 54.8359 31.9575 53.3828C20.9303 60.7289 39.4811 67.8489 53.7212 68.3978V55.6108Z" fill="#36AF8D"/>
<path d="M53.7148 49.2902V39.9744C47.1922 39.8452 39.394 39.2479 32.4839 37.8594C24.5566 39.6192 21.812 41.7019 21.3438 42.4607C22.0218 43.7362 25.7675 45.5283 32.1449 46.9652C37.5535 48.1923 44.8188 49.1448 53.7148 49.2902Z" fill="#36AF8D"/>
<path d="M100.972 0H12.0604C5.40863 0 0 5.40863 0 12.0443V100.956C0 107.591 5.40863 113 12.0604 113H100.972C107.608 113 113.016 107.591 113.016 100.956V12.0443C113.016 5.40863 107.608 0 100.972 0ZM88.2333 51.4708C90.203 53.8926 90.7197 56.2175 90.7197 58.0096C90.7197 66.9863 77.7713 73.8964 60.0439 74.7198V76.2698C61.4001 77.0124 65.3879 78.5947 72.0074 76.4151C83.0992 72.7824 94.3846 72.4918 94.8851 84.4231C95.3856 95.7247 77.5937 105.589 67.9389 102.877C62.8047 101.44 60.4798 97.0324 59.4465 93.4482C57.9127 95.5632 54.6352 95.0466 53.8764 92.5925C48.5001 114.631 17.6144 98.1464 18.2117 84.4069C18.7284 72.4595 29.9977 72.7501 41.0894 76.3989C46.8371 78.2879 51.4062 77.3515 53.6988 76.5765V74.736C25.1542 73.7188 17.8243 59.834 24.7021 51.4223C11.7698 46.9178 12.5286 38.8937 21.796 34.5991C11.124 29.6587 9.3642 17.6951 42.1389 14.2885C43.9148 14.0786 45.4325 15.3702 45.6101 17.1139C45.8038 18.8737 44.5445 20.4075 42.7847 20.5851C28.2863 22.0866 22.1189 25.3802 21.3116 26.801C22.7162 29.5134 33.6788 31.5961 33.8564 31.6607C34.3246 31.6607 40.9764 33.3882 53.6988 33.6304V15.5478C53.6988 13.788 55.1035 12.3833 56.8633 12.3833C58.5908 12.3833 60.0277 13.788 60.0277 15.5478V33.6304C78.9983 33.1945 90.4614 29.142 91.6722 26.801C90.8327 25.2995 84.197 21.8283 68.617 20.4559C66.8571 20.2783 65.5817 18.7607 65.7431 17.017C65.8884 15.2572 67.4384 13.9979 69.182 14.1432C103.232 17.1462 102.231 29.4811 91.204 34.6314C100.374 38.8614 101.359 46.8856 88.2333 51.4708Z" fill="#36AF8D"/>
<path d="M60.0391 68.3817C75.2155 67.6228 84.386 62.0689 84.386 58.0003C84.386 56.1275 82.5131 54.4322 81.0439 53.3828C74.2791 54.7874 66.5456 55.4494 60.0391 55.5947V68.3817Z" fill="#36AF8D"/>
<path d="M60.0391 49.2667C78.9935 48.8308 90.4566 44.7784 91.6836 42.4373C91.2315 41.6785 88.4707 39.5796 80.5111 37.8359C73.8593 39.1598 66.368 39.7734 60.0391 39.9348V49.2667Z" fill="#36AF8D"/>
</svg>
