<svg width="17" height="20" viewBox="0 0 17 20" fill="none" xmlns="http://www.w3.org/2000/svg">
<path d="M12.2223 4.91761C12.2223 2.69976 10.3674 0.851562 8.04867 0.851562C5.72997 0.851562 3.87501 2.69976 3.87501 4.91761C3.87501 7.13545 5.72997 8.98365 8.04867 8.98365C10.3674 8.98365 12.2223 7.13545 12.2223 4.91761ZM5.72997 4.91761C5.72997 3.71628 6.7502 2.69976 8.04867 2.69976C9.34714 2.69976 10.3674 3.71628 10.3674 4.91761C10.3674 6.11894 9.34714 7.13545 8.04867 7.13545C6.7502 7.13545 5.72997 6.11894 5.72997 4.91761ZM3.04028 14.3434C3.41127 12.7725 4.70975 11.756 6.19371 11.756H9.90363C10.6456 11.756 11.3876 12.0332 12.0368 12.4952C12.4078 12.8649 13.0571 12.7725 13.3353 12.4028C13.7063 12.0332 13.6135 11.3863 13.2426 11.1091C12.3151 10.3698 11.1094 9.90775 9.90363 9.90775H6.19371C3.87501 9.90775 1.83456 11.4787 1.18532 13.8814L0.721584 15.6372C0.44334 16.4689 0.628836 17.393 1.18532 18.1323C1.74181 18.7791 2.4838 19.1488 3.41127 19.1488H9.81088C10.3674 19.1488 10.7384 18.7791 10.7384 18.2247C10.7384 17.6702 10.3674 17.3006 9.81088 17.3006H3.41127C3.04028 17.3006 2.85479 17.1157 2.76204 16.9309C2.4838 16.7461 2.39105 16.3765 2.4838 16.0992L3.04028 14.3434Z" fill="black"/>
<path d="M13.6184 19.154C14.1749 19.154 14.5459 18.7843 14.5459 18.2299V17.3058H15.4733C16.0298 17.3058 16.4008 16.9361 16.4008 16.3817C16.4008 15.8272 16.0298 15.4576 15.4733 15.4576H14.5459V14.5335C14.5459 13.979 14.1749 13.6094 13.6184 13.6094C13.0619 13.6094 12.6909 13.979 12.6909 14.5335V15.4576H11.7634C11.2069 15.4576 10.8359 15.8272 10.8359 16.3817C10.8359 16.9361 11.2069 17.3058 11.7634 17.3058H12.6909V18.2299C12.6909 18.7843 13.0619 19.154 13.6184 19.154Z" fill="black"/>
</svg>
