<svg width="19" height="20" viewBox="0 0 19 20" fill="none" xmlns="http://www.w3.org/2000/svg">
<path d="M15.1996 10.4764C15.2094 9.74935 15.4304 9.03633 15.8419 8.40413C16.2534 7.77193 16.8419 7.24123 17.5524 6.86172C17.1008 6.3004 16.5064 5.83808 15.8157 5.51107C15.125 5.18405 14.3569 5.00122 13.5716 4.97695C11.8761 4.82685 10.2633 5.84809 9.40471 5.84809C8.54499 5.84809 7.21842 4.9988 5.8135 5.0216C4.8904 5.04386 3.98977 5.27517 3.19995 5.69285C2.41012 6.11054 1.75822 6.70025 1.30816 7.40416C-0.60933 10.3111 0.819537 14.6174 2.68805 16.9762C3.60218 18.1295 4.69369 19.4281 6.12474 19.3816C7.50463 19.3341 8.02481 18.6026 9.69092 18.6026C11.357 18.6026 11.8261 19.3816 13.2821 19.3578C14.7665 19.3341 15.7078 18.1808 16.6143 17.0237C17.264 16.1913 17.7718 15.2809 18.1216 14.321C17.2577 13.9992 16.5207 13.4636 16.0015 12.7804C15.4823 12.0972 15.2035 11.2963 15.1996 10.4764ZM12.4605 3.41612C13.2818 2.57514 13.6886 1.48471 13.5923 0.382812C12.3525 0.48812 11.2059 1.00338 10.3874 1.82299C9.97892 2.22007 9.66619 2.68485 9.46782 3.18966C9.26945 3.69446 9.18952 4.22896 9.23277 4.7613C9.853 4.7686 10.4668 4.65104 11.0266 4.41775C11.5864 4.18446 12.077 3.84172 12.4605 3.41612Z" fill="#868686"/>
</svg>
