<svg width="17" height="21" viewBox="0 0 17 21" fill="none" xmlns="http://www.w3.org/2000/svg">
<path d="M14.5554 0.132812H2.7094C2.12032 0.132813 1.55537 0.366823 1.13883 0.783364C0.722292 1.1999 0.488281 1.76486 0.488281 2.35393V18.6421C0.488281 19.2312 0.722292 19.7962 1.13883 20.2127C1.55537 20.6293 2.12032 20.8633 2.7094 20.8633H14.5554C15.1445 20.8633 15.7094 20.6293 16.1259 20.2127C16.5425 19.7962 16.7765 19.2312 16.7765 18.6421V2.35393C16.7765 1.76486 16.5425 1.1999 16.1259 0.783364C15.7094 0.366823 15.1445 0.132813 14.5554 0.132812ZM15.2957 18.6421C15.2957 18.8385 15.2177 19.0268 15.0789 19.1657C14.9401 19.3045 14.7517 19.3825 14.5554 19.3825H2.7094C2.51304 19.3825 2.32473 19.3045 2.18588 19.1657C2.04703 19.0268 1.96903 18.8385 1.96903 18.6421V2.35393C1.96903 2.15757 2.04703 1.96926 2.18588 1.83041C2.32473 1.69156 2.51304 1.61356 2.7094 1.61356H14.5554C14.7517 1.61356 14.9401 1.69156 15.0789 1.83041C15.2177 1.96926 15.2957 2.15757 15.2957 2.35393V18.6421ZM8.41768 7.01088C8.48707 7.07971 8.54215 7.16159 8.57974 7.25182C8.61733 7.34204 8.63668 7.43881 8.63668 7.53655C8.63668 7.63428 8.61733 7.73106 8.57974 7.82128C8.54215 7.9115 8.48707 7.99338 8.41768 8.06221L6.19656 10.2833C6.12773 10.3527 6.04585 10.4078 5.95563 10.4454C5.8654 10.483 5.76863 10.5023 5.6709 10.5023C5.57316 10.5023 5.47639 10.483 5.38616 10.4454C5.29594 10.4078 5.21406 10.3527 5.14523 10.2833L3.66448 8.80259C3.52507 8.66317 3.44675 8.47408 3.44675 8.27692C3.44675 8.07976 3.52507 7.89067 3.66448 7.75126C3.8039 7.61184 3.99299 7.53352 4.19015 7.53352C4.38731 7.53352 4.5764 7.61184 4.71581 7.75126L5.6709 8.71374L7.36635 7.01088C7.43518 6.94149 7.51706 6.88641 7.60729 6.84882C7.69751 6.81123 7.79428 6.79188 7.89202 6.79188C7.98975 6.79188 8.08652 6.81123 8.17675 6.84882C8.26697 6.88641 8.34885 6.94149 8.41768 7.01088ZM7.67731 14.7256L6.71482 15.6807L7.67731 16.6357C7.7467 16.7046 7.80178 16.7864 7.83937 16.8767C7.87696 16.9669 7.89631 17.0637 7.89631 17.1614C7.89631 17.2591 7.87696 17.3559 7.83937 17.4461C7.80178 17.5364 7.7467 17.6182 7.67731 17.6871C7.60848 17.7565 7.52659 17.8115 7.43637 17.8491C7.34615 17.8867 7.24938 17.9061 7.15164 17.9061C7.0539 17.9061 6.95713 17.8867 6.86691 17.8491C6.77669 17.8115 6.6948 17.7565 6.62598 17.6871L5.6709 16.7246L4.71581 17.6871C4.64699 17.7565 4.5651 17.8115 4.47488 17.8491C4.38466 17.8867 4.28789 17.9061 4.19015 17.9061C4.09241 17.9061 3.99564 17.8867 3.90542 17.8491C3.8152 17.8115 3.73331 17.7565 3.66448 17.6871C3.59509 17.6182 3.54001 17.5364 3.50242 17.4461C3.46483 17.3559 3.44548 17.2591 3.44548 17.1614C3.44548 17.0637 3.46483 16.9669 3.50242 16.8767C3.54001 16.7864 3.59509 16.7046 3.66448 16.6357L4.62697 15.6807L3.66448 14.7256C3.52507 14.5862 3.44675 14.3971 3.44675 14.1999C3.44675 14.0027 3.52507 13.8137 3.66448 13.6742C3.8039 13.5348 3.99299 13.4565 4.19015 13.4565C4.38731 13.4565 4.5764 13.5348 4.71581 13.6742L5.6709 14.6367L6.62598 13.6742C6.69501 13.6052 6.77696 13.5505 6.86715 13.5131C6.95735 13.4757 7.05402 13.4565 7.15164 13.4565C7.24927 13.4565 7.34594 13.4757 7.43613 13.5131C7.52632 13.5505 7.60828 13.6052 7.67731 13.6742C7.74634 13.7433 7.8011 13.8252 7.83846 13.9154C7.87582 14.0056 7.89504 14.1023 7.89504 14.1999C7.89504 14.2975 7.87582 14.3942 7.83846 14.4844C7.8011 14.5746 7.74634 14.6565 7.67731 14.7256ZM12.3343 16.421C12.3343 16.6174 12.2563 16.8057 12.1174 16.9446C11.9786 17.0834 11.7902 17.1614 11.5939 17.1614H10.1131C9.91678 17.1614 9.72846 17.0834 9.58961 16.9446C9.45076 16.8057 9.37276 16.6174 9.37276 16.421C9.37276 16.2247 9.45076 16.0364 9.58961 15.8975C9.72846 15.7587 9.91678 15.6807 10.1131 15.6807H11.5939C11.7902 15.6807 11.9786 15.7587 12.1174 15.8975C12.2563 16.0364 12.3343 16.2247 12.3343 16.421ZM13.815 14.1999C13.815 14.3963 13.737 14.5846 13.5982 14.7234C13.4593 14.8623 13.271 14.9403 13.0746 14.9403H10.1131C9.91678 14.9403 9.72846 14.8623 9.58961 14.7234C9.45076 14.5846 9.37276 14.3963 9.37276 14.1999C9.37276 14.0035 9.45076 13.8152 9.58961 13.6764C9.72846 13.5375 9.91678 13.4595 10.1131 13.4595H13.0746C13.271 13.4595 13.4593 13.5375 13.5982 13.6764C13.737 13.8152 13.815 14.0035 13.815 14.1999ZM9.37276 9.75767C9.37276 9.56131 9.45076 9.37299 9.58961 9.23414C9.72846 9.0953 9.91678 9.01729 10.1131 9.01729H11.5939C11.7902 9.01729 11.9786 9.0953 12.1174 9.23414C12.2563 9.37299 12.3343 9.56131 12.3343 9.75767C12.3343 9.95403 12.2563 10.1423 12.1174 10.2812C11.9786 10.42 11.7902 10.498 11.5939 10.498H10.1131C9.91678 10.498 9.72846 10.42 9.58961 10.2812C9.45076 10.1423 9.37276 9.95403 9.37276 9.75767ZM13.815 7.53655C13.815 7.73291 13.737 7.92122 13.5982 8.06007C13.4593 8.19892 13.271 8.27692 13.0746 8.27692H10.1131C9.91678 8.27692 9.72846 8.19892 9.58961 8.06007C9.45076 7.92122 9.37276 7.73291 9.37276 7.53655C9.37276 7.34019 9.45076 7.15187 9.58961 7.01302C9.72846 6.87418 9.91678 6.79617 10.1131 6.79617H13.0746C13.271 6.79617 13.4593 6.87418 13.5982 7.01302C13.737 7.15187 13.815 7.34019 13.815 7.53655ZM13.815 3.83468C13.815 4.03104 13.737 4.21936 13.5982 4.3582C13.4593 4.49705 13.271 4.57505 13.0746 4.57505H4.19015C3.99379 4.57505 3.80547 4.49705 3.66663 4.3582C3.52778 4.21936 3.44977 4.03104 3.44977 3.83468C3.44977 3.63832 3.52778 3.45 3.66663 3.31116C3.80547 3.17231 3.99379 3.09431 4.19015 3.09431H13.0746C13.271 3.09431 13.4593 3.17231 13.5982 3.31116C13.737 3.45 13.815 3.63832 13.815 3.83468Z" fill="#36AF8D"/>
</svg>
