<svg width="24" height="23" viewBox="0 0 24 23" fill="none" xmlns="http://www.w3.org/2000/svg">
<path d="M23.7441 21.31L22.6282 17.922C22.5646 17.7288 22.5854 17.521 22.6775 17.34C23.5162 15.691 23.8624 13.7442 23.4996 11.692C22.9434 8.54615 20.6673 5.93212 17.7152 4.92969C18.4769 6.7917 18.7092 8.86184 18.3286 10.9154C17.5555 15.0892 14.2532 18.3986 10.1114 19.1503C9.57528 19.2477 9.03369 19.2951 8.49609 19.3089C9.75395 20.6824 11.4329 21.6588 13.3059 21.9988C15.321 22.3645 17.2357 22.0241 18.8599 21.188C19.0382 21.0963 19.242 21.0758 19.4318 21.1399L22.7921 22.2734C23.3806 22.472 23.9403 21.9054 23.7441 21.31Z" fill="#36AF8D"/>
<path fill-rule="evenodd" clip-rule="evenodd" d="M17.2922 9.01741C17.2922 13.7258 13.5209 17.5426 8.86875 17.5426C4.21661 17.5426 0.445312 13.7258 0.445312 9.01741C0.445312 4.30906 4.21661 0.492188 8.86875 0.492188C13.5209 0.492188 17.2922 4.30906 17.2922 9.01741ZM2.52998 12.165L5.74792 5.3078L7.64083 9.19975L6.50508 9.84841L5.74792 8.36576L4.51753 10.9604L2.52998 12.165ZM7.92476 9.94107L9.15515 12.5357H7.73547L6.88366 10.6824L4.0443 12.5357H2.52998L15.0232 5.3078L9.62838 9.10708C9.73334 10.4029 11.0481 11.0809 11.7106 11.1457C12.1838 11.1921 12.6896 11.0011 13.3195 10.4971L14.1714 11.5164C13.1885 12.5203 11.8052 12.5553 11.6851 12.5304C10.9534 12.5357 9.46388 12.0715 8.30334 9.75574L7.92476 9.94107ZM12.6518 7.20196C13.2313 7.40104 13.4875 7.53569 13.8357 8.01268L14.5692 6.84815C14.0658 6.47717 13.8815 6.43554 13.8354 6.43473L13.8356 6.43464L13.8354 6.43473C13.8261 6.43457 13.8225 6.43606 13.823 6.43685C13.8235 6.43764 13.8281 6.43772 13.8354 6.43473L13.8354 6.43473L12.6518 7.20196ZM9.64423 8.01884L8.04779 8.96604C8.10774 6.37113 10.5472 4.76353 13.1198 6.02813L11.7114 6.88025C10.6325 6.89204 10.1623 7.10724 9.64423 8.01884Z" fill="#36AF8D"/>
<path d="M1.44877 13C1.44877 13 -0.270994 17.8431 0.350063 17.7259C0.443847 18.1667 2.42472 17.3978 5.01957 16.5213L1.44877 13Z" fill="#36AF8D" stroke="#919191" stroke-width="0.184221"/>
</svg>
