<svg width="13" height="13" viewBox="0 0 13 13" fill="none" xmlns="http://www.w3.org/2000/svg">
<path d="M3.9378 9.13874C3.46788 8.98829 2.99053 9.17031 2.87165 9.54551C2.75092 9.91885 3.03325 10.3461 3.50131 10.4965C3.97124 10.647 4.44859 10.4649 4.56747 10.0897C4.69005 9.71268 4.40773 9.28919 3.9378 9.13874Z" fill="#53EF96"/>
<path d="M9.50104 10.4965C9.96911 10.3461 10.2533 9.91885 10.1307 9.54551C10.0118 9.17031 9.53448 8.98829 9.06455 9.13874C8.59463 9.28919 8.3123 9.71453 8.43489 10.0897C8.55376 10.4649 9.03112 10.647 9.50104 10.4965Z" fill="#53EF96"/>
<path d="M6.17803 6.39695C5.41092 6.38023 4.48222 6.30779 3.67424 6.14062C2.40563 6.98575 4.5398 7.80486 6.17803 7.86801V6.39695Z" fill="#53EF96"/>
<path d="M6.17723 5.67442V4.6027C5.42684 4.58784 4.52971 4.51911 3.73474 4.35938C2.82275 4.56183 2.50699 4.80144 2.45312 4.88874C2.53114 5.03547 2.96205 5.24164 3.69573 5.40695C4.31796 5.54812 5.1538 5.6577 6.17723 5.67442Z" fill="#53EF96"/>
<path d="M11.6162 0L1.38748 0C0.622232 0 0 0.622232 0 1.38563L0 11.6144C0 12.3778 0.622232 13 1.38748 13L11.6162 13C12.3796 13 13.0019 12.3778 13.0019 11.6144L13.0019 1.38563C13.0019 0.622232 12.3796 0 11.6162 0ZM10.1507 5.92142C10.3773 6.20003 10.4368 6.4675 10.4368 6.67367C10.4368 7.70639 8.94714 8.50136 6.9077 8.59609V8.7744C7.06372 8.85984 7.5225 9.04186 8.28404 8.79111C9.56008 8.3732 10.8584 8.33976 10.916 9.71239C10.9736 11.0126 8.92671 12.1475 7.81598 11.8354C7.22532 11.6701 6.95785 11.163 6.83898 10.7507C6.66252 10.994 6.28547 10.9346 6.19817 10.6522C5.57965 13.1876 2.02643 11.2912 2.09516 9.71053C2.15459 8.33605 3.45107 8.36948 4.7271 8.78926C5.38834 9.00657 5.91399 8.89884 6.17774 8.80969V8.59794C2.89384 8.48093 2.05058 6.88356 2.84183 5.91585C1.35405 5.39763 1.44135 4.4745 2.5075 3.98043C1.27975 3.41206 1.0773 2.03572 4.84784 1.64381C5.05215 1.61966 5.22675 1.76825 5.24718 1.96885C5.26947 2.17131 5.12459 2.34776 4.92213 2.3682C3.25418 2.54093 2.54465 2.91985 2.45178 3.0833C2.61337 3.39534 3.87455 3.63495 3.89499 3.64238C3.94885 3.64238 4.7141 3.84112 6.17774 3.86898L6.17774 1.78868C6.17774 1.58623 6.33934 1.42463 6.54179 1.42463C6.74054 1.42463 6.90584 1.58623 6.90584 1.78868L6.90584 3.86898C9.0883 3.81883 10.4071 3.35262 10.5464 3.0833C10.4498 2.91056 9.68639 2.51122 7.89399 2.35334C7.69153 2.3329 7.54479 2.15831 7.56337 1.95771C7.58008 1.75525 7.75839 1.61037 7.95899 1.62709C11.8763 1.97257 11.7611 3.39163 10.4925 3.98414C11.5475 4.47078 11.6608 5.39391 10.1507 5.92142Z" fill="#53EF96"/>
<path d="M6.90625 7.86616C8.65221 7.77886 9.70722 7.13991 9.70722 6.67184C9.70722 6.45638 9.49176 6.26136 9.32274 6.14062C8.54448 6.30222 7.65479 6.37837 6.90625 6.39509V7.86616Z" fill="#53EF96"/>
<path d="M6.90625 5.67442C9.08685 5.62427 10.4056 5.15806 10.5468 4.88874C10.4948 4.80144 10.1771 4.55998 9.26144 4.35938C8.49619 4.51168 7.63435 4.58226 6.90625 4.60084V5.67442Z" fill="#53EF96"/>
</svg>
