<svg width="17" height="17" viewBox="0 0 17 17" fill="none" xmlns="http://www.w3.org/2000/svg">
<path d="M14.7234 0H1.63594C1.20206 0 0.785953 0.172357 0.479155 0.479155C0.172357 0.785953 0 1.20206 0 1.63594V14.7234C0 15.1573 0.172357 15.5734 0.479155 15.8802C0.785953 16.187 1.20206 16.3594 1.63594 16.3594H14.7234C15.1573 16.3594 15.5734 16.187 15.8802 15.8802C16.187 15.5734 16.3594 15.1573 16.3594 14.7234V1.63594C16.3594 1.20206 16.187 0.785953 15.8802 0.479155C15.5734 0.172357 15.1573 0 14.7234 0ZM15.2688 14.7234C15.2688 14.8681 15.2113 15.0068 15.109 15.109C15.0068 15.2113 14.8681 15.2688 14.7234 15.2688H1.63594C1.49131 15.2688 1.35261 15.2113 1.25034 15.109C1.14808 15.0068 1.09063 14.8681 1.09063 14.7234V1.63594C1.09063 1.49131 1.14808 1.35261 1.25034 1.25034C1.35261 1.14808 1.49131 1.09063 1.63594 1.09063H14.7234C14.8681 1.09063 15.0068 1.14808 15.109 1.25034C15.2113 1.35261 15.2688 1.49131 15.2688 1.63594V14.7234Z" fill="#087A5A"/>
<path d="M7.272 9.97675L5.89781 11.3509C5.77838 11.4637 5.62035 11.5265 5.45611 11.5265C5.29187 11.5265 5.13384 11.4637 5.01441 11.3509C4.9558 11.2935 4.90959 11.2247 4.87864 11.1487C4.84769 11.0728 4.83265 10.9913 4.83445 10.9092C4.83359 10.8273 4.84906 10.7461 4.87996 10.6703C4.91086 10.5944 4.95656 10.5255 5.01441 10.4675L6.38859 9.09334C6.51192 8.97026 6.60977 8.82406 6.67653 8.66312C6.74329 8.50218 6.77765 8.32965 6.77765 8.15541C6.77765 7.98116 6.74329 7.80864 6.67653 7.64769C6.60977 7.48675 6.51192 7.34055 6.38859 7.21747C6.13562 6.97896 5.80107 6.84611 5.45338 6.84611C5.1057 6.84611 4.77115 6.97896 4.51817 7.21747L3.13853 8.59711C2.52459 9.21105 2.17969 10.0437 2.17969 10.912C2.17969 11.7802 2.52459 12.6129 3.13853 13.2268C3.75247 13.8407 4.58514 14.1857 5.45338 14.1857C6.32162 14.1857 7.1543 13.8407 7.76823 13.2268L9.14787 11.8472C9.27679 11.7254 9.37996 11.579 9.45124 11.4166C9.52253 11.2542 9.5605 11.0791 9.56289 10.9018C9.56528 10.7245 9.53205 10.5484 9.46517 10.3842C9.39829 10.2199 9.29912 10.0708 9.17353 9.94556C9.04794 9.82034 8.8985 9.7216 8.73405 9.65519C8.5696 9.58879 8.39349 9.55607 8.21617 9.55898C8.03884 9.56189 7.8639 9.60037 7.70172 9.67213C7.53954 9.74389 7.39341 9.84748 7.272 9.97675ZM8.36262 11.0674L6.98844 12.4416C6.57915 12.8509 6.02403 13.0808 5.4452 13.0808C4.86638 13.0808 4.31126 12.8509 3.90197 12.4416C3.49268 12.0323 3.26274 11.4772 3.26274 10.8983C3.26274 10.3195 3.49268 9.76438 3.90197 9.35509L5.27616 7.98091C5.29756 7.9583 5.32335 7.94029 5.35194 7.92799C5.38054 7.91568 5.41134 7.90933 5.44248 7.90933C5.47361 7.90933 5.50441 7.91568 5.53301 7.92799C5.56161 7.94029 5.58739 7.9583 5.6088 7.98091C5.63056 8.00223 5.64785 8.02768 5.65965 8.05577C5.67146 8.08386 5.67754 8.11403 5.67754 8.1445C5.67754 8.17497 5.67146 8.20513 5.65965 8.23322C5.64785 8.26132 5.63056 8.28677 5.6088 8.30809L4.24551 9.69864C4.08503 9.85651 3.95792 10.045 3.87173 10.253C3.78555 10.461 3.74205 10.6841 3.74383 10.9092C3.74255 11.1351 3.78626 11.3589 3.87239 11.5677C3.95852 11.7765 4.08536 11.966 4.24551 12.1253C4.57197 12.436 5.00541 12.6093 5.45611 12.6093C5.9068 12.6093 6.34024 12.436 6.6667 12.1253L8.04634 10.7511C8.16086 10.6311 8.25356 10.6311 8.37353 10.7511C8.41617 10.7949 8.44003 10.8536 8.44003 10.9147C8.44003 10.9758 8.41617 11.0345 8.37353 11.0783L8.36262 11.0674ZM8.59711 3.13853L7.21747 4.51817C7.08855 4.63996 6.98539 4.78639 6.9141 4.94878C6.84281 5.11117 6.80484 5.28622 6.80245 5.46355C6.80006 5.64088 6.83329 5.81689 6.90017 5.98115C6.96705 6.1454 7.06622 6.29456 7.19181 6.41979C7.3174 6.54501 7.46685 6.64375 7.6313 6.71015C7.79574 6.77655 7.97185 6.80927 8.14918 6.80636C8.3265 6.80345 8.50144 6.76498 8.66362 6.69321C8.8258 6.62145 8.97193 6.51787 9.09334 6.38859L10.4675 5.01441C10.587 4.90166 10.745 4.83886 10.9092 4.83886C11.0735 4.83886 11.2315 4.90166 11.3509 5.01441C11.4095 5.07181 11.4558 5.14063 11.4867 5.2166C11.5177 5.29258 11.5327 5.37409 11.5309 5.45611C11.5318 5.538 11.5163 5.61924 11.4854 5.69508C11.4545 5.77092 11.4088 5.83984 11.3509 5.89781L9.97675 7.272C9.84748 7.39341 9.74389 7.53954 9.67213 7.70172C9.60037 7.8639 9.56189 8.03884 9.55898 8.21617C9.55607 8.39349 9.58879 8.5696 9.65519 8.73405C9.7216 8.8985 9.82034 9.04794 9.94556 9.17353C10.0708 9.29912 10.2199 9.39829 10.3842 9.46517C10.5484 9.53205 10.7245 9.56528 10.9018 9.56289C11.0791 9.5605 11.2542 9.52253 11.4166 9.45124C11.579 9.37996 11.7254 9.27679 11.8472 9.14787L13.2268 7.76823C13.8407 7.1543 14.1857 6.32162 14.1857 5.45338C14.1857 4.58514 13.8407 3.75247 13.2268 3.13853C12.6129 2.52459 11.7802 2.17969 10.912 2.17969C10.0437 2.17969 9.21105 2.52459 8.59711 3.13853ZM12.4525 6.99934L11.0783 8.37353C11.0606 8.4017 11.0361 8.42492 11.007 8.44101C10.9779 8.45711 10.9452 8.46556 10.912 8.46556C10.8787 8.46556 10.846 8.45711 10.8169 8.44101C10.7878 8.42492 10.7633 8.4017 10.7456 8.37353C10.7239 8.35221 10.7066 8.32675 10.6948 8.29866C10.683 8.27057 10.6769 8.24041 10.6769 8.20994C10.6769 8.17947 10.683 8.1493 10.6948 8.12121C10.7066 8.09312 10.7239 8.06767 10.7456 8.04634L12.1198 6.6667C12.2803 6.50884 12.4074 6.32032 12.4936 6.11235C12.5798 5.90439 12.6233 5.68122 12.6215 5.45611C12.623 5.23084 12.5797 5.00753 12.4941 4.79914C12.4086 4.59074 12.2825 4.4014 12.1232 4.24211C11.9639 4.08282 11.7746 3.95675 11.5662 3.87122C11.3578 3.78568 11.1345 3.74238 10.9092 3.74383C10.6841 3.74205 10.461 3.78555 10.253 3.87173C10.045 3.95792 9.85651 4.08503 9.69864 4.24551L8.319 5.6197C8.20448 5.73967 8.11178 5.73967 7.99181 5.6197C7.96988 5.59791 7.95248 5.572 7.94061 5.54345C7.92873 5.51491 7.92262 5.4843 7.92262 5.45338C7.92262 5.42247 7.92873 5.39186 7.94061 5.36331C7.95248 5.33477 7.96988 5.30885 7.99181 5.28706L9.366 3.91287C9.77529 3.50358 10.3304 3.27365 10.9092 3.27365C11.4881 3.27365 12.0432 3.50358 12.4525 3.91287C12.8618 4.32217 13.0917 4.87728 13.0917 5.45611C13.0917 6.03493 12.8618 6.59005 12.4525 6.99934Z" fill="#087A5A"/>
</svg>
