<svg width="341" height="271" viewBox="0 0 341 271" fill="none" xmlns="http://www.w3.org/2000/svg">
<path opacity="0.23" d="M4.7005 52.4565C10.594 44.3874 21.5192 41.751 30.751 46.3501C34.1658 48.0499 37.7775 49.3589 41.4642 50.4972L64.1833 18.755C61.9136 15.6123 59.4448 12.6815 56.7468 10.0298C53.5445 6.91074 51.4042 2.72053 50.6825 -1.63583C49.8164 -6.86347 51.0053 -12.1561 54.1814 -16.6763C57.6483 -21.52 63.0679 -24.5526 68.9764 -25.0495C74.952 -25.5575 80.8134 -23.4299 85.165 -19.1929C101.423 -3.31484 112.621 18.0979 117.907 42.7695C156.457 33.2631 192.538 38.8608 220.91 59.0671C249.021 79.2407 266.11 111.811 269.504 151.291C294.532 148.28 318.065 151.874 338.76 162.32C344.174 165.073 348.078 169.935 349.524 175.755C350.96 181.508 349.837 187.616 346.314 192.538C343.127 196.991 338.355 199.779 333.262 200.623C328.972 201.333 324.461 200.703 320.331 198.633C316.896 196.937 313.269 195.623 309.563 194.488L286.821 226.262C289.093 229.418 291.572 232.368 294.274 235.046C301.527 242.246 302.633 253.493 296.829 261.685C293.697 266.06 288.948 268.982 283.653 269.859C283.117 269.948 282.581 270.037 282.034 270.059C276.058 270.567 270.197 268.439 265.845 264.202C249.587 248.324 238.389 226.911 233.104 202.246C194.593 211.739 158.472 206.148 130.102 185.949C101.982 165.77 84.8913 133.186 81.5027 93.6981C56.5061 96.6895 32.98 93.1366 12.2447 82.6966C6.38418 79.7425 2.21263 74.0985 1.14664 67.6645C0.258319 62.3028 1.50315 56.932 4.6904 52.4789L4.7005 52.4565ZM56.0115 53.5132C63.1686 54.2762 70.7008 54.0612 78.5007 53.0099C76.959 45.3257 74.6775 38.1634 71.6627 31.646L56.0115 53.5132ZM75.6234 -9.4934C74.1394 -10.9691 72.1633 -11.6746 70.1194 -11.5425C68.0865 -11.3434 66.321 -10.3623 65.2697 -8.81091C64.2073 -7.32653 63.8035 -5.60699 64.0922 -3.86444C64.3476 -2.32296 65.1503 -0.803288 66.2996 0.314656C79.1444 13.0467 87.8716 30.2276 91.846 50.4752C95.4062 49.5617 99.0057 48.5109 102.652 47.2456C103.382 46.9939 104.112 46.7903 104.843 46.5452C100.25 24.0589 90.2593 4.78046 75.6223 -9.5001L75.6234 -9.4934ZM295.013 191.459C287.85 190.704 280.317 190.912 272.524 191.962C274.065 199.64 276.346 206.802 279.355 213.327L295.013 191.459ZM275.396 254.473C276.88 255.949 278.856 256.655 280.9 256.523C282.933 256.323 284.698 255.342 285.816 253.78C287.762 250.978 287.286 247.27 284.72 244.665C271.875 231.933 263.149 214.759 259.173 194.505C255.613 195.418 252.013 196.469 248.367 197.734C247.631 197.987 246.907 198.19 246.176 198.435C250.769 220.921 260.76 240.2 275.396 254.473ZM138.045 174.834C166.405 195.132 203.972 198.686 243.89 184.842C274.512 174.328 302.969 174.847 326.378 186.462C329.671 188.051 333.335 187.307 335.303 184.639C336.477 182.999 336.837 181.011 336.369 179.023C335.835 177.045 334.53 175.402 332.655 174.473C306.042 160.979 273.822 160.188 239.513 172.139C203.807 184.39 170.55 181.499 145.874 163.896C123.501 147.771 110.407 121.026 108.337 88.0403C103.881 89.3639 99.4545 90.4966 95.0701 91.4227C97.946 127.36 112.975 156.89 138.045 174.834ZM121.766 84.018C122.079 92.4706 123.184 100.434 125.055 107.857L145.369 79.474C137.754 80.1021 129.866 81.6157 121.766 84.018ZM162.064 79.49L130.448 123.662C132.774 128.765 135.568 133.446 138.752 137.745L178.101 82.7688C173.004 81.1411 167.658 80.0437 162.064 79.49ZM190.853 88.2927L148.088 148.043C149.933 149.706 151.79 151.354 153.814 152.803C155.844 154.25 158.002 155.469 160.172 156.68L202.931 96.9374C201.086 95.2738 199.229 93.6258 197.205 92.1775C195.182 90.7293 193.023 89.5031 190.853 88.2927ZM212.267 107.235L172.924 162.203C178.021 163.831 183.369 164.942 188.955 165.49L220.571 121.318C218.245 116.215 215.452 111.534 212.267 107.235ZM229.253 160.962C228.94 152.509 227.833 144.54 225.963 137.117L205.643 165.507C213.258 164.879 221.153 163.364 229.253 160.962ZM18.3644 70.5066C45.0439 83.9901 77.264 84.7805 111.507 72.8409C147.212 60.59 180.469 63.481 205.146 81.0838C227.577 97.1923 240.624 123.945 242.681 156.933C247.136 155.603 251.562 154.47 255.946 153.537C253.064 117.608 238.036 88.0845 212.974 70.1463C184.615 49.8484 146.98 46.3054 107.13 60.1383C76.5069 70.6518 48.0504 70.1331 24.7084 58.5067C21.4042 56.8506 17.6843 57.6735 15.7272 60.4078C14.6537 61.8252 14.2611 63.6118 14.5609 65.4213C14.9273 67.633 16.3439 69.533 18.3644 70.5066Z" fill="#30353A"/>
</svg>
