<svg width="20" height="19" viewBox="0 0 20 19" fill="none" xmlns="http://www.w3.org/2000/svg">
<path d="M18.2611 11.5177C18.0176 11.5177 17.784 11.6144 17.6118 11.7866C17.4397 11.9588 17.3429 12.1923 17.3429 12.4358V16.1084C17.3429 16.3519 17.2462 16.5854 17.074 16.7576C16.9018 16.9298 16.6683 17.0265 16.4248 17.0265H3.57083C3.32732 17.0265 3.09379 16.9298 2.9216 16.7576C2.74942 16.5854 2.65269 16.3519 2.65269 16.1084V12.4358C2.65269 12.1923 2.55595 11.9588 2.38377 11.7866C2.21158 11.6144 1.97805 11.5177 1.73455 11.5177C1.49104 11.5177 1.25751 11.6144 1.08532 11.7866C0.913139 11.9588 0.816406 12.1923 0.816406 12.4358V16.1084C0.816406 16.8389 1.1066 17.5395 1.62316 18.0561C2.13971 18.5726 2.84031 18.8628 3.57083 18.8628H16.4248C17.1553 18.8628 17.8559 18.5726 18.3725 18.0561C18.889 17.5395 19.1792 16.8389 19.1792 16.1084V12.4358C19.1792 12.1923 19.0825 11.9588 18.9103 11.7866C18.7381 11.6144 18.5046 11.5177 18.2611 11.5177ZM9.34593 13.0877C9.43325 13.1713 9.53621 13.2368 9.64891 13.2805C9.75881 13.3291 9.87765 13.3542 9.99781 13.3542C10.118 13.3542 10.2368 13.3291 10.3467 13.2805C10.4594 13.2368 10.5624 13.1713 10.6497 13.0877L14.3222 9.41514C14.4951 9.24225 14.5923 9.00776 14.5923 8.76326C14.5923 8.51876 14.4951 8.28427 14.3222 8.11138C14.1494 7.93849 13.9149 7.84136 13.6704 7.84136C13.4259 7.84136 13.1914 7.93849 13.0185 8.11138L10.9159 10.2231V1.41814C10.9159 1.17463 10.8192 0.941102 10.647 0.768917C10.4748 0.596732 10.2413 0.5 9.99781 0.5C9.7543 0.5 9.52077 0.596732 9.34858 0.768917C9.1764 0.941102 9.07967 1.17463 9.07967 1.41814V10.2231L6.97713 8.11138C6.89152 8.02577 6.78989 7.95787 6.67804 7.91154C6.56619 7.86521 6.44631 7.84136 6.32525 7.84136C6.20418 7.84136 6.0843 7.86521 5.97245 7.91154C5.8606 7.95787 5.75897 8.02577 5.67337 8.11138C5.58776 8.19699 5.51986 8.29862 5.47353 8.41047C5.4272 8.52232 5.40335 8.6422 5.40335 8.76326C5.40335 8.88433 5.4272 9.00421 5.47353 9.11606C5.51986 9.22791 5.58776 9.32953 5.67337 9.41514L9.34593 13.0877Z" fill="#6A6E73"/>
</svg>
