<svg width="12" height="12" viewBox="0 0 12 12" fill="none" xmlns="http://www.w3.org/2000/svg">
<path d="M11.2708 0.5H0.729167C0.668388 0.5 0.610098 0.524145 0.567121 0.567122C0.524144 0.610099 0.5 0.668388 0.5 0.729167V5.3125C0.5 5.37328 0.524144 5.43157 0.567121 5.47455C0.610098 5.51752 0.668388 5.54167 0.729167 5.54167C0.789945 5.54167 0.848235 5.51752 0.891212 5.47455C0.934189 5.43157 0.958333 5.37328 0.958333 5.3125V0.958333H11.0417V11.0417H6.6875C6.62672 11.0417 6.56843 11.0658 6.52545 11.1088C6.48248 11.1518 6.45833 11.2101 6.45833 11.2708C6.45833 11.3316 6.48248 11.3899 6.52545 11.4329C6.56843 11.4759 6.62672 11.5 6.6875 11.5H11.2708C11.3316 11.5 11.3899 11.4759 11.4329 11.4329C11.4759 11.3899 11.5 11.3316 11.5 11.2708V0.729167C11.5 0.668388 11.4759 0.610099 11.4329 0.567122C11.3899 0.524145 11.3316 0.5 11.2708 0.5Z" fill="#36AF8D"/>
<path d="M8.29167 4.03237V5.3125C8.29167 5.37328 8.31581 5.43157 8.35879 5.47455C8.40177 5.51752 8.46006 5.54167 8.52083 5.54167C8.58161 5.54167 8.6399 5.51752 8.68288 5.47455C8.72586 5.43157 8.75 5.37328 8.75 5.3125V3.25H6.6875C6.62672 3.25 6.56843 3.27414 6.52545 3.31712C6.48248 3.3601 6.45833 3.41839 6.45833 3.47917C6.45833 3.53995 6.48248 3.59824 6.52545 3.64121C6.56843 3.68419 6.62672 3.70833 6.6875 3.70833H7.96763L5.21694 6.45925H0.729167C0.603125 6.45925 0.5 6.56008 0.5 6.68842V11.2717C0.5 11.3978 0.603125 11.5009 0.729167 11.5009H5.3125C5.43854 11.5009 5.54167 11.3978 5.54167 11.2717V6.7826L8.29167 4.03237Z" fill="#36AF8D"/>
</svg>
