<svg width="30" height="41" viewBox="0 0 30 41" fill="none" xmlns="http://www.w3.org/2000/svg">
<path d="M12.2703 1.0754C11.5584 0.643191 10.6558 0.719471 10.0329 1.26614C9.39721 1.80007 9.19376 2.69003 9.52432 3.45279C11.7491 8.678 11.1643 11.1698 10.6176 12.1868C10.0329 13.2548 9.09204 13.5344 8.71066 13.598C7.68087 13.7887 6.90537 11.7546 6.89266 11.7419C6.65111 11.0299 6.00272 10.5341 5.25267 10.4705C4.48983 10.4197 3.79062 10.7884 3.42196 11.4495C0.0529226 17.5899 -0.837031 23.3491 0.790305 28.5869C3.16769 36.2657 10.1218 39.8509 10.4143 40.0034C10.6812 40.1433 10.9864 40.2069 11.266 40.2069C11.7364 40.2069 12.1814 40.0416 12.5373 39.7238C13.1222 39.2025 13.3383 38.3762 13.0713 37.6388C12.4865 36.0496 11.4567 31.4474 13.5926 29.1972C14.902 27.8242 15.8174 26.5655 16.4403 25.4849C21.5511 33.5197 18.8177 36.0369 18.7669 36.1005C18.7541 36.1005 18.7542 36.1132 18.7414 36.1132C17.8769 36.7108 17.6735 37.8931 18.2583 38.7576C18.8559 39.6221 20.0255 39.8509 20.9027 39.2661C20.9027 39.2534 20.9154 39.2534 20.9281 39.2407C27.1195 34.9054 30.1706 29.8837 29.9926 24.2899C29.6113 11.8181 12.9823 1.50769 12.2703 1.0754Z" fill="#36AF8D"/>
</svg>
