<svg width="15" height="15" viewBox="0 0 15 15" fill="none" xmlns="http://www.w3.org/2000/svg">
<rect x="0.530527" y="0.327402" width="13.8403" height="13.8403" rx="6.92016" stroke="#EC990C" stroke-width="0.57668"/>
<path d="M7.49902 2.91211C7.8686 3.46892 8.10348 4.10435 8.18164 4.76855L8.20801 5.1123V5.11523C8.23787 5.7577 7.90991 6.36165 7.45605 6.99512C7.34423 7.15119 7.22685 7.30605 7.1084 7.46191C6.99078 7.61668 6.87152 7.77381 6.75781 7.92969C6.58793 8.16257 6.42416 8.40201 6.29199 8.64746L6.17187 8.89453L6.1709 8.89648C5.69472 10.0045 6.13239 11.0604 6.55957 11.7334C5.56465 11.2388 4.56941 10.3169 4.56934 8.84668C4.56934 7.87126 5.04941 7.18999 5.64648 6.51172C5.93686 6.18186 6.27384 5.83188 6.55664 5.47559C6.84456 5.11284 7.10267 4.71356 7.25 4.24512C7.39121 3.81319 7.47421 3.36468 7.49902 2.91211ZM9.43262 6.82031C9.76314 7.26836 10.1379 7.93795 10.1836 8.69922L10.1885 8.89551C10.1734 9.81462 9.85805 10.3587 9.50391 10.7334C9.3219 10.9259 9.12438 11.0782 8.93457 11.2188C8.75681 11.3504 8.55692 11.4908 8.41895 11.6367C8.41714 11.6386 8.41488 11.6407 8.41309 11.6426C8.31788 11.5119 8.20933 11.3453 8.11719 11.1553C7.99073 10.8944 7.90076 10.6057 7.89844 10.3174L7.90332 10.1934C7.95793 9.53452 8.18717 8.98219 8.45117 8.5127C8.5836 8.27719 8.72383 8.06412 8.85547 7.86719C8.98385 7.67513 9.11121 7.48766 9.2041 7.32031L9.20312 7.31934C9.2941 7.15963 9.37074 6.99281 9.43262 6.82031Z" fill="#EC990C" stroke="#EC990C" stroke-width="0.57668"/>
</svg>
