<svg width="12" height="13" viewBox="0 0 12 13" fill="none" xmlns="http://www.w3.org/2000/svg">
<path d="M3.87872 0.5H0.580645C0.259893 0.5 0 0.759893 0 1.08065V4.37097C0 4.69172 0.259893 4.95161 0.580645 4.95161C0.901397 4.95161 1.16129 4.69172 1.16129 4.37097V1.66129H3.87872C4.19947 1.66129 4.45936 1.4014 4.45936 1.08065C4.45936 0.759893 4.19947 0.5 3.87872 0.5ZM11.4194 8.04839C11.0986 8.04839 10.8387 8.30828 10.8387 8.62903V11.3387H8.14056C7.81981 11.3387 7.55992 11.5986 7.55992 11.9194C7.55992 12.2401 7.81981 12.5 8.14056 12.5H11.4194C11.7401 12.5 12 12.2401 12 11.9194V8.62903C12 8.30828 11.7401 8.04839 11.4194 8.04839ZM3.87872 11.3387H1.16129V8.62903C1.16129 8.30828 0.901397 8.04839 0.580645 8.04839C0.259893 8.04839 0 8.30828 0 8.62903V11.9194C0 12.2401 0.259893 12.5 0.580645 12.5H3.87872C4.19947 12.5 4.45936 12.2401 4.45936 11.9194C4.45936 11.5986 4.19947 11.3387 3.87872 11.3387ZM11.4194 0.5H8.14056C7.81981 0.5 7.55992 0.759893 7.55992 1.08065C7.55992 1.4014 7.81981 1.66129 8.14056 1.66129H10.8387V4.37097C10.8387 4.69172 11.0986 4.95161 11.4194 4.95161C11.7401 4.95161 12 4.69172 12 4.37097V1.08065C12 0.759893 11.7401 0.5 11.4194 0.5Z" fill="white"/>
</svg>
