<svg width="185" height="387" viewBox="0 0 185 387" fill="none" xmlns="http://www.w3.org/2000/svg">
<path d="M83.3898 328.452L83.2998 342.947C83.2998 342.947 85.1004 352.22 86.631 362.124C88.0715 372.028 89.242 382.562 87.7114 384.992C84.7403 389.854 78.8882 384.992 77.8978 380.131C76.9074 375.269 75.4669 344.928 75.4669 344.928L74.4766 325.391L83.3898 328.452ZM98.1552 326.471L95.9044 339.526C95.9044 339.526 91.4928 375.179 93.9236 380.581C96.3545 385.983 104.187 383.552 103.737 376.169C103.287 368.877 105.178 342.947 105.178 342.947L109.589 327.281L98.1552 326.471Z" fill="#1C375A"/>
<path d="M92.1237 167.556L91.0433 183.582L132.458 203.569C139.931 207.62 143.532 216.354 141.102 224.457L112.471 330.965L98.2459 326.464L110.761 228.508C111.661 222.476 107.519 216.894 101.487 215.903L86.7217 213.563L71.056 197.537L89.2426 213.833C93.6542 217.794 95.8151 223.646 95.0048 229.498L83.3905 328.445L70.5158 331.686L64.7537 234.36C64.3036 228.148 60.162 222.926 54.3099 221.035L28.8306 212.932C24.7791 210.501 22.2582 206.09 22.0781 201.318L23.1585 167.016L92.1237 167.556Z" fill="#1C375A"/>
<path d="M20.4531 203.482L27.2956 70.4137C27.2956 70.4137 55.5659 68.7031 64.029 68.7031C68.6207 68.7031 76.4536 70.8639 82.6658 72.8446C88.518 74.7353 93.2897 74.5553 96.1708 79.9572L142.538 168.91L113.997 171.611L104.454 160.807L109.316 153.514L91.9392 112.639L95.3605 186.916L20.4531 203.482Z" fill="#047857"/>
<path d="M65.2119 108.944C55.8485 108.944 38.7422 84.5448 38.7422 75.1814C38.7422 73.2907 39.1023 71.4901 39.6425 69.7794C48.3757 69.3293 59.2697 68.7891 64.0414 68.7891C66.1122 68.7891 68.8132 69.2392 71.7843 69.8694C72.3245 71.5801 72.6846 73.2907 72.6846 75.1814C72.5946 84.5448 74.5753 108.944 65.2119 108.944Z" fill="#245F4E"/>
<path opacity="0.08" d="M23.8744 93.4531L20.4531 204.284L66.1898 193.3L23.8744 93.4531Z" fill="#0F0F0F"/>
<path d="M66.827 55.1026C66.0167 56.7232 60.4346 78.5111 60.4346 78.5111C60.4346 78.5111 58.4539 82.1124 53.6822 81.6623C48.9104 81.3021 46.9297 74.5497 46.9297 74.5497L55.3028 47.1797L66.827 55.1026Z" fill="#FCD2B1"/>
<path d="M70.2035 74.0854C86.8893 71.3652 98.2107 55.6336 95.4906 38.9478C92.7704 22.2619 77.0388 10.9405 60.353 13.6607C43.6672 16.3808 32.3457 32.1125 35.0659 48.7983C37.786 65.4841 53.5177 76.8055 70.2035 74.0854Z" fill="#FFE3CA"/>
<path d="M59.535 190.687C60.7055 190.327 70.7892 185.375 77.9018 185.375C85.0144 185.375 93.7475 192.938 93.7475 192.938C93.7475 192.938 94.918 196.899 90.1462 196.089C85.3745 195.279 90.7765 199.06 90.7765 199.06C90.7765 199.06 90.5064 199.24 84.9243 200.05C79.3423 200.861 57.7344 199.69 57.7344 199.69L59.535 190.687Z" fill="#FFE3CA"/>
<path d="M27.3023 70.4922L23.4309 158.004L59.4441 190.596L57.7334 199.779L7.04493 172.68C2.18316 170.069 -0.607847 164.667 0.112416 159.175L9.38579 92.1901C10.1061 83.8171 15.2379 76.4344 22.7107 72.743L27.3023 70.4922ZM55.8428 207.252H147.496V200.5H55.8428C53.9521 200.5 52.5115 202.03 52.5115 203.831C52.4215 205.722 53.9521 207.252 55.8428 207.252Z" fill="#047857"/>
<path d="M89.4844 207H163.949C167.209 207 170.091 204.801 171.001 201.616L184.119 152.1C185.333 147.474 181.845 143 177.067 143H112.082C108.821 143 105.939 145.199 105.029 148.384L89.4844 207Z" fill="#FFBE55"/>
<path d="M133.002 174.497C132.012 178.368 134.443 181.429 138.404 181.429C142.366 181.429 146.327 178.278 147.318 174.497C148.308 170.626 145.877 167.564 141.916 167.564C137.954 167.474 133.993 170.626 133.002 174.497Z" fill="white"/>
<path d="M65.2949 13.2344C81.0507 13.2344 93.9254 25.1187 95.726 40.3343C90.4141 44.2957 83.4816 46.0064 76.9092 44.926C69.1664 43.5755 62.2338 38.2635 58.9926 31.1509C59.2627 34.5722 59.4428 37.9934 58.9026 41.3246C58.3624 44.6559 56.9219 47.9871 54.2209 50.1479C54.0408 47.807 53.7708 45.2861 52.6003 43.2153C51.3399 41.1446 48.7289 39.704 46.5681 40.6044C44.9475 41.2346 43.9571 42.8552 43.687 44.5658C43.417 46.2765 43.8671 47.9871 44.4974 49.6076C45.4877 52.1286 46.9282 54.4694 48.7289 56.3601C45.1276 56.9003 41.2561 57.3505 37.6548 56.9904C35.7641 52.9389 34.5938 48.5273 34.5938 43.7555C34.5938 26.9194 48.3688 13.2344 65.2949 13.2344Z" fill="#515151"/>
<path d="M38.9141 48.8906C38.9141 54.0224 43.0556 58.1639 48.1874 58.1639C53.3193 58.1639 57.4608 54.0224 57.4608 48.8906C57.4608 43.7587 53.3193 39.6172 48.1874 39.6172C43.1456 39.6172 38.9141 43.7587 38.9141 48.8906ZM98.1557 326.462L96.5351 336.276L106.259 339.337L108.96 329.703L98.1557 326.462ZM83.3003 339.337L75.1973 340.867L74.7471 330.603L83.3903 328.443L83.3003 339.337Z" fill="#FFE3CA"/>
<path d="M48.1928 27.37C55.7508 27.37 61.8778 21.243 61.8778 13.685C61.8778 6.12696 55.7508 0 48.1928 0C40.6348 0 34.5078 6.12696 34.5078 13.685C34.5078 21.243 40.6348 27.37 48.1928 27.37Z" fill="#515151"/>
</svg>
