<svg width="19" height="19" viewBox="0 0 19 19" fill="none" xmlns="http://www.w3.org/2000/svg">
<path d="M17.453 9.35567C17.453 8.71305 17.3998 8.24411 17.2847 7.75781H9.79688V10.6583H14.192C14.1035 11.3791 13.625 12.4646 12.5616 13.194L12.5467 13.2911L14.9142 15.0885L15.0782 15.1045C16.5846 13.7411 17.453 11.7351 17.453 9.35567Z" fill="#4285F4"/>
<path d="M9.79635 16.9965C11.9496 16.9965 13.7573 16.3018 15.0777 15.1034L12.561 13.1928C11.8876 13.6531 10.9837 13.9744 9.79635 13.9744C7.68739 13.9744 5.89742 12.611 5.25935 10.7266L5.16582 10.7343L2.70407 12.6014L2.67188 12.6892C3.98333 15.2423 6.67716 16.9965 9.79635 16.9965Z" fill="#34A853"/>
<path d="M5.25846 10.725C5.0901 10.2387 4.99266 9.71761 4.99266 9.17923C4.99266 8.64078 5.0901 8.11976 5.2496 7.63346L5.24514 7.52989L2.75253 5.63281L2.67098 5.67083C2.13046 6.7303 1.82031 7.92004 1.82031 9.17923C1.82031 10.4384 2.13046 11.6281 2.67098 12.6876L5.25846 10.725Z" fill="#FBBC05"/>
<path d="M9.79639 4.38923C11.2939 4.38923 12.3041 5.02316 12.8801 5.55292L15.1309 3.39926C13.7486 2.14007 11.9497 1.36719 9.79639 1.36719C6.67718 1.36719 3.98334 3.12136 2.67188 5.67446L5.25051 7.63708C5.89744 5.75264 7.68741 4.38923 9.79639 4.38923Z" fill="#EB4335"/>
</svg>
