<svg width="16" height="22" viewBox="0 0 16 22" fill="none" xmlns="http://www.w3.org/2000/svg">
<path d="M0.71875 8.08664C0.71875 9.93503 1.43757 11.7834 2.77252 13.1184V20.4093C2.77252 20.82 2.9779 21.1281 3.28596 21.3335C3.59403 21.5388 4.00479 21.5388 4.31285 21.3335L7.90695 19.2797L11.5011 21.3335C11.7064 21.4362 11.8091 21.4362 12.0145 21.4362C12.2199 21.4362 12.4252 21.4362 12.5279 21.3335C12.836 21.1281 13.0414 20.82 13.0414 20.4093V13.1184C14.3763 11.7834 15.0952 10.0377 15.0952 8.08664C15.0952 4.08178 11.9118 0.898438 7.90695 0.898438C3.9021 0.898438 0.71875 4.08178 0.71875 8.08664Z" fill="#36AF8D"/>
</svg>
