<svg width="20" height="23" viewBox="0 0 20 23" fill="none" xmlns="http://www.w3.org/2000/svg">
<path d="M17.7938 7.65375L18.8744 6.585C19.098 6.36139 19.2236 6.05811 19.2236 5.74188C19.2236 5.42564 19.098 5.12236 18.8744 4.89875C18.6508 4.67514 18.3475 4.54952 18.0313 4.54952C17.715 4.54952 17.4118 4.67514 17.1882 4.89875L16.1194 5.97938C14.4552 4.69195 12.4107 3.99344 10.3066 3.99344C8.20253 3.99344 6.158 4.69195 4.49378 5.97938L3.41316 4.88688C3.18797 4.66327 2.88318 4.53827 2.56583 4.53938C2.24849 4.54049 1.94458 4.66763 1.72097 4.89281C1.49736 5.118 1.37236 5.42279 1.37347 5.74014C1.37459 6.05748 1.50172 6.36139 1.72691 6.585L2.81941 7.66563C1.51674 9.32521 0.809907 11.3746 0.812531 13.4844C0.808653 14.9989 1.16696 16.4925 1.85756 17.8404C2.54816 19.1884 3.55105 20.3517 4.78257 21.2333C6.0141 22.115 7.43857 22.6894 8.93718 22.9086C10.4358 23.1279 11.9651 22.9857 13.3976 22.4938C14.8301 22.002 16.1242 21.1747 17.172 20.0811C18.2199 18.9875 18.991 17.6592 19.4212 16.207C19.8514 14.7549 19.9282 13.2209 19.6451 11.733C19.362 10.2451 18.7272 8.84648 17.7938 7.65375ZM10.3125 20.6094C8.90334 20.6094 7.52579 20.1915 6.35409 19.4086C5.18239 18.6257 4.26916 17.5129 3.72989 16.211C3.19061 14.9091 3.04952 13.4765 3.32444 12.0944C3.59936 10.7122 4.27795 9.44269 5.27439 8.44624C6.27084 7.44979 7.5404 6.7712 8.92251 6.49628C10.3046 6.22136 11.7372 6.36246 13.0392 6.90173C14.3411 7.44101 15.4538 8.35424 16.2368 9.52594C17.0197 10.6976 17.4375 12.0752 17.4375 13.4844C17.4375 15.374 16.6869 17.1863 15.3507 18.5225C14.0145 19.8587 12.2022 20.6094 10.3125 20.6094ZM7.93753 2.79688H12.6875C13.0025 2.79688 13.3045 2.67176 13.5272 2.44906C13.7499 2.22636 13.875 1.92432 13.875 1.60938C13.875 1.29443 13.7499 0.992385 13.5272 0.769686C13.3045 0.546986 13.0025 0.421875 12.6875 0.421875H7.93753C7.62259 0.421875 7.32054 0.546986 7.09784 0.769686C6.87514 0.992385 6.75003 1.29443 6.75003 1.60938C6.75003 1.92432 6.87514 2.22636 7.09784 2.44906C7.32054 2.67176 7.62259 2.79688 7.93753 2.79688ZM11.5 9.92188C11.5 9.60693 11.3749 9.30489 11.1522 9.08219C10.9295 8.85949 10.6275 8.73438 10.3125 8.73438C9.99759 8.73438 9.69554 8.85949 9.47284 9.08219C9.25014 9.30489 9.12503 9.60693 9.12503 9.92188V12.1663C8.85614 12.4068 8.66662 12.7232 8.58153 13.0738C8.49645 13.4244 8.51981 13.7925 8.64854 14.1295C8.77726 14.4665 9.00527 14.7565 9.3024 14.9611C9.59954 15.1656 9.95178 15.2752 10.3125 15.2752C10.6733 15.2752 11.0255 15.1656 11.3227 14.9611C11.6198 14.7565 11.8478 14.4665 11.9765 14.1295C12.1052 13.7925 12.1286 13.4244 12.0435 13.0738C11.9584 12.7232 11.7689 12.4068 11.5 12.1663V9.92188Z" fill="#36AF8D"/>
</svg>
