<svg width="16" height="23" viewBox="0 0 16 23" fill="none" xmlns="http://www.w3.org/2000/svg">
<path d="M5.83203 15.7742C5.76252 15.7741 5.69375 15.7616 5.6298 15.7376C5.56584 15.7135 5.508 15.6783 5.45971 15.6341C5.41141 15.5899 5.37364 15.5376 5.34864 15.4802C5.32363 15.4229 5.3119 15.3617 5.31414 15.3003C5.32808 14.6701 5.40509 14.0422 5.54428 13.424C5.69067 12.7859 5.95766 12.1741 6.33404 11.6145C6.74664 11.0277 7.25943 10.5008 7.8542 10.0527C8.33459 9.69596 8.79112 9.31487 9.22146 8.91129C9.58664 8.57217 9.89802 8.19076 10.1471 7.77753C10.3754 7.38525 10.492 6.94965 10.4868 6.50851C10.5447 5.85311 10.3168 5.20296 9.84983 4.6914C9.59936 4.47959 9.30136 4.31667 8.97513 4.2132C8.64891 4.10973 8.30174 4.06801 7.95612 4.09074C7.29246 4.08937 6.64932 4.29398 6.1388 4.66891C5.89852 4.85559 5.70337 5.08326 5.56504 5.33825C5.42671 5.59325 5.34805 5.87032 5.33378 6.15285C5.32111 6.26624 5.2614 6.37146 5.16617 6.44824C5.07095 6.52501 4.94695 6.56789 4.81809 6.56861H0.68224C0.610944 6.56839 0.540463 6.5552 0.475174 6.52987C0.409885 6.50455 0.351184 6.46762 0.302716 6.42139C0.254248 6.37516 0.217048 6.32061 0.193429 6.26113C0.16981 6.20165 0.160275 6.13851 0.165417 6.07563C0.207707 5.00816 0.572469 3.97017 1.22181 3.06948C1.9087 2.16535 2.88418 1.46227 4.0242 1.04965C5.27213 0.601247 6.60923 0.379103 7.95613 0.396411C9.98315 0.288404 11.9868 0.826537 13.6034 1.91314C14.2951 2.46055 14.8371 3.13966 15.1887 3.89927C15.5403 4.65887 15.6922 5.47915 15.6331 6.29823C15.6542 7.09663 15.456 7.88764 15.0556 8.60347C14.6539 9.27943 14.1417 9.8993 13.5354 10.4431C12.9071 11.0137 12.2192 11.6094 11.4718 12.2301C10.8964 12.6452 10.4494 13.1826 10.1725 13.7919C9.97853 14.2954 9.86337 14.82 9.83026 15.3511C9.82058 15.4662 9.76199 15.5738 9.66626 15.6523C9.57053 15.7308 9.44475 15.7743 9.31419 15.7742L5.83203 15.7742ZM4.76303 19.9919C4.75364 19.6756 4.81817 19.3609 4.9526 19.0677C5.08703 18.7744 5.28845 18.5088 5.54428 18.2875C5.82247 18.055 6.15094 17.8747 6.50994 17.7572C6.86895 17.6398 7.2511 17.5878 7.63343 17.6042C8.01451 17.5873 8.39549 17.6392 8.75316 17.7567C9.11084 17.8742 9.43774 18.0548 9.71396 18.2875C10.2099 18.7451 10.4868 19.3544 10.4868 19.9882C10.4868 20.622 10.2099 21.2313 9.71396 21.6889C9.43906 21.9238 9.11258 22.1062 8.75472 22.2251C8.39686 22.3439 8.01523 22.3966 7.63344 22.3798C7.2504 22.3961 6.8676 22.3433 6.50841 22.2245C6.14922 22.1057 5.82118 21.9235 5.54429 21.6889C5.28985 21.4682 5.08926 21.2038 4.95488 20.912C4.82051 20.6201 4.75522 20.307 4.76303 19.9919Z" fill="#36AF8D"/>
</svg>
