<svg width="16" height="12" viewBox="0 0 16 12" fill="none" xmlns="http://www.w3.org/2000/svg">
<path d="M11.3187 8.79167C10.8369 8.61672 10.3158 8.60555 9.83396 8.43059C9.68763 8.37848 9.39853 8.31519 9.33786 8.14024C9.28075 7.969 9.28075 7.76799 9.27004 7.5893C9.26291 7.44785 9.25934 7.30639 9.25934 7.16494C9.25934 7.07188 9.48776 6.87458 9.53773 6.78897C9.73046 6.45394 9.74831 6.00352 9.784 5.62382C10.0945 5.71316 10.1338 5.11384 10.1873 4.93144C10.2266 4.80487 10.4657 3.9338 10.0945 4.05292C10.1837 3.88913 10.2194 3.68812 10.2444 3.50571C10.3158 3.02923 10.3443 2.50808 10.2052 2.04277C9.91605 1.07492 9.02735 0.531432 8.08867 0.501651C7.13572 0.468149 6.1792 0.94463 5.82229 1.90876C5.65097 2.37779 5.66525 2.88778 5.72235 3.37915C5.74734 3.6025 5.78303 3.85191 5.8901 4.05292C5.5439 3.94497 5.72949 4.71181 5.76875 4.84582C5.82586 5.03567 5.87583 5.71688 6.20062 5.62382C6.22917 5.92534 6.26129 6.23431 6.33981 6.52839C6.39335 6.72568 6.50399 6.8932 6.63248 7.04582C6.69672 7.12027 6.72884 7.12771 6.72527 7.2245C6.7217 7.51486 6.72884 7.82755 6.65746 8.11046C6.58608 8.39337 5.99004 8.51249 5.75091 8.5646C5.10847 8.70234 4.516 8.76562 3.98063 9.18254C3.35604 9.66274 3.03125 10.411 3.03125 11.2188H12.9534C12.9534 10.1206 12.3181 9.15276 11.3187 8.79167Z" fill="#087A5A"/>
<path d="M3.97241 8.33441C3.85106 8.3977 3.70473 8.47587 4.00097 8.31952L4.02952 8.30463C4.27222 8.18551 4.53276 8.15573 4.79331 8.12968C4.89324 8.11851 4.93964 8.04778 4.86469 7.94727C4.72193 7.75743 4.22939 7.7202 4.02238 7.63458C3.89389 7.58247 3.8582 7.53407 3.8475 7.38517C3.84393 7.31817 3.80824 7.02037 3.8582 6.97198C3.89389 6.93475 4.11875 6.94964 4.16872 6.9422C4.37215 6.91614 4.57916 6.87147 4.77189 6.7933C4.85398 6.75979 4.9325 6.71885 5.00389 6.66673C5.08954 6.59973 4.93964 6.43594 4.90038 6.3466C4.77903 6.06741 4.7255 5.76216 4.70765 5.45692C4.67196 4.85759 4.76119 4.25455 4.65411 3.65894C4.4935 2.74693 3.81894 2.28906 2.95879 2.28906C2.42699 2.28906 1.90233 2.47891 1.6061 2.96284C1.27774 3.49515 1.29559 4.15776 1.31343 4.76453C1.32414 5.11072 1.33841 5.46064 1.29202 5.80683C1.2706 5.95573 1.23848 6.10091 1.18851 6.24236C1.14925 6.35032 0.949382 6.61834 1.0279 6.67418C1.32414 6.8938 1.82381 6.96825 2.18072 6.93847C2.19143 7.12088 2.22355 7.35539 2.15931 7.52663C2.05937 7.79465 1.31343 7.86538 1.08858 7.94355C0.463984 8.15946 0 8.68805 0 9.43255H2.83744C2.88384 9.43255 3.06229 9.08636 3.11226 9.03052C3.35496 8.75134 3.65119 8.50937 3.97241 8.33441Z" fill="#087A5A"/>
<path d="M14.896 7.94318C14.6069 7.8464 14.0501 7.81662 13.8431 7.55604C13.7396 7.42575 13.7967 7.09445 13.8074 6.9381C13.9644 6.95299 14.1357 6.92694 14.2964 6.9046C14.4427 6.88227 14.5855 6.85249 14.7246 6.80037C14.7889 6.77431 14.8531 6.74826 14.9138 6.71103C15.053 6.62541 14.9888 6.61052 14.9174 6.48396C14.5283 5.80274 14.7032 4.93912 14.6854 4.19089C14.6711 3.56924 14.5141 2.88802 13.9716 2.5381C13.4826 2.22169 12.7581 2.21052 12.2334 2.43387C10.7201 3.0667 11.6124 5.15875 11.0949 6.35739C11.0056 6.55841 10.8772 6.62914 11.102 6.74826C11.2269 6.81526 11.3626 6.85993 11.4982 6.89343C11.7052 6.94555 11.9193 6.97533 12.1335 6.98277C12.1692 6.98277 12.1442 7.45181 12.1335 7.5002C12.0942 7.68261 11.7123 7.73472 11.5696 7.77567C11.4232 7.81662 11.1805 7.82778 11.1091 7.98785C11.0021 8.22609 11.4625 8.16653 11.5767 8.18887C11.9443 8.25959 12.2691 8.47178 12.5546 8.71374C12.7688 8.89614 13.0579 9.14183 13.1364 9.43963H15.9988C15.9917 8.69141 15.5241 8.15909 14.896 7.94318Z" fill="#087A5A"/>
</svg>
