<svg width="31" height="27" viewBox="0 0 31 27" fill="none" xmlns="http://www.w3.org/2000/svg">
<path d="M3.42969 0.0625C1.77289 0.0625 0.429688 0.73408 0.429688 1.5625C0.429688 2.39092 1.77289 3.0625 3.42969 3.0625H27.4297C29.0865 3.0625 30.4297 2.39092 30.4297 1.5625C30.4297 0.73408 29.0865 0.0625 27.4297 0.0625H3.42969Z" fill="#53EF96"/>
<path d="M1.89933 12.0938C1.08768 12.0938 0.429688 12.7518 0.429688 13.5634C0.429688 14.375 1.08768 15.033 1.89933 15.033H29.3327C30.1443 15.033 30.8023 14.375 30.8023 13.5634C30.8023 12.7518 30.1443 12.0938 29.3327 12.0938H1.89933Z" fill="#53EF96"/>
<path d="M2.38621 23.9297C1.30566 23.9297 0.429688 24.6013 0.429688 25.4297C0.429688 26.2581 1.30566 26.9297 2.38621 26.9297H28.4732C29.5537 26.9297 30.4297 26.2581 30.4297 25.4297C30.4297 24.6013 29.5537 23.9297 28.4732 23.9297H2.38621Z" fill="#53EF96"/>
</svg>
