<svg width="17" height="16" viewBox="0 0 17 16" fill="none" xmlns="http://www.w3.org/2000/svg">
<path d="M14.1219 9.32921C14.1217 9.19699 14.0898 9.06674 14.0289 8.94937L14.523 8.45531C14.573 8.40529 14.6011 8.33745 14.6011 8.26671C14.6011 8.19598 14.573 8.12814 14.523 8.07812C14.473 8.0281 14.4051 8 14.3344 8C14.2636 8 14.1958 8.0281 14.1458 8.07812L13.6517 8.57218C13.5343 8.5113 13.4041 8.47942 13.2719 8.47921C13.1038 8.47921 12.9394 8.52906 12.7996 8.62246C12.6599 8.71586 12.5509 8.84861 12.4866 9.00393C12.4222 9.15925 12.4054 9.33016 12.4382 9.49504C12.471 9.65992 12.552 9.81138 12.6708 9.93025C12.7897 10.0491 12.9412 10.1301 13.106 10.1629C13.2709 10.1957 13.4418 10.1788 13.5972 10.1145C13.7525 10.0502 13.8852 9.94123 13.9786 9.80145C14.072 9.66166 14.1219 9.49733 14.1219 9.32921Z" fill="#047857"/>
<path d="M5.61086 6.11938C5.63636 6.07652 5.67335 6.04164 5.71763 6.01868C5.76192 5.99573 5.81174 5.98561 5.86147 5.98948C5.9112 5.99335 5.95886 6.01104 5.99906 6.04057C6.03927 6.0701 6.07041 6.11028 6.08898 6.15657L7.15148 8.91907L8.51148 4.83907C8.53064 4.78534 8.56648 4.73915 8.61377 4.70726C8.66106 4.67536 8.71732 4.65944 8.77431 4.66181C8.8313 4.66419 8.88604 4.68473 8.93051 4.72045C8.97499 4.75617 9.00687 4.80518 9.02148 4.86032L9.76789 7.84595H9.87069C10.1093 7.295 10.4779 6.81015 10.9451 6.43301C11.4122 6.05586 11.9639 5.79766 12.5528 5.68057C13.1416 5.56348 13.7501 5.59098 14.326 5.76073C14.9019 5.93047 15.428 6.23739 15.8592 6.65515C15.894 6.6876 15.937 6.7101 15.9835 6.72028C16.03 6.73046 16.0784 6.72795 16.1236 6.71302C16.1688 6.69808 16.2092 6.67127 16.2404 6.63539C16.2717 6.59951 16.2928 6.55587 16.3015 6.50905C16.4205 5.89882 16.4716 5.27727 16.4537 4.65579C16.4577 3.43495 15.9772 2.26238 15.1177 1.39538C14.2582 0.528388 13.0898 0.0377945 11.869 0.0312582C11.2342 0.0300488 10.6061 0.162051 10.0255 0.418734C9.44488 0.675418 8.92457 1.05107 8.4982 1.52141C8.07183 1.05107 7.55153 0.675418 6.9709 0.418734C6.39027 0.162051 5.76225 0.0300488 5.12742 0.0312582C3.90785 0.0373726 2.74044 0.526737 1.88105 1.3921C1.02166 2.25746 0.540398 3.42823 0.542733 4.64782C0.433827 8.52595 2.74742 11.7188 7.61367 14.4149C7.88509 14.5626 8.18919 14.64 8.4982 14.64C8.80722 14.64 9.11131 14.5626 9.38273 14.4149C9.96835 14.0887 10.5197 13.7527 11.0368 13.4071C11.0732 13.3827 11.1029 13.3497 11.1235 13.311C11.144 13.2723 11.1546 13.2291 11.1545 13.1853V12.5111C11.1542 12.4697 11.1443 12.4289 11.1255 12.392C11.1066 12.3551 11.0795 12.3231 11.0461 12.2986C10.5838 11.9538 10.2087 11.5055 9.9508 10.9897C9.69287 10.4739 9.55927 9.90484 9.5607 9.32813C9.56104 9.09782 9.58346 8.86806 9.62764 8.64202C9.63681 8.58037 9.62418 8.51746 9.59193 8.46412C9.55969 8.41078 9.50985 8.37037 9.451 8.34984C9.41352 8.33576 9.38025 8.31233 9.35436 8.28179C9.32847 8.25125 9.3108 8.2146 9.30305 8.17532L8.72664 5.87235L7.42242 9.79032C7.40423 9.84135 7.37096 9.88565 7.32703 9.91734C7.28309 9.94903 7.23056 9.96661 7.1764 9.96777C7.12223 9.96892 7.069 9.95358 7.02376 9.92379C6.97851 9.894 6.94339 9.85116 6.92305 9.80095L5.79414 6.8711L5.01055 8.24438C4.98714 8.28492 4.95344 8.31855 4.91286 8.34187C4.87228 8.3652 4.82626 8.37738 4.77945 8.3772H1.87351C1.78586 8.20188 1.70617 8.02391 1.63711 7.84595L4.62539 7.84595L5.61086 6.11938ZM1.85758 5.07813C1.80504 5.07813 1.75369 5.06255 1.71 5.03337C1.66632 5.00418 1.63228 4.96269 1.61217 4.91416C1.59207 4.86562 1.58681 4.81221 1.59706 4.76069C1.6073 4.70916 1.6326 4.66183 1.66975 4.62468C1.7069 4.58753 1.75423 4.56224 1.80576 4.55199C1.85728 4.54174 1.91069 4.547 1.95923 4.5671C2.00776 4.58721 2.04925 4.62125 2.07844 4.66493C2.10762 4.70862 2.1232 4.75997 2.1232 4.81251C2.1232 4.88296 2.09522 4.95052 2.0454 5.00033C1.99559 5.05015 1.92802 5.07813 1.85758 5.07813ZM2.96789 2.62376C2.62779 2.98942 2.38406 3.43398 2.25867 3.91735C2.24106 3.98569 2.19702 4.04423 2.13625 4.08009C2.07547 4.11596 2.00294 4.12621 1.93461 4.1086C1.86627 4.09099 1.80773 4.04695 1.77187 3.98618C1.736 3.92541 1.72575 3.85287 1.74336 3.78454C1.89263 3.21658 2.17903 2.69395 2.57742 2.26251C2.62505 2.21086 2.6912 2.18019 2.76139 2.1772C2.83159 2.17421 2.90011 2.19916 2.95195 2.24657C3.00383 2.29462 3.03462 2.36123 3.0376 2.43188C3.04059 2.50253 3.01553 2.5715 2.96789 2.62376Z" fill="#047857"/>
<path d="M13.0741 15.9642H13.4884C13.6447 15.9636 13.7943 15.9013 13.9048 15.7909C14.0153 15.6804 14.0776 15.5307 14.0781 15.3745L14.0781 13.8286C14.2977 13.8022 14.5 13.6962 14.6469 13.5308C14.7937 13.3654 14.8748 13.1519 14.875 12.9308V12.0808C15.4827 11.7299 15.9576 11.1884 16.2261 10.5401C16.4946 9.89185 16.5417 9.17309 16.3601 8.49533C16.1785 7.81756 15.7784 7.21865 15.2217 6.7915C14.665 6.36434 13.9829 6.13281 13.2813 6.13281C12.5796 6.13281 11.8975 6.36434 11.3408 6.7915C10.7841 7.21865 10.384 7.81756 10.2024 8.49533C10.0208 9.17309 10.0679 9.89185 10.3364 10.5401C10.6049 11.1884 11.0798 11.7299 11.6875 12.0808V12.9308C11.6877 13.1519 11.7688 13.3654 11.9157 13.5308C12.0625 13.6962 12.2648 13.8022 12.4844 13.8286L12.4844 15.3745C12.4849 15.5307 12.5472 15.6804 12.6577 15.7909C12.7682 15.9013 12.9178 15.9636 13.0741 15.9642ZM10.625 9.32358C10.625 8.79822 10.7808 8.28467 11.0727 7.84785C11.3645 7.41103 11.7794 7.07057 12.2647 6.86953C12.7501 6.66848 13.2842 6.61588 13.7995 6.71837C14.3147 6.82086 14.788 7.07385 15.1595 7.44533C15.531 7.81681 15.784 8.29011 15.8865 8.80537C15.989 9.32063 15.9364 9.85472 15.7353 10.3401C15.5343 10.8254 15.1938 11.2403 14.757 11.5322C14.3202 11.824 13.8066 11.9798 13.2813 11.9798C12.5771 11.9787 11.9021 11.6985 11.4042 11.2006C10.9063 10.7027 10.6261 10.0277 10.625 9.32358Z" fill="#047857"/>
</svg>
