<svg width="15" height="15" viewBox="0 0 15 15" fill="none" xmlns="http://www.w3.org/2000/svg">
<g clip-path="url(#clip0_3788_4217)">
<path d="M5.74057 5.6901C5.88262 5.28632 6.16298 4.94584 6.532 4.72896C6.90103 4.51208 7.33491 4.4328 7.75678 4.50516C8.17866 4.57752 8.56132 4.79686 8.83697 5.12432C9.11263 5.45178 9.2635 5.86623 9.26286 6.29427C9.26286 7.5026 7.45036 8.10677 7.45036 8.10677M7.4987 10.5234H7.50474M13.5404 7.5026C13.5404 10.8393 10.8354 13.5443 7.4987 13.5443C4.16198 13.5443 1.45703 10.8393 1.45703 7.5026C1.45703 4.16588 4.16198 1.46094 7.4987 1.46094C10.8354 1.46094 13.5404 4.16588 13.5404 7.5026Z" stroke="white" stroke-width="1.20833" stroke-linecap="round" stroke-linejoin="round"/>
</g>
<defs>
<clipPath id="clip0_3788_4217">
<rect width="14.5" height="14.5" fill="white" transform="translate(0.25 0.25)"/>
</clipPath>
</defs>
</svg>
