<svg width="24" height="25" viewBox="0 0 24 25" fill="none" xmlns="http://www.w3.org/2000/svg">
<path d="M8.00065 12.4609C8.00065 10.2519 9.79095 8.46061 12 8.46061C14.209 8.46061 16.0003 10.2519 16.0003 12.4609C16.0003 14.67 14.209 16.4613 12 16.4613C9.79095 16.4613 8.00065 14.67 8.00065 12.4609ZM5.83813 12.4609C5.83813 15.8642 8.59677 18.6228 12 18.6228C15.4032 18.6228 18.1619 15.8642 18.1619 12.4609C18.1619 9.05771 15.4032 6.29906 12 6.29906C8.59677 6.29906 5.83813 9.05771 5.83813 12.4609ZM16.9658 6.0548C16.9658 6.84963 17.6103 7.49519 18.4061 7.49519C19.201 7.49519 19.8465 6.84963 19.8465 6.0548C19.8465 5.25997 19.2019 4.61538 18.4061 4.61538C17.6103 4.61538 16.9658 5.25997 16.9658 6.0548ZM7.15154 22.2286C5.98158 22.1753 5.34572 21.9805 4.9231 21.8157C4.36284 21.5976 3.96349 21.3378 3.54281 20.9181C3.1231 20.4984 2.86236 20.0991 2.64523 19.5388C2.48045 19.1162 2.28562 18.4803 2.23231 17.3104C2.17415 16.0454 2.16252 15.6655 2.16252 12.4609C2.16252 9.25641 2.17512 8.87742 2.23231 7.6115C2.28562 6.44155 2.48142 5.80666 2.64523 5.38307C2.86333 4.82281 3.1231 4.42346 3.54281 4.00278C3.96252 3.58307 4.36187 3.32233 4.9231 3.1052C5.34572 2.94042 5.98158 2.74559 7.15154 2.69228C8.41648 2.63412 8.79645 2.62249 12 2.62249C15.2045 2.62249 15.5835 2.63509 16.8494 2.69228C18.0194 2.74559 18.6543 2.94139 19.0779 3.1052C19.6381 3.32233 20.0375 3.58307 20.4582 4.00278C20.8779 4.42249 21.1376 4.82281 21.3557 5.38307C21.5205 5.80569 21.7153 6.44155 21.7687 7.6115C21.8268 8.87742 21.8385 9.25641 21.8385 12.4609C21.8385 15.6645 21.8268 16.0445 21.7687 17.3104C21.7153 18.4803 21.5196 19.1162 21.3557 19.5388C21.1376 20.0991 20.8779 20.4984 20.4582 20.9181C20.0385 21.3378 19.6381 21.5976 19.0779 21.8157C18.6553 21.9805 18.0194 22.1753 16.8494 22.2286C15.5845 22.2868 15.2045 22.2984 12 22.2984C8.79645 22.2984 8.41648 22.2868 7.15154 22.2286ZM7.05267 0.533635C5.77512 0.591794 4.90275 0.794379 4.1399 1.09099C3.35089 1.39729 2.68207 1.80827 2.01422 2.47515C1.34733 3.14204 0.936349 3.81086 0.630049 4.60084C0.333441 5.36368 0.130856 6.23606 0.0726979 7.5136C0.0135703 8.79309 0 9.20213 0 12.4609C0 15.7197 0.0135703 16.1288 0.0726979 17.4083C0.130856 18.6858 0.333441 19.5582 0.630049 20.321C0.936349 21.11 1.34637 21.7798 2.01422 22.4467C2.6811 23.1136 3.34992 23.5236 4.1399 23.8309C4.90372 24.1275 5.77512 24.3301 7.05267 24.3882C8.33312 24.4464 8.7412 24.4609 12 24.4609C15.2598 24.4609 15.6679 24.4474 16.9473 24.3882C18.2249 24.3301 19.0973 24.1275 19.8601 23.8309C20.6491 23.5236 21.3179 23.1136 21.9858 22.4467C22.6527 21.7798 23.0627 21.11 23.37 20.321C23.6666 19.5582 23.8701 18.6858 23.9273 17.4083C23.9855 16.1278 23.999 15.7197 23.999 12.4609C23.999 9.20213 23.9855 8.79309 23.9273 7.5136C23.8691 6.23606 23.6666 5.36368 23.37 4.60084C23.0627 3.81183 22.6527 3.14301 21.9858 2.47515C21.3189 1.80827 20.6491 1.39729 19.8611 1.09099C19.0973 0.794379 18.2249 0.590824 16.9483 0.533635C15.6688 0.475477 15.2598 0.460938 12.001 0.460938C8.7412 0.460938 8.33312 0.474508 7.05267 0.533635Z" fill="url(#paint0_linear_3985_4988)"/>
<defs>
<linearGradient id="paint0_linear_3985_4988" x1="4.37719e-07" y1="24.4609" x2="24" y2="0.460937" gradientUnits="userSpaceOnUse">
<stop stop-color="#FFCB00"/>
<stop offset="0.5" stop-color="#FF0113"/>
<stop offset="1" stop-color="#DB00A8"/>
</linearGradient>
</defs>
</svg>
