<svg width="9" height="10" viewBox="0 0 9 10" fill="none" xmlns="http://www.w3.org/2000/svg">
<path d="M6.65496 3.69822L2.84806 3.69822V2.7465C2.84806 2.36581 2.99082 2.0327 3.27634 1.74719C3.84737 1.17615 4.75151 1.17615 5.27496 1.74719C5.4653 1.93753 5.56047 2.17546 5.65565 2.41339C5.70323 2.65133 5.98875 2.79408 6.22668 2.7465C6.46461 2.69891 6.65496 2.41339 6.55978 2.17546C6.46461 1.74719 6.22668 1.3665 5.94116 1.08098C5.51289 0.605119 4.89427 0.367188 4.27565 0.367188C2.94323 0.367188 1.89634 1.41408 1.89634 2.7465L1.89634 3.69822C1.08737 3.69822 0.46875 4.31684 0.46875 5.12581L0.46875 8.45684C0.46875 9.26581 1.08737 9.88443 1.89634 9.88443H6.65496C7.46392 9.88443 8.08254 9.26581 8.08254 8.45684V5.12581C8.08254 4.31684 7.46392 3.69822 6.65496 3.69822ZM4.75151 7.50512C4.75151 7.79064 4.56116 7.98098 4.27565 7.98098C3.99013 7.98098 3.79979 7.79064 3.79979 7.50512V6.07753C3.79979 5.79202 3.99013 5.60167 4.27565 5.60167C4.56116 5.60167 4.75151 5.79202 4.75151 6.07753V7.50512Z" fill="#EEEEEE"/>
</svg>
