<svg width="226" height="520" viewBox="0 0 226 520" fill="none" xmlns="http://www.w3.org/2000/svg">
<g opacity="0.17">
<path d="M45.5112 479.117L43.4977 499.214L78.3828 516.264H24.8141V479.117H45.5112Z" fill="#F9977A"/>
<path d="M103.011 479.117L100.998 499.214L135.883 516.264H82.3141V479.117H103.011Z" fill="#F9977A"/>
<path d="M48.3281 489.421H24.7325C24.1007 489.421 23.4752 489.297 22.8915 489.055C22.3079 488.813 21.7775 488.459 21.3308 488.012C20.8841 487.565 20.5298 487.034 20.288 486.45C20.0463 485.866 19.9218 485.241 19.9218 484.609V400.67C19.9218 384.268 21.7659 367.917 25.4192 351.927C26.074 349.061 26.335 346.118 26.1949 343.181C25.1665 321.567 21.3246 226.777 32.0964 209.535L101 204.445L53.0701 485.418C52.8791 486.538 52.2983 487.554 51.4304 488.287C50.5626 489.019 49.4636 489.421 48.3281 489.421Z" fill="#C67A56"/>
<path d="M123.432 200.875C123.432 200.875 127.055 259.541 127.055 273.334V354.722C127.055 358.073 126.89 361.419 126.561 364.758L114.496 487.147C114.379 488.335 113.824 489.438 112.939 490.24C112.055 491.043 110.903 491.487 109.709 491.487H81.9064C81.2453 491.487 80.5912 491.35 79.9851 491.086C79.379 490.822 78.8338 490.436 78.3836 489.952C77.9334 489.467 77.5878 488.895 77.3684 488.271C77.149 487.647 77.0606 486.985 77.1085 486.325L84.6207 382.996C85.311 373.501 84.6727 363.956 82.7243 354.638L52.3841 209.538L123.432 200.875Z" fill="#C67A56"/>
<path d="M176.829 108.28C176.829 108.28 177.082 101.66 187.259 91.1777C197.436 80.6955 206.561 73.5315 201.263 82.3641L197.113 89.0278C197.113 89.0278 208.063 84.7801 214.364 81.678C216.023 80.8288 217.91 80.5348 219.748 80.8393C221.585 81.1438 223.277 82.0306 224.573 83.3693C226.948 85.9312 226.876 88.7316 220.327 93.701C214.287 98.5111 207.609 102.459 200.483 105.433C199.461 105.826 198.598 106.548 198.029 107.484L190.709 113.445L176.829 108.28Z" fill="#F9977A"/>
<path d="M190.705 92.1173C191.87 91.8455 192.999 91.4348 194.067 90.894C195.142 90.3759 196.162 89.7491 197.109 89.0234C196.504 89.0841 195.908 89.2155 195.333 89.4149C194.764 89.5998 194.209 89.8256 193.673 90.0907C192.585 90.6095 191.584 91.2931 190.705 92.1173Z" fill="#DD765E"/>
<path d="M205.835 90.0872C207.224 89.6192 208.584 89.0691 209.907 88.4399C211.241 87.8341 212.533 87.1445 213.805 86.4158C215.079 85.6854 216.308 84.8801 217.486 84.004C218.681 83.1433 219.778 82.1543 220.758 81.0547C218.355 82.7315 215.871 84.1868 213.357 85.6417C210.855 87.112 208.317 88.5219 205.835 90.0872Z" fill="#DD765E"/>
<path d="M208.549 93.457C210.096 93.026 211.613 92.4911 213.088 91.856C214.572 91.2358 216.018 90.5278 217.418 89.7357C218.831 88.9516 220.172 88.0426 221.424 87.0195C222.723 86.0391 223.796 84.7908 224.57 83.3594C223.539 84.5627 222.339 85.6107 221.008 86.4707C219.702 87.3527 218.363 88.1925 216.976 88.9574C214.226 90.5323 211.383 91.9497 208.549 93.457Z" fill="#DD765E"/>
<path d="M211.827 96.0005C213.131 95.674 214.408 95.2469 215.646 94.723C216.889 94.2125 218.102 93.6297 219.277 92.9775C221.659 91.7045 223.808 90.0374 225.633 88.0469C224.506 88.7864 223.409 89.5226 222.276 90.2092C221.132 90.8771 220.003 91.5618 218.842 92.1959L211.827 96.0005Z" fill="#DD765E"/>
<path d="M97.423 74.6641C97.423 74.6641 102.937 77.1299 107.21 79.3218C113.134 82.3601 122.333 93.0368 133.098 119.703L140.252 137.424C140.252 137.424 161.726 112.347 180.304 96.442L198.641 111.327L156.2 160.233C153.455 164.161 149.809 167.373 145.567 169.602C135.877 174.556 125.982 172.922 120.55 162.848C112.054 147.088 101.952 123.094 100.985 116.408L97.423 74.6641Z" fill="#FFBA55"/>
<path d="M140.186 137.727C140.48 140.529 140.953 143.166 141.061 145.806C141.153 147.107 141.12 148.415 140.961 149.71C140.783 151.035 140.398 152.324 139.82 153.53C140.986 152.646 141.84 151.414 142.257 150.012C142.688 148.624 142.859 147.168 142.763 145.719C142.686 144.298 142.425 142.893 141.988 141.54C141.582 140.185 140.975 138.9 140.186 137.727Z" fill="#E6952A"/>
<path d="M57.7734 220.913C57.7734 220.913 57.7735 249.921 25.78 242.33L27.5491 216.219L57.7734 220.913Z" fill="#A3862B"/>
<path d="M141.258 518.091V517.969C141.258 517.029 140.997 516.108 140.504 515.308C140.012 514.507 139.307 513.86 138.468 513.437L102.259 495.181C101.905 495.002 101.5 494.954 101.113 495.044C100.727 495.135 100.385 495.358 100.147 495.675L93.0691 505.099C92.818 505.433 92.4519 505.663 92.0415 505.743C91.6312 505.823 91.2058 505.749 90.8473 505.533L82.5402 500.547C82.2836 500.393 81.9907 500.31 81.6915 500.306C81.3923 500.302 81.0974 500.378 80.8371 500.526C80.5767 500.673 80.3601 500.887 80.2094 501.146C80.0587 501.404 79.9793 501.698 79.9793 501.998V518.091C79.9793 518.54 80.1574 518.97 80.4745 519.287C80.7916 519.605 81.2217 519.783 81.6702 519.783H139.567C140.015 519.783 140.445 519.605 140.763 519.287C141.08 518.97 141.258 518.54 141.258 518.091Z" fill="#5D1115"/>
<path d="M83.7578 518.091V517.969C83.7578 517.029 83.497 516.108 83.0044 515.308C82.5119 514.507 81.8069 513.86 80.9681 513.437L44.7595 495.181C44.4053 495.002 43.9996 494.954 43.6133 495.044C43.2271 495.135 42.8849 495.358 42.6467 495.675L35.5691 505.099C35.318 505.433 34.9519 505.663 34.5416 505.743C34.1313 505.823 33.7058 505.749 33.3473 505.533L25.0402 500.547C24.7836 500.393 24.4907 500.31 24.1915 500.306C23.8923 500.302 23.5974 500.378 23.3371 500.526C23.0767 500.673 22.8601 500.887 22.7094 501.146C22.5587 501.404 22.4793 501.698 22.4793 501.998V518.091C22.4793 518.54 22.6574 518.97 22.9745 519.287C23.2916 519.605 23.7217 519.783 24.1702 519.783H82.0669C82.5154 519.783 82.9455 519.605 83.2626 519.287C83.5797 518.97 83.7578 518.54 83.7578 518.091Z" fill="#5D1115"/>
<path d="M75.5202 6.24646C80.4111 5.50147 85.409 5.93004 90.1018 7.49683C92.3014 8.27704 100.346 11.1305 104.267 18.7502C105.757 21.644 106.093 25.1252 106.767 32.0875C107.188 36.4363 108.862 39.551 108.859 44.8551C108.772 49.1526 108.068 53.4152 106.767 57.5119C104.817 63.9239 106.073 67.5667 105.1 68.7652C101.182 73.5958 92.7805 69.1305 92.6019 75.4339C92.4916 79.326 94.9636 81.7896 91.7163 85.2807C87.6893 89.6097 72.3921 87.9714 66.7711 85.0202C66.0049 84.6179 54.7633 78.5667 55.5224 71.6828C55.928 68.0053 59.3685 67.6249 61.7719 62.0966C63.3106 58.2639 63.7436 54.0762 63.0217 50.0096C61.938 41.9625 57.8847 40.9812 54.6892 31.2539C53.8221 28.8118 53.5967 26.1878 54.0344 23.6334C54.4721 21.079 55.5583 18.68 57.1889 16.6662C61.8889 11.1499 68.3775 7.46174 75.5202 6.24646Z" fill="#F9977A"/>
<path d="M106.796 40.2434C105.894 40.2434 105.163 39.3337 105.163 38.2116C105.163 37.0894 105.894 36.1797 106.796 36.1797C107.698 36.1797 108.43 37.0894 108.43 38.2116C108.43 39.3337 107.698 40.2434 106.796 40.2434Z" fill="#0A0709"/>
<path d="M89.6792 40.9387C88.7772 40.9387 88.0459 40.029 88.0459 38.9069C88.0459 37.7847 88.7772 36.875 89.6792 36.875C90.5813 36.875 91.3125 37.7847 91.3125 38.9069C91.3125 40.029 90.5813 40.9387 89.6792 40.9387Z" fill="#0A0709"/>
<path d="M99.0692 34.4554C98.8517 34.4555 98.6398 34.3867 98.4637 34.259C98.2877 34.1313 98.1565 33.9512 98.089 33.7444C98.0214 33.5376 98.021 33.3147 98.0877 33.1077C98.1545 32.9006 98.2849 32.72 98.4605 32.5916C100.202 31.2839 102.293 30.5254 104.468 30.413C106.642 30.3006 108.801 30.8394 110.668 31.9605C110.895 32.1127 111.052 32.3489 111.105 32.6172C111.158 32.8855 111.103 33.164 110.951 33.3913C110.799 33.6186 110.563 33.7761 110.294 33.8293C110.026 33.8824 109.748 33.8268 109.521 33.6746C108.012 32.7672 106.265 32.3372 104.509 32.4411C102.752 32.545 101.067 33.1779 99.6766 34.2567C99.5005 34.386 99.2876 34.4556 99.0692 34.4554Z" fill="#1E1D22"/>
<path d="M82.1323 35.2916C81.9148 35.2916 81.7029 35.2229 81.5269 35.0952C81.3508 34.9675 81.2196 34.7874 81.1521 34.5806C81.0846 34.3738 81.0842 34.1509 81.1509 33.9438C81.2176 33.7368 81.3481 33.5561 81.5237 33.4278C83.2648 32.1201 85.3562 31.3615 87.5305 31.249C89.7048 31.1365 91.8633 31.6751 93.73 32.796C93.9572 32.9481 94.1147 33.1843 94.1679 33.4527C94.221 33.721 94.1654 33.9994 94.0133 34.2267C93.8612 34.454 93.625 34.6116 93.3568 34.6647C93.0886 34.7179 92.8103 34.6622 92.5831 34.5101C91.0752 33.6023 89.328 33.1722 87.5712 33.2762C85.8144 33.3802 84.1301 34.0135 82.7397 35.0928C82.5637 35.2222 82.3508 35.2919 82.1323 35.2916Z" fill="#1E1D22"/>
<path d="M95.4585 217.585C93.9557 217.585 92.7373 216.366 92.7373 214.863C92.7373 213.359 93.9557 212.141 95.4585 212.141C96.9614 212.141 98.1797 213.359 98.1797 214.863C98.1797 216.366 96.9614 217.585 95.4585 217.585Z" fill="#5D1115"/>
<path d="M99.3331 35.6875C98.9073 37.3978 99.0513 39.2004 99.7433 40.8213C100.363 42.454 101.208 43.9918 102.255 45.39C102.789 46.0929 103.568 46.6188 103.515 47.3096C103.424 48.0842 103.03 48.791 102.418 49.2746C101.735 49.7541 100.964 50.094 100.149 50.2747C99.3337 50.4555 98.4911 50.4736 97.6692 50.3281C98.5107 50.6092 99.4046 50.6972 100.285 50.5856C101.165 50.474 102.008 50.1657 102.753 49.6835C103.142 49.4127 103.467 49.0608 103.706 48.6521C103.946 48.2435 104.094 47.7877 104.141 47.3162C104.146 46.8069 103.957 46.3148 103.612 45.9401L102.787 44.9569C101.758 43.6186 100.897 42.1582 100.225 40.6089C99.48 39.082 99.1714 37.3788 99.3331 35.6875Z" fill="#DD765E"/>
<path d="M69.1641 36.3797C68.5387 36.3504 67.9145 36.4585 67.3354 36.6963C66.7562 36.9341 66.2361 37.2959 65.8117 37.7563C65.3821 38.2022 65.009 38.6992 64.7006 39.2362C64.4038 39.7717 64.1828 40.3459 64.0438 40.9422C64.7283 39.9905 65.4802 39.0892 66.2936 38.2452C66.6863 37.833 67.1244 37.4667 67.5996 37.1534C68.0821 36.823 68.6087 36.5625 69.1641 36.3797Z" fill="#DD765E"/>
<path d="M67.831 44.8507C68.4635 43.6606 68.6855 42.295 68.4625 40.9657C68.2395 39.6365 67.5839 38.4182 66.5976 37.5C66.8578 38.1113 67.1476 38.673 67.3353 39.2747C67.5526 39.857 67.705 40.4615 67.7895 41.0773C67.9937 42.3258 68.0077 43.598 67.831 44.8507Z" fill="#DD765E"/>
<path d="M124.184 170.016C124.821 163.964 125.003 157.872 124.726 151.792C124.563 145.699 123.8 139.638 122.447 133.695C122.577 139.79 122.794 145.81 123.024 151.861C123.289 157.906 123.546 163.95 124.184 170.016Z" fill="#E6952A"/>
<path d="M90.8701 57.5078C90.8701 57.5078 97.3026 63.5098 103.055 57.5078H90.8701Z" fill="#0A0709"/>
<path d="M84.4071 38.6595C85.8194 37.9534 87.3368 37.4812 88.9002 37.2613C89.6667 37.1361 90.4462 37.1102 91.2193 37.1842C92.0117 37.2497 92.7978 37.3771 93.5703 37.5652C92.8732 37.1252 92.1006 36.8184 91.2916 36.6604C90.4737 36.4993 89.635 36.4724 88.8085 36.5809C87.16 36.7958 85.6205 37.5228 84.4071 38.6595Z" fill="#1E1D22"/>
<path d="M101.243 37.9722C102.655 37.2659 104.173 36.7937 105.736 36.5739C106.503 36.4488 107.282 36.4229 108.055 36.4969C108.848 36.5624 109.634 36.6898 110.406 36.8779C109.709 36.4378 108.937 36.131 108.128 35.9731C107.31 35.8117 106.471 35.7849 105.644 35.8935C103.996 36.1084 102.456 36.8355 101.243 37.9722Z" fill="#1E1D22"/>
<path d="M124.32 209.109C120.959 211.275 117.328 212.991 113.52 214.213C109.751 215.508 105.898 216.547 101.989 217.322C94.1741 218.92 86.2339 219.827 78.2602 220.034C74.2805 220.335 70.2831 220.181 66.2915 220.24C62.2993 220.163 58.311 219.895 54.3143 219.777C50.3301 219.458 46.3355 219.196 42.3494 218.829C38.3676 218.415 34.3901 217.942 30.3902 217.577C34.3296 218.324 38.2916 218.962 42.2491 219.659C46.227 220.196 50.2239 220.606 54.2159 221.086C58.2208 221.412 62.2394 221.633 66.2574 221.792C70.2806 221.783 74.3071 221.995 78.3315 221.735C86.3949 221.462 94.413 220.411 102.274 218.597C110.051 216.664 117.939 214.075 124.32 209.109Z" fill="#5D1115"/>
<path d="M98.4609 218.75C96.4656 228.403 94.6545 238.087 92.8714 247.776C91.0844 257.464 89.4484 267.178 87.7295 276.878C86.1467 286.601 84.4913 296.311 82.9766 306.046L80.738 320.653C80.0533 325.533 79.3109 330.403 78.6771 335.291C79.692 330.467 80.5981 325.625 81.5621 320.794L84.2695 306.265C86.052 296.577 87.6939 286.864 89.4084 277.163C90.9868 267.44 92.6482 257.73 94.1585 247.995C95.6726 238.26 97.1589 228.521 98.4609 218.75Z" fill="#5D1115"/>
<path d="M112.223 206.695C111.627 208.447 111.339 210.289 111.371 212.14C111.335 213.991 111.624 215.833 112.223 217.585C112.823 215.833 113.111 213.991 113.075 212.14C113.107 210.289 112.819 208.447 112.223 206.695Z" fill="#5D1115"/>
<path d="M70.6415 211.133C69.8076 213.087 69.2734 215.155 69.057 217.269C68.7701 219.374 68.8063 221.511 69.1645 223.606C70.0019 221.653 70.5363 219.584 70.7491 217.47C71.0323 215.364 70.996 213.228 70.6415 211.133Z" fill="#5D1115"/>
<path d="M92.1515 219.758C91.0263 223.583 90.1095 227.467 89.4054 231.392C88.6863 235.302 88.094 239.233 87.6643 243.191L87.6204 243.596L87.9013 243.784C89.7568 245.024 91.6536 246.209 93.6094 247.316C92.0067 245.741 90.3451 244.243 88.6424 242.8L88.8792 243.392C89.7426 239.505 90.4436 235.592 91.0178 231.658C91.6108 227.714 91.9892 223.742 92.1515 219.758Z" fill="#5D1115"/>
<path d="M30.3931 282.594C30.4637 285.479 30.8234 288.349 31.4666 291.162C32.077 293.996 32.9476 296.768 34.0671 299.441C35.1811 302.14 36.6377 304.685 38.4011 307.012C40.166 309.341 42.4181 311.256 45 312.624C42.8692 310.768 41.0124 308.619 39.4854 306.241C37.9902 303.869 36.7024 301.372 35.6365 298.778C34.5398 296.176 33.5754 293.52 32.7471 290.821C31.9179 288.111 31.0982 285.381 30.3931 282.594Z" fill="#5D1115"/>
<path d="M30.3931 302.391C30.8705 304.419 31.5798 306.387 32.5069 308.253C33.4165 310.132 34.4832 311.93 35.6954 313.628C38.0718 317.097 41.268 319.925 45 321.861C43.5349 320.37 42.1102 318.944 40.8015 317.398C39.5122 315.843 38.2315 314.29 37.0775 312.631C34.7061 309.357 32.5837 305.918 30.3931 302.391Z" fill="#5D1115"/>
<path d="M92.6509 381.344C92.7217 384.229 93.0813 387.1 93.7244 389.913C94.3349 392.746 95.2054 395.518 96.325 398.191C97.4389 400.891 98.8956 403.435 100.659 405.762C102.424 408.091 104.676 410.007 107.258 411.374C105.127 409.518 103.27 407.369 101.743 404.991C100.248 402.619 98.9602 400.122 97.8945 397.528C96.7976 394.926 95.8333 392.27 95.005 389.571C94.1758 386.861 93.3561 384.131 92.6509 381.344Z" fill="#5D1115"/>
<path d="M92.6509 401.156C93.1285 403.185 93.8377 405.152 94.7647 407.019C95.6745 408.897 96.7412 410.695 97.9533 412.394C100.33 415.863 103.526 418.691 107.258 420.627C105.793 419.136 104.368 417.711 103.059 416.164C101.77 414.608 100.49 413.056 99.3354 411.397C96.964 408.123 94.8416 404.683 92.6509 401.156Z" fill="#5D1115"/>
<path d="M63.4735 243.297C63.8714 246.643 63.9028 250.023 63.5671 253.376C63.3935 256.605 62.1373 259.68 60.0013 262.107C57.8013 264.343 54.3969 264.848 51.1524 264.651C47.8036 264.321 44.5 263.632 41.2989 262.594C44.3192 264.273 47.6071 265.417 51.0172 265.975C52.7832 266.24 54.5815 266.203 56.3351 265.865C58.1584 265.494 59.8402 264.616 61.1869 263.332C63.6116 260.629 64.9327 257.113 64.8881 253.482C65.0084 250.031 64.5298 246.585 63.4735 243.297Z" fill="#5D1115"/>
<path d="M89.995 75.9474C89.995 75.9474 86.1195 95.5712 58.6225 66.8125L32.0914 83.2345C26.086 87.0553 21.2693 92.4814 18.1864 98.8987C7.70023 121.099 1.56368 145.104 0.108795 169.615C0.108795 169.615 -3.64082 194.316 33.0219 243.026C33.0219 243.026 52.1865 246.722 56.7693 226.299L44.9978 210.044C44.9978 210.044 107.181 215.879 123.429 200.874C123.429 200.874 131.935 94.5309 95.9318 73.3359L89.995 75.9474Z" fill="#FFBA55"/>
<path d="M43.8562 120.852C43.1251 125.482 42.4466 130.119 41.8208 134.761C41.2179 139.406 40.5567 144.045 40.0015 148.695L38.3441 162.647C37.767 167.295 37.342 171.96 36.8334 176.615L36.8251 176.692L36.8305 176.756C37.3148 182.487 38.1925 188.178 39.4575 193.788C40.6051 199.421 42.4677 204.885 45 210.045C42.955 204.72 41.4541 199.201 40.5206 193.573C40.0134 190.771 39.6105 187.951 39.2694 185.126C38.8979 182.308 38.584 179.465 38.3834 176.648L38.3805 176.788C38.9135 172.136 39.5299 167.492 39.9944 162.832L41.4614 148.858C41.9478 144.2 42.3284 139.53 42.7669 134.867C43.1786 130.201 43.5417 125.529 43.8562 120.852Z" fill="#E6952A"/>
<path d="M50.4062 125.438C48.5536 126.982 46.9147 128.766 45.5326 130.742C44.0915 132.677 42.9172 134.797 42.0413 137.045C43.8965 135.503 45.5358 133.719 46.9149 131.739C48.353 129.803 49.5271 127.684 50.4062 125.438Z" fill="#E6952A"/>
<path d="M37.6016 176.704C35.7013 176.685 34.0158 176.88 32.3261 176.949C31.4859 176.996 30.6606 176.987 29.8169 176.979C28.9776 176.931 28.1461 176.839 27.1859 176.704C27.8144 177.446 28.64 177.995 29.5672 178.286C30.4858 178.567 31.4454 178.691 32.4052 178.651C33.3456 178.597 34.2735 178.41 35.161 178.094C36.0576 177.795 36.8869 177.323 37.6016 176.704Z" fill="#E6952A"/>
<path d="M84.096 82.1562C85.7932 87.2767 87.4217 92.4142 88.8588 97.608C90.3713 102.778 91.7658 107.979 93.0421 113.211C95.6138 123.665 97.8618 134.194 99.5452 144.819C101.265 155.435 102.393 166.138 102.926 176.879C103.018 182.251 103.269 187.633 102.916 193.005C102.933 198.401 102.114 203.726 101.675 209.112C103.58 198.464 104.438 187.654 104.237 176.839C103.901 166.024 102.896 155.24 101.227 144.549C99.3936 133.891 97.159 123.304 94.3053 112.881C91.5053 102.449 88.0963 92.1895 84.096 82.1562Z" fill="#E6952A"/>
<path d="M95.9282 73.3361C96.5625 76.1822 97.1378 79.0392 97.51 81.9161C97.9987 84.7266 98.0318 87.5975 97.608 90.4185C97.3043 91.7805 96.516 92.7291 95.3267 92.3922C94.0445 91.9982 92.8575 91.3434 91.8401 90.4689C89.6374 88.6335 87.5919 86.6172 85.7247 84.4411L84.472 83.0395L84.3331 84.9474C84.2282 86.9055 83.7196 88.8206 82.8392 90.5726C82.4631 91.3978 81.8847 92.1146 81.1578 92.6565C80.4308 93.1983 79.5788 93.5477 78.6808 93.6722C76.746 93.7356 74.8309 93.2665 73.1443 92.316C71.3354 91.393 69.6254 90.2874 68.0413 89.0165C61.652 83.7436 55.7491 77.9074 50.4035 71.5781C52.8774 74.9235 55.4232 78.228 58.1932 81.3514C60.946 84.5144 63.9395 87.4594 67.1468 90.1599C68.7894 91.5155 70.5664 92.6995 72.4498 93.6935C74.392 94.8133 76.6079 95.3689 78.8485 95.2979C80.0215 95.165 81.141 94.7337 82.1 94.0451C83.0591 93.3565 83.8258 92.4335 84.327 91.3641C85.3009 89.3776 85.8459 87.2082 85.9266 84.997L84.5352 85.5033C86.4972 87.723 88.6422 89.7737 90.9475 91.634C92.1542 92.6518 93.588 93.3643 95.1278 93.7113C95.5832 93.8049 96.0548 93.7818 96.4989 93.6443C96.9429 93.5067 97.345 93.259 97.6678 92.9244C98.2281 92.2925 98.5934 91.5118 98.7197 90.6766C98.9694 89.1866 99.0121 87.6692 98.8466 86.1675C98.719 84.7004 98.5021 83.2425 98.1972 81.8019C97.6144 78.9362 96.8566 76.109 95.9282 73.3361Z" fill="#E6952A"/>
<path d="M90.9854 118.984C90.0237 118.984 89.2442 118.204 89.2442 117.242C89.2442 116.28 90.0237 115.5 90.9854 115.5C91.947 115.5 92.7266 116.28 92.7266 117.242C92.7266 118.204 91.947 118.984 90.9854 118.984Z" fill="#5D1115"/>
<path d="M85.7666 98.7572C84.805 98.7572 84.0254 97.9774 84.0254 97.0153C84.0254 96.0533 84.805 95.2734 85.7666 95.2734C86.7283 95.2734 87.5078 96.0533 87.5078 97.0153C87.5078 97.9774 86.7283 98.7572 85.7666 98.7572Z" fill="#5D1115"/>
<path d="M95.3213 142.687C94.3597 142.687 93.5801 141.907 93.5801 140.945C93.5801 139.983 94.3597 139.203 95.3213 139.203C96.2829 139.203 97.0625 139.983 97.0625 140.945C97.0625 141.907 96.2829 142.687 95.3213 142.687Z" fill="#5D1115"/>
<path d="M98.8916 167.71C97.93 167.71 97.1504 166.93 97.1504 165.968C97.1504 165.006 97.93 164.227 98.8916 164.227C99.8533 164.227 100.633 165.006 100.633 165.968C100.633 166.93 99.8533 167.71 98.8916 167.71Z" fill="#5D1115"/>
<path d="M99.9776 195.117C99.0159 195.117 98.2364 194.337 98.2364 193.375C98.2364 192.413 99.0159 191.633 99.9776 191.633C100.939 191.633 101.719 192.413 101.719 193.375C101.719 194.337 100.939 195.117 99.9776 195.117Z" fill="#5D1115"/>
<path d="M93.6642 75.119C93.6642 75.119 82.1331 75.3326 75.5406 66.1631C72.3971 61.7916 72.3893 52.9476 72.6971 47.8029C72.8379 45.497 72.4753 43.1881 71.6342 41.0365C70.4686 38.0635 69.0386 34.0126 66.1318 33.743C63.99 33.5443 63.1295 32.9786 62.3583 35.0466C61.0839 38.4676 63.2981 42.2415 64.8396 44.8702C67.0467 48.6313 68.9209 49.4525 68.9549 52.0547C68.9812 54.0398 65.8025 57.3426 64.4864 57.4881C62.259 57.7341 61.2524 50.9767 55.2805 39.7056C51.509 32.5884 49.775 31.2533 49.3383 26.8103C49.1834 25.2328 48.5418 18.7018 52.4709 14.9033C54.2934 13.1414 55.3297 13.6782 63.2542 10.3212C65.4545 9.448 67.6057 8.45587 69.6984 7.34918C76.0105 3.89977 75.87 2.12548 79.5636 1.07505C82.9004 0.126315 83.0982 1.55152 89.4697 1.17408C95.6126 0.810367 96.1575 -0.557875 98.9973 0.252338C103.928 1.6588 106.296 6.92717 106.932 8.34277C108.201 10.7933 108.854 13.5165 108.834 16.2764C108.563 19.0765 107.527 21.7478 105.838 23.9973C105.037 24.8135 101.789 20.1088 100.019 18.3389C98.2839 16.6049 96.3125 17.315 93.626 17.4821C91.0066 17.645 91.1499 19.2771 87.2755 20.71C85.8951 21.2205 80.3634 18.7413 78.5779 21.804C76.6756 25.0672 75.1964 25.4626 76.0896 28.4991C76.6477 30.3961 76.3023 32.7268 75.6117 37.3883C75.1165 40.7337 77.8221 52.4186 77.8221 52.4186C78.0596 52.9034 78.3908 53.3363 78.7965 53.6924C79.2022 54.0484 79.6745 54.3205 80.1859 54.493C80.6973 54.6654 81.2378 54.7348 81.7762 54.6971C82.3146 54.6594 82.8402 54.5154 83.3227 54.2734C86.2539 52.7636 89.2837 51.4534 92.3913 50.3517C94.2475 49.7192 96.2208 49.5067 98.169 49.7295C100.117 49.9523 101.992 50.6049 103.657 51.6403C104.815 52.3481 106.004 53.1409 106.946 53.8559C107.571 54.3313 108.07 54.9535 108.398 55.6674C108.727 56.3813 108.874 57.165 108.828 57.9495C108.485 62.9645 106.405 75.231 93.6642 75.119ZM104.621 57.6956C104.146 55.3068 100.584 54.3778 98.5509 53.8498C96.9413 53.2813 95.1962 53.2194 93.5504 53.6726C93.1595 53.7935 89.6194 55.0101 89.2991 57.8636C88.9778 60.7174 92.1591 62.7071 92.6574 63.0061C93.8478 63.7217 95.2015 64.1206 96.5897 64.1647C97.9778 64.2087 99.3541 63.8966 100.587 63.2579C102.414 62.3136 105.085 59.9915 104.621 57.6956Z" fill="#1E1D22"/>
</g>
</svg>
