<svg width="27" height="16" viewBox="0 0 27 16" fill="none" xmlns="http://www.w3.org/2000/svg">
<path d="M21.1875 8.71123C22.1501 10.1249 22.6992 11.7792 22.773 13.4879H26.1566C26.086 11.0446 25.3022 8.67531 23.9019 6.67188L21.1875 8.71123Z" fill="#841515"/>
<path d="M24.5729 6.17001L24.3546 5.88277L24.3258 5.84256C23.08 4.16971 21.4634 2.80831 19.603 1.86516C17.7426 0.922022 15.6889 0.422795 13.6032 0.406654C11.5174 0.390514 9.45629 0.857898 7.5815 1.77214C5.70672 2.68637 4.06928 4.0226 2.79766 5.67596L2.67415 5.84256L2.60809 5.93447L2.42713 6.17862C0.844882 8.43459 -0.00271674 11.1238 6.54176e-06 13.8794L6.54176e-06 14.2958H5.05245V13.8794C5.04685 12.0647 5.63157 10.2974 6.7184 8.84415C7.5047 7.78653 8.52746 6.92747 9.70497 6.33561C10.8825 5.74376 12.1821 5.43552 13.5 5.43552C14.8179 5.43552 16.1175 5.74376 17.295 6.33561C18.4725 6.92747 19.4953 7.78653 20.2816 8.84415C21.3674 10.2981 21.9529 12.0647 21.9504 13.8794V14.2987H27V13.8794C27.0049 11.1208 26.1571 8.42821 24.5729 6.17001ZM22.7748 13.4715C22.6983 11.7677 22.1493 10.1188 21.1892 8.70915L23.9036 6.68415C25.3013 8.68353 26.085 11.0475 26.1584 13.4858L22.7748 13.4715ZM0.841601 13.4715C0.917074 11.033 1.69942 8.66901 3.09351 6.66692L5.80787 8.67756C4.84492 10.092 4.29672 11.7475 4.22521 13.4571L0.841601 13.4715ZM6.29904 8.01405L3.58756 6.00341C4.7736 4.51292 6.2806 3.30918 7.99633 2.48181C9.71205 1.65444 11.5923 1.22476 13.4971 1.22476C15.4019 1.22476 17.2822 1.65444 18.9979 2.48181C20.7136 3.30918 22.2206 4.51292 23.4067 6.00341L20.6952 8.01405C19.8241 6.9491 18.7272 6.09109 17.4838 5.50208C16.2404 4.91308 14.8816 4.60781 13.5058 4.60836C12.13 4.60891 10.7715 4.91527 9.52855 5.50526C8.28563 6.09526 7.1894 6.95415 6.31915 8.01979L6.29904 8.01405Z" fill="#047857"/>
<path d="M20.6936 8.01585L23.4051 6.00521C22.219 4.51472 20.712 3.31098 18.9963 2.48361C17.2806 1.65624 15.4003 1.22656 13.4955 1.22656C11.5907 1.22656 9.71044 1.65624 7.99471 2.48361C6.27898 3.31098 4.77199 4.51472 3.58594 6.00521L6.29742 8.01585C7.16803 6.94851 8.26522 6.08828 9.50947 5.49752C10.7537 4.90675 12.1138 4.60026 13.4912 4.60026C14.8686 4.60026 16.2287 4.90675 17.4729 5.49752C18.7172 6.08828 19.8144 6.94851 20.685 8.01585H20.6936Z" fill="url(#paint0_linear_4096_4950)"/>
<path d="M5.81002 8.69032L3.09566 6.67969C1.70421 8.67771 0.921982 11.0364 0.84375 13.4699H4.22736C4.29887 11.7603 4.84707 10.1047 5.81002 8.69032Z" fill="#348EAA"/>
<path d="M15.7763 15.5802C14.5574 15.5802 15.0509 15.58 13.5761 15.58C11.9093 15.58 10.5348 15.5887 8.82812 15.5887H11.6287C11.4628 15.3075 11.3746 14.9873 11.373 14.6609C11.394 14.1725 12.3908 14.0816 12.7227 13.7229C13.0547 13.3641 12.7002 12.7607 13.1855 12.702V11.892L14.574 14.8732L8.82812 15.5889C8.82844 13.9474 9.38475 10.7499 13.5761 11.1425C17.6315 10.8342 18.0005 15.1013 18.0196 15.58L8.82812 15.5887C8.82812 14.951 14.3286 13.5033 13.5761 13.5033C12.8235 13.5033 12.2089 14.0232 12.2089 14.6523C12.215 14.8412 12.2691 15.0255 12.3661 15.1878C12.463 15.3501 12.5997 15.4851 12.7632 15.58H18.0196C17.2107 15.58 18.1925 15.5887 16.9863 15.58C16.0046 15.573 16.9937 15.5802 15.7763 15.5802Z" fill="#047857"/>
<path d="M14.4599 10.2608L16.7578 8.36215L16.2264 7.71875L13.2592 10.1689C11.8518 10.2121 10.5162 10.8008 9.53484 11.8106C8.55344 12.8204 8.00306 14.1722 8 15.5803H8.82436C8.89599 14.4124 9.41045 13.3157 10.2628 12.514C11.1152 11.7123 12.2413 11.2659 13.4115 11.2659C14.5817 11.2659 15.7078 11.7123 16.5601 12.514C17.4125 13.3157 17.927 14.4124 17.9986 15.5803H18.8345C18.8331 14.3245 18.3964 13.108 17.5987 12.138C16.8011 11.168 15.6918 10.5046 14.4599 10.2608Z" fill="#047857"/>
<defs>
<linearGradient id="paint0_linear_4096_4950" x1="23.4051" y1="4.6212" x2="3.58594" y2="4.6212" gradientUnits="userSpaceOnUse">
<stop stop-color="#841515"/>
<stop offset="0.5" stop-color="#BC952C"/>
<stop offset="1" stop-color="#348EAB"/>
</linearGradient>
</defs>
</svg>
