<svg width="12" height="13" viewBox="0 0 12 13" fill="none" xmlns="http://www.w3.org/2000/svg">
<path fill-rule="evenodd" clip-rule="evenodd" d="M10.7278 1.59235H1.03222C0.951091 1.59235 0.885321 1.65812 0.885321 1.73925V11.4348C0.885321 11.5159 0.951091 11.5817 1.03222 11.5817H10.7278C10.8089 11.5817 10.8747 11.5159 10.8747 11.4348V1.73925C10.8747 1.65812 10.8089 1.59235 10.7278 1.59235ZM1.03222 0.710938C0.464299 0.710938 0.00390625 1.17133 0.00390625 1.73925V11.4348C0.00390625 12.0027 0.464299 12.4631 1.03222 12.4631H10.7278C11.2957 12.4631 11.7561 12.0027 11.7561 11.4348V1.73925C11.7561 1.17133 11.2957 0.710938 10.7278 0.710938H1.03222Z" fill="#36AF8D"/>
<rect x="2.20703" y="2.91406" width="2.20354" height="1.02832" rx="0.514158" fill="#36AF8D"/>
<rect x="5.14453" y="2.91406" width="4.40707" height="1.02832" rx="0.514158" fill="#36AF8D"/>
<rect x="2.20703" y="5.11719" width="2.20354" height="1.02832" rx="0.514158" fill="#36AF8D"/>
<rect x="5.14453" y="5.11719" width="4.40707" height="1.02832" rx="0.514158" fill="#36AF8D"/>
<rect x="2.20703" y="7.32031" width="2.20354" height="1.02832" rx="0.514158" fill="#36AF8D"/>
<rect x="5.14453" y="7.32031" width="4.40707" height="1.02832" rx="0.514158" fill="#36AF8D"/>
</svg>
