<svg width="30" height="29" viewBox="0 0 30 29" fill="none" xmlns="http://www.w3.org/2000/svg">
<path d="M15.3818 3.60938C11.413 3.60938 8.18757 6.83479 8.18757 10.8036V14.2688C8.18757 15.0002 7.87582 16.1154 7.50412 16.7389L6.12522 19.029C5.2739 20.4439 5.86143 22.0146 7.42018 22.5422C12.588 24.2688 18.1636 24.2688 23.3314 22.5422C24.7823 22.0626 25.4178 20.348 24.6264 19.029L23.2475 16.7389C22.8878 16.1154 22.576 15.0002 22.576 14.2688V10.8036C22.576 6.84678 19.3386 3.60938 15.3818 3.60938Z" fill="#53EF96" stroke="#394D48" stroke-width="0.66" stroke-miterlimit="10" stroke-linecap="round"/>
<path d="M17.6161 3.9561C17.2444 3.84819 16.8607 3.76426 16.4651 3.71629C15.314 3.57241 14.2109 3.65634 13.1797 3.9561C13.5274 3.06881 14.3907 2.44531 15.3979 2.44531C16.4051 2.44531 17.2684 3.06881 17.6161 3.9561Z" fill="black" stroke="#394D48" stroke-width="0.66" stroke-miterlimit="10" stroke-linecap="round" stroke-linejoin="round"/>
<path d="M18.9766 23.5C18.9766 26.5 17.9766 27.5 15.394 27.5815C14.4108 27.5815 13.4995 27.1738 12.8521 26.5263C12.2046 25.8789 11.9766 25 11.9766 23.5" fill="#394D48"/>
<path d="M18.9766 23.5C18.9766 26.5 17.9766 27.5 15.394 27.5815C14.4108 27.5815 13.4995 27.1738 12.8521 26.5263C12.2046 25.8789 11.9766 25 11.9766 23.5" stroke="#394D48" stroke-width="0.66" stroke-miterlimit="10"/>
<circle cx="22.5581" cy="4.91743" r="3.29712" fill="#53EF96" stroke="#394D48" stroke-width="0.6"/>
</svg>
