<svg width="24" height="25" viewBox="0 0 24 25" fill="none" xmlns="http://www.w3.org/2000/svg">
<path d="M0.316406 9.83228C0.316406 5.37407 0.316406 3.14498 1.8369 1.75998C3.35741 0.375 5.80461 0.375 10.699 0.375H13.2947C18.189 0.375 20.6364 0.375 22.1568 1.75998C23.6773 3.14498 23.6773 5.37407 23.6773 9.83228V14.5609C23.6773 19.0191 23.6773 21.2483 22.1568 22.6332C20.6364 24.0182 18.189 24.0182 13.2947 24.0182H10.699C5.80461 24.0182 3.35741 24.0182 1.8369 22.6332C0.316406 21.2483 0.316406 19.0191 0.316406 14.5609V9.83228Z" fill="#3ADE9E"/>
<rect x="5.70703" y="6.74219" width="13.4774" height="1.81871" rx="0.909354" fill="#1F1F1F"/>
<rect x="5.70703" y="11.2891" width="11.6804" height="1.81871" rx="0.909354" fill="#1F1F1F"/>
<rect x="5.70703" y="15.8281" width="8.98496" height="1.81871" rx="0.909354" fill="#1F1F1F"/>
</svg>
