<svg width="40" height="41" viewBox="0 0 40 41" fill="none" xmlns="http://www.w3.org/2000/svg">
<path d="M20.2463 0.75C15.0072 0.75 9.98265 2.83123 6.27804 6.53585C2.57342 10.2405 0.492188 15.265 0.492188 20.5041C0.492323 23.0983 1.00341 25.667 1.99627 28.0636C2.98914 30.4603 4.44433 32.6379 6.27876 34.4721C8.1132 36.3064 10.291 37.7613 12.6877 38.7539C15.0844 39.7465 17.6532 40.2574 20.2473 40.2572C22.8415 40.2571 25.4102 39.746 27.8068 38.7531C30.2035 37.7603 32.3811 36.3051 34.2153 34.4707C36.0496 32.6362 37.5045 30.4585 38.4971 28.0617C39.4898 25.665 40.0006 23.0962 40.0004 20.5021C40.0004 9.59409 31.1543 0.75 20.2463 0.75ZM20.2463 36.1408C18.1926 36.1408 16.159 35.7363 14.2616 34.9503C12.3643 34.1644 10.6403 33.0125 9.1881 31.5603C7.73591 30.1081 6.58397 28.3841 5.79805 26.4867C5.01214 24.5894 4.60763 22.5558 4.60763 20.5021C4.60763 18.4484 5.01214 16.4148 5.79805 14.5174C6.58397 12.62 7.73591 10.896 9.1881 9.44385C10.6403 7.99166 12.3643 6.83973 14.2616 6.05381C16.159 5.26789 18.1926 4.86339 20.2463 4.86339V20.5041L34.2224 13.5161C35.315 15.6835 35.8844 18.0769 35.885 20.5041C35.8845 24.6514 34.2366 28.6286 31.3038 31.561C28.371 34.4934 24.3936 36.1408 20.2463 36.1408Z" fill="#36AF8D"/>
</svg>
