<svg width="18" height="20" viewBox="0 0 18 20" fill="none" xmlns="http://www.w3.org/2000/svg">
<path d="M5.90397 5.1358C5.54578 3.67636 5.65484 2.13325 7.28302 1.62549C7.82832 1.45545 7.64332 1.52445 8.06843 1.18212C8.44075 0.882317 8.9323 0.704602 9.4065 0.675562C10.6901 0.597351 12.152 1.7771 12.6136 2.89838C12.8999 3.59356 12.9402 4.43438 12.6457 5.13444C13.5032 5.152 13.0034 6.39583 12.7685 6.80418C12.4799 7.30589 12.5547 6.98232 12.4324 7.62194C12.1685 9.00215 11.1497 10.4272 9.86955 11.0067C10.085 11.3082 10.3949 11.7289 10.5242 12.0735C10.4129 12.5464 10.0851 12.9027 9.95812 13.3087C9.88657 13.5374 10.2084 14.9631 10.2315 15.3629C10.7648 14.2495 11.2992 13.0415 11.7488 11.8988C11.9523 11.3816 12.0853 10.7386 12.7894 10.9964C13.1737 11.1372 13.542 11.3387 13.9153 11.5068L15.1642 12.079C16.7703 12.8284 16.9169 13.3117 17.1402 14.9341L17.6164 18.2657C17.6714 18.659 17.7491 19.0657 17.765 19.4625C17.7921 20.1417 16.9682 19.9979 16.5337 19.9978L14.9478 19.9974C12.9923 19.9973 11.034 19.9763 9.07888 20.0005C8.44129 19.9909 7.80275 19.9975 7.16503 19.9975L2.33392 19.998C2.0853 19.998 1.28741 20.0327 1.09013 19.9566C0.603415 19.7689 0.794119 19.1698 0.846298 18.7811L1.35789 15.2026C1.64307 13.1891 1.66406 12.8822 3.63985 11.9561C4.31169 11.6412 4.98449 11.3281 5.66174 11.0249C6.35205 10.716 6.49314 11.1567 6.72301 11.7153C7.23253 12.9535 7.80725 14.1632 8.33706 15.3926C8.41493 14.7966 8.59018 14.0708 8.62319 13.4952C8.63947 13.2113 8.14866 12.4606 8.03257 12.0878L8.02691 12.0694C8.09727 11.7822 8.46252 11.2514 8.66009 11.0271C7.39469 10.4727 6.28471 8.82384 6.0634 7.51742C5.973 6.98377 5.99023 7.21963 5.7661 6.81727C5.6163 6.54836 5.20481 5.52502 5.47418 5.24227C5.58131 5.12981 5.76106 5.13874 5.90397 5.1358Z" fill="#047857"/>
</svg>
