<svg width="352" height="347" viewBox="0 0 352 347" fill="none" xmlns="http://www.w3.org/2000/svg">
<path d="M87.1242 54.1249C89.8832 46.3077 98.4703 42.2009 106.287 44.96C114.105 47.719 118.211 56.3061 115.452 64.1233C112.693 71.9404 104.106 76.0473 96.2891 73.2882C88.4719 70.5292 84.3651 61.9421 87.1242 54.1249Z" fill="#03FF98"/>
<path d="M49.7035 229.999C51.9285 223.695 58.8535 220.383 65.1577 222.608C71.4619 224.833 74.7739 231.758 72.5488 238.062C70.3238 244.367 63.3987 247.678 57.0946 245.453C50.7904 243.228 47.4784 236.303 49.7035 229.999Z" fill="#03FF98"/>
<path d="M212.849 294.773C215.43 287.46 223.463 283.618 230.775 286.199C238.088 288.78 241.93 296.814 239.349 304.126C236.768 311.439 228.735 315.281 221.422 312.7C214.109 310.119 210.267 302.086 212.849 294.773Z" fill="#03FF98"/>
<path d="M267.459 99.2724C269.506 93.4725 275.877 90.4255 281.677 92.4726C287.477 94.5196 290.524 100.891 288.477 106.69C286.43 112.49 280.059 115.537 274.259 113.49C268.459 111.443 265.412 105.072 267.459 99.2724Z" fill="#03FF98"/>
<path d="M158.56 288.462C159.628 285.436 162.952 283.847 165.978 284.915C169.004 285.983 170.594 289.307 169.526 292.333C168.458 295.359 165.134 296.948 162.108 295.88C159.082 294.812 157.492 291.488 158.56 288.462Z" fill="#03FF98"/>
<path d="M186.609 69.197C187.855 65.6667 191.733 63.812 195.264 65.058C198.794 66.304 200.649 70.1821 199.403 73.7124C198.157 77.2428 194.279 79.0975 190.748 77.8514C187.218 76.6054 185.363 72.7274 186.609 69.197Z" fill="#03FF98"/>
<path d="M61.5886 146.841C62.7456 143.563 66.3467 141.841 69.6248 142.998C72.903 144.155 74.6252 147.756 73.4682 151.034C72.3112 154.312 68.7102 156.035 65.432 154.878C62.1538 153.721 60.4316 150.12 61.5886 146.841Z" fill="#03FF98"/>
<path d="M283.489 216.943C284.824 213.161 288.979 211.174 292.762 212.509C296.544 213.844 298.532 217.999 297.196 221.781C295.861 225.564 291.706 227.551 287.924 226.216C284.141 224.881 282.154 220.726 283.489 216.943Z" fill="#03FF98"/>
<path d="M196.476 48.6658L203.407 47.836L206.653 41.6555L209.584 47.9913L216.465 49.1684L211.346 53.914L212.352 60.822L206.257 57.4192L199.998 60.5113L201.351 53.6627L196.476 48.6658Z" fill="#03FF98"/>
<path d="M115.658 282.758L123.848 281.778L127.684 274.475L131.147 281.961L139.278 283.352L133.228 288.96L134.418 297.122L127.215 293.101L119.82 296.755L121.419 288.663L115.658 282.758Z" fill="#03FF98"/>
<path d="M50.6416 113.816L55.9006 113.187L58.3627 108.498L60.586 113.305L65.8067 114.198L61.9219 117.798L62.6863 123.039L58.062 120.456L53.3138 122.803L54.3407 117.607L50.6416 113.816Z" fill="#03FF98"/>
<path d="M296.447 180.079L304.638 179.098L308.473 171.795L311.936 179.282L320.067 180.673L314.017 186.28L315.207 194.442L308.005 190.422L300.609 194.075L302.208 185.983L296.447 180.079Z" fill="#03FF98"/>
</svg>
