<svg width="12" height="15" viewBox="0 0 12 15" fill="none" xmlns="http://www.w3.org/2000/svg">
<path d="M9.94642 5.11873L10.5794 4.49273C10.7104 4.36176 10.7839 4.18412 10.7839 3.99889C10.7839 3.81366 10.7104 3.63602 10.5794 3.50505C10.4484 3.37407 10.2708 3.30049 10.0855 3.30049C9.90031 3.30049 9.72267 3.37407 9.59169 3.50505L8.96569 4.138C7.99091 3.38392 6.79337 2.97478 5.56096 2.97478C4.32855 2.97478 3.13101 3.38392 2.15623 4.138L1.52328 3.49809C1.39138 3.36712 1.21286 3.2939 1.02698 3.29455C0.841098 3.29521 0.663091 3.36967 0.532116 3.50157C0.401141 3.63347 0.327926 3.81199 0.328579 3.99787C0.329231 4.18375 0.403696 4.36176 0.535594 4.49273L1.1755 5.12569C0.412492 6.09775 -0.0015185 7.29814 1.82436e-05 8.53389C-0.00225321 9.42102 0.207615 10.2958 0.612121 11.0854C1.01663 11.8749 1.60404 12.5563 2.32538 13.0727C3.04672 13.5891 3.88108 13.9255 4.75886 14.0539C5.63664 14.1824 6.53241 14.0991 7.37145 13.811C8.2105 13.5229 8.9685 13.0384 9.58225 12.3978C10.196 11.7572 10.6477 10.9792 10.8997 10.1286C11.1516 9.27805 11.1966 8.37954 11.0308 7.50805C10.865 6.63656 10.4932 5.81735 9.94642 5.11873ZM5.56444 12.7072C4.73904 12.7072 3.93217 12.4624 3.24587 12.0039C2.55957 11.5453 2.02467 10.8935 1.7088 10.131C1.39293 9.36838 1.31028 8.52926 1.47131 7.71972C1.63234 6.91018 2.02981 6.16656 2.61346 5.58291C3.19711 4.99926 3.94072 4.60179 4.75027 4.44077C5.55981 4.27974 6.39893 4.36238 7.1615 4.67825C7.92407 4.99412 8.57586 5.52902 9.03443 6.21532C9.493 6.90162 9.73776 7.70849 9.73776 8.53389C9.73776 9.64073 9.29807 10.7022 8.51542 11.4849C7.73277 12.2675 6.67127 12.7072 5.56444 12.7072ZM4.17334 2.27392L6.95555 2.27392C7.14002 2.27392 7.31693 2.20064 7.44738 2.0702C7.57782 1.93975 7.6511 1.76284 7.6511 1.57837C7.6511 1.39389 7.57782 1.21698 7.44738 1.08654C7.31693 0.956094 7.14002 0.882813 6.95555 0.882813L4.17334 0.882813C3.98886 0.882813 3.81195 0.956094 3.6815 1.08654C3.55106 1.21698 3.47778 1.39389 3.47778 1.57837C3.47778 1.76284 3.55106 1.93975 3.6815 2.0702C3.81195 2.20064 3.98886 2.27392 4.17334 2.27392ZM6.25999 6.44724C6.25999 6.26276 6.18671 6.08585 6.05627 5.95541C5.92583 5.82496 5.74891 5.75168 5.56444 5.75168C5.37997 5.75168 5.20305 5.82496 5.07261 5.95541C4.94217 6.08585 4.86889 6.26276 4.86889 6.44724V7.76183C4.71139 7.9027 4.60038 8.08806 4.55055 8.2934C4.50071 8.49874 4.51439 8.71437 4.58979 8.91177C4.66519 9.10916 4.79874 9.279 4.97278 9.39883C5.14682 9.51865 5.35314 9.58281 5.56444 9.58281C5.77574 9.58281 5.98206 9.51865 6.1561 9.39883C6.33014 9.279 6.46369 9.10916 6.53909 8.91177C6.61449 8.71437 6.62817 8.49874 6.57833 8.2934C6.5285 8.08806 6.41749 7.9027 6.25999 7.76183V6.44724Z" fill="#EC990C"/>
</svg>
