<svg width="16" height="20" viewBox="0 0 16 20" fill="none" xmlns="http://www.w3.org/2000/svg">
<path d="M14.3 6.08219L15.21 5.18219C15.3983 4.99388 15.5041 4.73849 15.5041 4.47219C15.5041 4.20589 15.3983 3.95049 15.21 3.76219C15.0217 3.57388 14.7663 3.4681 14.5 3.4681C14.2337 3.4681 13.9783 3.57388 13.79 3.76219L12.89 4.67219C11.4886 3.58804 9.76687 2.99982 7.99503 2.99982C6.22318 2.99982 4.50147 3.58804 3.10003 4.67219L2.19003 3.75219C2.0004 3.56388 1.74373 3.45862 1.47649 3.45956C1.20925 3.4605 0.95333 3.56756 0.765026 3.75719C0.576722 3.94682 0.471462 4.20348 0.472399 4.47072C0.473337 4.73796 0.580396 4.99388 0.770026 5.18219L1.69003 6.09219C0.593042 7.48973 -0.00218316 9.21553 2.6229e-05 10.9922C-0.00323946 12.2676 0.29849 13.5253 0.88005 14.6605C1.46161 15.7956 2.30614 16.7752 3.34322 17.5176C4.38029 18.26 5.57985 18.7437 6.84184 18.9284C8.10383 19.113 9.39168 18.9933 10.598 18.5791C11.8043 18.1649 12.8941 17.4683 13.7764 16.5473C14.6588 15.6264 15.3082 14.5079 15.6705 13.285C16.0328 12.0621 16.0974 10.7703 15.859 9.51733C15.6206 8.26438 15.0861 7.08659 14.3 6.08219ZM8.00003 16.9922C6.81334 16.9922 5.6533 16.6403 4.6666 15.981C3.67991 15.3217 2.91087 14.3846 2.45675 13.2883C2.00262 12.1919 1.8838 10.9855 2.11531 9.82165C2.34683 8.65776 2.91827 7.58866 3.75739 6.74955C4.5965 5.91043 5.6656 5.33899 6.82948 5.10748C7.99337 4.87596 9.19977 4.99478 10.2961 5.44891C11.3925 5.90304 12.3296 6.67207 12.9888 7.65877C13.6481 8.64546 14 9.8055 14 10.9922C14 12.5835 13.3679 14.1096 12.2427 15.2348C11.1174 16.36 9.59133 16.9922 8.00003 16.9922ZM6.00003 1.99219H10C10.2652 1.99219 10.5196 1.88683 10.7071 1.69929C10.8947 1.51176 11 1.2574 11 0.992188C11 0.726971 10.8947 0.472617 10.7071 0.285081C10.5196 0.0975443 10.2652 -0.0078125 10 -0.0078125H6.00003C5.73481 -0.0078125 5.48046 0.0975443 5.29292 0.285081C5.10538 0.472617 5.00003 0.726971 5.00003 0.992188C5.00003 1.2574 5.10538 1.51176 5.29292 1.69929C5.48046 1.88683 5.73481 1.99219 6.00003 1.99219ZM9.00003 7.99219C9.00003 7.72697 8.89467 7.47262 8.70713 7.28508C8.5196 7.09754 8.26524 6.99219 8.00003 6.99219C7.73481 6.99219 7.48046 7.09754 7.29292 7.28508C7.10538 7.47262 7.00003 7.72697 7.00003 7.99219V9.88219C6.7736 10.0847 6.614 10.3512 6.54235 10.6464C6.47069 10.9416 6.49037 11.2517 6.59877 11.5355C6.70717 11.8192 6.89918 12.0634 7.14939 12.2357C7.39961 12.408 7.69624 12.5002 8.00003 12.5002C8.30381 12.5002 8.60044 12.408 8.85066 12.2357C9.10088 12.0634 9.29289 11.8192 9.40129 11.5355C9.50968 11.2517 9.52936 10.9416 9.45771 10.6464C9.38606 10.3512 9.22646 10.0847 9.00003 9.88219V7.99219Z" fill="white"/>
</svg>
