<svg width="18" height="21" viewBox="0 0 18 21" fill="none" xmlns="http://www.w3.org/2000/svg">
<path d="M16.0182 15.1057C15.9706 14.9489 15.8795 14.8053 15.7533 14.6879C15.6271 14.5705 15.4698 14.4832 15.2958 14.4339L10.8369 13.0969V11.6816C10.835 11.664 10.8313 11.6465 10.8259 11.6294C10.9029 11.5642 10.9799 11.499 11.0569 11.4273C12.5493 10.0055 13.202 7.38365 13.0993 6.03361L13.1067 4.70312L8.89707 5.74012C8.72629 5.77925 8.54715 5.77925 8.37637 5.74012L4.16676 4.70312L4.17409 6.03361C4.07142 7.38365 4.72413 10.0055 6.21656 11.4273C6.29357 11.499 6.37057 11.5642 6.44758 11.6294C6.44215 11.6465 6.43846 11.664 6.43657 11.6816V13.0969L1.98128 14.4306C1.8025 14.4824 1.6416 14.5741 1.51387 14.6968C1.38615 14.8195 1.29585 14.9692 1.25157 15.1317L0.210169 20.0428C0.199591 20.09 0.200941 20.1387 0.21412 20.1853C0.2273 20.232 0.251978 20.2755 0.286371 20.3126C0.320764 20.3497 0.364011 20.3796 0.412982 20.4001C0.461953 20.4205 0.515424 20.431 0.569525 20.4308H16.7039C16.758 20.431 16.8115 20.4205 16.8605 20.4001C16.9094 20.3796 16.9527 20.3497 16.9871 20.3126C17.0215 20.2755 17.0461 20.232 17.0593 20.1853C17.0725 20.1387 17.0738 20.09 17.0633 20.0428L16.0182 15.1057ZM10.1035 13.1458L8.63672 13.9252L7.16996 13.1458V12.0958C7.6176 12.3202 8.12281 12.4382 8.63672 12.4382C9.15062 12.4382 9.65583 12.3202 10.1035 12.0958V13.1458ZM4.90014 6.46732L8.54505 7.29887C8.6046 7.31626 8.66884 7.31626 8.72839 7.29887L12.3733 6.46732C12.333 7.74562 11.7206 9.83917 10.5178 10.9838C10.286 11.2283 9.99844 11.4262 9.67415 11.5645C9.34987 11.7028 8.99626 11.7783 8.63672 11.786C8.27718 11.7783 7.92357 11.7028 7.59928 11.5645C7.275 11.4262 6.98743 11.2283 6.7556 10.9838C5.55285 9.83917 4.94048 7.74562 4.90014 6.46732ZM8.63672 18.3275C6.28257 18.3275 5.20449 16.1916 4.71313 14.3002L5.21916 14.1502L6.72259 15.5165C6.75717 15.5475 6.7983 15.5721 6.84361 15.5889C6.88892 15.6057 6.93752 15.6144 6.98661 15.6144C7.05871 15.6151 7.12925 15.5957 7.18829 15.5589L8.27003 14.9165V17.5318C8.27003 17.6183 8.30866 17.7013 8.37743 17.7624C8.4462 17.8236 8.53947 17.8579 8.63672 17.8579C8.73397 17.8579 8.82724 17.8236 8.89601 17.7624C8.96478 17.7013 9.00341 17.6183 9.00341 17.5318V14.9165L10.0851 15.5589C10.1442 15.5957 10.2147 15.6151 10.2868 15.6144C10.3359 15.6144 10.3845 15.6057 10.4298 15.5889C10.4751 15.5721 10.5163 15.5475 10.5508 15.5165L12.0543 14.1502L12.5603 14.3002C12.0689 16.1916 10.9909 18.3275 8.63672 18.3275Z" fill="#047857"/>
<path d="M8.63258 10.858C8.93586 10.8778 9.23875 10.8153 9.5013 10.6789C9.76385 10.5424 9.97373 10.3384 10.1033 10.0937C10.1206 10.0538 10.1288 10.0112 10.1276 9.96833C10.1263 9.92552 10.1156 9.88334 10.0961 9.8442C10.0765 9.80506 10.0485 9.76974 10.0135 9.74024C9.97862 9.71074 9.93751 9.68765 9.89255 9.67228C9.8476 9.65691 9.79968 9.64956 9.75153 9.65066C9.70338 9.65176 9.65595 9.66128 9.61195 9.67869C9.56794 9.69609 9.52821 9.72103 9.49504 9.75208C9.46187 9.78313 9.4359 9.81969 9.41862 9.85967C9.33999 9.97938 9.22363 10.076 9.08393 10.1375C8.94423 10.199 8.78731 10.2228 8.63258 10.2058C8.47683 10.2231 8.31882 10.1989 8.1785 10.1364C8.03818 10.0738 7.92185 9.97572 7.8442 9.85442C7.80851 9.77395 7.73834 9.70939 7.64913 9.67493C7.55991 9.64047 7.45896 9.63894 7.36847 9.67068C7.27799 9.70242 7.20539 9.76482 7.16664 9.84416C7.12789 9.9235 7.12617 10.0133 7.16186 10.0937C7.2914 10.3384 7.50129 10.5424 7.76384 10.6789C8.0264 10.8153 8.3293 10.8778 8.63258 10.858ZM16.7584 5.8785C16.7454 5.80096 16.7017 5.73011 16.6351 5.6787C16.5686 5.62728 16.4836 5.59869 16.3954 5.59806H16.2964V2.99253C16.2965 2.9211 16.2704 2.85159 16.2221 2.79452C16.1738 2.73744 16.1059 2.69592 16.0287 2.67622L8.73159 0.879416C8.66686 0.863111 8.59831 0.863111 8.53358 0.879416L1.23643 2.67622C1.15923 2.69592 1.09134 2.73744 1.04304 2.79452C0.994742 2.85159 0.968663 2.9211 0.96875 2.99253C0.968742 3.06356 0.994915 3.13264 1.04326 3.18918C1.09161 3.24572 1.15946 3.28661 1.23643 3.30559L8.53358 5.10565C8.59813 5.12304 8.66703 5.12304 8.73159 5.10565L15.563 3.41972V5.59806H15.4677C15.3795 5.59869 15.2945 5.62728 15.228 5.6787C15.1614 5.73011 15.1177 5.80096 15.1047 5.8785L14.8003 7.84161C14.7933 7.88816 14.7975 7.93551 14.8127 7.9805C14.8278 8.02549 14.8536 8.06708 14.8883 8.10249C14.9224 8.1376 14.9646 8.1657 15.0121 8.18484C15.0596 8.20399 15.1112 8.21372 15.1633 8.21336H16.6998C16.7519 8.21372 16.8035 8.20399 16.851 8.18484C16.8985 8.1657 16.9407 8.1376 16.9748 8.10249C17.0095 8.06708 17.0353 8.02549 17.0505 7.9805C17.0656 7.93551 17.0698 7.88816 17.0628 7.84161L16.7584 5.8785ZM15.585 7.56117L15.7904 6.25025H16.0727L16.2781 7.56117H15.585Z" fill="#047857"/>
</svg>
