<svg width="32" height="31" viewBox="0 0 32 31" fill="none" xmlns="http://www.w3.org/2000/svg">
<rect x="1.08502" y="0.596734" width="29.7999" height="29.7999" rx="14.8999" fill="#53EF96"/>
<rect x="1.08502" y="0.596734" width="29.7999" height="29.7999" rx="14.8999" stroke="#394D48" stroke-width="0.662219"/>
<path d="M15.9871 20.1304C18.5472 20.1304 20.6226 18.055 20.6226 15.4949C20.6226 12.9348 18.5472 10.8594 15.9871 10.8594C13.427 10.8594 11.3516 12.9348 11.3516 15.4949C11.3516 18.055 13.427 20.1304 15.9871 20.1304Z" fill="#394D48"/>
<path d="M15.9875 22.7533C15.6233 22.7533 15.3253 22.4818 15.3253 22.1175V22.0646C15.3253 21.7003 15.6233 21.4023 15.9875 21.4023C16.3518 21.4023 16.6498 21.7003 16.6498 22.0646C16.6498 22.4288 16.3518 22.7533 15.9875 22.7533ZM20.7158 20.8858C20.5436 20.8858 20.378 20.8196 20.2456 20.6938L20.1595 20.6077C19.9012 20.3494 19.9012 19.9322 20.1595 19.6739C20.4178 19.4157 20.835 19.4157 21.0932 19.6739L21.1793 19.76C21.4376 20.0183 21.4376 20.4355 21.1793 20.6938C21.0535 20.8196 20.888 20.8858 20.7158 20.8858ZM11.2593 20.8858C11.0871 20.8858 10.9216 20.8196 10.7891 20.6938C10.5308 20.4355 10.5308 20.0183 10.7891 19.76L10.8752 19.6739C11.1335 19.4157 11.5507 19.4157 11.8089 19.6739C12.0672 19.9322 12.0672 20.3494 11.8089 20.6077L11.7228 20.6938C11.597 20.8196 11.4248 20.8858 11.2593 20.8858ZM22.6097 16.1576H22.5567C22.1925 16.1576 21.8945 15.8596 21.8945 15.4953C21.8945 15.1311 22.1925 14.8331 22.5567 14.8331C22.921 14.8331 23.2455 15.1311 23.2455 15.4953C23.2455 15.8596 22.9739 16.1576 22.6097 16.1576ZM9.41832 16.1576H9.36534C9.00112 16.1576 8.70312 15.8596 8.70312 15.4953C8.70312 15.1311 9.00112 14.8331 9.36534 14.8331C9.72956 14.8331 10.0541 15.1311 10.0541 15.4953C10.0541 15.8596 9.78254 16.1576 9.41832 16.1576ZM20.6297 11.5154C20.4575 11.5154 20.292 11.4492 20.1595 11.3234C19.9012 11.0651 19.9012 10.6479 20.1595 10.3896L20.2456 10.3035C20.5039 10.0453 20.9211 10.0453 21.1793 10.3035C21.4376 10.5618 21.4376 10.979 21.1793 11.2373L21.0932 11.3234C20.9674 11.4492 20.8019 11.5154 20.6297 11.5154ZM11.3454 11.5154C11.1732 11.5154 11.0076 11.4492 10.8752 11.3234L10.7891 11.2307C10.5308 10.9724 10.5308 10.5552 10.7891 10.2969C11.0474 10.0387 11.4646 10.0387 11.7228 10.2969L11.8089 10.383C12.0672 10.6413 12.0672 11.0585 11.8089 11.3167C11.6831 11.4492 11.5109 11.5154 11.3454 11.5154ZM15.9875 9.56186C15.6233 9.56186 15.3253 9.29035 15.3253 8.92613V8.87316C15.3253 8.50894 15.6233 8.21094 15.9875 8.21094C16.3518 8.21094 16.6498 8.50894 16.6498 8.87316C16.6498 9.23738 16.3518 9.56186 15.9875 9.56186Z" fill="#394D48"/>
</svg>
