<svg width="2" height="9" viewBox="0 0 2 9" fill="none" xmlns="http://www.w3.org/2000/svg">
<path fill-rule="evenodd" clip-rule="evenodd" d="M0.924868 0.492874C0.924868 0.492874 0.924868 0.492824 0.507884 0.492482C0.0909005 0.49214 0.0909006 0.49219 0.0909006 0.49219L0.0859385 6.53551C0.0852296 7.41172 0.474818 7.91456 0.916487 8.17271C1.12369 8.29385 1.32726 8.35272 1.47654 8.38187C1.55201 8.39663 1.61602 8.40426 1.6631 8.40822C1.68674 8.41018 1.70634 8.41127 1.72122 8.41189C1.72869 8.41218 1.73498 8.41235 1.74003 8.41244L1.7467 8.41256H1.74933H1.75045H1.75095C1.75095 8.41256 1.75146 8.41256 1.75179 7.99558C1.75212 7.57859 1.75262 7.57859 1.75262 7.57859H1.75383L1.75508 7.57863H1.75642C1.75642 7.57863 1.756 7.57863 1.75429 7.57855C1.75087 7.57843 1.74362 7.57805 1.73307 7.57717C1.7118 7.57538 1.67815 7.57155 1.63645 7.56337C1.55139 7.54678 1.44251 7.51421 1.33735 7.45275C1.15425 7.34571 0.919406 7.1187 0.919906 6.53617L0.924868 0.492874Z" fill="#047857"/>
</svg>
