<svg width="7" height="16" viewBox="0 0 7 16" fill="none" xmlns="http://www.w3.org/2000/svg">
<path d="M5.23515 9.93951L5.23515 8.2677L3.32927 8.2677C3.22435 8.2677 3.12372 8.22602 3.04953 8.15183C2.97534 8.07764 2.93366 7.97701 2.93366 7.87209C2.93366 7.76716 2.97534 7.66654 3.04953 7.59234C3.12372 7.51815 3.22435 7.47647 3.32927 7.47647H5.23449V5.7839H3.88181C3.77689 5.7839 3.67627 5.74221 3.60207 5.66802C3.52788 5.59383 3.4862 5.4932 3.4862 5.38828C3.4862 5.28336 3.52788 5.18273 3.60207 5.10854C3.67627 5.03434 3.77689 4.99266 3.88181 4.99266H5.23515V3.29811L3.3296 3.29811C3.22468 3.29811 3.12405 3.25643 3.04986 3.18224C2.97567 3.10804 2.93399 3.00742 2.93399 2.90249C2.93399 2.79757 2.97567 2.69694 3.04986 2.62275C3.12405 2.54856 3.22468 2.50688 3.3296 2.50688L5.23515 2.50688V1.88049C5.22856 1.37949 5.02492 0.901242 4.6683 0.54929C4.31169 0.197338 3.83081 0 3.32977 0C2.82872 0 2.34784 0.197338 1.99123 0.54929C1.63462 0.901242 1.43097 1.37949 1.42438 1.88049L1.42438 9.93951C0.843254 10.345 0.406637 10.9253 0.178034 11.596C-0.0505699 12.2667 -0.0592383 12.9929 0.153289 13.6689C0.365816 14.3449 0.788456 14.9355 1.35974 15.3547C1.93102 15.7739 2.62116 16 3.32977 16C4.03838 16 4.72851 15.7739 5.29979 15.3547C5.87108 14.9355 6.29372 14.3449 6.50624 13.6689C6.71877 12.9929 6.7101 12.2667 6.4815 11.596C6.2529 10.9253 5.81628 10.345 5.23515 9.93951ZM4.47985 12.9376L2.18693 12.9376C2.08201 12.9376 1.98138 12.8959 1.90719 12.8217C1.833 12.7476 1.79132 12.6469 1.79132 12.542C1.79132 12.4371 1.833 12.3365 1.90719 12.2623C1.98138 12.1881 2.08201 12.1464 2.18693 12.1464L4.47985 12.1464C4.58478 12.1464 4.6854 12.1881 4.7596 12.2623C4.83379 12.3365 4.87547 12.4371 4.87547 12.542C4.87547 12.6469 4.83379 12.7476 4.7596 12.8217C4.6854 12.8959 4.58478 12.9376 4.47985 12.9376Z" fill="#047857"/>
</svg>
