<svg width="25" height="25" viewBox="0 0 25 25" fill="none" xmlns="http://www.w3.org/2000/svg">
<path d="M8.50065 12.4141C8.50065 10.205 10.291 8.41374 12.5 8.41374C14.709 8.41374 16.5003 10.205 16.5003 12.4141C16.5003 14.6231 14.709 16.4144 12.5 16.4144C10.291 16.4144 8.50065 14.6231 8.50065 12.4141ZM6.33813 12.4141C6.33813 15.8173 9.09677 18.5759 12.5 18.5759C15.9032 18.5759 18.6619 15.8173 18.6619 12.4141C18.6619 9.01083 15.9032 6.25219 12.5 6.25219C9.09677 6.25219 6.33813 9.01083 6.33813 12.4141ZM17.4658 6.00792C17.4658 6.80275 18.1103 7.44831 18.9061 7.44831C19.701 7.44831 20.3465 6.80275 20.3465 6.00792C20.3465 5.21309 19.7019 4.56851 18.9061 4.56851C18.1103 4.56851 17.4658 5.21309 17.4658 6.00792ZM7.65154 22.1818C6.48158 22.1284 5.84572 21.9336 5.4231 21.7688C4.86284 21.5507 4.46349 21.291 4.04281 20.8713C3.6231 20.4515 3.36236 20.0522 3.14523 19.4919C2.98045 19.0693 2.78562 18.4334 2.73231 17.2635C2.67415 15.9986 2.66252 15.6186 2.66252 12.4141C2.66252 9.20954 2.67512 8.83054 2.73231 7.56463C2.78562 6.39468 2.98142 5.75978 3.14523 5.33619C3.36333 4.77594 3.6231 4.37658 4.04281 3.9559C4.46252 3.53619 4.86187 3.27545 5.4231 3.05833C5.84572 2.89355 6.48158 2.69872 7.65154 2.6454C8.91648 2.58725 9.29645 2.57561 12.5 2.57561C15.7045 2.57561 16.0835 2.58821 17.3494 2.6454C18.5194 2.69872 19.1543 2.89451 19.5779 3.05833C20.1381 3.27545 20.5375 3.53619 20.9582 3.9559C21.3779 4.37561 21.6376 4.77594 21.8557 5.33619C22.0205 5.75881 22.2153 6.39468 22.2687 7.56463C22.3268 8.83054 22.3385 9.20954 22.3385 12.4141C22.3385 15.6176 22.3268 15.9976 22.2687 17.2635C22.2153 18.4334 22.0196 19.0693 21.8557 19.4919C21.6376 20.0522 21.3779 20.4515 20.9582 20.8713C20.5385 21.291 20.1381 21.5507 19.5779 21.7688C19.1553 21.9336 18.5194 22.1284 17.3494 22.1818C16.0845 22.2399 15.7045 22.2515 12.5 22.2515C9.29645 22.2515 8.91648 22.2399 7.65154 22.1818ZM7.55267 0.48676C6.27512 0.544919 5.40275 0.747504 4.6399 1.04411C3.85089 1.35041 3.18207 1.7614 2.51422 2.42828C1.84733 3.09516 1.43635 3.76398 1.13005 4.55397C0.833441 5.31681 0.630856 6.18918 0.572698 7.46673C0.51357 8.74621 0.5 9.15526 0.5 12.4141C0.5 15.6729 0.51357 16.0819 0.572698 17.3614C0.630856 18.6389 0.833441 19.5113 1.13005 20.2742C1.43635 21.0632 1.84637 21.733 2.51422 22.3998C3.1811 23.0667 3.84992 23.4767 4.6399 23.784C5.40372 24.0806 6.27512 24.2832 7.55267 24.3414C8.83312 24.3995 9.2412 24.4141 12.5 24.4141C15.7598 24.4141 16.1679 24.4005 17.4473 24.3414C18.7249 24.2832 19.5973 24.0806 20.3601 23.784C21.1491 23.4767 21.8179 23.0667 22.4858 22.3998C23.1527 21.733 23.5627 21.0632 23.87 20.2742C24.1666 19.5113 24.3701 18.6389 24.4273 17.3614C24.4855 16.0809 24.499 15.6729 24.499 12.4141C24.499 9.15526 24.4855 8.74621 24.4273 7.46673C24.3691 6.18918 24.1666 5.31681 23.87 4.55397C23.5627 3.76495 23.1527 3.09613 22.4858 2.42828C21.8189 1.7614 21.1491 1.35041 20.3611 1.04411C19.5973 0.747504 18.7249 0.543949 17.4483 0.48676C16.1688 0.428602 15.7598 0.414063 12.501 0.414063C9.2412 0.414063 8.83312 0.427633 7.55267 0.48676Z" fill="white"/>
</svg>
