<svg width="39" height="29" viewBox="0 0 39 29" fill="none" xmlns="http://www.w3.org/2000/svg">
<path d="M28.4334 22.0575C27.1382 21.6066 25.7375 21.5778 24.4423 21.1269C24.049 20.9926 23.2719 20.8295 23.1088 20.3785C22.9553 19.9372 22.9553 19.4191 22.9265 18.9586C22.9073 18.5941 22.8977 18.2295 22.8977 17.8649C22.8977 17.6251 23.5117 17.1166 23.646 16.8959C24.1641 16.0325 24.2121 14.8716 24.308 13.893C25.1427 14.1233 25.2482 12.5787 25.3921 12.1086C25.4977 11.7824 26.1404 9.53738 25.1427 9.84439C25.3825 9.42225 25.4785 8.90418 25.5456 8.43408C25.7375 7.20605 25.8143 5.8629 25.4401 4.66365C24.663 2.16922 22.2741 0.768508 19.7509 0.691756C17.1893 0.605411 14.6181 1.83344 13.6587 4.31827C13.1982 5.52711 13.2366 6.84148 13.3901 8.10788C13.4572 8.68352 13.5532 9.32631 13.841 9.84439C12.9104 9.56616 13.4093 11.5425 13.5148 11.8879C13.6683 12.3772 13.8026 14.1329 14.6757 13.893C14.7524 14.6701 14.8388 15.4664 15.0498 16.2244C15.1938 16.7328 15.4912 17.1646 15.8365 17.5579C16.0092 17.7498 16.0956 17.769 16.086 18.0184C16.0764 18.7668 16.0956 19.5727 15.9037 20.3018C15.7118 21.0309 14.1096 21.3379 13.4668 21.4723C11.7399 21.8272 10.1473 21.9903 8.70824 23.0648C7.0293 24.3025 6.15625 26.2309 6.15625 28.3127H32.8274C32.8274 25.4825 31.1197 22.9881 28.4334 22.0575Z" fill="#CF8A25"/>
<path d="M10.6781 22.2681C10.3519 22.4312 9.95852 22.6326 10.7548 22.2297L10.8316 22.1913C11.484 21.8843 12.1843 21.8076 12.8847 21.7404C13.1533 21.7116 13.278 21.5293 13.0766 21.2703C12.6928 20.781 11.3688 20.6851 10.8124 20.4644C10.467 20.3301 10.3711 20.2054 10.3423 19.8216C10.3327 19.6489 10.2367 18.8814 10.3711 18.7567C10.467 18.6607 11.0714 18.6991 11.2057 18.6799C11.7526 18.6128 12.309 18.4977 12.8271 18.2962C13.0478 18.2098 13.2588 18.1043 13.4507 17.97C13.681 17.7973 13.278 17.3752 13.1725 17.1449C12.8463 16.4254 12.7024 15.6387 12.6544 14.852C12.5585 13.3073 12.7983 11.7531 12.5105 10.2181C12.0788 7.86755 10.2655 6.6875 7.95339 6.6875C6.52389 6.6875 5.11358 7.17679 4.31728 8.424C3.43463 9.79594 3.4826 11.5037 3.53057 13.0675C3.55936 13.9597 3.59773 14.8615 3.47301 15.7538C3.41545 16.1375 3.3291 16.5117 3.19479 16.8763C3.08925 17.1545 2.55199 17.8453 2.76306 17.9892C3.55936 18.5552 4.90251 18.7471 5.8619 18.6703C5.89069 19.1404 5.97703 19.7449 5.80434 20.1862C5.53571 20.877 3.53057 21.0592 2.92616 21.2607C1.24721 21.8172 0 23.1795 0 25.0983H7.62719C7.75191 25.0983 8.23161 24.2061 8.36592 24.0621C9.01831 23.3426 9.81461 22.719 10.6781 22.2681Z" fill="#CF8A25"/>
<path d="M36.0356 21.2799C35.2585 21.0304 33.7618 20.9537 33.2054 20.2821C32.9271 19.9463 33.0806 19.0925 33.1094 18.6895C33.5315 18.7279 33.9921 18.6607 34.4238 18.6032C34.8171 18.5456 35.2009 18.4689 35.5751 18.3346C35.7477 18.2674 35.9204 18.2002 36.0835 18.1043C36.4577 17.8836 36.285 17.8453 36.0931 17.5191C35.0474 15.7634 35.5175 13.5376 35.4695 11.6092C35.4311 10.007 35.009 8.25131 33.5507 7.34948C32.2364 6.53399 30.2888 6.50521 28.8785 7.08084C24.8106 8.71182 27.2091 14.1036 25.818 17.1929C25.5782 17.7109 25.2328 17.8932 25.8372 18.2002C26.173 18.3729 26.5376 18.4881 26.9021 18.5744C27.4586 18.7087 28.0342 18.7855 28.6098 18.8047C28.7058 18.8047 28.6386 20.0135 28.6098 20.1382C28.5043 20.6083 27.4778 20.7426 27.094 20.8482C26.7007 20.9537 26.0483 20.9825 25.8564 21.395C25.5686 22.009 26.8062 21.8555 27.1132 21.9131C28.1014 22.0954 28.9744 22.6422 29.7419 23.2658C30.3176 23.7359 31.0947 24.3691 31.3058 25.1367H39.0001C38.9809 23.2083 37.7241 21.8363 36.0356 21.2799Z" fill="#CF8A25"/>
</svg>
