<svg width="22" height="29" viewBox="0 0 22 29" fill="none" xmlns="http://www.w3.org/2000/svg">
<path d="M9.12094 1.1292C8.63094 0.831726 8.00972 0.884226 7.58098 1.26048C7.14348 1.62796 7.00346 2.24048 7.23096 2.76545C8.76221 6.36174 8.3597 8.07671 7.98346 8.7767C7.58099 9.51173 6.93345 9.7042 6.67096 9.74799C5.9622 9.8792 5.42846 8.47923 5.41971 8.47047C5.25346 7.98047 4.8072 7.63921 4.29097 7.59547C3.76594 7.56049 3.28471 7.81422 3.03097 8.26923C0.712206 12.4955 0.0996884 16.4592 1.21971 20.0642C2.85596 25.3492 7.64219 27.8167 7.84347 27.9217C8.02719 28.018 8.23723 28.0617 8.42971 28.0617C8.75346 28.0617 9.05973 27.948 9.30471 27.7292C9.70722 27.3705 9.85596 26.8017 9.67219 26.2942C9.26972 25.2005 8.56097 22.033 10.031 20.4842C10.9322 19.5392 11.5622 18.673 11.991 17.9292C15.5085 23.4592 13.6272 25.1917 13.5922 25.2355C13.5835 25.2355 13.5835 25.2442 13.5747 25.2442C12.9797 25.6555 12.8397 26.4692 13.2422 27.0642C13.6535 27.6592 14.4585 27.8167 15.0622 27.4143C15.0622 27.4055 15.071 27.4055 15.0797 27.3967C19.341 24.413 21.441 20.9567 21.3184 17.1067C21.0559 8.52296 9.61093 1.42673 9.12094 1.1292Z" fill="#CF8A25"/>
</svg>
