<svg width="30" height="27" viewBox="0 0 30 27" fill="none" xmlns="http://www.w3.org/2000/svg">
<path d="M29.2142 8.47651C28.7513 9.31953 27.9841 9.95415 27.0693 10.2509C27.3358 12.2853 25.9579 13.5007 25.3859 13.5007C25.247 13.4997 25.1122 13.4541 25.0011 13.3708C24.8899 13.2875 24.8084 13.1709 24.7685 13.0379C24.7285 12.9049 24.7322 12.7626 24.7789 12.6318C24.8257 12.5011 24.9132 12.3887 25.0284 12.3113C25.3502 12.0874 25.5936 11.768 25.7243 11.3983C25.8549 11.0287 25.8661 10.6273 25.7564 10.2509C23.8455 9.82843 22.4091 7.65105 22.2336 7.35207C22.1422 7.20555 22.1128 7.02873 22.1518 6.86052C22.1908 6.69231 22.295 6.54648 22.4416 6.45512C22.5881 6.36376 22.7649 6.33434 22.9331 6.37335C23.1013 6.41236 23.2471 6.51658 23.3385 6.66311C23.7675 7.31307 25.1584 9.08747 26.4648 9.02248C27.6218 8.96398 28.5642 7.07259 28.5642 6.98809C28.4143 6.20713 27.9793 5.50982 27.3438 5.03172C26.7084 4.55363 25.9178 4.3289 25.1259 4.40124C24.8244 3.69639 24.2834 3.12085 23.5985 2.77633C23.488 3.87476 23.059 5.18769 21.6941 5.64267C21.5303 5.69783 21.3514 5.68568 21.1966 5.60888C21.0418 5.53209 20.9238 5.39695 20.8686 5.23319C20.8135 5.06943 20.8256 4.89046 20.9024 4.73566C20.9792 4.58085 21.1144 4.4629 21.2781 4.40773C22.2336 4.08925 22.3506 2.75033 22.3246 1.93787C21.7982 1.4655 21.1306 1.18012 20.4255 1.12606C19.7203 1.072 19.017 1.25227 18.4248 1.63889C18.1249 1.19749 17.6965 0.859049 17.1977 0.669516C16.6988 0.479984 16.1538 0.448538 15.6364 0.579448C16.4879 4.12175 13.4396 5.62967 9.89076 6.33813C9.64419 6.36233 9.40698 6.44517 9.19893 6.57972C8.99089 6.71427 8.81804 6.89663 8.69483 7.11158C8.25935 7.99553 8.79882 9.47095 9.04581 9.95842C9.12338 10.1127 9.13649 10.2915 9.08225 10.4554C9.028 10.6194 8.91086 10.7551 8.75658 10.8326C8.60229 10.9102 8.42352 10.9233 8.25957 10.8691C8.09563 10.8148 7.95995 10.6977 7.88237 10.5434C6.68644 8.21002 6.97243 5.59717 9.63078 5.0642C12.5361 4.48573 15.0905 3.51078 14.3365 0.73544C13.5987 0.469168 12.7978 0.431556 12.0383 0.627514C11.2788 0.823473 10.5961 1.24389 10.0793 1.83388C9.62689 1.88384 9.19006 2.02827 8.79706 2.2578C8.40406 2.48733 8.06365 2.79685 7.79788 3.1663C7.11035 3.2909 6.46892 3.59794 5.94067 4.05529C5.41243 4.51265 5.01676 5.10354 4.79505 5.76616C4.13625 5.87357 3.54542 6.23397 3.14843 6.77058C2.75143 7.30719 2.57965 7.9776 2.66967 8.639C2.25414 9.0024 1.92049 9.44988 1.6908 9.95185C1.4611 10.4538 1.34059 10.9988 1.33724 11.5508C0.918588 11.8712 0.584165 12.2887 0.362821 12.7671C0.141476 13.2456 0.0398552 13.7707 0.066724 14.2972C0.0935928 14.8237 0.248145 15.3358 0.517047 15.7892C0.78595 16.2427 1.16113 16.6239 1.61023 16.9C2.83492 15.2028 4.46947 13.8432 6.36146 12.9483C6.18583 12.3464 5.86434 11.7972 5.42551 11.3493C5.30312 11.227 5.23436 11.061 5.23436 10.8879C5.23436 10.7148 5.30312 10.5488 5.42551 10.4264C5.5479 10.304 5.7139 10.2352 5.88699 10.2352C6.06007 10.2352 6.22607 10.304 6.34846 10.4264C6.92111 11.0142 7.34651 11.7291 7.58989 12.5128C8.52549 12.248 9.49814 12.1382 10.4692 12.1878C10.6416 12.1964 10.8035 12.2732 10.9193 12.4011C11.0351 12.5291 11.0953 12.6979 11.0867 12.8703C11.0781 13.0426 11.0013 13.2045 10.8733 13.3203C10.7454 13.4361 10.5766 13.4963 10.4042 13.4877C6.50445 13.2927 3.8266 16.0876 2.60467 17.758C2.82196 18.0205 3.08946 18.237 3.3915 18.3948C3.69353 18.5526 4.02403 18.6486 4.36362 18.677C4.70321 18.7055 5.04506 18.6659 5.36914 18.5605C5.69323 18.4552 5.99303 18.2862 6.25097 18.0635C6.91353 18.7879 7.82496 19.2358 8.80329 19.3178C9.78161 19.3997 10.7548 19.1096 11.5287 18.5054C12.0005 18.9372 12.5916 19.2166 13.2248 19.307C13.8579 19.3975 14.5036 19.2948 15.0775 19.0124C15.0385 16.9715 14.668 16.1006 13.0366 16.1006C12.0188 16.0883 11.0095 16.2875 10.0728 16.6855C9.91926 16.7561 9.74435 16.764 9.58507 16.7078C9.42579 16.6516 9.29466 16.5355 9.21946 16.3843C9.14426 16.233 9.13089 16.0585 9.18219 15.8975C9.23349 15.7366 9.34543 15.6019 9.49429 15.5221C10.6092 15.0289 11.8176 14.7828 13.0366 14.8007C13.8391 14.7727 14.6281 15.0128 15.279 15.4831C16.1824 15.9446 18.6263 16.848 18.9188 15.8926C19.1592 15.1711 18.1518 14.8072 18.0348 14.7682C17.8711 14.7146 17.7354 14.5983 17.6574 14.4447C17.5794 14.2912 17.5655 14.113 17.6188 13.9492C17.9698 12.9288 19.6142 13.9492 20.0627 14.8267C20.7127 16.0746 19.9587 18.4664 16.2084 17.2575C16.3265 17.8152 16.3854 18.3838 16.3839 18.9539C17.4409 19.4256 18.6379 19.4768 19.7312 19.0969C20.3036 19.3668 20.9547 19.4186 21.5625 19.2427C22.1704 19.0668 22.6932 18.6753 23.033 18.1415C22.968 16.6855 22.5586 13.2667 20.0757 12.8443C16.2799 12.1943 13.3876 12.8443 9.93626 8.71699C9.88163 8.65127 9.84049 8.57543 9.81517 8.49381C9.78985 8.41218 9.78086 8.32637 9.7887 8.24127C9.80455 8.0694 9.88802 7.91087 10.0208 7.80054C10.1535 7.69022 10.3246 7.63714 10.4965 7.65299C10.6683 7.66884 10.8269 7.75231 10.9372 7.88504C11.4698 8.53547 12.0738 9.12412 12.7376 9.63994C12.9524 8.86862 13.4177 8.19068 14.0602 7.71291C14.7027 7.23515 15.4859 6.98473 16.2864 7.00109C16.4588 7.00109 16.6241 7.06957 16.746 7.19146C16.8679 7.31335 16.9364 7.47867 16.9364 7.65105C16.9364 7.82343 16.8679 7.98876 16.746 8.11065C16.6241 8.23254 16.4588 8.30102 16.2864 8.30102C15.058 8.30102 14.252 8.98998 13.8815 10.3354C18.0608 12.3828 23.1435 9.37996 24.203 16.744C24.8551 16.7145 25.4723 16.4407 25.9319 15.9771C26.4225 16.1208 26.9445 16.1168 27.4328 15.9654C27.9211 15.814 28.3539 15.522 28.6771 15.126C29.0004 14.7299 29.1997 14.2473 29.2501 13.7386C29.3005 13.2299 29.1999 12.7176 28.9607 12.2658C29.2423 12.0446 29.4743 11.7666 29.6415 11.4499C29.8087 11.1332 29.9075 10.7849 29.9314 10.4276C29.9553 10.0703 29.9038 9.71193 29.7802 9.3758C29.6567 9.03967 29.4638 8.73328 29.2142 8.47651ZM21.9281 10.9009C18.4183 9.73094 17.9828 6.92309 18.2493 5.60367C18.2829 5.43129 18.3836 5.27932 18.5293 5.1812C18.6749 5.08307 18.8536 5.04683 19.026 5.08045C19.1984 5.11406 19.3503 5.21478 19.4485 5.36044C19.5466 5.5061 19.5828 5.68477 19.5492 5.85715C19.5492 5.98065 19.0942 8.574 22.3701 9.66594C22.5338 9.72455 22.6676 9.84581 22.742 10.0031C22.8163 10.1603 22.8252 10.3406 22.7665 10.5044C22.7079 10.6682 22.5867 10.8019 22.4294 10.8763C22.2722 10.9506 22.0919 10.9595 21.9281 10.9009ZM13.6346 20.6503C13.4975 21.492 13.0883 22.2656 12.4696 22.8525C11.851 23.4395 11.057 23.8075 10.2092 23.9001C9.95547 24.7446 9.81343 25.6186 9.78677 26.5H13.0366C13.4331 23.2502 14.7655 23.2502 16.7544 20.4618C16.4267 20.3744 16.107 20.2591 15.7989 20.1174C15.1353 20.4781 14.3898 20.6617 13.6346 20.6503ZM12.3476 20.4423C12.0545 20.3495 11.7715 20.2276 11.5027 20.0784C10.6552 20.511 9.7053 20.7028 8.75636 20.6329C7.80743 20.563 6.89588 20.234 6.12097 19.6819C5.43483 19.9829 4.67474 20.0734 3.9371 19.9419C3.92926 20.2028 3.97391 20.4627 4.06839 20.706C4.16287 20.9494 4.30525 21.1713 4.4871 21.3586C4.66895 21.5459 4.88657 21.6948 5.12703 21.7964C5.3675 21.8981 5.62593 21.9504 5.88699 21.9503H8.07086C8.41788 22.255 8.8398 22.4617 9.29323 22.5493C9.74666 22.6369 10.2152 22.6021 10.6508 22.4485C11.0863 22.295 11.4731 22.0282 11.7713 21.6756C12.0695 21.323 12.2685 20.8973 12.3476 20.4423Z" fill="#CF8A25"/>
</svg>
