<svg width="38" height="24" viewBox="0 0 38 24" fill="none" xmlns="http://www.w3.org/2000/svg">
<path d="M37.1103 2.91442C37.1422 2.11491 36.52 1.44085 35.7205 1.40887L22.6917 0.887712C21.8922 0.855731 21.2181 1.47794 21.1861 2.27745C21.1541 3.07697 21.7763 3.75103 22.5759 3.78301L34.157 4.24626L33.6938 15.8274C33.6618 16.627 34.284 17.301 35.0835 17.333C35.8831 17.365 36.5571 16.7428 36.5891 15.9433L37.1103 2.91442ZM17.8108 21.3068L36.6453 3.9211L34.6799 1.79193L15.8454 19.1776L17.8108 21.3068Z" fill="#36AF8D"/>
<line x1="10.6065" y1="13.4209" x2="17.8505" y2="20.6649" stroke="#36AF8D" stroke-width="2.89761"/>
<line x1="1.31538" y1="22.1162" x2="11.457" y2="11.9745" stroke="#36AF8D" stroke-width="2.89761"/>
</svg>
