<svg width="130" height="109" viewBox="0 0 130 109" fill="none" xmlns="http://www.w3.org/2000/svg">
  <style>
    /* Light mode - default */
    .folder-main { fill: #36AF8D; }
    .folder-details { fill: white; stroke: #36AF8D; }

    /* Dark mode */
    @media (prefers-color-scheme: dark) {
      .folder-main { fill: #36AF8D; }
      .folder-details { fill: #0f1012; stroke: #36AF8D; }
    }
  </style>
<path class="folder-main" d="M6.89287 108.941H125.385C127.684 108.941 129.773 107.061 129.773 104.553V16.9899C129.773 14.6912 127.893 12.6013 125.385 12.6013H65.4074C63.7356 12.6013 62.2727 11.7654 61.6458 10.3026L58.0931 3.19722C57.2572 1.73436 55.7943 0.898438 54.3315 0.898438H5.22102C2.92224 0.898438 0.832428 2.77926 0.832428 5.28703V102.672C0.623444 106.016 3.3402 108.941 6.89287 108.941Z" fill="#36AF8D"/>
<path class="folder-details"  d="M57.304 57.5435C56.5195 52.8486 71.6364 53.4827 70.6809 57.5435H57.304Z" fill="#0F1012"/>
<path class="folder-details"  d="M57.5429 60.41C58.4983 64.2319 69.2476 64.4708 70.2031 60.41H57.5429Z" fill="#0F1012"/>
<path class="folder-details"  d="M73.2993 85.726C73.1854 89.0513 78.5527 89.3091 78.3156 85.4871C78.1949 71.9344 68.0423 71.1547 60.1595 65.8995C50.8689 60.0484 54.9186 53.717 60.3984 50.1339C60.6373 50.1339 56.8349 47.2675 56.3518 47.5063C55.8687 47.7452 40.8235 57.7824 56.5764 69.0049C70.3466 75.5071 73.359 79.1482 73.2993 85.726Z" fill="#0F1012"/>
<path class="folder-details"  d="M57.304 57.5435C56.5195 52.8486 71.6364 53.4827 70.6809 57.5435H57.304Z" stroke="#0F1012" stroke-width="0.477746"/>
<path class="folder-details"  d="M57.5429 60.41C58.4983 64.2319 69.2476 64.4708 70.2031 60.41H57.5429Z" stroke="#0F1012" stroke-width="0.477746"/>
<path class="folder-details"  d="M73.2993 85.726C73.1854 89.0513 78.5527 89.3091 78.3156 85.4871C78.1949 71.9344 68.0423 71.1547 60.1595 65.8995C50.8689 60.0484 54.9186 53.717 60.3984 50.1339C60.6373 50.1339 56.8349 47.2675 56.3518 47.5063C55.8687 47.7452 40.8235 57.7824 56.5764 69.0049C70.3466 75.5071 73.359 79.1482 73.2993 85.726Z" stroke="#0F1012" stroke-width="0.477746"/>
<path class="folder-details"  d="M54.4507 30.7193C54.5646 27.394 49.1973 27.1362 49.4344 30.9582C49.5551 44.5109 59.7077 45.2906 67.5905 50.5458C76.8811 56.3969 72.8314 62.7283 67.3516 66.3114C67.1127 66.3114 70.9151 69.1779 71.3982 68.939C71.8813 68.7001 86.9265 58.6629 71.1736 47.4404C57.4034 40.9382 54.391 37.2971 54.4507 30.7193Z" fill="#0F1012" stroke="#0F1012" stroke-width="0.477746"/>
<path class="folder-details"  d="M73.3262 32.4634V30.0746C73.1606 26.9636 78.3488 26.9659 78.3426 30.0746C78.8127 36.7596 73.5575 42.9703 71.4076 44.4036L66.8691 41.776C70.2494 39.1202 71.503 37.6954 72.3631 35.3264H58.7474C57.541 34.5824 57.2699 34.0161 57.7919 32.4634H73.0658H73.3262Z" fill="#0F1012"/>
<path class="folder-details"  d="M57.7919 32.4634C57.2699 34.0161 57.541 34.5824 58.7474 35.3264H72.3631C71.503 37.6954 70.2494 39.1202 66.8691 41.776L71.4076 44.4036C73.5575 42.9703 78.8127 36.7596 78.3426 30.0746C78.3488 26.9659 73.1606 26.9636 73.3262 30.0746V32.4634H73.0658M57.7919 32.4634C57.9718 32.4634 68.0495 32.4634 73.0658 32.4634M57.7919 32.4634H73.0658" stroke="#0F1012" stroke-width="0.477746"/>
<path class="folder-details" d="M54.4628 84.0601V86.4488C54.6284 89.5599 49.4403 89.5576 49.4465 86.4488C48.9764 79.7638 54.2316 73.5531 56.3814 72.1199L60.92 74.7475C57.5396 77.4032 56.2861 78.828 55.4259 81.197H69.0417C70.2481 81.941 70.5192 82.5074 69.9972 84.0601H54.7233H54.4628Z" fill="#0F1012"/>
<path class="folder-details"  d="M69.9972 84.0601C70.5192 82.5074 70.2481 81.941 69.0417 81.197H55.4259C56.2861 78.828 57.5396 77.4032 60.92 74.7475L56.3814 72.1199C54.2316 73.5531 48.9764 79.7638 49.4465 86.4488C49.4403 89.5576 54.6284 89.5599 54.4628 86.4488V84.0601H54.7233M69.9972 84.0601C69.8172 84.0601 59.7396 84.0601 54.7233 84.0601M69.9972 84.0601H54.7233" stroke="#0F1012" stroke-width="0.477746"/>
</svg>
