<svg width="130" height="109" viewBox="0 0 130 109" fill="none" xmlns="http://www.w3.org/2000/svg">
  <style>
    /* Light mode - default */
    .folder-main { fill: #36AF8D; }
    .folder-details { fill: white; stroke: #36AF8D; }

    /* Dark mode */
    @media (prefers-color-scheme: dark) {
      .folder-main { fill: #36AF8D; }
      .folder-details { fill: #0f1012; stroke: #36AF8D; }
    }
  </style>
<path class="folder-main" d="M6.88506 108.762H125.377C127.676 108.762 129.766 106.881 129.766 104.373V16.8102C129.766 14.5115 127.885 12.4217 125.377 12.4217H65.3996C63.7278 12.4217 62.2649 11.5857 61.638 10.1229L58.0853 3.01754C57.2494 1.55467 55.7865 0.71875 54.3236 0.71875H5.21321C2.91443 0.71875 0.824615 2.59957 0.824615 5.10734V102.492C0.615631 105.836 3.33239 108.762 6.88506 108.762Z" fill="#36AF8D"/>
<path class="folder-details" fill-rule="evenodd" clip-rule="evenodd" d="M81.1608 43.6742C83.2129 44.323 84.7439 47.2573 82.3551 49.1683C73.0391 49.1683 68.9783 57.7677 77.5777 61.8286C81.578 63.6532 84.03 64.4809 82.1163 71.8612C72.3225 96.2263 61.8121 90.2544 48.6741 70.9057C46.7954 66.8646 48.913 63.0229 53.4515 59.6787C57.3608 57.6962 66.8284 47.9739 68.0228 47.4962C69.2171 47.0185 77.4209 44.0796 81.1608 43.6742ZM60.3788 68.9948H52.2572C50.8367 69.0091 50.8239 70.9057 52.2572 70.9057H60.8566C62.051 70.8517 62.4389 70.1359 63.0064 68.2781L65.6341 61.8286L68.2617 77.5942C68.5033 78.8333 70.4115 79.0274 70.8893 77.5942L73.5169 71.1446L78.2943 70.9057C79.4937 70.9311 79.4887 68.9948 78.2943 68.9948H73.0391C72.0355 68.9607 71.6243 70.3004 70.1726 74.4888L67.3062 59.201C66.5895 57.29 65.1141 57.3431 64.2008 59.201L60.3788 68.9948Z" fill="#0F1012"/>
<path class="folder-details"  d="M83.0717 63.7395C82.6768 57.7223 83.4657 53.5895 78.0554 51.3182C73.5169 53.7069 72.3225 57.7677 78.5332 60.6342C80.7879 61.1031 81.6869 61.9497 83.0717 63.7395Z" fill="#0F1012"/>
<path class="folder-details"  d="M60.7911 50.8427C60.8619 51.7853 60.9624 52.1477 61.7466 51.0816L63.1798 49.8872C63.6179 49.5162 63.6522 49.0782 63.4187 47.9762C63.7397 42.5419 67.9573 41.7633 70.346 43.9131C71.3015 44.8686 71.0236 45.1213 72.257 44.8686L74.1679 44.152C75.9945 43.5979 76.362 43.0797 75.8401 42.0021C74.9382 40.7661 74.2914 40.0889 72.9736 38.8968L73.9291 36.7469C73.9291 35.0748 70.5849 34.5971 70.1071 35.0748C69.6294 35.5526 68.6739 37.2247 68.6739 37.2247H67.0018V35.316C67.2406 33.1657 63.1798 32.925 62.4632 35.0771V38.1825C59.7334 40.0417 58.3504 41.3897 57.4469 46.7819C57.44 47.9675 57.4663 48.5221 58.1635 48.6929C59.7245 49.2812 60.5443 49.9541 60.7911 50.8427Z" fill="#0F1012"/>
<path class="folder-details"  d="M49.8364 49.894C51.6446 45.5686 52.5551 42.8997 53.1806 35.8005C54.3513 34.0207 58.1969 34.3741 58.1969 36.2783C58.1969 38.1825 56.3498 43.6334 56.0471 47.2642C55.9129 47.958 55.7344 48.2462 54.8527 48.2151C53.9517 48.1618 53.107 48.4838 50.3141 50.6039C49.4114 51.5535 49.3321 51.5912 49.8364 49.894Z" fill="#0F1012"/>
<path class="folder-details"  d="M46.9364 65.1728C51.0587 57.8708 52.6694 58.7232 59.5967 53.468C61.0954 45.5852 44.1434 50.1238 46.9364 65.1728Z" fill="#0F1012"/>
<path class="folder-details"  d="M52.2572 70.9057C50.8239 70.9057 50.8367 69.0091 52.2572 68.9948H60.3788L64.2008 59.201C65.1141 57.3431 66.5895 57.29 67.3062 59.201L70.1726 74.4888C71.6243 70.3004 72.0355 68.9606 73.0391 68.9948H78.2943C79.4887 68.9948 79.4937 70.9311 78.2943 70.9057L73.5169 71.1446L70.8893 77.5942C70.4115 79.0274 68.5033 78.8333 68.2617 77.5942L65.6341 61.8286L63.0064 68.2781C62.4389 70.1359 62.051 70.8517 60.8566 70.9057M52.2572 70.9057C52.4483 70.9057 58.0697 70.9057 60.8566 70.9057M52.2572 70.9057H60.8566M49.8364 49.894C51.6446 45.5686 52.5551 42.8997 53.1806 35.8005C54.3513 34.0207 58.1969 34.3741 58.1969 36.2783C58.1969 38.1825 56.3498 43.6334 56.0471 47.2642C55.9129 47.958 55.7344 48.2462 54.8527 48.2151C53.9517 48.1618 53.107 48.4838 50.3141 50.6039C49.4114 51.5535 49.3321 51.5912 49.8364 49.894ZM60.7911 50.8427C60.8619 51.7853 60.9624 52.1477 61.7466 51.0816L63.1798 49.8872C63.6179 49.5162 63.6522 49.0782 63.4187 47.9762C63.7397 42.5419 67.9573 41.7633 70.346 43.9131C71.3015 44.8686 71.0236 45.1213 72.257 44.8686L74.1679 44.152C75.9945 43.5979 76.362 43.0797 75.8401 42.0021C74.9382 40.7661 74.2914 40.0889 72.9736 38.8968L73.9291 36.7469C73.9291 35.0748 70.5849 34.5971 70.1071 35.0748C69.6294 35.5526 68.6739 37.2247 68.6739 37.2247H67.0018V35.316C67.2406 33.1657 63.1798 32.925 62.4632 35.0771V38.1825C59.7334 40.0417 58.3504 41.3897 57.4469 46.7819C57.44 47.9675 57.4663 48.5221 58.1635 48.6929C59.7245 49.2812 60.5443 49.9541 60.7911 50.8427ZM46.9364 65.1728C51.0586 57.8708 52.6694 58.7232 59.5967 53.468C61.0954 45.5852 44.1434 50.1238 46.9364 65.1728ZM83.0717 63.7395C82.6768 57.7223 83.4657 53.5895 78.0554 51.3182C73.5169 53.7069 72.3225 57.7677 78.5332 60.6342C80.7879 61.1031 81.6869 61.9497 83.0717 63.7395ZM81.1608 43.6742C83.2129 44.323 84.7439 47.2573 82.3551 49.1683C73.0391 49.1683 68.9783 57.7677 77.5777 61.8286C81.578 63.6532 84.03 64.4809 82.1163 71.8612C72.3225 96.2263 61.8121 90.2544 48.6741 70.9057C46.7954 66.8646 48.913 63.0229 53.4515 59.6787C57.3608 57.6962 66.8284 47.9739 68.0228 47.4962C69.2171 47.0185 77.4209 44.0796 81.1608 43.6742Z" stroke="#0F1012" stroke-width="0.477746"/>
</svg>
