<svg width="130" height="109" viewBox="0 0 130 109" fill="none" xmlns="http://www.w3.org/2000/svg">
  <style>
    /* Light mode - default */
    .folder-main { fill: #36AF8D; }
    .folder-details { fill: white; stroke: #36AF8D; }

    /* Dark mode */
    @media (prefers-color-scheme: dark) {
      .folder-main { fill: #36AF8D; }
      .folder-details { fill: #0f1012; stroke: #36AF8D; }
    }
  </style>
<path class="folder-main" d="M6.88506 108.84H125.377C127.676 108.84 129.766 106.959 129.766 104.451V16.8884C129.766 14.5896 127.885 12.4998 125.377 12.4998H65.3996C63.7278 12.4998 62.2649 11.6639 61.638 10.201L58.0853 3.09566C57.2494 1.6328 55.7865 0.796875 54.3236 0.796875H5.21321C2.91443 0.796875 0.824615 2.6777 0.824615 5.18547V102.57C0.615631 105.914 3.33239 108.84 6.88506 108.84Z" fill="#36AF8D"/>
<path class="folder-details" d="M57.1869 47.3847C57.4796 46.1622 60.6593 47.381 60.0534 48.8179C60.1859 51.1557 59.6414 52.108 64.3324 57.076C65.842 58.6992 66.7118 59.5372 66.4823 65.9143V66.1531V79.0523C64.2996 79.0079 63.8325 78.3828 63.8547 76.9024C63.5157 72.6579 62.9876 70.7226 61.7048 67.5864C61.544 67.1503 61.4771 64.9521 61.7048 64.2421C62.442 60.5858 62.1053 59.1539 60.0534 57.076C56.926 52.6651 56.6321 50.6356 57.1869 47.3847Z" fill="#0F1012" stroke="#0F1012" stroke-width="0.477746"/>
<path class="folder-details" d="M45.4791 49.6937L43.3293 52.0824C35.9242 40.3583 48.5845 36.316 52.4064 37.75C54.8729 38.5841 56.0606 39.5397 58.1394 41.3138C59.2446 42.3427 61.1221 42.1018 65.3055 41.0749C69.1463 40.3799 70.5066 40.9206 73.1884 41.5527C74.3934 42.5948 78.3806 41.2366 78.9065 40.1194C80.6702 37.9753 86.0726 36.7752 87.7448 37.7307C93.2393 39.4027 96.5821 45.6134 92.5222 51.5853L90.6103 49.6743C92.999 43.7024 88.9382 38.6861 83.2053 40.836C81.7302 41.6329 80.9176 42.1667 79.3833 43.4636C77.1526 44.8289 75.8694 45.6371 73.1884 46.8078C71.795 47.5944 71.0885 48.2053 70.3061 50.152C68.7603 52.6843 66.9619 52.7796 65.2898 50.152C64.4227 48.6375 63.7566 47.8645 62.1845 46.8078C59.864 45.3267 58.6014 45.3745 56.4515 43.9413C54.3017 42.5081 53.3166 41.2198 51.4352 40.5971C44.7467 39.6416 42.1191 45.6134 45.4791 49.6937Z" fill="#0F1012"/>
<path class="folder-details" d="M78.4602 47.0902C78.1675 45.8677 74.9878 47.0866 75.5937 48.5235C75.4612 50.8612 76.0057 51.8136 71.3147 56.7815C69.805 58.4048 68.9353 59.2427 69.1648 65.6198V65.8587V78.7578C71.3475 78.7134 71.8145 78.0883 71.7924 76.6079C72.1314 72.3634 72.6595 70.4281 73.9423 67.2919C74.1031 66.8558 74.17 64.6576 73.9423 63.9477C73.2051 60.2913 73.5418 58.8594 75.5937 56.7815C78.7211 52.3706 79.015 50.3411 78.4602 47.0902Z" fill="#0F1012"/>
<path class="folder-details" d="M45.4791 49.6937L43.3293 52.0824C35.9242 40.3583 48.5845 36.316 52.4064 37.75C54.8729 38.5841 56.0606 39.5397 58.1394 41.3138C59.2446 42.3427 61.1221 42.1018 65.3055 41.0749C69.1463 40.3799 70.5066 40.9206 73.1884 41.5527C74.3934 42.5948 78.3806 41.2366 78.9065 40.1194C80.6702 37.9753 86.0726 36.7752 87.7448 37.7307C93.2393 39.4027 96.5821 45.6134 92.5222 51.5853L90.6103 49.6743C92.999 43.7024 88.9382 38.6861 83.2053 40.836C81.7302 41.6329 80.9176 42.1667 79.3833 43.4636C77.1526 44.8289 75.8694 45.6371 73.1884 46.8078C71.795 47.5944 71.0885 48.2053 70.3061 50.152C68.7603 52.6843 66.9619 52.7796 65.2898 50.152C64.4227 48.6375 63.7566 47.8645 62.1845 46.8078C59.864 45.3267 58.6014 45.3745 56.4515 43.9413C54.3017 42.5081 53.3166 41.2198 51.4352 40.5971C44.7467 39.6416 42.1191 45.6134 45.4791 49.6937Z" stroke="#0F1012" stroke-width="0.477746"/>
<path class="folder-details" d="M78.4602 47.0902C78.1675 45.8677 74.9878 47.0866 75.5937 48.5235C75.4612 50.8612 76.0057 51.8136 71.3147 56.7815C69.805 58.4048 68.9353 59.2427 69.1648 65.6198V65.8587V78.7578C71.3475 78.7134 71.8145 78.0883 71.7924 76.6079C72.1314 72.3634 72.6595 70.4281 73.9423 67.2919C74.1031 66.8558 74.17 64.6576 73.9423 63.9477C73.2051 60.2913 73.5418 58.8594 75.5937 56.7815C78.7211 52.3706 79.015 50.3411 78.4602 47.0902Z" stroke="#0F1012" stroke-width="0.477746"/>
<ellipse class="folder-details" cx="48.6544" cy="53.9182" rx="6.21069" ry="5.01633" transform="rotate(14.2982 48.6544 53.9182)" fill="#0F1012"/>
<ellipse class="folder-details" cx="86.8561" cy="53.2246" rx="6.21069" ry="5.01633" transform="rotate(-6.71389 86.8561 53.2246)" fill="#0F1012"/>
</svg>
