<svg width="130" height="109" viewBox="0 0 130 109" fill="none" xmlns="http://www.w3.org/2000/svg">
  <style>
    /* Light mode - default */
    .folder-main { fill: #36AF8D; }
    .folder-details { fill: white; stroke: #36AF8D; }

    /* Dark mode */
    @media (prefers-color-scheme: dark) {
      .folder-main { fill: #36AF8D; }
      .folder-details { fill: #0f1012; stroke: #36AF8D; }
    }
  </style>
<path class="folder-main"  d="M6.88506 108.84H125.377C127.676 108.84 129.766 106.959 129.766 104.451V16.8884C129.766 14.5896 127.885 12.4998 125.377 12.4998H65.3996C63.7278 12.4998 62.2649 11.6639 61.638 10.201L58.0853 3.09566C57.2494 1.6328 55.7865 0.796875 54.3236 0.796875H5.21321C2.91443 0.796875 0.824615 2.6777 0.824615 5.18547V102.57C0.615631 105.914 3.33239 108.84 6.88506 108.84Z" />
<path class="folder-details" d="M48.2754 73.7344C50.3861 73.7345 52.0977 75.4459 52.0977 77.5566C52.0974 79.6672 50.386 81.3778 48.2754 81.3779C46.1647 81.3779 44.4533 79.6673 44.4531 77.5566C44.4531 75.4458 46.1646 73.7344 48.2754 73.7344ZM48.5078 76.1172C47.5845 76.1173 46.8361 76.8658 46.8359 77.7891C46.8359 78.7125 47.5844 79.4608 48.5078 79.4609C49.4313 79.4609 50.1797 78.7125 50.1797 77.7891C50.1796 76.8657 49.4312 76.1172 48.5078 76.1172Z" />
<path class="folder-details" d="M64.0566 75.6562C66.1674 75.6563 67.8789 77.3678 67.8789 79.4785C67.8787 81.5891 66.1672 83.2997 64.0566 83.2998C61.946 83.2998 60.2346 81.5891 60.2344 79.4785C60.2344 77.3677 61.9458 75.6562 64.0566 75.6562ZM64.2891 78.0391C63.3658 78.0392 62.6173 78.7876 62.6172 79.7109C62.6172 80.6343 63.3657 81.3827 64.2891 81.3828C65.2125 81.3828 65.9609 80.6344 65.9609 79.7109C65.9608 78.7876 65.2125 78.0391 64.2891 78.0391Z" />
<path class="folder-details" d="M80.2988 73.7344C82.4095 73.7345 84.1201 75.4459 84.1201 77.5566C84.12 79.6672 82.4094 81.3778 80.2988 81.3779C78.1881 81.3779 76.4767 79.6673 76.4766 77.5566C76.4766 75.4458 78.188 73.7344 80.2988 73.7344ZM80.5312 76.1172C79.608 76.1173 78.8595 76.8658 78.8594 77.7891C78.8594 78.7125 79.6079 79.4608 80.5312 79.4609C81.4547 79.4609 82.2031 78.7125 82.2031 77.7891C82.203 76.8657 81.4547 76.1172 80.5312 76.1172Z" />
<path class="folder-details" d="M87.4616 52.7279C89.7174 52.7394 89.8503 55.3555 87.4616 55.3555H72.4126C70.895 55.5905 70.0239 56.5499 70.7405 58.222C71.4571 59.8941 71.8502 60.6024 72.4126 62.9995C74.2188 63.1432 76.2346 61.5662 78.3844 61.0885C80.5343 60.6107 81.7935 60.9508 83.6396 62.044C84.8495 62.8603 85.655 62.9498 87.7004 62.9995C89.7236 62.9234 90.328 65.6271 86.9838 65.3882C84.2351 65.409 82.9449 64.914 80.7731 63.4772C79.6063 62.9287 78.5452 63.4794 76.4734 64.9105L72.1737 65.3882C71.532 70.1648 70.1432 71.986 64.7687 72.7933C58.9251 73.2294 56.4072 69.449 55.9295 65.3882C54.1346 65.6562 53.1643 65.4734 51.3909 64.6716C49.4642 63.2479 48.1348 62.9825 44.9414 64.9105C43.6279 65.5056 42.8436 65.5475 41.3583 65.3882C39.4473 65.3882 39.4412 63.1455 41.3583 62.9995C43.1053 63.0481 44.3689 62.6909 46.8523 61.3274C48.9936 60.6613 50.297 61.0341 52.8242 62.5217C53.9265 63.13 54.6268 63.1255 55.9295 62.9995L56.885 58.9386C57.8092 55.9818 56.8577 55.6839 54.974 55.3555H41.3569C38.9695 55.3555 39.2124 52.7116 41.3569 52.7279H55.2115C59.9792 53.3426 60.9444 56.0712 58.7969 61.0885C55.6892 69.449 65.7242 74.7042 69.5462 66.8214C70.9794 64.4327 68.7821 59.4173 68.1129 57.7443C67.4437 56.0712 69.0684 53.2057 71.9349 52.7279C74.8013 52.2502 87.4616 52.7279 87.4616 52.7279Z" />
<path class="folder-details" d="M72.4185 34.355C75.5238 32.184 76.4793 33.3804 73.8517 35.7882C70.2327 38.8842 68.4807 41.3464 66.4408 47.9505C65.3356 53.5481 64.8314 56.6614 66.4408 60.6107C68.5907 64.1938 67.8472 66.9119 65.7242 68.0158C64.815 68.2995 64.2834 68.4335 63.1025 68.2547C60.7124 67.7769 59.9928 64.9105 60.7137 62.9995C61.4347 61.0885 62.0454 58.4059 62.147 56.0712C62.147 44.6063 69.3131 36.526 72.4185 34.355Z" />
<path class="folder-details" d="M87.4616 55.3555C89.8503 55.3555 89.7174 52.7394 87.4616 52.7279C87.4616 52.7279 74.8013 52.2502 71.9349 52.7279C69.0684 53.2057 67.4437 56.0712 68.1129 57.7443C68.7821 59.4173 70.9794 64.4327 69.5462 66.8214C65.7242 74.7042 55.6892 69.449 58.7969 61.0885C60.9444 56.0712 59.9792 53.3426 55.2115 52.7279H41.3569C39.2124 52.7116 38.9695 55.3555 41.3569 55.3555H54.974C56.8577 55.6839 57.8092 55.9818 56.885 58.9386L55.9295 62.9995C54.6268 63.1255 53.9265 63.13 52.8242 62.5217C50.297 61.0341 48.9936 60.6613 46.8523 61.3274C44.3689 62.6909 43.1053 63.0481 41.3583 62.9995C39.4412 63.1455 39.4473 65.3882 41.3583 65.3882C42.8436 65.5475 43.6279 65.5056 44.9414 64.9105C48.1348 62.9825 49.4642 63.2479 51.3909 64.6716C53.1643 65.4734 54.1346 65.6562 55.9295 65.3882C56.4072 69.449 58.9251 73.2294 64.7687 72.7933C70.1432 71.986 71.532 70.1648 72.1737 65.3882L76.4734 64.9105C78.5452 63.4794 79.6063 62.9287 80.7731 63.4772C82.9449 64.914 84.2351 65.409 86.9838 65.3882C90.328 65.6271 89.7236 62.9234 87.7004 62.9995C85.655 62.9498 84.8495 62.8603 83.6396 62.044C81.7935 60.9508 80.5343 60.6107 78.3844 61.0885C76.2346 61.5662 74.2188 63.1432 72.4126 62.9995C71.8502 60.6024 71.4571 59.8941 70.7405 58.222C70.0239 56.5499 70.895 55.5905 72.4126 55.3555M87.4616 55.3555C87.0794 55.3555 77.2697 55.3555 72.4126 55.3555M87.4616 55.3555H72.4126M72.4185 34.355C75.5238 32.184 76.4793 33.3804 73.8517 35.7882C70.2327 38.8842 68.4807 41.3464 66.4408 47.9505C65.3356 53.5481 64.8314 56.6614 66.4408 60.6107C68.5907 64.1938 67.8472 66.9119 65.7242 68.0158C64.815 68.2995 64.2834 68.4335 63.1025 68.2547C60.7124 67.7769 59.9928 64.9105 60.7137 62.9995C61.4347 61.0885 62.0454 58.4059 62.147 56.0712C62.147 44.6063 69.3131 36.526 72.4185 34.355Z"  stroke-width="0.477746"/>
</svg>
