<svg width="130" height="109" viewBox="0 0 130 109" fill="none" xmlns="http://www.w3.org/2000/svg">
  <style>

    .folder-main { fill: #36AF8D; }
    .folder-details { fill: white; stroke: #36AF8D; }


    @media (prefers-color-scheme: dark) {
      .folder-main { fill: #36AF8D; }
      .folder-details { fill: #0f1012; stroke: #36AF8D; }
    }
  </style>
<path class="folder-main" d="M6.88506 108.941H125.377C127.676 108.941 129.766 107.061 129.766 104.553V16.9899C129.766 14.6912 127.885 12.6013 125.377 12.6013H65.3996C63.7278 12.6013 62.2649 11.7654 61.638 10.3026L58.0853 3.19722C57.2494 1.73436 55.7865 0.898438 54.3236 0.898438H5.21321C2.91443 0.898438 0.824615 2.77926 0.824615 5.28703V102.672C0.615631 106.016 3.33239 108.941 6.88506 108.941Z" fill="#36AF8D"/>
<path class="folder-details" fill-rule="evenodd" clip-rule="evenodd" d="M56.7014 44.4615C56.7014 44.4615 56.2237 32.7534 56.7014 32.2789C57.1792 31.8045 75.8113 31.8012 76.289 32.2789C76.7668 32.7567 76.289 44.7003 76.289 44.7003C76.289 44.7003 86.3217 38.7285 87.0383 38.9674C87.7549 39.2063 96.3543 54.2552 96.1155 54.733C95.8766 55.2107 85.1273 60.4659 85.1273 60.4659C85.1273 60.4659 95.6377 65.4823 95.6377 66.1989C95.6377 66.9155 87.7549 81.7256 87.0383 81.9645C86.3217 82.2034 76.0501 75.7538 76.0501 75.7538C76.0501 75.7538 76.5279 87.6974 76.0501 87.9363C75.5724 88.1752 57.4181 88.6529 56.7014 87.9363C55.9848 87.2197 56.7014 75.7538 56.7014 75.7538C56.7014 75.7538 46.6688 82.2034 45.9522 81.9645C45.2355 81.7256 36.875 66.9155 36.875 66.1989C36.875 65.4823 47.8631 60.4659 47.8631 60.4659C47.8631 60.4659 37.1139 54.9719 37.3527 54.4941C37.5916 54.0164 45.4744 39.4451 45.9522 39.2063C46.4299 38.9674 56.7014 44.4615 56.7014 44.4615ZM63.6046 39.9229V44.9393C55.9851 45.8947 57.1792 54.9719 64.0972 55.9273L64.5749 64.7656L68.3969 62.6158L68.6358 57.5995C71.7411 59.7493 71.98 62.6158 64.7967 65.96C62.9028 67.1544 58.4606 70.9966 65.5133 74.5594L65.7522 81.9645C65.9911 82.92 67.0563 82.9761 67.1854 82.2034L67.6632 75.7538C68.9758 76.0865 68.9745 77.0879 68.1409 79.5758C72.2018 77.6648 70.7685 74.5594 67.9021 73.3651L68.3798 68.1099L65.7522 69.5431V72.1707C63.6023 70.7375 64.0129 69.544 65.5133 68.3487C76.2626 63.0935 74.5905 57.3606 69.0964 54.733L69.3353 48.0445C75.0682 48.0445 74.1127 44.4615 69.813 44.7003V39.9229C69.8443 38.5168 69.5504 38.2458 68.6187 38.2508H65.0379C63.7489 38.2562 63.5791 38.7504 63.6046 39.9229Z" fill="#0F1012"/>
<path class="folder-main" d="M66.0175 61.1825L65.7786 47.0891C65.709 45.4078 67.6896 45.6558 67.6896 47.0891L67.2118 61.1825C66.9364 62.0617 66.2886 62.1115 66.0175 61.1825Z" fill="#0F1012"/>
<path class="folder-main" d="M63.8676 47.0891C60.5207 47.9709 60.4031 51.9516 64.0972 53.0609L63.8676 47.0891Z" fill="#0F1012"/>
<path class="folder-main" d="M66.4952 41.595C64.8231 41.8339 64.8231 44.7003 66.7341 44.4615C68.6451 44.2226 68.1673 41.3561 66.4952 41.595Z" fill="#0F1012"/>
<path class="folder-details" d="M63.6046 44.9393C63.6046 44.5571 63.6046 41.4358 63.6046 39.9229M63.6046 44.9393C55.9851 45.8947 57.1792 54.9719 64.0972 55.9273L64.5749 64.7656L68.3969 62.6158L68.6358 57.5995C71.7411 59.7493 71.98 62.6158 64.7967 65.96C62.9028 67.1544 58.4606 70.9966 65.5133 74.5594L65.7522 81.9645C65.9911 82.92 67.0563 82.9761 67.1854 82.2034L67.6632 75.7538C68.9758 76.0865 68.9745 77.0879 68.1409 79.5758C72.2018 77.6648 70.7685 74.5594 67.9021 73.3651L68.3798 68.1099L65.7522 69.5431M63.6046 44.9393V39.9229M63.6046 39.9229C63.5791 38.7504 63.7489 38.2562 65.0379 38.2508H68.6187C69.5504 38.2458 69.8443 38.5168 69.813 39.9229V44.7003C74.1127 44.4615 75.0682 48.0445 69.3353 48.0445L69.0964 54.733C74.5905 57.3606 76.2626 63.0935 65.5133 68.3487C64.0129 69.544 63.6023 70.7375 65.7522 72.1707M65.7522 72.1707C65.7522 71.9796 65.7522 70.3393 65.7522 69.5431M65.7522 72.1707V69.5431M63.8676 47.0891C60.5207 47.9709 60.4031 51.9516 64.0972 53.0609L63.8676 47.0891ZM66.4952 41.595C64.8231 41.8339 64.8231 44.7003 66.7341 44.4615C68.6451 44.2226 68.1673 41.3561 66.4952 41.595ZM66.0175 61.1825L65.7786 47.0891C65.709 45.4078 67.6896 45.6558 67.6896 47.0891L67.2118 61.1825C66.9364 62.0617 66.2886 62.1115 66.0175 61.1825ZM56.7014 44.4615C56.7014 44.4615 56.2237 32.7534 56.7014 32.2789C57.1792 31.8045 75.8113 31.8012 76.289 32.2789C76.7668 32.7567 76.289 44.7003 76.289 44.7003C76.289 44.7003 86.3217 38.7285 87.0383 38.9674C87.7549 39.2063 96.3543 54.2552 96.1155 54.733C95.8766 55.2107 85.1273 60.4659 85.1273 60.4659C85.1273 60.4659 95.6377 65.4823 95.6377 66.1989C95.6377 66.9155 87.7549 81.7256 87.0383 81.9645C86.3217 82.2034 76.0501 75.7538 76.0501 75.7538C76.0501 75.7538 76.5279 87.6974 76.0501 87.9363C75.5724 88.1752 57.4181 88.6529 56.7014 87.9363C55.9848 87.2197 56.7014 75.7538 56.7014 75.7538C56.7014 75.7538 46.6688 82.2034 45.9522 81.9645C45.2355 81.7256 36.875 66.9155 36.875 66.1989C36.875 65.4823 47.8631 60.4659 47.8631 60.4659C47.8631 60.4659 37.1139 54.9719 37.3527 54.4941C37.5916 54.0164 45.4744 39.4451 45.9522 39.2063C46.4299 38.9674 56.7014 44.4615 56.7014 44.4615Z" stroke="#0F1012" stroke-width="0.577746"/>
</svg>


