<svg width="130" height="109" viewBox="0 0 130 109" fill="none" xmlns="http://www.w3.org/2000/svg">
  <style>
    /* Light mode - default */
    .folder-main { fill: #36AF8D; }
    .folder-details { fill: white; stroke: #36AF8D; }

    /* Dark mode */
    @media (prefers-color-scheme: dark) {
      .folder-main { fill: #36AF8D; }
      .folder-details { fill: #0f1012; stroke: #36AF8D; }
    }
  </style>
<path class="folder-main" d="M6.88506 108.84H125.377C127.676 108.84 129.766 106.959 129.766 104.451V16.8884C129.766 14.5896 127.885 12.4998 125.377 12.4998H65.3996C63.7278 12.4998 62.2649 11.6639 61.638 10.201L58.0853 3.09566C57.2494 1.6328 55.7865 0.796875 54.3236 0.796875H5.21321C2.91443 0.796875 0.824615 2.6777 0.824615 5.18547V102.57C0.615631 105.914 3.33239 108.84 6.88506 108.84Z" fill="#36AF8D"/>
<path class="folder-details" d="M64.3528 33.6518C65.1593 33.2208 66.1618 33.1556 67.4524 33.2875L68.0237 33.3559L68.0393 33.3578C69.9628 33.7427 70.8132 35.2684 71.0452 36.7211C71.1611 37.4474 71.1268 38.1704 70.9915 38.7534C70.9238 39.0445 70.8294 39.3084 70.7112 39.5219C70.595 39.7316 70.4435 39.9155 70.2522 40.0151C69.6666 40.3573 69.2781 40.6337 69.0071 40.9321C68.7454 41.2203 68.5832 41.5406 68.469 41.9868C68.414 43.1416 68.5901 43.9064 68.8899 44.4321C69.189 44.9563 69.6272 45.2704 70.1477 45.4955C70.6792 45.7253 71.2698 45.853 71.888 46.0219C72.492 46.187 73.1127 46.3906 73.6292 46.7778C74.1053 47.1349 74.4673 47.3777 74.7708 47.5209C75.0689 47.6616 75.2962 47.6983 75.5081 47.6645C75.726 47.6295 75.9605 47.5137 76.2649 47.2875C76.5701 47.0607 76.9245 46.7397 77.385 46.3159L77.3958 46.3061L77.4075 46.2973L77.7083 46.0737C77.9795 45.8628 78.1657 45.6864 78.2903 45.518C78.4076 45.3593 78.4724 45.2036 78.4944 45.02L78.5022 44.8256V44.8217C78.4924 43.9997 78.5264 43.3251 78.7405 42.7211C78.9582 42.1076 79.3545 41.5873 80.0257 41.0512L80.0383 41.0414L80.052 41.0336C81.3199 40.2725 82.6007 40.3323 83.6253 40.8442C84.637 41.3499 85.3983 42.2964 85.6575 43.3188C86.0471 44.3785 85.6372 45.54 84.9837 46.3823C84.6522 46.8093 84.2473 47.1709 83.8255 47.4096C83.4136 47.6425 82.9638 47.7691 82.5432 47.7016V47.7026C81.8535 47.6454 81.3891 47.6498 81.0266 47.7436C80.6778 47.834 80.4067 48.012 80.1145 48.3403C79.7192 48.8146 78.8713 49.8218 78.6712 50.0219L78.6653 50.0287L78.6575 50.0346C78.3005 50.3398 78.1418 50.5476 78.1057 50.7748C78.0695 51.0047 78.1486 51.3203 78.4592 51.8627C78.883 52.3115 79.1699 52.7261 79.3909 53.2231C79.6133 53.7237 79.7651 54.3003 79.9299 55.058L79.9368 55.0873L79.9358 55.1166C79.9212 55.5186 79.9637 55.8042 80.052 56.0073C80.1364 56.2009 80.2683 56.333 80.4661 56.4252C80.6729 56.5216 80.9587 56.5776 81.3489 56.5942C81.735 56.6106 82.2054 56.5877 82.7727 56.5424C83.0406 56.4955 83.244 56.4383 83.4358 56.3442C83.6295 56.249 83.8239 56.1093 84.0686 55.8881C84.9963 54.9558 85.7443 54.3772 86.5257 54.1411C87.3206 53.9011 88.1119 54.0276 89.0979 54.4047H89.0989L89.3958 54.5287C90.8336 55.1835 91.5775 56.3196 91.7864 57.5434C92.007 58.8363 91.6296 60.2164 90.8762 61.2211C90.0851 62.2755 88.544 62.5713 87.2102 62.5063C86.5333 62.4732 85.8821 62.3469 85.3645 62.1616C85.106 62.0689 84.8744 61.9586 84.6878 61.8344C84.5044 61.7124 84.345 61.564 84.259 61.3862C84.0392 60.9309 83.7814 60.65 83.346 60.4848C82.8906 60.3121 82.2195 60.2569 81.1536 60.3256C80.6237 60.3862 80.3388 60.5478 80.177 60.7592C80.0094 60.9786 79.9358 61.2998 79.9358 61.7602C79.9356 62.0468 79.831 62.3958 79.6946 62.7368C79.5554 63.0847 79.3711 63.453 79.1897 63.7856C79.0081 64.1186 78.8265 64.4213 78.6907 64.6401C78.6228 64.7494 78.5655 64.8392 78.5257 64.9008C78.506 64.9312 78.4905 64.9558 78.4798 64.9721C78.4745 64.9801 78.4689 64.9864 78.4661 64.9907C78.3323 65.2292 78.2278 65.4156 78.1516 65.5756C78.0748 65.7371 78.0376 65.8525 78.0296 65.9467C78.018 66.0854 78.0637 66.2339 78.3089 66.4868L78.427 66.602L78.4358 66.6098L78.4436 66.6186C79.1296 67.3996 79.6564 67.9848 80.0989 68.3754C80.5467 68.7706 80.8646 68.926 81.1301 68.9262C82.539 68.9262 83.5995 69.249 84.3508 69.7778C85.1044 70.3082 85.5306 71.035 85.6848 71.809C85.9897 73.3412 85.2299 75.0587 83.8753 75.8227L83.8645 75.8286L83.8528 75.8334C82.6511 76.3533 81.2615 76.1576 80.2112 75.6245C79.6842 75.3568 79.2284 74.9975 78.9182 74.5844C78.6079 74.1709 78.4343 73.6891 78.5051 73.1918C78.6159 72.4159 78.4463 71.7804 78.0589 71.2114C77.6654 70.6336 77.0406 70.1147 76.2249 69.5971L76.2132 69.5903L76.2024 69.5815C75.757 69.2223 75.5187 69.1016 75.3049 69.102C75.0863 69.1026 74.8286 69.2289 74.345 69.5873C73.3497 70.3249 71.8746 70.8209 70.2073 71.2973C69.7914 71.4162 69.501 71.5139 69.2942 71.6098C69.0897 71.7046 68.9837 71.7899 68.9202 71.8764C68.8566 71.9632 68.817 72.0762 68.7874 72.2602C68.7566 72.4518 68.7413 72.6788 68.7073 73.0034L68.7063 73.0102C68.5931 73.8571 68.6008 74.3445 68.7854 74.8178C68.9759 75.3056 69.3625 75.8029 70.0842 76.645C70.8533 77.5422 71.1004 78.7463 71.0071 79.8364C70.9142 80.9188 70.4799 81.9478 69.8137 82.4809C68.5599 83.4836 66.0458 84.2417 63.7844 82.4828C61.5205 80.7217 61.7518 77.9262 63.0462 76.6313C63.6396 76.0378 64.0323 75.579 64.2825 75.0493C64.5302 74.5242 64.6475 73.9072 64.6477 72.9858L64.6272 72.6547C64.5963 72.358 64.5342 72.1595 64.4319 72.0112C64.2998 71.8199 64.0722 71.6713 63.6272 71.5356V71.5366C61.5923 70.9556 60.5269 70.4549 58.7874 69.3588L58.7766 69.352C58.4438 69.1164 58.2489 69.0119 57.9758 69.061C57.6696 69.1165 57.224 69.3728 56.4495 70.0678L56.4387 70.0766L55.2581 71.02C55.0529 71.2311 54.9272 71.4137 54.8606 71.6733C54.7903 71.9479 54.7805 72.3311 54.8548 72.9506L54.8587 72.9819L54.8538 73.0141C54.7565 73.6593 54.6543 74.2196 54.259 74.7231C53.8667 75.2226 53.2093 75.6388 52.0774 76.0834L52.0579 76.0912L52.0364 76.0961C50.8111 76.341 49.8272 76.2448 49.0901 75.7914C48.3493 75.3356 47.9046 74.5485 47.6946 73.5209L47.6917 73.5034L47.6907 73.4868C47.6063 72.048 47.7226 71.0775 48.1467 70.4086C48.5797 69.7265 49.2989 69.4087 50.262 69.1791L50.2815 69.1752L50.301 69.1733L50.8928 69.1284C51.441 69.083 51.8646 69.0339 52.1936 68.9604C52.6306 68.8626 52.8594 68.7307 52.9934 68.5522L53.0032 68.5385L53.0149 68.5268L54.4358 67.1049C54.8503 66.5316 55.1208 66.143 55.2405 65.8178C55.298 65.6612 55.3153 65.5297 55.301 65.4086C55.2868 65.2888 55.2387 65.161 55.1389 65.0121C54.6078 64.4107 54.2586 63.9189 54.0032 63.3911C53.7457 62.8588 53.5889 62.301 53.429 61.5805L53.4251 61.5649L53.4241 61.5493C53.4039 61.3086 53.3521 61.1339 53.2757 61.0024C53.2008 60.8739 53.0938 60.7713 52.9368 60.686C52.6053 60.506 52.0785 60.413 51.2503 60.3334L51.2424 60.3325C50.7052 60.2623 50.304 60.2793 49.9173 60.4555C49.5246 60.6346 49.1143 60.9925 48.5969 61.6733L48.5735 61.7045L48.5403 61.727C47.7033 62.2922 46.9977 62.5996 46.3128 62.7016C45.6261 62.8037 44.9824 62.6959 44.2786 62.4731L44.2669 62.4702V62.4692C42.2972 61.7314 41.3883 60.602 41.1282 59.3998C40.8723 58.2163 41.2585 57.0194 41.7551 56.1547L41.7659 56.1371L41.7786 56.1205C44.2628 53.1396 47.5444 53.8569 48.8342 55.4047C49.1329 55.7631 49.3467 56.0071 49.5188 56.1752C49.6895 56.3419 49.807 56.4212 49.9114 56.4633C50.0148 56.5049 50.1269 56.5191 50.3059 56.52C50.3966 56.5204 50.498 56.5176 50.6214 56.5151C50.742 56.5126 50.8804 56.5108 51.0393 56.5131H51.0403C52.0868 56.516 52.6912 56.4508 53.0374 56.3412C53.206 56.2878 53.2962 56.2285 53.346 56.1772C53.391 56.1304 53.416 56.0753 53.4299 55.9985C53.5747 54.4091 53.9257 53.6295 54.6536 52.3344L54.6594 52.3237L54.8616 52.4516L54.6604 52.3237C55.0289 51.7448 55.2111 51.3655 55.2473 51.0903C55.264 50.9624 55.2472 50.864 55.2063 50.7778C55.1638 50.6882 55.0864 50.5942 54.9534 50.4907L54.9417 50.4819L53.7366 49.2768L53.7239 49.2631L53.7132 49.2485C53.3269 48.7167 53.036 48.3598 52.7659 48.145C52.5101 47.9416 52.2834 47.8742 52.0061 47.9116L51.9885 47.9135H51.97C50.9565 47.8952 50.3831 47.8359 49.9065 47.643C49.4355 47.4522 49.0696 47.1323 48.4768 46.6684C48.1166 46.3865 47.8753 45.9378 47.7483 45.4282C47.6207 44.9157 47.6027 44.3208 47.7063 43.7192C47.9136 42.5161 48.6137 41.2507 49.9446 40.5366L49.968 40.5239L49.9944 40.517C51.4056 40.1322 52.6826 40.6487 53.5667 41.4672C54.4404 42.2762 54.975 43.4238 54.8518 44.3618C54.7423 45.1971 54.8418 45.4391 54.9475 45.5541C55.009 45.6211 55.0926 45.6695 55.2346 45.7455C55.3696 45.8178 55.5429 45.9087 55.7229 46.0571H55.7219C56.0233 46.2982 56.279 46.5174 56.5012 46.7114C56.7258 46.9074 56.9125 47.0728 57.0823 47.2114C57.4234 47.4897 57.6575 47.6239 57.9104 47.6518C58.166 47.6799 58.487 47.6039 59.0071 47.3442C59.5253 47.0853 60.2067 46.6625 61.1741 46.0405L61.2053 46.02L61.2415 46.0102C62.4849 45.6748 63.3669 45.4157 63.9309 45.0864C64.2073 44.9249 64.3911 44.7548 64.5032 44.5668C64.6134 44.3817 64.6664 44.1577 64.6487 43.8666L64.6477 43.8627C64.5681 41.974 64.3253 41.3316 63.7903 40.9399L63.7649 40.9213L63.7454 40.8979C63.0022 39.9816 62.5672 39.2832 62.3518 38.6274C62.1338 37.9632 62.1481 37.3626 62.262 36.6596L62.2659 36.6381L62.2727 36.6186C62.8063 35.1023 63.423 34.149 64.3528 33.6518ZM71.3938 61.184C70.0746 61.184 69.0042 62.1969 69.0042 63.4467C69.0043 64.6965 70.0746 65.7094 71.3938 65.7094C72.7128 65.7092 73.7824 64.6963 73.7825 63.4467C73.7825 62.197 72.7129 61.1843 71.3938 61.184ZM61.3606 59.2621C60.3055 59.2623 59.4497 60.0721 59.4495 61.0717C59.4495 62.0715 60.3053 62.8821 61.3606 62.8823C62.416 62.8823 63.2717 62.0716 63.2717 61.0717C63.2715 60.072 62.4159 59.2621 61.3606 59.2621ZM67.8089 50.6606C65.3024 50.6606 63.27 52.5849 63.2698 54.9594C63.2698 57.3341 65.3023 59.2592 67.8089 59.2592C70.3154 59.2592 72.3469 57.3341 72.3469 54.9594C72.3467 52.5849 70.3153 50.6606 67.8089 50.6606Z" fill="#0F1012"/>
</svg>
