<svg width="130" height="109" viewBox="0 0 130 109" fill="none" xmlns="http://www.w3.org/2000/svg">
  <style>
    /* Light mode - default */
    .folder-main { fill: #36AF8D; }
    .folder-details { fill: white; stroke: #36AF8D; }

    /* Dark mode */
    @media (prefers-color-scheme: dark) {
      .folder-main { fill: #36AF8D; }
      .folder-details { fill: #0f1012; stroke: #36AF8D; }
    }
  </style>
<path class="folder-main" d="M6.89287 108.762H125.385C127.684 108.762 129.773 106.881 129.773 104.373V16.8102C129.773 14.5115 127.893 12.4217 125.385 12.4217H65.4074C63.7356 12.4217 62.2727 11.5857 61.6458 10.1229L58.0931 3.01754C57.2572 1.55467 55.7943 0.71875 54.3315 0.71875H5.22102C2.92224 0.71875 0.832428 2.59957 0.832428 5.10734V102.492C0.623444 105.836 3.3402 108.762 6.89287 108.762Z" fill="#36AF8D"/>
<path class="folder-details" d="M58.493 48.3095C58.3603 61.8112 57.6212 70.2937 55.9699 86.1559C55.5034 90.6975 62.0253 91.7067 63.0346 86.1559L65.5693 67.485L68.0924 86.1559C68.597 91.2021 74.6525 91.2021 74.6525 86.1559C73.0597 71.3241 72.4034 63.0543 72.1294 48.3095C73.4864 53.5115 74.0987 56.5753 74.6525 62.9435C75.6617 65.9712 80.2033 64.4573 80.2033 61.9342C80.054 47.184 78.4497 42.0915 72.1294 40.2356H56.9908C51.1569 43.8291 49.279 48.1364 49.4215 61.9342C49.9187 66.4758 54.4603 65.4666 55.9699 61.9342C56.6327 55.1653 57.2443 52.4729 58.493 48.3095Z" fill="#0F1012"/>
<path class="folder-details" d="M59.5065 32.1617C60.5157 40.2356 69.5988 40.2356 70.6081 32.1617C70.1034 22.5831 60.0111 22.5796 59.5065 32.1617Z" fill="#0F1012"/>
</svg>
