<svg width="130" height="109" viewBox="0 0 130 109" fill="none" xmlns="http://www.w3.org/2000/svg">
  <style>
    /* Light mode - default */
    .folder-main { fill: #36AF8D; }
    .folder-details { fill: white; stroke: #36AF8D; }

    /* Dark mode */
    @media (prefers-color-scheme: dark) {
      .folder-main { fill: #36AF8D; }
      .folder-details { fill: #0f1012; stroke: #36AF8D; }
    }
  </style>
<path class="folder-main" d="M6.88506 108.238H125.377C127.676 108.238 129.766 106.357 129.766 103.85V16.2868C129.766 13.988 127.885 11.8982 125.377 11.8982H65.3996C63.7278 11.8982 62.2649 11.0623 61.638 9.59944L58.0853 2.4941C57.2494 1.03123 55.7865 0.195312 54.3236 0.195312H5.21321C2.91443 0.195312 0.824615 2.07614 0.824615 4.5839V101.969C0.615631 105.313 3.33239 108.238 6.88506 108.238Z" fill="#36AF8D"/>
<path class="folder-details" d="M80.0043 77.3257C80.8788 62.5051 79.3874 56.9337 69.255 57.7381C68.1529 57.8792 67.7384 57.4742 67.344 56.5393C66.4703 54.4171 66.4589 53.1328 67.344 51.0377C68.0142 49.7255 68.4005 49.5998 69.0161 49.8433C84.5428 56.2929 84.6505 58.4205 84.0651 77.3257C84.0651 81.6134 79.5265 80.8968 80.0043 77.3257Z" fill="#0F1012"/>
<path class="folder-details" d="M68.2969 46.7455C73.0743 42.4533 72.1188 31.6965 62.5639 31.2188C53.3356 31.2733 46.5337 40.3034 45.3651 51.7618C44.1964 63.2202 50.5738 73.8973 58.7419 76.1194C74.0555 78.9858 73.1 64.0872 68.058 60.1149C63.0159 56.1426 63.5194 51.0377 68.2969 46.7455Z" fill="#0F1012"/>
<path class="folder-details" d="M80.0043 77.3257C80.8788 62.5051 79.3874 56.9337 69.255 57.7381C68.1529 57.8792 67.7384 57.4742 67.344 56.5393C66.4703 54.4171 66.4589 53.1328 67.344 51.0377C68.0142 49.7255 68.4005 49.5998 69.0161 49.8433C84.5428 56.2929 84.6505 58.4205 84.0651 77.3257C84.0651 81.6134 79.5265 80.8968 80.0043 77.3257Z" stroke="#0F1012" stroke-width="0.477746"/>
<path class="folder-details" d="M68.2969 46.7455C73.0743 42.4533 72.1188 31.6965 62.5639 31.2188C53.3356 31.2733 46.5337 40.3034 45.3651 51.7618C44.1964 63.2202 50.5738 73.8973 58.7419 76.1194C74.0555 78.9858 73.1 64.0872 68.058 60.1149C63.0159 56.1426 63.5194 51.0377 68.2969 46.7455Z" stroke="#0F1012" stroke-width="0.477746"/>
</svg>
