<svg width="130" height="109" viewBox="0 0 130 109" fill="none" xmlns="http://www.w3.org/2000/svg">
  <style>
    /* Light mode - default */
    .folder-main { fill: #36AF8D; }
    .folder-details { fill: white; stroke: #36AF8D; }

    /* Dark mode */
    @media (prefers-color-scheme: dark) {
      .folder-main { fill: #36AF8D; }
      .folder-details { fill: #0f1012; stroke: #36AF8D; }
    }
  </style>
<path class="folder-main" d="M6.89287 108.762H125.385C127.684 108.762 129.773 106.881 129.773 104.373V16.8102C129.773 14.5115 127.893 12.4217 125.385 12.4217H65.4074C63.7356 12.4217 62.2727 11.5857 61.6458 10.1229L58.0931 3.01754C57.2572 1.55467 55.7943 0.71875 54.3315 0.71875H5.22102C2.92224 0.71875 0.832428 2.59957 0.832428 5.10734V102.492C0.623444 105.836 3.3402 108.762 6.89287 108.762Z" fill="#36AF8D"/>
<path class="folder-details" d="M66.7963 30.9144C66.8221 28.1039 62.4966 28.0574 62.4966 30.9144V45.4951C62.1173 49.124 61.3023 50.0338 57.9581 53.1392C54.6138 56.2445 53.1783 59.1571 52.7029 64.8439C52.7029 65.035 52.5436 67.3123 52.464 68.427C52.3605 69.7257 50.3141 69.8603 50.3141 68.1881C50.3141 68.1881 50.0752 65.7994 50.3141 64.1273C50.553 62.4552 51.0307 62.4552 49.3586 63.6496C47.6865 64.8439 46.614 65.2154 44.82 65.3217C44.2616 65.2624 43.145 63.9206 45.0589 62.9329C48.1396 62.0718 49.4561 60.9746 51.5172 58.6332L52.9504 56.9611C53.5144 56.3097 54.0114 55.8817 51.7561 56.2445C50.0569 56.4535 48.4118 55.7668 47.6952 55.0501C46.9786 54.3335 47.4564 52.1837 49.3673 53.378C51.2783 54.5724 55.3392 54.0947 57.9668 50.7504C59.2078 49.2155 58.9222 40.0012 56.5335 38.8068C50.7963 35.7185 33.6018 51.7059 37.4237 79.654C38.1793 83.1638 42.2011 83.9538 44.5899 80.3707C45.6183 79.2044 47.4563 77.9819 52.2338 77.5042C55.2929 77.0531 58.6833 74.8766 58.4445 70.338V59.3499C58.3055 57.4026 59.6582 56.3872 61.7887 54.5724C64.5076 52.1374 65.9285 52.3861 67.7605 54.5724C70.0428 56.9033 71.2975 58.2072 70.8659 61.4997L71.1047 71.5324C71.3402 74.9728 72.7892 76.3103 78.032 77.5042C81.7126 78.3195 83.6527 79.1731 86.8703 82.2816C98.3091 85.4772 91.8867 45.4951 77.3154 38.8068L77.3 38.8032C73.3903 37.8999 70.1505 37.1513 71.1047 49.7949C71.4589 51.7777 77.0765 55.289 79.7041 53.8558C82.3317 52.4225 83.2102 55.215 79.7041 56.0056C75.6433 56.2445 75.6433 55.7668 78.9875 59.8276C80.3736 61.2307 81.2022 62.0108 84.0039 62.6941C88.3036 63.8884 83.2872 67.4715 78.9875 62.6941L79.2264 65.5605V67.7104C79.3235 69.0977 77.0766 69.8311 76.8377 67.7104V65.5605C76.5126 59.8447 75.4803 57.3003 71.5825 53.8558C67.382 49.4546 66.9581 48.153 66.7963 45.4951V30.9144Z" fill="#0F1012"/>
<path class="folder-details" d="M77.3154 38.8068C91.8867 45.4951 98.3091 85.4772 86.8703 82.2816C83.6527 79.1731 81.7126 78.3195 78.032 77.5042C72.7892 76.3103 71.3402 74.9728 71.1047 71.5324L70.8659 61.4997C71.2975 58.2072 70.0428 56.9033 67.7605 54.5724C65.9285 52.3861 64.5076 52.1374 61.7887 54.5724C59.6582 56.3872 58.3055 57.4026 58.4445 59.3499V70.338C58.6833 74.8766 55.2929 77.0531 52.2338 77.5042C47.4563 77.9819 45.6183 79.2044 44.5899 80.3707C42.2011 83.9537 38.1793 83.1638 37.4237 79.654C33.6018 51.7059 50.7963 35.7185 56.5335 38.8068C58.9222 40.0012 59.2078 49.2155 57.9668 50.7504C55.3392 54.0946 51.2783 54.5724 49.3673 53.378C47.4564 52.1837 46.9786 54.3335 47.6952 55.0501C48.4118 55.7668 50.0569 56.4535 51.7561 56.2445C54.0114 55.8817 53.5144 56.3097 52.9504 56.9611L51.5172 58.6332C49.4561 60.9746 48.1396 62.0718 45.0589 62.9329C43.145 63.9206 44.2616 65.2624 44.82 65.3217C46.614 65.2154 47.6865 64.8439 49.3586 63.6496C51.0307 62.4552 50.553 62.4552 50.3141 64.1273C50.0752 65.7994 50.3141 68.1881 50.3141 68.1881C50.3141 69.8603 52.3605 69.7257 52.464 68.427C52.5436 67.3123 52.7029 65.035 52.7029 64.8439C53.1783 59.1571 54.6138 56.2445 57.9581 53.1392C61.3023 50.0338 62.1173 49.124 62.4966 45.4951V30.9144C62.4966 28.0574 66.8221 28.1039 66.7963 30.9144V45.4951C66.9581 48.153 67.382 49.4546 71.5825 53.8558C75.4803 57.3003 76.5126 59.8447 76.8377 65.5605V67.7104C77.0766 69.8311 79.3235 69.0977 79.2264 67.7104V65.5605L78.9875 62.6941C83.2872 67.4715 88.3036 63.8884 84.0039 62.6941C81.2022 62.0108 80.3736 61.2307 78.9875 59.8276C75.6433 55.7668 75.6433 56.2445 79.7041 56.0056C83.2102 55.215 82.3317 52.4225 79.7041 53.8558C77.0765 55.289 71.4589 51.7777 71.1047 49.7949C70.1505 37.1513 73.3903 37.8999 77.3 38.8032M77.3154 38.8068L77.3 38.8032M77.3154 38.8068C77.3103 38.8056 77.3051 38.8044 77.3 38.8032" stroke="#0F1012" stroke-width="0.477746"/>
</svg>
