<svg width="130" height="109" viewBox="0 0 130 109" fill="none" xmlns="http://www.w3.org/2000/svg">
  <style>
    /* Light mode - default */
    .folder-main { fill: #36AF8D; }
    .folder-details { fill: white; stroke: #36AF8D; }

    /* Dark mode */
    @media (prefers-color-scheme: dark) {
      .folder-main { fill: #36AF8D; }
      .folder-details { fill: #0f1012; stroke: #36AF8D; }
    }
  </style>
<path class="folder-main" d="M6.89287 108.941H125.385C127.684 108.941 129.773 107.061 129.773 104.553V16.9899C129.773 14.6912 127.893 12.6013 125.385 12.6013H65.4074C63.7356 12.6013 62.2727 11.7654 61.6458 10.3026L58.0931 3.19722C57.2572 1.73436 55.7943 0.898438 54.3315 0.898438H5.22102C2.92224 0.898438 0.832428 2.77926 0.832428 5.28703V102.672C0.623444 106.016 3.3402 108.941 6.89287 108.941Z" fill="#36AF8D"/>
<path class="folder-details" d="M68.0113 65.667C69.3874 64.021 73.6062 69.3791 71.9365 70.2437L68.0113 65.667Z" fill="#0F1012"/>
<path class="folder-details" d="M67.1007 66.5899C66.0734 68.0383 69.1459 71.786 70.8156 70.9214L67.1007 66.5899Z" fill="#0F1012"/>
<path class="folder-details" d="M63.0626 79.4091C61.8915 80.3459 63.3782 82.2579 64.6163 81.0553C69.2177 77.0372 66.5054 73.3349 65.9903 69.0959C65.2661 64.2004 68.6206 63.7281 71.4544 64.5516C71.5245 64.6333 71.3895 62.4913 71.166 62.3961C70.9425 62.3009 63.0938 60.0986 63.8765 68.7812C65.6924 75.4004 65.3306 77.4994 63.0626 79.4091Z" fill="#0F1012"/>
<path class="folder-details" d="M68.0113 65.667C69.3874 64.021 73.6062 69.3791 71.9365 70.2437L68.0113 65.667Z" stroke="#0F1012" stroke-width="0.215333"/>
<path class="folder-details" d="M67.1007 66.5899C66.0734 68.0383 69.1459 71.786 70.8156 70.9214L67.1007 66.5899Z" stroke="#0F1012" stroke-width="0.215333"/>
<path class="folder-details" d="M63.0626 79.4091C61.8915 80.3459 63.3782 82.2579 64.6163 81.0553C69.2177 77.0372 66.5054 73.3349 65.9903 69.0959C65.2661 64.2004 68.6206 63.7281 71.4544 64.5516C71.5245 64.6333 71.3895 62.4913 71.166 62.3961C70.9425 62.3009 63.0938 60.0986 63.8765 68.7812C65.6924 75.4004 65.3306 77.4994 63.0626 79.4091Z" stroke="#0F1012" stroke-width="0.215333"/>
<path class="folder-details" d="M76.3436 56.8253C77.5148 55.8885 76.028 53.9765 74.79 55.1791C70.1886 59.1971 72.9009 62.8995 73.4159 67.1385C74.1402 72.034 70.7857 72.5062 67.9519 71.6828C67.8818 71.6011 68.0168 73.7431 68.2403 73.8383C68.4637 73.9335 76.3125 76.1358 75.5297 67.4532C73.7138 60.834 74.0756 58.7349 76.3436 56.8253Z" fill="#0F1012" stroke="#0F1012" stroke-width="0.215333"/>
<path class="folder-details" d="M81.2906 63.7867L82.1078 63.0857C83.1236 62.1162 84.6452 63.8919 83.5798 64.802C81.4305 66.9244 77.7636 66.9488 76.6424 66.6338L76.2097 64.31C78.1102 64.6873 78.9655 64.6981 80.0284 64.2972L76.0332 59.6388C75.9337 59.0078 76.0479 58.7488 76.7323 58.4718L81.2141 63.6976L81.2906 63.7867Z" fill="#0F1012"/>
<path class="folder-details" d="M76.7323 58.4718C76.0479 58.7488 75.9337 59.0078 76.0332 59.6388L80.0284 64.2972C78.9655 64.6981 78.1102 64.6873 76.2097 64.31L76.6424 66.6338C77.7636 66.9488 81.4305 66.9244 83.5798 64.802C84.6452 63.8919 83.1236 62.1162 82.1078 63.0857L81.2906 63.7867L81.2141 63.6976M76.7323 58.4718C76.7851 58.5334 79.7422 61.9813 81.2141 63.6976M76.7323 58.4718L81.2141 63.6976" stroke="#0F1012" stroke-width="0.215333"/>
<path class="folder-details" d="M58.1001 72.479L57.2828 73.1799C56.267 74.1494 54.7454 72.3737 55.8109 71.4636C57.9601 69.3412 61.627 69.3168 62.7482 69.6318L63.1809 71.9556C61.2804 71.5784 60.4251 71.5675 59.3622 71.9684L63.3575 76.6268C63.4569 77.2578 63.3427 77.5168 62.6583 77.7938L58.1765 72.5681L58.1001 72.479Z" fill="#0F1012"/>
<path class="folder-details" d="M62.6583 77.7938C63.3427 77.5168 63.4569 77.2578 63.3575 76.6268L59.3622 71.9684C60.4251 71.5675 61.2804 71.5784 63.1809 71.9556L62.7482 69.6318C61.627 69.3168 57.9601 69.3412 55.8109 71.4636C54.7454 72.3737 56.267 74.1494 57.2828 73.1799L58.1001 72.479L58.1765 72.5681M62.6583 77.7938C62.6055 77.7322 59.6484 74.2843 58.1765 72.5681M62.6583 77.7938L58.1765 72.5681" stroke="#0F1012" stroke-width="0.215333"/>
<path class="folder-details" d="M92.3283 61.4995C92.3283 77.0667 79.6016 89.6865 63.9024 89.6865C48.2033 89.6865 35.4766 77.0667 35.4766 61.4995C35.4766 45.9322 48.2033 33.3125 63.9024 33.3125C79.6016 33.3125 92.3283 45.9322 92.3283 61.4995ZM39.4441 61.4995C39.4441 74.8939 50.3945 85.7523 63.9024 85.7523C77.4104 85.7523 88.3607 74.8939 88.3607 61.4995C88.3607 48.1051 77.4104 37.2467 63.9024 37.2467C50.3945 37.2467 39.4441 48.1051 39.4441 61.4995Z" fill="#0F1012"/>
<path class="folder-details" d="M63.9014 48.9548C66.2855 51.8376 65.004 56.8327 61.0391 60.1116C57.0742 63.3906 51.9274 63.7118 49.5433 60.8291C47.1592 57.9463 48.4407 52.9512 52.4056 49.6722C56.3705 46.3932 61.5174 46.072 63.9014 48.9548ZM53.0582 57.9222C54.275 59.3935 56.9019 59.2296 58.9256 57.556C60.9492 55.8825 61.6033 53.333 60.3865 51.8617C59.1697 50.3904 56.5428 50.5543 54.5191 52.2279C52.4955 53.9014 51.8414 56.4509 53.0582 57.9222Z" fill="#0F1012"/>
<ellipse class="folder-details" cx="50.2914" cy="66.9336" rx="1.6417" ry="1.58586" transform="rotate(-39.591 50.2914 66.9336)" fill="#0F1012"/>
<ellipse class="folder-details" cx="71.1898" cy="50.2149" rx="1.6417" ry="1.58586" transform="rotate(-39.591 71.1898 50.2149)" fill="#0F1012"/>
</svg>
