<svg width="130" height="109" viewBox="0 0 130 109" fill="none" xmlns="http://www.w3.org/2000/svg">
  <style>
    /* Light mode - default */
    .folder-main { fill: #36AF8D; }
    .folder-details { fill: white; stroke: #36AF8D; }

    /* Dark mode */
    @media (prefers-color-scheme: dark) {
      .folder-main { fill: #36AF8D; }
      .folder-details { fill: #0f1012; stroke: #36AF8D; }
    }
  </style>
<path class="folder-main" d="M6.89287 108.762H125.385C127.684 108.762 129.773 106.881 129.773 104.373V16.8102C129.773 14.5115 127.893 12.4217 125.385 12.4217H65.4074C63.7356 12.4217 62.2727 11.5857 61.6458 10.1229L58.0931 3.01754C57.2572 1.55467 55.7943 0.71875 54.3315 0.71875H5.22102C2.92224 0.71875 0.832428 2.59957 0.832428 5.10734V102.492C0.623444 105.836 3.3402 108.762 6.89287 108.762Z" fill="#36AF8D"/>
<path class="folder-details" d="M82.0464 61.0466C82.0464 68.8302 75.7365 75.1401 67.9529 75.1401C60.1692 75.1401 53.8594 68.8302 53.8594 61.0466C53.8594 53.263 60.1692 46.9531 67.9529 46.9531C75.7365 46.9531 82.0464 53.263 82.0464 61.0466ZM58.2077 61.0466C58.2077 66.4287 62.5707 70.7918 67.9529 70.7918C73.335 70.7918 77.6981 66.4287 77.6981 61.0466C77.6981 55.6645 73.335 51.3014 67.9529 51.3014C62.5707 51.3014 58.2077 55.6645 58.2077 61.0466Z" fill="#0F1012"/>
<path class="folder-details" d="M65.8125 36.4434C65.8125 35.1242 66.882 34.0547 68.2012 34.0547C69.5205 34.0547 70.59 35.1242 70.59 36.4434V47.9093H65.8125V36.4434Z" fill="#0F1012"/>
<path class="folder-details" d="M93.0331 58.4219C94.3524 58.4219 95.4219 59.4913 95.4219 60.8106C95.4219 62.1299 94.3524 63.1993 93.0331 63.1993H81.5673V58.4219H93.0331Z" fill="#0F1012"/>
<path class="folder-details" d="M87.728 76.6755C88.6462 77.6227 88.6227 79.135 87.6755 80.0533C86.7283 80.9715 85.216 80.948 84.2977 80.0008L76.3171 71.7682L79.7473 68.4429L87.728 76.6755Z" fill="#0F1012"/>
<path class="folder-details" d="M87.728 45.7854C88.6462 44.8382 88.6227 43.3259 87.6755 42.4077C86.7283 41.4894 85.216 41.5129 84.2977 42.4602L76.3171 50.6928L79.7473 54.0181L87.728 45.7854Z" fill="#0F1012"/>
<path class="folder-details" d="M48.3501 77.1599C47.4319 78.1071 47.4554 79.6194 48.4026 80.5376C49.3499 81.4559 50.8621 81.4324 51.7804 80.4851L59.761 72.2525L56.3308 68.9273L48.3501 77.1599Z" fill="#0F1012"/>
<path class="folder-details" d="M48.3501 45.3089C47.4319 44.3616 47.4554 42.8494 48.4026 41.9311C49.3499 41.0129 50.8621 41.0364 51.7804 41.9836L59.761 50.2162L56.3308 53.5415L48.3501 45.3089Z" fill="#0F1012"/>
<path class="folder-details" d="M70.5781 86.1269C70.5781 87.4462 69.5087 88.5156 68.1894 88.5156C66.8701 88.5156 65.8007 87.4462 65.8007 86.1269V74.661H70.5781V86.1269Z" fill="#0F1012"/>
<path class="folder-details" d="M42.8731 63.2031C41.5538 63.2031 40.4844 62.1337 40.4844 60.8144C40.4844 59.4951 41.5538 58.4257 42.8731 58.4257H54.339V63.2031H42.8731Z" fill="#0F1012"/>
<circle class="folder-details" cx="72.2526" cy="61.526" r="2.6276" fill="#0F1012"/>
<circle class="folder-details" cx="65.0874" cy="57.7045" r="2.14986" fill="#0F1012"/>
<circle class="folder-details" cx="66.0471" cy="65.344" r="1.67211" fill="#0F1012"/>
</svg>
