<svg width="130" height="109" viewBox="0 0 130 109" fill="none" xmlns="http://www.w3.org/2000/svg">
  <style>
    /* Light mode - default */
    .folder-main { fill: #36AF8D; }
    .folder-details { fill: white; stroke: #36AF8D; }

    /* Dark mode */
    @media (prefers-color-scheme: dark) {
      .folder-main { fill: #36AF8D; }
      .folder-details { fill: #0f1012; stroke: #36AF8D; }
    }
  </style>
<path class="folder-main" d="M6.88506 108.84H125.377C127.676 108.84 129.766 106.959 129.766 104.451V16.8884C129.766 14.5896 127.885 12.4998 125.377 12.4998H65.3996C63.7278 12.4998 62.2649 11.6639 61.638 10.201L58.0853 3.09566C57.2494 1.6328 55.7865 0.796875 54.3236 0.796875H5.21321C2.91443 0.796875 0.824615 2.6777 0.824615 5.18547V102.57C0.615631 105.914 3.33239 108.84 6.88506 108.84Z" fill="#36AF8D"/>
<path class="folder-details" d="M64.3504 32.7928C64.294 32.0516 64.4234 31.8081 65.067 31.8373H72.7109C73.615 31.7964 73.6871 31.8555 73.6664 32.7928C73.6664 32.7928 73.4394 37.5794 73.6664 39.959C73.8934 42.3385 74.0059 42.9641 75.8163 44.7364C80.1716 49.4172 80.7562 51.0626 80.1041 53.0878C78.4284 58.8208 73.9066 58.5012 71.0233 55.7154C69.4856 54.3654 68.7256 54.3904 66.9625 55.7154C63.4354 59.2267 59.7963 57.3875 57.889 53.0878C57.0702 50.3611 58.7636 48.405 62.6664 44.7364C63.9287 43.0512 64.3504 42.0997 64.3504 39.959V32.7928Z" fill="#0F1012"/>
<path class="folder-details" d="M64.3504 32.7928C64.294 32.0516 64.4234 31.8081 65.067 31.8373H72.7109C73.615 31.7964 73.6871 31.8555 73.6664 32.7928C73.6664 32.7928 73.4394 37.5794 73.6664 39.959C73.8934 42.3385 74.0059 42.9641 75.8163 44.7364C80.1716 49.4172 80.7562 51.0626 80.1041 53.0878C78.4284 58.8208 73.9066 58.5012 71.0233 55.7154C69.4856 54.3654 68.7256 54.3904 66.9625 55.7154C63.4354 59.2267 59.7963 57.3875 57.889 53.0878C57.0702 50.3611 58.7636 48.405 62.6664 44.7364C63.9287 43.0512 64.3504 42.0997 64.3504 39.959M64.3504 32.7928C64.3504 32.7928 64.3504 37.8183 64.3504 39.959M64.3504 32.7928V39.959" stroke="#0F1012" stroke-width="0.477746"/>
<path class="folder-details" d="M64.3035 84.8791C64.2472 85.6203 64.3765 85.8638 65.0201 85.8346H72.6641C73.5681 85.8755 73.6402 85.8163 73.6196 84.8791C73.6196 84.8791 73.3926 80.0924 73.6196 77.7129C73.8466 75.3333 73.9591 74.7077 75.7694 72.9354C80.1247 68.2546 80.7093 66.6092 80.0573 64.5841C78.3815 58.8511 73.8598 59.1707 70.9764 61.9565C69.4387 63.3065 68.6787 63.2815 66.9156 61.9565C63.3885 58.4451 59.7494 60.2844 57.8421 64.5841C57.0233 67.3108 58.7168 69.2669 62.6195 72.9354C63.8819 74.6207 64.3035 75.5722 64.3035 77.7129V84.8791Z" fill="#0F1012"/>
<path class="folder-details" d="M64.3035 84.8791C64.2472 85.6203 64.3765 85.8638 65.0201 85.8346H72.6641C73.5681 85.8755 73.6402 85.8163 73.6196 84.8791C73.6196 84.8791 73.3926 80.0924 73.6196 77.7129C73.8466 75.3333 73.9591 74.7077 75.7694 72.9354C80.1247 68.2546 80.7093 66.6092 80.0573 64.5841C78.3815 58.8511 73.8598 59.1707 70.9764 61.9565C69.4387 63.3065 68.6787 63.2815 66.9156 61.9565C63.3885 58.4451 59.7494 60.2844 57.8421 64.5841C57.0233 67.3108 58.7168 69.2669 62.6195 72.9354C63.8819 74.6207 64.3035 75.5722 64.3035 77.7129M64.3035 84.8791C64.3035 84.8791 64.3035 79.8536 64.3035 77.7129M64.3035 84.8791V77.7129" stroke="#0F1012" stroke-width="0.477746"/>
</svg>
