<svg width="130" height="109" viewBox="0 0 130 109" fill="none" xmlns="http://www.w3.org/2000/svg">
  <style>
    /* Light mode - default */
    .folder-main { fill: #36AF8D; }
    .folder-details { fill: white; stroke: #36AF8D; }

    /* Dark mode */
    @media (prefers-color-scheme: dark) {
      .folder-main { fill: #36AF8D; }
      .folder-details { fill: #0f1012; stroke: #36AF8D; }
    }
  </style>
<path class="folder-main" d="M6.88506 108.84H125.377C127.676 108.84 129.766 106.959 129.766 104.451V16.8884C129.766 14.5896 127.885 12.4998 125.377 12.4998H65.3996C63.7278 12.4998 62.2649 11.6639 61.638 10.201L58.0853 3.09566C57.2494 1.6328 55.7865 0.796875 54.3236 0.796875H5.21321C2.91443 0.796875 0.824615 2.6777 0.824615 5.18547V102.57C0.615631 105.914 3.33239 108.84 6.88506 108.84Z" fill="#36AF8D"/>
<path class="folder-details" d="M46.5671 50.2918C46.4621 61.4108 45.8772 68.3964 44.5705 81.4594C44.2013 85.1995 49.3624 86.0306 50.1611 81.4594L52.167 66.0834L54.1636 81.4594C54.5629 85.615 59.3549 85.615 59.3549 81.4594C58.0944 69.245 57.5751 62.4345 57.3582 50.2918C58.4321 54.5757 58.9167 57.0989 59.3549 62.3432C60.1536 64.8367 63.0309 63.4456 63.0309 61.3677C62.9128 49.2205 57.6383 46.1253 56.1544 44.931C54.6704 43.7366 47.982 43.9755 46.5685 44.931C45.155 45.8865 40.9441 50.1492 41.0569 61.5121C41.4504 65.2522 43.3758 64.4211 44.5705 61.5121C45.095 55.9377 45.579 53.7204 46.5671 50.2918Z" fill="#0F1012"/>
<path class="folder-details" d="M47.2423 37.7454C48.041 44.3945 55.2289 44.3945 56.0276 37.7454C55.6282 29.8571 47.6416 29.8543 47.2423 37.7454Z" fill="#0F1012"/>
<path class="folder-details" d="M69.6733 63.3123C69.5971 70.1624 69.1728 74.466 68.2248 82.5138C67.9569 84.8179 71.7013 85.33 72.2807 82.5138L73.777 74.4301L75.1845 82.5138C75.4742 85.074 78.9507 85.074 78.9507 82.5138C78.0363 74.9888 77.6595 70.7931 77.5022 63.3123C78.2812 65.9515 78.6328 67.506 78.9507 70.7369C79.5301 72.273 82.1375 71.5049 82.1375 70.2248C82.0518 62.7413 81.1308 60.1576 77.5022 59.216H68.8109C65.4615 61.0392 64.3834 63.2245 64.4652 70.2248C64.7507 72.529 67.3581 72.017 68.2248 70.2248C68.6053 66.7906 68.9564 65.4246 69.6733 63.3123Z" fill="#0F1012"/>
<path class="folder-details" d="M68.2248 54.5812C68.7468 59.7595 77.6209 59.9665 78.0541 54.5817C77.7519 47.1827 68.3974 47.1797 68.2248 54.5812Z" fill="#0F1012"/>
<rect class="folder-details" x="92.1094" y="45.6875" width="2.44385" height="29.6754" rx="1.22193" fill="#0F1012"/>
<rect class="folder-details" x="94.5625" y="45.6875" width="2.44385" height="9.07717" rx="1.22193" transform="rotate(90 94.5625 45.6875)" fill="#0F1012"/>
<rect class="folder-details" x="94.5625" y="72.9062" width="2.44385" height="9.07717" rx="1.22193" transform="rotate(90 94.5625 72.9062)" fill="#0F1012"/>
<rect class="folder-details" x="94.5625" y="55.1016" width="2.44385" height="6.28419" rx="1.22193" transform="rotate(90 94.5625 55.1016)" fill="#0F1012"/>
<rect class="folder-details" x="94.5625" y="65.2344" width="2.44385" height="6.28419" rx="1.22193" transform="rotate(90 94.5625 65.2344)" fill="#0F1012"/>
</svg>
