<svg width="130" height="109" viewBox="0 0 130 109" fill="none" xmlns="http://www.w3.org/2000/svg">
  <style>
    /* Light mode - default */
    .folder-main { fill: #36AF8D; }
    .folder-details { fill: white; stroke: #36AF8D; }

    /* Dark mode */
    @media (prefers-color-scheme: dark) {
      .folder-main { fill: #36AF8D; }
      .folder-details { fill: #0f1012; stroke: #36AF8D; }
    }
  </style>
<path class="folder-main" d="M6.89287 108.941H125.385C127.684 108.941 129.773 107.061 129.773 104.553V16.9899C129.773 14.6912 127.893 12.6013 125.385 12.6013H65.4074C63.7356 12.6013 62.2727 11.7654 61.6458 10.3026L58.0931 3.19722C57.2572 1.73436 55.7943 0.898438 54.3315 0.898438H5.22102C2.92224 0.898438 0.832428 2.77926 0.832428 5.28703V102.672C0.623444 106.016 3.3402 108.941 6.89287 108.941Z" fill="#36AF8D"/>
<path class="folder-details" fill-rule="evenodd" clip-rule="evenodd" d="M79.0391 51.3414C79.0391 51.3414 68.8657 65.1996 59.9293 75.9453C50.9929 86.6909 30.6729 73.0752 38.9085 61.4479C47.1441 49.8206 58.9738 35.3369 58.9738 35.3369C69.2453 26.0166 86.4442 37.2427 79.0391 51.3414ZM66.2649 62.5648L50.9294 51.3414C50.9294 51.3414 50.2506 51.9437 43.1084 61.4479C35.9662 70.952 49.4747 82.7527 57.9044 73.0752C66.334 63.3976 66.2649 62.5648 66.2649 62.5648Z" fill="#0F1012"/>
<path class="folder-details" d="M78.4475 78.8081L91.1077 65.909C92.6226 64.3825 93.4273 63.9925 94.6908 66.1479C95.2266 67.3759 95.6507 68.4465 95.6463 70.2087C91.8243 71.4031 87.2533 77.5386 88.4801 82.869C85.2173 84.1685 83.1498 84.2669 78.6863 82.3912C76.7702 81.0033 76.9671 80.2171 78.4475 78.8081Z" fill="#0F1012"/>
<path class="folder-details" d="M76.7753 76.8971L89.4356 63.998C91.038 62.5857 91.1229 61.8496 88.719 60.8927C80.1196 57.0707 69.8584 64.5181 72.9534 76.4194C74.276 78.9133 75.1468 78.8688 76.7753 76.8971Z" fill="#0F1012"/>
<path class="folder-details" fill-rule="evenodd" clip-rule="evenodd" d="M79.0391 51.3414C79.0391 51.3414 68.8657 65.1996 59.9293 75.9453C50.9929 86.6909 30.6729 73.0752 38.9085 61.4479C47.1441 49.8206 58.9738 35.3369 58.9738 35.3369C69.2453 26.0166 86.4442 37.2427 79.0391 51.3414ZM66.2649 62.5648L50.9294 51.3414C50.9294 51.3414 50.2506 51.9437 43.1084 61.4479C35.9662 70.952 49.4747 82.7527 57.9044 73.0752C66.334 63.3976 66.2649 62.5648 66.2649 62.5648Z" stroke="#0F1012" stroke-width="0.477746"/>
<path class="folder-details" d="M78.4475 78.8081L91.1077 65.909C92.6226 64.3825 93.4273 63.9925 94.6908 66.1479C95.2266 67.3759 95.6507 68.4465 95.6463 70.2087C91.8243 71.4031 87.2533 77.5386 88.4801 82.869C85.2173 84.1685 83.1498 84.2669 78.6863 82.3912C76.7702 81.0033 76.9671 80.2171 78.4475 78.8081Z" stroke="#0F1012" stroke-width="0.477746"/>
<path class="folder-details" d="M76.7753 76.8971L89.4356 63.998C91.038 62.5857 91.1229 61.8496 88.719 60.8927C80.1196 57.0707 69.8584 64.5181 72.9534 76.4194C74.276 78.9133 75.1468 78.8688 76.7753 76.8971Z" stroke="#0F1012" stroke-width="0.477746"/>
<rect class="folder-details" x="95.1641" y="73.7266" width="3.34422" height="11.9436" rx="1.67211" fill="#0F1012"/>
<rect class="folder-details" x="90.8594" y="81.6953" width="3.34422" height="11.9436" rx="1.67211" transform="rotate(-90 90.8594 81.6953)" fill="#0F1012"/>
</svg>
