<svg width="130" height="109" viewBox="0 0 130 109" fill="none" xmlns="http://www.w3.org/2000/svg">
  <style>
    /* Light mode - default */
    .folder-main { fill: #36AF8D; }
    .folder-details { fill: white; stroke: #36AF8D; }

    /* Dark mode */
    @media (prefers-color-scheme: dark) {
      .folder-main { fill: #36AF8D; }
      .folder-details { fill: #0f1012; stroke: #36AF8D; }
    }
  </style>
<path class="folder-main" d="M6.87724 108.941H125.369C127.668 108.941 129.758 107.061 129.758 104.553V16.9899C129.758 14.6912 127.877 12.6013 125.369 12.6013H65.3918C63.72 12.6013 62.2571 11.7654 61.6301 10.3026L58.0775 3.19722C57.2416 1.73436 55.7787 0.898438 54.3158 0.898438H5.2054C2.90662 0.898438 0.816803 2.77926 0.816803 5.28703V102.672C0.607819 106.016 3.32458 108.941 6.87724 108.941Z" fill="#36AF8D"/>
<line class="folder-main" x1="59.925" y1="49.6886" x2="64.7025" y2="56.377" stroke="#0F1012" stroke-width="2.38873"/>
<line class="folder-main" x1="75.1692" y1="49.2219" x2="68.9585" y2="56.8658" stroke="#0F1012" stroke-width="2.38873"/>
<circle class="folder-main" cx="67.5563" cy="58.9782" r="3.82196" fill="#0F1012"/>
<ellipse class="folder-main" cx="57.995" cy="48.7093" rx="4.29971" ry="4.06084" fill="#0F1012"/>
<circle class="folder-main" cx="77.3409" cy="47.2706" r="3.58309" fill="#0F1012"/>
<circle class="folder-main" cx="56.8018" cy="66.3878" r="3.58309" fill="#0F1012"/>
<path class="folder-main" fill-rule="evenodd" clip-rule="evenodd" d="M50.5945 89.3295C52.0277 80.2523 52.2666 79.5357 46.7725 74.0416C33.3811 60.0396 39.6075 37.4941 59.4328 32.9555C79.4981 28.3615 97.4149 39.3871 94.5485 59.9481C98.5219 67.7257 102.618 73.305 94.3096 73.0677C93.3472 73.1033 92.9171 73.3301 93.1152 75.4564C92.863 83.3241 91.4015 86.4158 82.366 85.4891L82.3559 85.4894C79.2695 85.5973 77.5358 85.6579 77.3496 89.3111L50.5945 89.3295ZM57.5259 77.6125C58.3904 74.9228 57.359 74.3837 54.8983 73.7905C38.1718 65.9077 39.6088 41.7815 63.02 36.7652C93.5916 33.4192 98.6079 65.4422 79.4981 63.519C77.8555 68.6812 75.9575 70.7858 67.7933 70.6974C65.8206 70.5922 65.2777 71.5412 64.688 74.5193C60.1494 85.9853 56.4739 83.8221 57.5259 77.6125Z" fill="#0F1012"/>
<path class="folder-details" d="M82.366 85.4891C91.4015 86.4158 92.863 83.3241 93.1152 75.4564C92.9171 73.3301 93.3472 73.1033 94.3096 73.0677C102.618 73.305 98.5219 67.7257 94.5485 59.9481C97.4149 39.3871 79.4981 28.3615 59.4328 32.9555C39.6075 37.4941 33.3811 60.0396 46.7725 74.0416C52.2666 79.5357 52.0277 80.2523 50.5945 89.3295L77.3496 89.3111C77.5358 85.6579 79.2695 85.5973 82.3559 85.4894M82.366 85.4891L82.3559 85.4894M82.366 85.4891C82.3626 85.4892 82.3592 85.4893 82.3559 85.4894M54.8983 73.7905C57.359 74.3837 58.3904 74.9228 57.5259 77.6125C56.4739 83.8221 60.1494 85.9853 64.688 74.5193C65.2777 71.5412 65.8206 70.5922 67.7933 70.6974C75.9575 70.7858 77.8555 68.6812 79.4981 63.519C98.6079 65.4422 93.5916 33.4192 63.02 36.7652C39.6088 41.7815 38.1718 65.9077 54.8983 73.7905Z" stroke="#0F1012" stroke-width="0.477746"/>
</svg>
