<svg width="130" height="109" viewBox="0 0 130 109" fill="none" xmlns="http://www.w3.org/2000/svg">
  <style>
    /* Light mode - default */
    .folder-main { fill: #36AF8D; }
    .folder-details { fill: white; stroke: #36AF8D; }

    /* Dark mode */
    @media (prefers-color-scheme: dark) {
      .folder-main { fill: #36AF8D; }
      .folder-details { fill: #0f1012; stroke: #36AF8D; }
    }
  </style>
<path class="folder-main" d="M6.88506 108.465H125.377C127.676 108.465 129.766 106.584 129.766 104.076V16.5134C129.766 14.2146 127.885 12.1248 125.377 12.1248H65.3996C63.7278 12.1248 62.2649 11.2889 61.638 9.826L58.0853 2.72066C57.2494 1.2578 55.7865 0.421875 54.3236 0.421875H5.21321C2.91443 0.421875 0.824615 2.3027 0.824615 4.81047V102.195C0.615631 105.539 3.33239 108.465 6.88506 108.465Z" fill="#36AF8D"/>
<path class="folder-details" d="M63.9267 59.416C60.7411 59.3466 56.8845 59.0458 53.5292 58.3516C48.2611 61.8611 57.1236 65.2627 63.9267 65.5249V59.416Z" fill="#0F1012"/>
<path class="folder-details" d="M63.9183 56.3985V51.9479C60.8021 51.8862 57.0766 51.6008 53.7753 50.9375C49.9881 51.7782 48.6768 52.7733 48.4531 53.1358C48.7771 53.7451 50.5666 54.6013 53.6133 55.2878C56.1973 55.874 59.6682 56.3291 63.9183 56.3985Z" fill="#0F1012"/>
<path class="folder-details" d="M54.6292 70.8052C52.6778 70.1804 50.6955 70.9363 50.2018 72.4944C49.7004 74.0448 50.8729 75.8188 52.8166 76.4436C54.7681 77.0684 56.7504 76.3125 57.244 74.7544C57.7531 73.1886 56.5807 71.43 54.6292 70.8052Z" fill="#0F1012"/>
<path class="folder-details" d="M77.7339 76.4436C79.6776 75.8188 80.8577 74.0448 80.3487 72.4944C79.855 70.9363 77.8727 70.1804 75.9212 70.8052C73.9698 71.43 72.7974 73.1963 73.3064 74.7544C73.8001 76.3125 75.7824 77.0684 77.7339 76.4436Z" fill="#0F1012"/>
<path class="folder-details" d="M86.5045 32.8438H44.0274C40.8496 32.8438 38.2656 35.4277 38.2656 38.5979V81.0749C38.2656 84.2451 40.8496 86.829 44.0274 86.829H86.5045C89.6746 86.829 92.2586 84.2451 92.2586 81.0749V38.5979C92.2586 35.4277 89.6746 32.8438 86.5045 32.8438ZM80.4187 57.4337C81.3597 58.5907 81.6066 59.7014 81.6066 60.5576C81.6066 64.8462 75.4205 68.1474 66.9513 68.5408V69.2813C67.5992 69.6361 69.5044 70.392 72.6669 69.3507C77.9659 67.6152 83.3575 67.4764 83.5966 73.1765C83.8357 78.5758 75.3357 83.2886 70.7231 81.9928C68.2703 81.3063 67.1596 79.2006 66.6659 77.4882C65.9332 78.4987 64.3674 78.2518 64.0048 77.0794C61.4363 87.608 46.6808 79.7328 46.9662 73.1688C47.213 67.461 52.5969 67.5998 57.8959 69.343C60.6419 70.2455 62.8247 69.7981 63.92 69.4278V68.5485C50.2829 68.0626 46.7811 61.4292 50.0669 57.4106C43.8886 55.2585 44.2511 51.425 48.6786 49.3733C43.5801 47.013 42.7393 41.2975 58.3973 39.67C59.2458 39.5697 59.9708 40.1868 60.0556 41.0198C60.1482 41.8606 59.5466 42.5933 58.7058 42.6782C51.7793 43.3955 48.8328 44.969 48.4472 45.6478C49.1182 46.9436 54.3555 47.9386 54.4404 47.9695C54.6641 47.9695 57.8419 48.7948 63.92 48.9105V40.2716C63.92 39.4309 64.5911 38.7598 65.4318 38.7598C66.2571 38.7598 66.9436 39.4309 66.9436 40.2716V48.9105C76.0067 48.7023 81.4831 46.7662 82.0616 45.6478C81.6605 44.9305 78.4904 43.2721 71.0471 42.6165C70.2063 42.5316 69.597 41.8066 69.6741 40.9735C69.7435 40.1328 70.484 39.5312 71.317 39.6006C87.5843 41.0353 87.1061 46.9282 81.838 49.3887C86.2191 51.4096 86.6896 55.2431 80.4187 57.4337Z" fill="#0F1012"/>
<path class="folder-details" d="M66.9531 65.5172C74.2036 65.1547 78.5848 62.5013 78.5848 60.5576C78.5848 59.6628 77.69 58.8529 76.9881 58.3516C73.7562 59.0226 70.0616 59.3389 66.9531 59.4083V65.5172Z" fill="#0F1012"/>
<path class="folder-details" d="M66.9531 56.3829C76.0085 56.1746 81.485 54.2386 82.0712 53.1202C81.8552 52.7576 80.5362 51.7549 76.7336 50.9219C73.5557 51.5544 69.9767 51.8475 66.9531 51.9246V56.3829Z" fill="#0F1012"/>
</svg>
