<svg width="21" height="21" viewBox="0 0 21 21" fill="none" xmlns="http://www.w3.org/2000/svg">
<path d="M19.6558 12.7726C19.3839 12.7726 19.1231 12.8806 18.9308 13.0729C18.7385 13.2652 18.6305 13.5259 18.6305 13.7979V17.8992C18.6305 18.1711 18.5225 18.4319 18.3302 18.6242C18.1379 18.8164 17.8771 18.9245 17.6052 18.9245H3.25076C2.97883 18.9245 2.71803 18.8164 2.52575 18.6242C2.33346 18.4319 2.22544 18.1711 2.22544 17.8992V13.7979C2.22544 13.5259 2.11742 13.2652 1.92513 13.0729C1.73285 12.8806 1.47205 12.7726 1.20012 12.7726C0.928191 12.7726 0.667398 12.8806 0.475113 13.0729C0.282829 13.2652 0.174805 13.5259 0.174805 13.7979V17.8992C0.174805 18.7149 0.498877 19.4973 1.07573 20.0742C1.65258 20.651 2.43496 20.9751 3.25076 20.9751H17.6052C18.421 20.9751 19.2034 20.651 19.7802 20.0742C20.3571 19.4973 20.6812 18.7149 20.6812 17.8992V13.7979C20.6812 13.5259 20.5731 13.2652 20.3808 13.0729C20.1886 12.8806 19.9278 12.7726 19.6558 12.7726ZM9.70001 14.5259C9.79752 14.6192 9.9125 14.6924 10.0384 14.7412C10.1611 14.7954 10.2938 14.8234 10.428 14.8234C10.5622 14.8234 10.6949 14.7954 10.8176 14.7412C10.9435 14.6924 11.0584 14.6192 11.156 14.5259L15.2572 10.4246C15.4503 10.2315 15.5588 9.96965 15.5588 9.69661C15.5588 9.42356 15.4503 9.16171 15.2572 8.96863C15.0642 8.77556 14.8023 8.6671 14.5293 8.6671C14.2562 8.6671 13.9943 8.77556 13.8013 8.96863L11.4533 11.3269V1.49407C11.4533 1.22214 11.3453 0.961343 11.153 0.769059C10.9607 0.576774 10.6999 0.46875 10.428 0.46875C10.1561 0.46875 9.89526 0.576774 9.70297 0.769059C9.51069 0.961343 9.40266 1.22214 9.40266 1.49407V11.3269L7.05469 8.96863C6.95909 8.87303 6.84559 8.7972 6.72069 8.74546C6.59578 8.69372 6.46191 8.6671 6.32671 8.6671C6.19151 8.6671 6.05764 8.69372 5.93273 8.74546C5.80783 8.7972 5.69433 8.87303 5.59874 8.96863C5.50314 9.06423 5.4273 9.17772 5.37557 9.30263C5.32383 9.42754 5.2972 9.56141 5.2972 9.69661C5.2972 9.83181 5.32383 9.96568 5.37557 10.0906C5.4273 10.2155 5.50314 10.329 5.59874 10.4246L9.70001 14.5259Z" fill="#6A6E73"/>
</svg>
